  0
SECTION
  2
HEADER
  9
$ANGBASE
  50
0.0
  9
$ANGDIR
  70
1
  9
$MEASUREMENT
  70
1
  0
ENDSEC
  0
SECTION
  2
TABLES
  0
TABLE
  2
LTYPE
  70
4
  0
LTYPE
  5
40F
  2
CONTINUOUS
  70
0
  3
Solid line
  72
65
  73
0
  40
0.0
  0
LTYPE
  5
410
  2
DASHDOT
 70
0
  3
Dash Dot ____ _ ____ _
 72
65
 73
4
 40
2.0
 49
1.25
 49
-0.25
 49
0.25
 49
-0.25
  0
LTYPE
  5
411
  2
DASHED
 70
0
  3
Dashed __ __ __ __ __
 72
65
 73
2
 40
0.75
 49
0.5
 49
-0.25
  0
LTYPE
  5
43B
  2
DOTTED
 70
0
  3
Dotted .  .  .  .
 72
65
 73
2
 40
0.2
 49
0.0
 49
-0.2
  0
ENDTAB
  0
TABLE
  2
STYLE
  70
4
  0
STYLE
  2
KICAD
  70
0
  40
0
  41
1
  42
1
  50
0
  71
0
  3
isocp.shx
  0
STYLE
  2
KICADB
  70
0
  40
0
  41
1
  42
1
  50
0
  71
0
  3
isocp.shx
  0
STYLE
  2
KICADI
  70
0
  40
0
  41
1
  42
1
  50
15
  71
0
  3
isocp.shx
  0
STYLE
  2
KICADBI
  70
0
  40
0
  41
1
  42
1
  50
15
  71
0
  3
isocp.shx
  0
ENDTAB
  0
TABLE
  2
LAYER
  70
1
  0
LAYER
  2
BLACK
  70
0
  62
7
  6
CONTINUOUS
  0
ENDTAB
  0
ENDSEC
  0
SECTION
  2
ENTITIES
0
LINE
8
BLACK
6
CONTINUOUS
10
254.635
20
-40.64
11
240.665
21
-40.64
0
LINE
8
BLACK
6
CONTINUOUS
10
240.665
20
-40.64
11
240.665
21
-54.61
0
LINE
8
BLACK
6
CONTINUOUS
10
240.665
20
-54.61
11
254.635
21
-54.61
0
LINE
8
BLACK
6
CONTINUOUS
10
254.635
20
-54.61
11
254.635
21
-40.64
0
LINE
8
BLACK
6
CONTINUOUS
10
37.9412
20
-111.76
11
37.9412
21
-97.79
0
LINE
8
BLACK
6
CONTINUOUS
10
37.9412
20
-97.79
11
23.9712
21
-97.79
0
LINE
8
BLACK
6
CONTINUOUS
10
23.9712
20
-111.76
11
37.9412
21
-111.76
0
LINE
8
BLACK
6
CONTINUOUS
10
23.9712
20
-97.79
11
23.9712
21
-111.76
0
LINE
8
BLACK
6
CONTINUOUS
10
47.7837
20
-111.76
11
61.7537
21
-111.76
0
LINE
8
BLACK
6
CONTINUOUS
10
61.7537
20
-111.76
11
61.7537
21
-97.79
0
LINE
8
BLACK
6
CONTINUOUS
10
61.7537
20
-97.79
11
47.7837
21
-97.79
0
LINE
8
BLACK
6
CONTINUOUS
10
47.7837
20
-97.79
11
47.7837
21
-111.76
0
LINE
8
BLACK
6
CONTINUOUS
10
71.5962
20
-111.76
11
85.5662
21
-111.76
0
LINE
8
BLACK
6
CONTINUOUS
10
85.5662
20
-97.79
11
71.5962
21
-97.79
0
LINE
8
BLACK
6
CONTINUOUS
10
85.5662
20
-111.76
11
85.5662
21
-97.79
0
LINE
8
BLACK
6
CONTINUOUS
10
71.5962
20
-97.79
11
71.5962
21
-111.76
0
LINE
8
BLACK
6
CONTINUOUS
10
214.471
20
-97.79
11
214.471
21
-111.76
0
LINE
8
BLACK
6
CONTINUOUS
10
214.471
20
-111.76
11
228.441
21
-111.76
0
LINE
8
BLACK
6
CONTINUOUS
10
228.441
20
-97.79
11
214.471
21
-97.79
0
LINE
8
BLACK
6
CONTINUOUS
10
228.441
20
-111.76
11
228.441
21
-97.79
0
LINE
8
BLACK
6
CONTINUOUS
10
252.254
20
-97.79
11
238.284
21
-97.79
0
LINE
8
BLACK
6
CONTINUOUS
10
252.254
20
-111.76
11
252.254
21
-97.79
0
LINE
8
BLACK
6
CONTINUOUS
10
238.284
20
-97.79
11
238.284
21
-111.76
0
LINE
8
BLACK
6
CONTINUOUS
10
238.284
20
-111.76
11
252.254
21
-111.76
0
LINE
8
BLACK
6
CONTINUOUS
10
276.066
20
-111.76
11
276.066
21
-97.79
0
LINE
8
BLACK
6
CONTINUOUS
10
262.096
20
-111.76
11
276.066
21
-111.76
0
LINE
8
BLACK
6
CONTINUOUS
10
262.096
20
-97.79
11
262.096
21
-111.76
0
LINE
8
BLACK
6
CONTINUOUS
10
276.066
20
-97.79
11
262.096
21
-97.79
0
LINE
8
BLACK
6
CONTINUOUS
10
295.434
20
-111.76
11
309.404
21
-111.76
0
LINE
8
BLACK
6
CONTINUOUS
10
295.434
20
-97.79
11
295.434
21
-111.76
0
LINE
8
BLACK
6
CONTINUOUS
10
309.404
20
-97.79
11
295.434
21
-97.79
0
LINE
8
BLACK
6
CONTINUOUS
10
309.404
20
-111.76
11
309.404
21
-97.79
0
LINE
8
BLACK
6
CONTINUOUS
10
328.454
20
-111.76
11
328.454
21
-97.79
0
LINE
8
BLACK
6
CONTINUOUS
10
328.454
20
-97.79
11
314.484
21
-97.79
0
LINE
8
BLACK
6
CONTINUOUS
10
314.484
20
-111.76
11
328.454
21
-111.76
0
LINE
8
BLACK
6
CONTINUOUS
10
314.484
20
-97.79
11
314.484
21
-111.76
0
LINE
8
BLACK
6
CONTINUOUS
10
347.504
20
-111.76
11
347.504
21
-97.79
0
LINE
8
BLACK
6
CONTINUOUS
10
347.504
20
-97.79
11
333.534
21
-97.79
0
LINE
8
BLACK
6
CONTINUOUS
10
333.534
20
-111.76
11
347.504
21
-111.76
0
LINE
8
BLACK
6
CONTINUOUS
10
333.534
20
-97.79
11
333.534
21
-111.76
0
LINE
8
BLACK
6
CONTINUOUS
10
333.534
20
-73.66
11
347.504
21
-73.66
0
LINE
8
BLACK
6
CONTINUOUS
10
333.534
20
-59.69
11
333.534
21
-73.66
0
LINE
8
BLACK
6
CONTINUOUS
10
347.504
20
-73.66
11
347.504
21
-59.69
0
LINE
8
BLACK
6
CONTINUOUS
10
347.504
20
-59.69
11
333.534
21
-59.69
0
LINE
8
BLACK
6
CONTINUOUS
10
328.454
20
-78.74
11
314.484
21
-78.74
0
LINE
8
BLACK
6
CONTINUOUS
10
314.484
20
-78.74
11
314.484
21
-92.71
0
LINE
8
BLACK
6
CONTINUOUS
10
314.484
20
-92.71
11
328.454
21
-92.71
0
LINE
8
BLACK
6
CONTINUOUS
10
328.454
20
-92.71
11
328.454
21
-78.74
0
LINE
8
BLACK
6
CONTINUOUS
10
295.116
20
-92.71
11
295.116
21
-78.74
0
LINE
8
BLACK
6
CONTINUOUS
10
295.116
20
-78.74
11
281.146
21
-78.74
0
LINE
8
BLACK
6
CONTINUOUS
10
281.146
20
-78.74
11
281.146
21
-92.71
0
LINE
8
BLACK
6
CONTINUOUS
10
281.146
20
-92.71
11
295.116
21
-92.71
0
LINE
8
BLACK
6
CONTINUOUS
10
268.923
20
-92.71
11
268.923
21
-78.74
0
LINE
8
BLACK
6
CONTINUOUS
10
254.952
20
-78.74
11
254.952
21
-92.71
0
LINE
8
BLACK
6
CONTINUOUS
10
268.923
20
-78.74
11
254.952
21
-78.74
0
LINE
8
BLACK
6
CONTINUOUS
10
254.952
20
-92.71
11
268.923
21
-92.71
0
LINE
8
BLACK
6
CONTINUOUS
10
249.873
20
-78.74
11
235.903
21
-78.74
0
LINE
8
BLACK
6
CONTINUOUS
10
235.903
20
-92.71
11
249.873
21
-92.71
0
LINE
8
BLACK
6
CONTINUOUS
10
249.873
20
-92.71
11
249.873
21
-78.74
0
LINE
8
BLACK
6
CONTINUOUS
10
235.903
20
-78.74
11
235.903
21
-92.71
0
LINE
8
BLACK
6
CONTINUOUS
10
230.822
20
-92.71
11
230.822
21
-78.74
0
LINE
8
BLACK
6
CONTINUOUS
10
216.852
20
-78.74
11
216.852
21
-92.71
0
LINE
8
BLACK
6
CONTINUOUS
10
230.822
20
-78.74
11
216.852
21
-78.74
0
LINE
8
BLACK
6
CONTINUOUS
10
216.852
20
-92.71
11
230.822
21
-92.71
0
LINE
8
BLACK
6
CONTINUOUS
10
197.802
20
-78.74
11
197.802
21
-92.71
0
LINE
8
BLACK
6
CONTINUOUS
10
211.772
20
-78.74
11
197.802
21
-78.74
0
LINE
8
BLACK
6
CONTINUOUS
10
211.772
20
-92.71
11
211.772
21
-78.74
0
LINE
8
BLACK
6
CONTINUOUS
10
197.802
20
-92.71
11
211.772
21
-92.71
0
LINE
8
BLACK
6
CONTINUOUS
10
192.722
20
-78.74
11
178.752
21
-78.74
0
LINE
8
BLACK
6
CONTINUOUS
10
192.722
20
-92.71
11
192.722
21
-78.74
0
LINE
8
BLACK
6
CONTINUOUS
10
178.752
20
-78.74
11
178.752
21
-92.71
0
LINE
8
BLACK
6
CONTINUOUS
10
178.752
20
-92.71
11
192.722
21
-92.71
0
LINE
8
BLACK
6
CONTINUOUS
10
159.702
20
-92.71
11
173.672
21
-92.71
0
LINE
8
BLACK
6
CONTINUOUS
10
173.672
20
-92.71
11
173.672
21
-78.74
0
LINE
8
BLACK
6
CONTINUOUS
10
159.702
20
-78.74
11
159.702
21
-92.71
0
LINE
8
BLACK
6
CONTINUOUS
10
173.672
20
-78.74
11
159.702
21
-78.74
0
LINE
8
BLACK
6
CONTINUOUS
10
140.653
20
-92.71
11
154.623
21
-92.71
0
LINE
8
BLACK
6
CONTINUOUS
10
140.653
20
-78.74
11
140.653
21
-92.71
0
LINE
8
BLACK
6
CONTINUOUS
10
154.623
20
-78.74
11
140.653
21
-78.74
0
LINE
8
BLACK
6
CONTINUOUS
10
154.623
20
-92.71
11
154.623
21
-78.74
0
LINE
8
BLACK
6
CONTINUOUS
10
121.602
20
-92.71
11
135.572
21
-92.71
0
LINE
8
BLACK
6
CONTINUOUS
10
135.572
20
-78.74
11
121.602
21
-78.74
0
LINE
8
BLACK
6
CONTINUOUS
10
135.572
20
-92.71
11
135.572
21
-78.74
0
LINE
8
BLACK
6
CONTINUOUS
10
121.602
20
-78.74
11
121.602
21
-92.71
0
LINE
8
BLACK
6
CONTINUOUS
10
102.552
20
-78.74
11
102.552
21
-92.71
0
LINE
8
BLACK
6
CONTINUOUS
10
116.522
20
-78.74
11
102.552
21
-78.74
0
LINE
8
BLACK
6
CONTINUOUS
10
116.522
20
-92.71
11
116.522
21
-78.74
0
LINE
8
BLACK
6
CONTINUOUS
10
102.552
20
-92.71
11
116.522
21
-92.71
0
LINE
8
BLACK
6
CONTINUOUS
10
97.4725
20
-78.74
11
83.5025
21
-78.74
0
LINE
8
BLACK
6
CONTINUOUS
10
97.4725
20
-92.71
11
97.4725
21
-78.74
0
LINE
8
BLACK
6
CONTINUOUS
10
83.5025
20
-92.71
11
97.4725
21
-92.71
0
LINE
8
BLACK
6
CONTINUOUS
10
83.5025
20
-78.74
11
83.5025
21
-92.71
0
LINE
8
BLACK
6
CONTINUOUS
10
78.4225
20
-92.71
11
78.4225
21
-78.74
0
LINE
8
BLACK
6
CONTINUOUS
10
64.4525
20
-78.74
11
64.4525
21
-92.71
0
LINE
8
BLACK
6
CONTINUOUS
10
78.4225
20
-78.74
11
64.4525
21
-78.74
0
LINE
8
BLACK
6
CONTINUOUS
10
64.4525
20
-92.71
11
78.4225
21
-92.71
0
LINE
8
BLACK
6
CONTINUOUS
10
42.7037
20
-59.69
11
28.7337
21
-59.69
0
LINE
8
BLACK
6
CONTINUOUS
10
28.7337
20
-73.66
11
42.7037
21
-73.66
0
LINE
8
BLACK
6
CONTINUOUS
10
28.7337
20
-59.69
11
28.7337
21
-73.66
0
LINE
8
BLACK
6
CONTINUOUS
10
42.7037
20
-73.66
11
42.7037
21
-59.69
0
LINE
8
BLACK
6
CONTINUOUS
10
54.9275
20
-59.69
11
54.9275
21
-73.66
0
LINE
8
BLACK
6
CONTINUOUS
10
68.8975
20
-73.66
11
68.8975
21
-59.69
0
LINE
8
BLACK
6
CONTINUOUS
10
68.8975
20
-59.69
11
54.9275
21
-59.69
0
LINE
8
BLACK
6
CONTINUOUS
10
54.9275
20
-73.66
11
68.8975
21
-73.66
0
LINE
8
BLACK
6
CONTINUOUS
10
73.9775
20
-73.66
11
87.9475
21
-73.66
0
LINE
8
BLACK
6
CONTINUOUS
10
73.9775
20
-59.69
11
73.9775
21
-73.66
0
LINE
8
BLACK
6
CONTINUOUS
10
87.9475
20
-73.66
11
87.9475
21
-59.69
0
LINE
8
BLACK
6
CONTINUOUS
10
87.9475
20
-59.69
11
73.9775
21
-59.69
0
LINE
8
BLACK
6
CONTINUOUS
10
93.0275
20
-73.66
11
106.997
21
-73.66
0
LINE
8
BLACK
6
CONTINUOUS
10
93.0275
20
-59.69
11
93.0275
21
-73.66
0
LINE
8
BLACK
6
CONTINUOUS
10
106.997
20
-73.66
11
106.997
21
-59.69
0
LINE
8
BLACK
6
CONTINUOUS
10
106.997
20
-59.69
11
93.0275
21
-59.69
0
LINE
8
BLACK
6
CONTINUOUS
10
126.047
20
-73.66
11
126.047
21
-59.69
0
LINE
8
BLACK
6
CONTINUOUS
10
112.078
20
-73.66
11
126.047
21
-73.66
0
LINE
8
BLACK
6
CONTINUOUS
10
112.078
20
-59.69
11
112.078
21
-73.66
0
LINE
8
BLACK
6
CONTINUOUS
10
126.047
20
-59.69
11
112.078
21
-59.69
0
LINE
8
BLACK
6
CONTINUOUS
10
131.127
20
-73.66
11
145.097
21
-73.66
0
LINE
8
BLACK
6
CONTINUOUS
10
131.127
20
-59.69
11
131.127
21
-73.66
0
LINE
8
BLACK
6
CONTINUOUS
10
145.097
20
-73.66
11
145.097
21
-59.69
0
LINE
8
BLACK
6
CONTINUOUS
10
145.097
20
-59.69
11
131.127
21
-59.69
0
LINE
8
BLACK
6
CONTINUOUS
10
150.177
20
-59.69
11
150.177
21
-73.66
0
LINE
8
BLACK
6
CONTINUOUS
10
164.147
20
-73.66
11
164.147
21
-59.69
0
LINE
8
BLACK
6
CONTINUOUS
10
164.147
20
-59.69
11
150.177
21
-59.69
0
LINE
8
BLACK
6
CONTINUOUS
10
150.177
20
-73.66
11
164.147
21
-73.66
0
LINE
8
BLACK
6
CONTINUOUS
10
169.227
20
-73.66
11
183.197
21
-73.66
0
LINE
8
BLACK
6
CONTINUOUS
10
183.197
20
-59.69
11
169.227
21
-59.69
0
LINE
8
BLACK
6
CONTINUOUS
10
169.227
20
-59.69
11
169.227
21
-73.66
0
LINE
8
BLACK
6
CONTINUOUS
10
183.197
20
-73.66
11
183.197
21
-59.69
0
LINE
8
BLACK
6
CONTINUOUS
10
188.278
20
-59.69
11
188.278
21
-73.66
0
LINE
8
BLACK
6
CONTINUOUS
10
188.278
20
-73.66
11
202.248
21
-73.66
0
LINE
8
BLACK
6
CONTINUOUS
10
202.248
20
-59.69
11
188.278
21
-59.69
0
LINE
8
BLACK
6
CONTINUOUS
10
202.248
20
-73.66
11
202.248
21
-59.69
0
LINE
8
BLACK
6
CONTINUOUS
10
221.297
20
-73.66
11
221.297
21
-59.69
0
LINE
8
BLACK
6
CONTINUOUS
10
221.297
20
-59.69
11
207.327
21
-59.69
0
LINE
8
BLACK
6
CONTINUOUS
10
207.327
20
-73.66
11
221.297
21
-73.66
0
LINE
8
BLACK
6
CONTINUOUS
10
207.327
20
-59.69
11
207.327
21
-73.66
0
LINE
8
BLACK
6
CONTINUOUS
10
240.347
20
-73.66
11
240.347
21
-59.69
0
LINE
8
BLACK
6
CONTINUOUS
10
240.347
20
-59.69
11
226.377
21
-59.69
0
LINE
8
BLACK
6
CONTINUOUS
10
226.377
20
-73.66
11
240.347
21
-73.66
0
LINE
8
BLACK
6
CONTINUOUS
10
226.377
20
-59.69
11
226.377
21
-73.66
0
LINE
8
BLACK
6
CONTINUOUS
10
259.397
20
-73.66
11
259.397
21
-59.69
0
LINE
8
BLACK
6
CONTINUOUS
10
245.427
20
-73.66
11
259.397
21
-73.66
0
LINE
8
BLACK
6
CONTINUOUS
10
259.397
20
-59.69
11
245.427
21
-59.69
0
LINE
8
BLACK
6
CONTINUOUS
10
245.427
20
-59.69
11
245.427
21
-73.66
0
LINE
8
BLACK
6
CONTINUOUS
10
278.447
20
-59.69
11
264.477
21
-59.69
0
LINE
8
BLACK
6
CONTINUOUS
10
264.477
20
-59.69
11
264.477
21
-73.66
0
LINE
8
BLACK
6
CONTINUOUS
10
278.447
20
-73.66
11
278.447
21
-59.69
0
LINE
8
BLACK
6
CONTINUOUS
10
264.477
20
-73.66
11
278.447
21
-73.66
0
LINE
8
BLACK
6
CONTINUOUS
10
273.685
20
-54.61
11
273.685
21
-40.64
0
LINE
8
BLACK
6
CONTINUOUS
10
259.715
20
-54.61
11
273.685
21
-54.61
0
LINE
8
BLACK
6
CONTINUOUS
10
273.685
20
-40.64
11
259.715
21
-40.64
0
LINE
8
BLACK
6
CONTINUOUS
10
259.715
20
-40.64
11
259.715
21
-54.61
0
LINE
8
BLACK
6
CONTINUOUS
10
235.585
20
-40.64
11
221.615
21
-40.64
0
LINE
8
BLACK
6
CONTINUOUS
10
235.585
20
-54.61
11
235.585
21
-40.64
0
LINE
8
BLACK
6
CONTINUOUS
10
221.615
20
-40.64
11
221.615
21
-54.61
0
LINE
8
BLACK
6
CONTINUOUS
10
221.615
20
-54.61
11
235.585
21
-54.61
0
LINE
8
BLACK
6
CONTINUOUS
10
216.535
20
-54.61
11
216.535
21
-40.64
0
LINE
8
BLACK
6
CONTINUOUS
10
202.565
20
-54.61
11
216.535
21
-54.61
0
LINE
8
BLACK
6
CONTINUOUS
10
202.565
20
-40.64
11
202.565
21
-54.61
0
LINE
8
BLACK
6
CONTINUOUS
10
216.535
20
-40.64
11
202.565
21
-40.64
0
LINE
8
BLACK
6
CONTINUOUS
10
183.515
20
-54.61
11
197.485
21
-54.61
0
LINE
8
BLACK
6
CONTINUOUS
10
197.485
20
-40.64
11
183.515
21
-40.64
0
LINE
8
BLACK
6
CONTINUOUS
10
197.485
20
-54.61
11
197.485
21
-40.64
0
LINE
8
BLACK
6
CONTINUOUS
10
183.515
20
-40.64
11
183.515
21
-54.61
0
LINE
8
BLACK
6
CONTINUOUS
10
164.465
20
-40.64
11
164.465
21
-54.61
0
LINE
8
BLACK
6
CONTINUOUS
10
178.435
20
-54.61
11
178.435
21
-40.64
0
LINE
8
BLACK
6
CONTINUOUS
10
178.435
20
-40.64
11
164.465
21
-40.64
0
LINE
8
BLACK
6
CONTINUOUS
10
164.465
20
-54.61
11
178.435
21
-54.61
0
LINE
8
BLACK
6
CONTINUOUS
10
159.385
20
-54.61
11
159.385
21
-40.64
0
LINE
8
BLACK
6
CONTINUOUS
10
159.385
20
-40.64
11
145.415
21
-40.64
0
LINE
8
BLACK
6
CONTINUOUS
10
145.415
20
-54.61
11
159.385
21
-54.61
0
LINE
8
BLACK
6
CONTINUOUS
10
145.415
20
-40.64
11
145.415
21
-54.61
0
LINE
8
BLACK
6
CONTINUOUS
10
126.365
20
-54.61
11
140.335
21
-54.61
0
LINE
8
BLACK
6
CONTINUOUS
10
140.335
20
-54.61
11
140.335
21
-40.64
0
LINE
8
BLACK
6
CONTINUOUS
10
140.335
20
-40.64
11
126.365
21
-40.64
0
LINE
8
BLACK
6
CONTINUOUS
10
126.365
20
-40.64
11
126.365
21
-54.61
0
LINE
8
BLACK
6
CONTINUOUS
10
107.315
20
-40.64
11
107.315
21
-54.61
0
LINE
8
BLACK
6
CONTINUOUS
10
107.315
20
-54.61
11
121.285
21
-54.61
0
LINE
8
BLACK
6
CONTINUOUS
10
121.285
20
-54.61
11
121.285
21
-40.64
0
LINE
8
BLACK
6
CONTINUOUS
10
121.285
20
-40.64
11
107.315
21
-40.64
0
LINE
8
BLACK
6
CONTINUOUS
10
88.265
20
-54.61
11
102.235
21
-54.61
0
LINE
8
BLACK
6
CONTINUOUS
10
102.235
20
-40.64
11
88.265
21
-40.64
0
LINE
8
BLACK
6
CONTINUOUS
10
88.265
20
-40.64
11
88.265
21
-54.61
0
LINE
8
BLACK
6
CONTINUOUS
10
102.235
20
-54.61
11
102.235
21
-40.64
0
LINE
8
BLACK
6
CONTINUOUS
10
69.215
20
-40.64
11
69.215
21
-54.61
0
LINE
8
BLACK
6
CONTINUOUS
10
83.185
20
-54.61
11
83.185
21
-40.64
0
LINE
8
BLACK
6
CONTINUOUS
10
83.185
20
-40.64
11
69.215
21
-40.64
0
LINE
8
BLACK
6
CONTINUOUS
10
69.215
20
-54.61
11
83.185
21
-54.61
0
LINE
8
BLACK
6
CONTINUOUS
10
50.165
20
-40.64
11
50.165
21
-54.61
0
LINE
8
BLACK
6
CONTINUOUS
10
64.135
20
-54.61
11
64.135
21
-40.64
0
LINE
8
BLACK
6
CONTINUOUS
10
64.135
20
-40.64
11
50.165
21
-40.64
0
LINE
8
BLACK
6
CONTINUOUS
10
50.165
20
-54.61
11
64.135
21
-54.61
0
LINE
8
BLACK
6
CONTINUOUS
10
40.3225
20
-40.64
11
26.3525
21
-40.64
0
LINE
8
BLACK
6
CONTINUOUS
10
40.3225
20
-54.61
11
40.3225
21
-40.64
0
LINE
8
BLACK
6
CONTINUOUS
10
26.3525
20
-40.64
11
26.3525
21
-54.61
0
LINE
8
BLACK
6
CONTINUOUS
10
26.3525
20
-54.61
11
40.3225
21
-54.61
0
LINE
8
BLACK
6
CONTINUOUS
10
288.29
20
-21.59
11
288.29
21
-35.56
0
LINE
8
BLACK
6
CONTINUOUS
10
302.26
20
-21.59
11
288.29
21
-21.59
0
LINE
8
BLACK
6
CONTINUOUS
10
288.29
20
-35.56
11
302.26
21
-35.56
0
LINE
8
BLACK
6
CONTINUOUS
10
302.26
20
-35.56
11
302.26
21
-21.59
0
LINE
8
BLACK
6
CONTINUOUS
10
269.24
20
-35.56
11
283.21
21
-35.56
0
LINE
8
BLACK
6
CONTINUOUS
10
269.24
20
-21.59
11
269.24
21
-35.56
0
LINE
8
BLACK
6
CONTINUOUS
10
283.21
20
-35.56
11
283.21
21
-21.59
0
LINE
8
BLACK
6
CONTINUOUS
10
283.21
20
-21.59
11
269.24
21
-21.59
0
LINE
8
BLACK
6
CONTINUOUS
10
264.16
20
-35.56
11
264.16
21
-21.59
0
LINE
8
BLACK
6
CONTINUOUS
10
250.19
20
-35.56
11
264.16
21
-35.56
0
LINE
8
BLACK
6
CONTINUOUS
10
250.19
20
-21.59
11
250.19
21
-35.56
0
LINE
8
BLACK
6
CONTINUOUS
10
264.16
20
-21.59
11
250.19
21
-21.59
0
LINE
8
BLACK
6
CONTINUOUS
10
231.14
20
-21.59
11
231.14
21
-35.56
0
LINE
8
BLACK
6
CONTINUOUS
10
245.11
20
-35.56
11
245.11
21
-21.59
0
LINE
8
BLACK
6
CONTINUOUS
10
245.11
20
-21.59
11
231.14
21
-21.59
0
LINE
8
BLACK
6
CONTINUOUS
10
231.14
20
-35.56
11
245.11
21
-35.56
0
LINE
8
BLACK
6
CONTINUOUS
10
226.06
20
-21.59
11
212.09
21
-21.59
0
LINE
8
BLACK
6
CONTINUOUS
10
226.06
20
-35.56
11
226.06
21
-21.59
0
LINE
8
BLACK
6
CONTINUOUS
10
212.09
20
-21.59
11
212.09
21
-35.56
0
LINE
8
BLACK
6
CONTINUOUS
10
212.09
20
-35.56
11
226.06
21
-35.56
0
LINE
8
BLACK
6
CONTINUOUS
10
207.01
20
-21.59
11
193.04
21
-21.59
0
LINE
8
BLACK
6
CONTINUOUS
10
193.04
20
-35.56
11
207.01
21
-35.56
0
LINE
8
BLACK
6
CONTINUOUS
10
207.01
20
-35.56
11
207.01
21
-21.59
0
LINE
8
BLACK
6
CONTINUOUS
10
193.04
20
-21.59
11
193.04
21
-35.56
0
LINE
8
BLACK
6
CONTINUOUS
10
187.96
20
-21.59
11
173.99
21
-21.59
0
LINE
8
BLACK
6
CONTINUOUS
10
173.99
20
-35.56
11
187.96
21
-35.56
0
LINE
8
BLACK
6
CONTINUOUS
10
187.96
20
-35.56
11
187.96
21
-21.59
0
LINE
8
BLACK
6
CONTINUOUS
10
173.99
20
-21.59
11
173.99
21
-35.56
0
LINE
8
BLACK
6
CONTINUOUS
10
154.94
20
-35.56
11
168.91
21
-35.56
0
LINE
8
BLACK
6
CONTINUOUS
10
168.91
20
-21.59
11
154.94
21
-21.59
0
LINE
8
BLACK
6
CONTINUOUS
10
154.94
20
-21.59
11
154.94
21
-35.56
0
LINE
8
BLACK
6
CONTINUOUS
10
168.91
20
-35.56
11
168.91
21
-21.59
0
LINE
8
BLACK
6
CONTINUOUS
10
135.89
20
-21.59
11
135.89
21
-35.56
0
LINE
8
BLACK
6
CONTINUOUS
10
135.89
20
-35.56
11
149.86
21
-35.56
0
LINE
8
BLACK
6
CONTINUOUS
10
149.86
20
-35.56
11
149.86
21
-21.59
0
LINE
8
BLACK
6
CONTINUOUS
10
149.86
20
-21.59
11
135.89
21
-21.59
0
LINE
8
BLACK
6
CONTINUOUS
10
116.84
20
-21.59
11
116.84
21
-35.56
0
LINE
8
BLACK
6
CONTINUOUS
10
130.81
20
-35.56
11
130.81
21
-21.59
0
LINE
8
BLACK
6
CONTINUOUS
10
130.81
20
-21.59
11
116.84
21
-21.59
0
LINE
8
BLACK
6
CONTINUOUS
10
116.84
20
-35.56
11
130.81
21
-35.56
0
LINE
8
BLACK
6
CONTINUOUS
10
97.79
20
-21.59
11
97.79
21
-35.56
0
LINE
8
BLACK
6
CONTINUOUS
10
111.76
20
-21.59
11
97.79
21
-21.59
0
LINE
8
BLACK
6
CONTINUOUS
10
111.76
20
-35.56
11
111.76
21
-21.59
0
LINE
8
BLACK
6
CONTINUOUS
10
97.79
20
-35.56
11
111.76
21
-35.56
0
LINE
8
BLACK
6
CONTINUOUS
10
92.71
20
-21.59
11
78.74
21
-21.59
0
LINE
8
BLACK
6
CONTINUOUS
10
78.74
20
-21.59
11
78.74
21
-35.56
0
LINE
8
BLACK
6
CONTINUOUS
10
78.74
20
-35.56
11
92.71
21
-35.56
0
LINE
8
BLACK
6
CONTINUOUS
10
92.71
20
-35.56
11
92.71
21
-21.59
0
LINE
8
BLACK
6
CONTINUOUS
10
73.66
20
-35.56
11
73.66
21
-21.59
0
LINE
8
BLACK
6
CONTINUOUS
10
59.69
20
-21.59
11
59.69
21
-35.56
0
LINE
8
BLACK
6
CONTINUOUS
10
73.66
20
-21.59
11
59.69
21
-21.59
0
LINE
8
BLACK
6
CONTINUOUS
10
59.69
20
-35.56
11
73.66
21
-35.56
0
LINE
8
BLACK
6
CONTINUOUS
10
54.61
20
-21.59
11
40.64
21
-21.59
0
LINE
8
BLACK
6
CONTINUOUS
10
54.61
20
-35.56
11
54.61
21
-21.59
0
LINE
8
BLACK
6
CONTINUOUS
10
40.64
20
-21.59
11
40.64
21
-35.56
0
LINE
8
BLACK
6
CONTINUOUS
10
40.64
20
-35.56
11
54.61
21
-35.56
0
LINE
8
BLACK
6
CONTINUOUS
10
35.56
20
-21.59
11
21.59
21
-21.59
0
LINE
8
BLACK
6
CONTINUOUS
10
35.56
20
-35.56
11
35.56
21
-21.59
0
LINE
8
BLACK
6
CONTINUOUS
10
21.59
20
-35.56
11
35.56
21
-35.56
0
LINE
8
BLACK
6
CONTINUOUS
10
21.59
20
-21.59
11
21.59
21
-35.56
0
LINE
8
BLACK
6
CONTINUOUS
10
14.275
20
-20.25
11
14.275
21
-113.05
0
ARC
8
BLACK
10
17.275
20
-113.05
40
3
50
180
51
270
0
ARC
8
BLACK
10
17.275
20
-20.25
40
3
50
90
51
180
0
ARC
8
BLACK
10
351.806
20
-20.25
40
3
50
-0
51
90
0
ARC
8
BLACK
10
351.806
20
-113.05
40
3
50
-90
51
-0
0
LINE
8
BLACK
6
CONTINUOUS
10
354.806
20
-113.05
11
354.806
21
-20.25
0
LINE
8
BLACK
6
CONTINUOUS
10
17.275
20
-116.05
11
351.806
21
-116.05
0
LINE
8
BLACK
6
CONTINUOUS
10
351.806
20
-17.25
11
17.275
21
-17.25
0
CIRCLE
8
BLACK
10
352.425
20
-66.65
40
1.1
0
CIRCLE
8
BLACK
10
352.425
20
-21.4312
40
1.1
0
CIRCLE
8
BLACK
10
352.425
20
-111.919
40
1.1
0
LINE
8
BLACK
6
CONTINUOUS
10
286.894
20
-72.55
11
286.894
21
-65.55
0
LINE
8
BLACK
6
CONTINUOUS
10
301.694
20
-72.55
11
286.894
21
-72.55
0
LINE
8
BLACK
6
CONTINUOUS
10
301.694
20
-65.55
11
301.694
21
-72.55
0
LINE
8
BLACK
6
CONTINUOUS
10
286.894
20
-65.55
11
301.694
21
-65.55
0
LINE
8
BLACK
6
CONTINUOUS
10
286.894
20
-41.75
11
286.894
21
-48.75
0
LINE
8
BLACK
6
CONTINUOUS
10
301.694
20
-41.75
11
286.894
21
-41.75
0
LINE
8
BLACK
6
CONTINUOUS
10
301.694
20
-48.75
11
301.694
21
-41.75
0
LINE
8
BLACK
6
CONTINUOUS
10
286.894
20
-48.75
11
301.694
21
-48.75
0
LINE
8
BLACK
6
CONTINUOUS
10
285.844
20
-64.2
11
285.844
21
-50.1
0
LINE
8
BLACK
6
CONTINUOUS
10
285.844
20
-50.1
11
299.944
21
-50.1
0
LINE
8
BLACK
6
CONTINUOUS
10
299.944
20
-50.1
11
299.944
21
-64.2
0
LINE
8
BLACK
6
CONTINUOUS
10
299.944
20
-64.2
11
285.844
21
-64.2
0
CIRCLE
8
BLACK
10
111.919
20
-111.919
40
1.1
0
LINE
8
BLACK
6
CONTINUOUS
10
157.069
20
-97.725
11
157.069
21
-111.825
0
LINE
8
BLACK
6
CONTINUOUS
10
142.969
20
-97.725
11
157.069
21
-97.725
0
LINE
8
BLACK
6
CONTINUOUS
10
142.969
20
-111.825
11
142.969
21
-97.725
0
LINE
8
BLACK
6
CONTINUOUS
10
157.069
20
-111.825
11
142.969
21
-111.825
0
LINE
8
BLACK
6
CONTINUOUS
10
103.509
20
-110.775
11
103.509
21
-95.975
0
LINE
8
BLACK
6
CONTINUOUS
10
103.509
20
-95.975
11
96.5087
21
-95.975
0
LINE
8
BLACK
6
CONTINUOUS
10
96.5087
20
-95.975
11
96.5087
21
-110.775
0
LINE
8
BLACK
6
CONTINUOUS
10
96.5087
20
-110.775
11
103.509
21
-110.775
0
LINE
8
BLACK
6
CONTINUOUS
10
196.529
20
-110.775
11
196.529
21
-95.975
0
LINE
8
BLACK
6
CONTINUOUS
10
196.529
20
-95.975
11
203.529
21
-95.975
0
LINE
8
BLACK
6
CONTINUOUS
10
203.529
20
-95.975
11
203.529
21
-110.775
0
LINE
8
BLACK
6
CONTINUOUS
10
203.529
20
-110.775
11
196.529
21
-110.775
0
LINE
8
BLACK
6
CONTINUOUS
10
47.5312
20
-78.675
11
47.5312
21
-92.775
0
LINE
8
BLACK
6
CONTINUOUS
10
33.4312
20
-78.675
11
47.5312
21
-78.675
0
LINE
8
BLACK
6
CONTINUOUS
10
33.4312
20
-92.775
11
33.4312
21
-78.675
0
LINE
8
BLACK
6
CONTINUOUS
10
47.5312
20
-92.775
11
33.4312
21
-92.775
0
LINE
8
BLACK
6
CONTINUOUS
10
32.0812
20
-91.725
11
32.0812
21
-76.925
0
LINE
8
BLACK
6
CONTINUOUS
10
32.0812
20
-76.925
11
25.0812
21
-76.925
0
LINE
8
BLACK
6
CONTINUOUS
10
25.0812
20
-76.925
11
25.0812
21
-91.725
0
LINE
8
BLACK
6
CONTINUOUS
10
25.0812
20
-91.725
11
32.0812
21
-91.725
0
LINE
8
BLACK
6
CONTINUOUS
10
48.8812
20
-91.725
11
48.8812
21
-76.925
0
LINE
8
BLACK
6
CONTINUOUS
10
48.8812
20
-76.925
11
55.8812
21
-76.925
0
LINE
8
BLACK
6
CONTINUOUS
10
55.8812
20
-76.925
11
55.8812
21
-91.725
0
LINE
8
BLACK
6
CONTINUOUS
10
55.8812
20
-91.725
11
48.8812
21
-91.725
0
CIRCLE
8
BLACK
10
111.919
20
-19.05
40
1.1
0
CIRCLE
8
BLACK
10
209.55
20
-111.919
40
1.1
0
CIRCLE
8
BLACK
10
209.55
20
-19.05
40
1.1
0
CIRCLE
8
BLACK
10
16.075
20
-111.75
40
1.1
0
CIRCLE
8
BLACK
10
16.075
20
-66.65
40
1.1
0
CIRCLE
8
BLACK
10
16.075
20
-21.55
40
1.1
  0
ENDSEC
  0
EOF
