G04 #@! TF.GenerationSoftware,KiCad,Pcbnew,(5.1.12)-1*
G04 #@! TF.CreationDate,2022-12-17T21:00:29+09:00*
G04 #@! TF.ProjectId,jtnk67,6a746e6b-3637-42e6-9b69-6361645f7063,rev?*
G04 #@! TF.SameCoordinates,Original*
G04 #@! TF.FileFunction,Profile,NP*
%FSLAX46Y46*%
G04 Gerber Fmt 4.6, Leading zero omitted, Abs format (unit mm)*
G04 Created by KiCad (PCBNEW (5.1.12)-1) date 2022-12-17 21:00:29*
%MOMM*%
%LPD*%
G01*
G04 APERTURE LIST*
G04 #@! TA.AperFunction,Profile*
%ADD10C,0.100000*%
G04 #@! TD*
G04 #@! TA.AperFunction,Profile*
%ADD11C,0.010000*%
G04 #@! TD*
G04 #@! TA.AperFunction,Profile*
%ADD12C,0.120000*%
G04 #@! TD*
G04 APERTURE END LIST*
D10*
X14275000Y-20250000D02*
X14275000Y-113050000D01*
X17275000Y-116050000D02*
G75*
G02*
X14275000Y-113050000I0J3000000D01*
G01*
X14275000Y-20250000D02*
G75*
G02*
X17275000Y-17250000I3000000J0D01*
G01*
X351806250Y-17250000D02*
G75*
G02*
X354806250Y-20250000I0J-3000000D01*
G01*
X354806250Y-113050000D02*
G75*
G02*
X351806250Y-116050000I-3000000J0D01*
G01*
X354806250Y-113050000D02*
X354806250Y-20250000D01*
X17275000Y-116050000D02*
X351806250Y-116050000D01*
X351806250Y-17250000D02*
X17275000Y-17250000D01*
D11*
X113019000Y-19050000D02*
G75*
G03*
X113019000Y-19050000I-1100000J0D01*
G01*
X113019000Y-111919000D02*
G75*
G03*
X113019000Y-111919000I-1100000J0D01*
G01*
X210650000Y-111919000D02*
G75*
G03*
X210650000Y-111919000I-1100000J0D01*
G01*
X210650000Y-19050000D02*
G75*
G03*
X210650000Y-19050000I-1100000J0D01*
G01*
D12*
X29206200Y-101612000D02*
X29206200Y-98412000D01*
X29206200Y-98412000D02*
X32706200Y-98412000D01*
X32706200Y-98412000D02*
X32706200Y-101612000D01*
X32706200Y-101612000D02*
X29206200Y-101612000D01*
X53018800Y-101612000D02*
X53018800Y-98412000D01*
X53018800Y-98412000D02*
X56518800Y-98412000D01*
X56518800Y-98412000D02*
X56518800Y-101612000D01*
X56518800Y-101612000D02*
X53018800Y-101612000D01*
X38731200Y-82562500D02*
X38731200Y-79362500D01*
X38731200Y-79362500D02*
X42231200Y-79362500D01*
X42231200Y-79362500D02*
X42231200Y-82562500D01*
X42231200Y-82562500D02*
X38731200Y-82562500D01*
X33968800Y-63512500D02*
X33968800Y-60312500D01*
X33968800Y-60312500D02*
X37468800Y-60312500D01*
X37468800Y-60312500D02*
X37468800Y-63512500D01*
X37468800Y-63512500D02*
X33968800Y-63512500D01*
X31587500Y-44462500D02*
X31587500Y-41262500D01*
X31587500Y-41262500D02*
X35087500Y-41262500D01*
X35087500Y-41262500D02*
X35087500Y-44462500D01*
X35087500Y-44462500D02*
X31587500Y-44462500D01*
X26825000Y-25412500D02*
X26825000Y-22212500D01*
X26825000Y-22212500D02*
X30325000Y-22212500D01*
X30325000Y-22212500D02*
X30325000Y-25412500D01*
X30325000Y-25412500D02*
X26825000Y-25412500D01*
X45875000Y-25412500D02*
X45875000Y-22212500D01*
X45875000Y-22212500D02*
X49375000Y-22212500D01*
X49375000Y-22212500D02*
X49375000Y-25412500D01*
X49375000Y-25412500D02*
X45875000Y-25412500D01*
X55400000Y-44462500D02*
X55400000Y-41262500D01*
X55400000Y-41262500D02*
X58900000Y-41262500D01*
X58900000Y-41262500D02*
X58900000Y-44462500D01*
X58900000Y-44462500D02*
X55400000Y-44462500D01*
X60162500Y-63512500D02*
X60162500Y-60312500D01*
X60162500Y-60312500D02*
X63662500Y-60312500D01*
X63662500Y-60312500D02*
X63662500Y-63512500D01*
X63662500Y-63512500D02*
X60162500Y-63512500D01*
X69687500Y-82562500D02*
X69687500Y-79362500D01*
X69687500Y-79362500D02*
X73187500Y-79362500D01*
X73187500Y-79362500D02*
X73187500Y-82562500D01*
X73187500Y-82562500D02*
X69687500Y-82562500D01*
X76831200Y-101612000D02*
X76831200Y-98412000D01*
X76831200Y-98412000D02*
X80331200Y-98412000D01*
X80331200Y-98412000D02*
X80331200Y-101612000D01*
X80331200Y-101612000D02*
X76831200Y-101612000D01*
X88737500Y-82562500D02*
X88737500Y-79362500D01*
X88737500Y-79362500D02*
X92237500Y-79362500D01*
X92237500Y-79362500D02*
X92237500Y-82562500D01*
X92237500Y-82562500D02*
X88737500Y-82562500D01*
X79212500Y-63512500D02*
X79212500Y-60312500D01*
X79212500Y-60312500D02*
X82712500Y-60312500D01*
X82712500Y-60312500D02*
X82712500Y-63512500D01*
X82712500Y-63512500D02*
X79212500Y-63512500D01*
X74450000Y-44462500D02*
X74450000Y-41262500D01*
X74450000Y-41262500D02*
X77950000Y-41262500D01*
X77950000Y-41262500D02*
X77950000Y-44462500D01*
X77950000Y-44462500D02*
X74450000Y-44462500D01*
X64925000Y-25412500D02*
X64925000Y-22212500D01*
X64925000Y-22212500D02*
X68425000Y-22212500D01*
X68425000Y-22212500D02*
X68425000Y-25412500D01*
X68425000Y-25412500D02*
X64925000Y-25412500D01*
X83975000Y-25412500D02*
X83975000Y-22212500D01*
X83975000Y-22212500D02*
X87475000Y-22212500D01*
X87475000Y-22212500D02*
X87475000Y-25412500D01*
X87475000Y-25412500D02*
X83975000Y-25412500D01*
X93500000Y-44462500D02*
X93500000Y-41262500D01*
X93500000Y-41262500D02*
X97000000Y-41262500D01*
X97000000Y-41262500D02*
X97000000Y-44462500D01*
X97000000Y-44462500D02*
X93500000Y-44462500D01*
X98262000Y-63512500D02*
X98262000Y-60312500D01*
X98262000Y-60312500D02*
X101762000Y-60312500D01*
X101762000Y-60312500D02*
X101762000Y-63512500D01*
X101762000Y-63512500D02*
X98262000Y-63512500D01*
X107788000Y-82562500D02*
X107788000Y-79362500D01*
X107788000Y-79362500D02*
X111288000Y-79362500D01*
X111288000Y-79362500D02*
X111288000Y-82562500D01*
X111288000Y-82562500D02*
X107788000Y-82562500D01*
X126838000Y-82562500D02*
X126838000Y-79362500D01*
X126838000Y-79362500D02*
X130338000Y-79362500D01*
X130338000Y-79362500D02*
X130338000Y-82562500D01*
X130338000Y-82562500D02*
X126838000Y-82562500D01*
X117312000Y-63512500D02*
X117312000Y-60312500D01*
X117312000Y-60312500D02*
X120812000Y-60312500D01*
X120812000Y-60312500D02*
X120812000Y-63512500D01*
X120812000Y-63512500D02*
X117312000Y-63512500D01*
X112550000Y-44462500D02*
X112550000Y-41262500D01*
X112550000Y-41262500D02*
X116050000Y-41262500D01*
X116050000Y-41262500D02*
X116050000Y-44462500D01*
X116050000Y-44462500D02*
X112550000Y-44462500D01*
X103025000Y-25412500D02*
X103025000Y-22212500D01*
X103025000Y-22212500D02*
X106525000Y-22212500D01*
X106525000Y-22212500D02*
X106525000Y-25412500D01*
X106525000Y-25412500D02*
X103025000Y-25412500D01*
X122075000Y-25412500D02*
X122075000Y-22212500D01*
X122075000Y-22212500D02*
X125575000Y-22212500D01*
X125575000Y-22212500D02*
X125575000Y-25412500D01*
X125575000Y-25412500D02*
X122075000Y-25412500D01*
X131600000Y-44462500D02*
X131600000Y-41262500D01*
X131600000Y-41262500D02*
X135100000Y-41262500D01*
X135100000Y-41262500D02*
X135100000Y-44462500D01*
X135100000Y-44462500D02*
X131600000Y-44462500D01*
X136362000Y-63512500D02*
X136362000Y-60312500D01*
X136362000Y-60312500D02*
X139862000Y-60312500D01*
X139862000Y-60312500D02*
X139862000Y-63512500D01*
X139862000Y-63512500D02*
X136362000Y-63512500D01*
X145888000Y-82562500D02*
X145888000Y-79362500D01*
X145888000Y-79362500D02*
X149388000Y-79362500D01*
X149388000Y-79362500D02*
X149388000Y-82562500D01*
X149388000Y-82562500D02*
X145888000Y-82562500D01*
X148269000Y-101612000D02*
X148269000Y-98412000D01*
X148269000Y-98412000D02*
X151769000Y-98412000D01*
X151769000Y-98412000D02*
X151769000Y-101612000D01*
X151769000Y-101612000D02*
X148269000Y-101612000D01*
X164938000Y-82562500D02*
X164938000Y-79362500D01*
X164938000Y-79362500D02*
X168438000Y-79362500D01*
X168438000Y-79362500D02*
X168438000Y-82562500D01*
X168438000Y-82562500D02*
X164938000Y-82562500D01*
X155412000Y-63512500D02*
X155412000Y-60312500D01*
X155412000Y-60312500D02*
X158912000Y-60312500D01*
X158912000Y-60312500D02*
X158912000Y-63512500D01*
X158912000Y-63512500D02*
X155412000Y-63512500D01*
X150650000Y-44462500D02*
X150650000Y-41262500D01*
X150650000Y-41262500D02*
X154150000Y-41262500D01*
X154150000Y-41262500D02*
X154150000Y-44462500D01*
X154150000Y-44462500D02*
X150650000Y-44462500D01*
X141125000Y-25412500D02*
X141125000Y-22212500D01*
X141125000Y-22212500D02*
X144625000Y-22212500D01*
X144625000Y-22212500D02*
X144625000Y-25412500D01*
X144625000Y-25412500D02*
X141125000Y-25412500D01*
X160175000Y-25412500D02*
X160175000Y-22212500D01*
X160175000Y-22212500D02*
X163675000Y-22212500D01*
X163675000Y-22212500D02*
X163675000Y-25412500D01*
X163675000Y-25412500D02*
X160175000Y-25412500D01*
X169700000Y-44462500D02*
X169700000Y-41262500D01*
X169700000Y-41262500D02*
X173200000Y-41262500D01*
X173200000Y-41262500D02*
X173200000Y-44462500D01*
X173200000Y-44462500D02*
X169700000Y-44462500D01*
X174462000Y-63512500D02*
X174462000Y-60312500D01*
X174462000Y-60312500D02*
X177962000Y-60312500D01*
X177962000Y-60312500D02*
X177962000Y-63512500D01*
X177962000Y-63512500D02*
X174462000Y-63512500D01*
X183988000Y-82562500D02*
X183988000Y-79362500D01*
X183988000Y-79362500D02*
X187488000Y-79362500D01*
X187488000Y-79362500D02*
X187488000Y-82562500D01*
X187488000Y-82562500D02*
X183988000Y-82562500D01*
X193512000Y-63512500D02*
X193512000Y-60312500D01*
X193512000Y-60312500D02*
X197012000Y-60312500D01*
X197012000Y-60312500D02*
X197012000Y-63512500D01*
X197012000Y-63512500D02*
X193512000Y-63512500D01*
X188750000Y-44462500D02*
X188750000Y-41262500D01*
X188750000Y-41262500D02*
X192250000Y-41262500D01*
X192250000Y-41262500D02*
X192250000Y-44462500D01*
X192250000Y-44462500D02*
X188750000Y-44462500D01*
X179225000Y-25412500D02*
X179225000Y-22212500D01*
X179225000Y-22212500D02*
X182725000Y-22212500D01*
X182725000Y-22212500D02*
X182725000Y-25412500D01*
X182725000Y-25412500D02*
X179225000Y-25412500D01*
X198275000Y-25412500D02*
X198275000Y-22212500D01*
X198275000Y-22212500D02*
X201775000Y-22212500D01*
X201775000Y-22212500D02*
X201775000Y-25412500D01*
X201775000Y-25412500D02*
X198275000Y-25412500D01*
X207800000Y-44462500D02*
X207800000Y-41262500D01*
X207800000Y-41262500D02*
X211300000Y-41262500D01*
X211300000Y-41262500D02*
X211300000Y-44462500D01*
X211300000Y-44462500D02*
X207800000Y-44462500D01*
X212562000Y-63512500D02*
X212562000Y-60312500D01*
X212562000Y-60312500D02*
X216062000Y-60312500D01*
X216062000Y-60312500D02*
X216062000Y-63512500D01*
X216062000Y-63512500D02*
X212562000Y-63512500D01*
X203038000Y-82562500D02*
X203038000Y-79362500D01*
X203038000Y-79362500D02*
X206538000Y-79362500D01*
X206538000Y-79362500D02*
X206538000Y-82562500D01*
X206538000Y-82562500D02*
X203038000Y-82562500D01*
X219706000Y-101612000D02*
X219706000Y-98412000D01*
X219706000Y-98412000D02*
X223206000Y-98412000D01*
X223206000Y-98412000D02*
X223206000Y-101612000D01*
X223206000Y-101612000D02*
X219706000Y-101612000D01*
X222088000Y-82562500D02*
X222088000Y-79362500D01*
X222088000Y-79362500D02*
X225588000Y-79362500D01*
X225588000Y-79362500D02*
X225588000Y-82562500D01*
X225588000Y-82562500D02*
X222088000Y-82562500D01*
X231612000Y-63512500D02*
X231612000Y-60312500D01*
X231612000Y-60312500D02*
X235112000Y-60312500D01*
X235112000Y-60312500D02*
X235112000Y-63512500D01*
X235112000Y-63512500D02*
X231612000Y-63512500D01*
X226850000Y-44462500D02*
X226850000Y-41262500D01*
X226850000Y-41262500D02*
X230350000Y-41262500D01*
X230350000Y-41262500D02*
X230350000Y-44462500D01*
X230350000Y-44462500D02*
X226850000Y-44462500D01*
X217325000Y-25412500D02*
X217325000Y-22212500D01*
X217325000Y-22212500D02*
X220825000Y-22212500D01*
X220825000Y-22212500D02*
X220825000Y-25412500D01*
X220825000Y-25412500D02*
X217325000Y-25412500D01*
X236375000Y-25412500D02*
X236375000Y-22212500D01*
X236375000Y-22212500D02*
X239875000Y-22212500D01*
X239875000Y-22212500D02*
X239875000Y-25412500D01*
X239875000Y-25412500D02*
X236375000Y-25412500D01*
X255425000Y-25412500D02*
X255425000Y-22212500D01*
X255425000Y-22212500D02*
X258925000Y-22212500D01*
X258925000Y-22212500D02*
X258925000Y-25412500D01*
X258925000Y-25412500D02*
X255425000Y-25412500D01*
X245900000Y-44462500D02*
X245900000Y-41262500D01*
X245900000Y-41262500D02*
X249400000Y-41262500D01*
X249400000Y-41262500D02*
X249400000Y-44462500D01*
X249400000Y-44462500D02*
X245900000Y-44462500D01*
X250662000Y-63512500D02*
X250662000Y-60312500D01*
X250662000Y-60312500D02*
X254162000Y-60312500D01*
X254162000Y-60312500D02*
X254162000Y-63512500D01*
X254162000Y-63512500D02*
X250662000Y-63512500D01*
X241138000Y-82562500D02*
X241138000Y-79362500D01*
X241138000Y-79362500D02*
X244638000Y-79362500D01*
X244638000Y-79362500D02*
X244638000Y-82562500D01*
X244638000Y-82562500D02*
X241138000Y-82562500D01*
X243519000Y-101612000D02*
X243519000Y-98412000D01*
X243519000Y-98412000D02*
X247019000Y-98412000D01*
X247019000Y-98412000D02*
X247019000Y-101612000D01*
X247019000Y-101612000D02*
X243519000Y-101612000D01*
X267331000Y-101612000D02*
X267331000Y-98412000D01*
X267331000Y-98412000D02*
X270831000Y-98412000D01*
X270831000Y-98412000D02*
X270831000Y-101612000D01*
X270831000Y-101612000D02*
X267331000Y-101612000D01*
X260188000Y-82562500D02*
X260188000Y-79362500D01*
X260188000Y-79362500D02*
X263688000Y-79362500D01*
X263688000Y-79362500D02*
X263688000Y-82562500D01*
X263688000Y-82562500D02*
X260188000Y-82562500D01*
X269712000Y-63512500D02*
X269712000Y-60312500D01*
X269712000Y-60312500D02*
X273212000Y-60312500D01*
X273212000Y-60312500D02*
X273212000Y-63512500D01*
X273212000Y-63512500D02*
X269712000Y-63512500D01*
X264950000Y-44462500D02*
X264950000Y-41262500D01*
X264950000Y-41262500D02*
X268450000Y-41262500D01*
X268450000Y-41262500D02*
X268450000Y-44462500D01*
X268450000Y-44462500D02*
X264950000Y-44462500D01*
X274475000Y-25412500D02*
X274475000Y-22212500D01*
X274475000Y-22212500D02*
X277975000Y-22212500D01*
X277975000Y-22212500D02*
X277975000Y-25412500D01*
X277975000Y-25412500D02*
X274475000Y-25412500D01*
X293525000Y-25412500D02*
X293525000Y-22212500D01*
X293525000Y-22212500D02*
X297025000Y-22212500D01*
X297025000Y-22212500D02*
X297025000Y-25412500D01*
X297025000Y-25412500D02*
X293525000Y-25412500D01*
X291144000Y-53987500D02*
X291144000Y-50787500D01*
X291144000Y-50787500D02*
X294644000Y-50787500D01*
X294644000Y-50787500D02*
X294644000Y-53987500D01*
X294644000Y-53987500D02*
X291144000Y-53987500D01*
X286381000Y-82562500D02*
X286381000Y-79362500D01*
X286381000Y-79362500D02*
X289881000Y-79362500D01*
X289881000Y-79362500D02*
X289881000Y-82562500D01*
X289881000Y-82562500D02*
X286381000Y-82562500D01*
X300669000Y-101612000D02*
X300669000Y-98412000D01*
X300669000Y-98412000D02*
X304169000Y-98412000D01*
X304169000Y-98412000D02*
X304169000Y-101612000D01*
X304169000Y-101612000D02*
X300669000Y-101612000D01*
X319719000Y-82562500D02*
X319719000Y-79362500D01*
X319719000Y-79362500D02*
X323219000Y-79362500D01*
X323219000Y-79362500D02*
X323219000Y-82562500D01*
X323219000Y-82562500D02*
X319719000Y-82562500D01*
X319719000Y-101612000D02*
X319719000Y-98412000D01*
X319719000Y-98412000D02*
X323219000Y-98412000D01*
X323219000Y-98412000D02*
X323219000Y-101612000D01*
X323219000Y-101612000D02*
X319719000Y-101612000D01*
X338769000Y-101612000D02*
X338769000Y-98412000D01*
X338769000Y-98412000D02*
X342269000Y-98412000D01*
X342269000Y-98412000D02*
X342269000Y-101612000D01*
X342269000Y-101612000D02*
X338769000Y-101612000D01*
D11*
X353525000Y-111919000D02*
G75*
G03*
X353525000Y-111919000I-1100000J0D01*
G01*
X353525000Y-66650000D02*
G75*
G03*
X353525000Y-66650000I-1100000J0D01*
G01*
X353525000Y-21431200D02*
G75*
G03*
X353525000Y-21431200I-1100000J0D01*
G01*
X17175000Y-111750000D02*
G75*
G03*
X17175000Y-111750000I-1100000J0D01*
G01*
X17175000Y-66650000D02*
G75*
G03*
X17175000Y-66650000I-1100000J0D01*
G01*
X17175000Y-21550000D02*
G75*
G03*
X17175000Y-21550000I-1100000J0D01*
G01*
M02*
