G04 #@! TF.GenerationSoftware,KiCad,Pcbnew,(5.1.12)-1*
G04 #@! TF.CreationDate,2022-12-17T21:00:29+09:00*
G04 #@! TF.ProjectId,jtnk67,6a746e6b-3637-42e6-9b69-6361645f7063,rev?*
G04 #@! TF.SameCoordinates,Original*
G04 #@! TF.FileFunction,Soldermask,Bot*
G04 #@! TF.FilePolarity,Negative*
%FSLAX46Y46*%
G04 Gerber Fmt 4.6, Leading zero omitted, Abs format (unit mm)*
G04 Created by KiCad (PCBNEW (5.1.12)-1) date 2022-12-17 21:00:29*
%MOMM*%
%LPD*%
G01*
G04 APERTURE LIST*
%ADD10C,3.987800*%
%ADD11C,3.048000*%
%ADD12C,3.000000*%
%ADD13C,1.800000*%
%ADD14R,3.300000X3.000000*%
%ADD15C,4.000000*%
%ADD16C,3.050000*%
%ADD17C,1.524000*%
%ADD18C,2.000000*%
%ADD19R,3.200000X2.500000*%
%ADD20R,2.200000X0.820000*%
%ADD21O,1.500000X1.500000*%
%ADD22C,1.397000*%
%ADD23R,1.397000X1.397000*%
%ADD24R,0.950000X1.300000*%
G04 APERTURE END LIST*
D10*
X301149000Y-45212000D03*
D11*
X285909000Y-69088000D03*
D10*
X301149000Y-69088000D03*
D11*
X285909000Y-45212000D03*
D12*
X290354000Y-62230000D03*
D13*
X297974000Y-57150000D03*
X287814000Y-57150000D03*
D10*
X292894000Y-57150000D03*
X292894000Y-57150000D03*
D14*
X300294000Y-59690000D03*
D15*
X292894000Y-57150000D03*
D12*
X296704000Y-59690000D03*
D14*
X286794000Y-62230000D03*
D15*
X200029000Y-96535000D03*
X100009000Y-96535000D03*
D16*
X100009000Y-111775000D03*
X200029000Y-111775000D03*
D14*
X157419000Y-107315000D03*
D12*
X147479000Y-109855000D03*
D15*
X150019000Y-104775000D03*
D13*
X144939000Y-104775000D03*
X155099000Y-104775000D03*
D12*
X153829000Y-107315000D03*
D14*
X143919000Y-109855000D03*
D17*
X348082600Y-23622000D03*
X348082600Y-26162000D03*
X348082600Y-28702000D03*
X348082600Y-31242000D03*
X348082600Y-33782000D03*
X348082600Y-36322000D03*
X348082600Y-38862000D03*
X348082600Y-41402000D03*
X348082600Y-43942000D03*
X348082600Y-46482000D03*
X348082600Y-49022000D03*
X348082600Y-51562000D03*
X332862600Y-51562000D03*
X332862600Y-49022000D03*
X332862600Y-46482000D03*
X332862600Y-43942000D03*
X332862600Y-41402000D03*
X332862600Y-38862000D03*
X332862600Y-36322000D03*
X332862600Y-33782000D03*
X332862600Y-31242000D03*
X332862600Y-28702000D03*
X332862600Y-26162000D03*
X332862600Y-23622000D03*
X332862600Y-21082000D03*
X348082600Y-21082000D03*
D18*
X337269000Y-57150000D03*
X343769000Y-57150000D03*
X347519000Y-69175000D03*
X347519000Y-64175000D03*
D19*
X340519000Y-72275000D03*
X340519000Y-61075000D03*
D18*
X333019000Y-69175000D03*
X333019000Y-66675000D03*
X333019000Y-64175000D03*
D14*
X334369000Y-109895000D03*
D18*
X345599000Y-104775000D03*
X335439000Y-104775000D03*
D15*
X340519000Y-104775000D03*
D12*
X337979000Y-109855000D03*
X344329000Y-107315000D03*
D14*
X347969000Y-107355000D03*
X315319000Y-109895000D03*
D18*
X326549000Y-104775000D03*
X316389000Y-104775000D03*
D15*
X321469000Y-104775000D03*
D12*
X318929000Y-109855000D03*
X325279000Y-107315000D03*
D14*
X328919000Y-107355000D03*
X315319000Y-90845000D03*
D18*
X326549000Y-85725000D03*
X316389000Y-85725000D03*
D15*
X321469000Y-85725000D03*
D12*
X318929000Y-90805000D03*
X325279000Y-88265000D03*
D14*
X328919000Y-88305000D03*
X289125000Y-33695000D03*
D18*
X300355000Y-28575000D03*
X290195000Y-28575000D03*
D15*
X295275000Y-28575000D03*
D12*
X292735000Y-33655000D03*
X299085000Y-31115000D03*
D14*
X302725000Y-31155000D03*
X296269000Y-109895000D03*
D18*
X307499000Y-104775000D03*
X297339000Y-104775000D03*
D15*
X302419000Y-104775000D03*
D12*
X299879000Y-109855000D03*
X306229000Y-107315000D03*
D14*
X309869000Y-107355000D03*
X295581000Y-88305000D03*
D12*
X291941000Y-88265000D03*
X285591000Y-90805000D03*
D15*
X288131000Y-85725000D03*
D18*
X283051000Y-85725000D03*
X293211000Y-85725000D03*
D14*
X281981000Y-90845000D03*
X270075000Y-33695000D03*
D18*
X281305000Y-28575000D03*
X271145000Y-28575000D03*
D15*
X276225000Y-28575000D03*
D12*
X273685000Y-33655000D03*
X280035000Y-31115000D03*
D14*
X283675000Y-31155000D03*
X265312000Y-71795000D03*
D18*
X276542000Y-66675000D03*
X266382000Y-66675000D03*
D15*
X271462000Y-66675000D03*
D12*
X268922000Y-71755000D03*
X275272000Y-69215000D03*
D14*
X278912000Y-69255000D03*
X260550000Y-52745000D03*
D18*
X271780000Y-47625000D03*
X261620000Y-47625000D03*
D15*
X266700000Y-47625000D03*
D12*
X264160000Y-52705000D03*
X270510000Y-50165000D03*
D14*
X274150000Y-50205000D03*
X251025000Y-33695000D03*
D18*
X262255000Y-28575000D03*
X252095000Y-28575000D03*
D15*
X257175000Y-28575000D03*
D12*
X254635000Y-33655000D03*
X260985000Y-31115000D03*
D14*
X264625000Y-31155000D03*
X262931000Y-109895000D03*
D18*
X274161000Y-104775000D03*
X264001000Y-104775000D03*
D15*
X269081000Y-104775000D03*
D12*
X266541000Y-109855000D03*
X272891000Y-107315000D03*
D14*
X276531000Y-107355000D03*
X255788000Y-90845000D03*
D18*
X267018000Y-85725000D03*
X256858000Y-85725000D03*
D15*
X261938000Y-85725000D03*
D12*
X259398000Y-90805000D03*
X265748000Y-88265000D03*
D14*
X269388000Y-88305000D03*
X246262000Y-71795000D03*
D18*
X257492000Y-66675000D03*
X247332000Y-66675000D03*
D15*
X252412000Y-66675000D03*
D12*
X249872000Y-71755000D03*
X256222000Y-69215000D03*
D14*
X259862000Y-69255000D03*
X241500000Y-52745000D03*
D18*
X252730000Y-47625000D03*
X242570000Y-47625000D03*
D15*
X247650000Y-47625000D03*
D12*
X245110000Y-52705000D03*
X251460000Y-50165000D03*
D14*
X255100000Y-50205000D03*
X231975000Y-33695000D03*
D18*
X243205000Y-28575000D03*
X233045000Y-28575000D03*
D15*
X238125000Y-28575000D03*
D12*
X235585000Y-33655000D03*
X241935000Y-31115000D03*
D14*
X245575000Y-31155000D03*
X239119000Y-109895000D03*
D18*
X250349000Y-104775000D03*
X240189000Y-104775000D03*
D15*
X245269000Y-104775000D03*
D12*
X242729000Y-109855000D03*
X249079000Y-107315000D03*
D14*
X252719000Y-107355000D03*
X236738000Y-90845000D03*
D18*
X247968000Y-85725000D03*
X237808000Y-85725000D03*
D15*
X242888000Y-85725000D03*
D12*
X240348000Y-90805000D03*
X246698000Y-88265000D03*
D14*
X250338000Y-88305000D03*
X227212000Y-71795000D03*
D18*
X238442000Y-66675000D03*
X228282000Y-66675000D03*
D15*
X233362000Y-66675000D03*
D12*
X230822000Y-71755000D03*
X237172000Y-69215000D03*
D14*
X240812000Y-69255000D03*
X222450000Y-52745000D03*
D18*
X233680000Y-47625000D03*
X223520000Y-47625000D03*
D15*
X228600000Y-47625000D03*
D12*
X226060000Y-52705000D03*
X232410000Y-50165000D03*
D14*
X236050000Y-50205000D03*
X212925000Y-33695000D03*
D18*
X224155000Y-28575000D03*
X213995000Y-28575000D03*
D15*
X219075000Y-28575000D03*
D12*
X216535000Y-33655000D03*
X222885000Y-31115000D03*
D14*
X226525000Y-31155000D03*
X215306000Y-109895000D03*
D18*
X226536000Y-104775000D03*
X216376000Y-104775000D03*
D15*
X221456000Y-104775000D03*
D12*
X218916000Y-109855000D03*
X225266000Y-107315000D03*
D14*
X228906000Y-107355000D03*
X217688000Y-90845000D03*
D18*
X228918000Y-85725000D03*
X218758000Y-85725000D03*
D15*
X223838000Y-85725000D03*
D12*
X221298000Y-90805000D03*
X227648000Y-88265000D03*
D14*
X231288000Y-88305000D03*
X208162000Y-71795000D03*
D18*
X219392000Y-66675000D03*
X209232000Y-66675000D03*
D15*
X214312000Y-66675000D03*
D12*
X211772000Y-71755000D03*
X218122000Y-69215000D03*
D14*
X221762000Y-69255000D03*
X203400000Y-52745000D03*
D18*
X214630000Y-47625000D03*
X204470000Y-47625000D03*
D15*
X209550000Y-47625000D03*
D12*
X207010000Y-52705000D03*
X213360000Y-50165000D03*
D14*
X217000000Y-50205000D03*
X193875000Y-33695000D03*
D18*
X205105000Y-28575000D03*
X194945000Y-28575000D03*
D15*
X200025000Y-28575000D03*
D12*
X197485000Y-33655000D03*
X203835000Y-31115000D03*
D14*
X207475000Y-31155000D03*
X198638000Y-90845000D03*
D18*
X209868000Y-85725000D03*
X199708000Y-85725000D03*
D15*
X204788000Y-85725000D03*
D12*
X202248000Y-90805000D03*
X208598000Y-88265000D03*
D14*
X212238000Y-88305000D03*
X189112000Y-71795000D03*
D18*
X200342000Y-66675000D03*
X190182000Y-66675000D03*
D15*
X195262000Y-66675000D03*
D12*
X192722000Y-71755000D03*
X199072000Y-69215000D03*
D14*
X202712000Y-69255000D03*
X184350000Y-52745000D03*
D18*
X195580000Y-47625000D03*
X185420000Y-47625000D03*
D15*
X190500000Y-47625000D03*
D12*
X187960000Y-52705000D03*
X194310000Y-50165000D03*
D14*
X197950000Y-50205000D03*
X174825000Y-33695000D03*
D18*
X186055000Y-28575000D03*
X175895000Y-28575000D03*
D15*
X180975000Y-28575000D03*
D12*
X178435000Y-33655000D03*
X184785000Y-31115000D03*
D14*
X188425000Y-31155000D03*
X179588000Y-90845000D03*
D18*
X190818000Y-85725000D03*
X180658000Y-85725000D03*
D15*
X185738000Y-85725000D03*
D12*
X183198000Y-90805000D03*
X189548000Y-88265000D03*
D14*
X193188000Y-88305000D03*
X170062000Y-71795000D03*
D18*
X181292000Y-66675000D03*
X171132000Y-66675000D03*
D15*
X176212000Y-66675000D03*
D12*
X173672000Y-71755000D03*
X180022000Y-69215000D03*
D14*
X183662000Y-69255000D03*
X165300000Y-52745000D03*
D18*
X176530000Y-47625000D03*
X166370000Y-47625000D03*
D15*
X171450000Y-47625000D03*
D12*
X168910000Y-52705000D03*
X175260000Y-50165000D03*
D14*
X178900000Y-50205000D03*
X155775000Y-33695000D03*
D18*
X167005000Y-28575000D03*
X156845000Y-28575000D03*
D15*
X161925000Y-28575000D03*
D12*
X159385000Y-33655000D03*
X165735000Y-31115000D03*
D14*
X169375000Y-31155000D03*
X160538000Y-90845000D03*
D18*
X171768000Y-85725000D03*
X161608000Y-85725000D03*
D15*
X166688000Y-85725000D03*
D12*
X164148000Y-90805000D03*
X170498000Y-88265000D03*
D14*
X174138000Y-88305000D03*
X151012000Y-71795000D03*
D18*
X162242000Y-66675000D03*
X152082000Y-66675000D03*
D15*
X157162000Y-66675000D03*
D12*
X154622000Y-71755000D03*
X160972000Y-69215000D03*
D14*
X164612000Y-69255000D03*
X146250000Y-52745000D03*
D18*
X157480000Y-47625000D03*
X147320000Y-47625000D03*
D15*
X152400000Y-47625000D03*
D12*
X149860000Y-52705000D03*
X156210000Y-50165000D03*
D14*
X159850000Y-50205000D03*
X136725000Y-33695000D03*
D18*
X147955000Y-28575000D03*
X137795000Y-28575000D03*
D15*
X142875000Y-28575000D03*
D12*
X140335000Y-33655000D03*
X146685000Y-31115000D03*
D14*
X150325000Y-31155000D03*
X141488000Y-90845000D03*
D18*
X152718000Y-85725000D03*
X142558000Y-85725000D03*
D15*
X147638000Y-85725000D03*
D12*
X145098000Y-90805000D03*
X151448000Y-88265000D03*
D14*
X155088000Y-88305000D03*
X131962000Y-71795000D03*
D18*
X143192000Y-66675000D03*
X133032000Y-66675000D03*
D15*
X138112000Y-66675000D03*
D12*
X135572000Y-71755000D03*
X141922000Y-69215000D03*
D14*
X145562000Y-69255000D03*
X127200000Y-52745000D03*
D18*
X138430000Y-47625000D03*
X128270000Y-47625000D03*
D15*
X133350000Y-47625000D03*
D12*
X130810000Y-52705000D03*
X137160000Y-50165000D03*
D14*
X140800000Y-50205000D03*
X117675000Y-33695000D03*
D18*
X128905000Y-28575000D03*
X118745000Y-28575000D03*
D15*
X123825000Y-28575000D03*
D12*
X121285000Y-33655000D03*
X127635000Y-31115000D03*
D14*
X131275000Y-31155000D03*
X122438000Y-90845000D03*
D18*
X133668000Y-85725000D03*
X123508000Y-85725000D03*
D15*
X128588000Y-85725000D03*
D12*
X126048000Y-90805000D03*
X132398000Y-88265000D03*
D14*
X136038000Y-88305000D03*
X112912000Y-71795000D03*
D18*
X124142000Y-66675000D03*
X113982000Y-66675000D03*
D15*
X119062000Y-66675000D03*
D12*
X116522000Y-71755000D03*
X122872000Y-69215000D03*
D14*
X126512000Y-69255000D03*
X108150000Y-52745000D03*
D18*
X119380000Y-47625000D03*
X109220000Y-47625000D03*
D15*
X114300000Y-47625000D03*
D12*
X111760000Y-52705000D03*
X118110000Y-50165000D03*
D14*
X121750000Y-50205000D03*
X98625000Y-33695000D03*
D18*
X109855000Y-28575000D03*
X99695000Y-28575000D03*
D15*
X104775000Y-28575000D03*
D12*
X102235000Y-33655000D03*
X108585000Y-31115000D03*
D14*
X112225000Y-31155000D03*
X103388000Y-90845000D03*
D18*
X114618000Y-85725000D03*
X104458000Y-85725000D03*
D15*
X109538000Y-85725000D03*
D12*
X106998000Y-90805000D03*
X113348000Y-88265000D03*
D14*
X116988000Y-88305000D03*
X93862000Y-71795000D03*
D18*
X105092000Y-66675000D03*
X94932000Y-66675000D03*
D15*
X100012000Y-66675000D03*
D12*
X97472000Y-71755000D03*
X103822000Y-69215000D03*
D14*
X107462000Y-69255000D03*
X89100000Y-52745000D03*
D18*
X100330000Y-47625000D03*
X90170000Y-47625000D03*
D15*
X95250000Y-47625000D03*
D12*
X92710000Y-52705000D03*
X99060000Y-50165000D03*
D14*
X102700000Y-50205000D03*
X79575000Y-33695000D03*
D18*
X90805000Y-28575000D03*
X80645000Y-28575000D03*
D15*
X85725000Y-28575000D03*
D12*
X83185000Y-33655000D03*
X89535000Y-31115000D03*
D14*
X93175000Y-31155000D03*
X72431200Y-109895000D03*
D18*
X83661200Y-104775000D03*
X73501200Y-104775000D03*
D15*
X78581200Y-104775000D03*
D12*
X76041200Y-109855000D03*
X82391200Y-107315000D03*
D14*
X86031200Y-107355000D03*
X84337500Y-90845000D03*
D18*
X95567500Y-85725000D03*
X85407500Y-85725000D03*
D15*
X90487500Y-85725000D03*
D12*
X87947500Y-90805000D03*
X94297500Y-88265000D03*
D14*
X97937500Y-88305000D03*
X74812500Y-71795000D03*
D18*
X86042500Y-66675000D03*
X75882500Y-66675000D03*
D15*
X80962500Y-66675000D03*
D12*
X78422500Y-71755000D03*
X84772500Y-69215000D03*
D14*
X88412500Y-69255000D03*
X70050000Y-52745000D03*
D18*
X81280000Y-47625000D03*
X71120000Y-47625000D03*
D15*
X76200000Y-47625000D03*
D12*
X73660000Y-52705000D03*
X80010000Y-50165000D03*
D14*
X83650000Y-50205000D03*
X60525000Y-33695000D03*
D18*
X71755000Y-28575000D03*
X61595000Y-28575000D03*
D15*
X66675000Y-28575000D03*
D12*
X64135000Y-33655000D03*
X70485000Y-31115000D03*
D14*
X74125000Y-31155000D03*
X48618800Y-109895000D03*
D18*
X59848800Y-104775000D03*
X49688800Y-104775000D03*
D15*
X54768800Y-104775000D03*
D12*
X52228800Y-109855000D03*
X58578800Y-107315000D03*
D14*
X62218800Y-107355000D03*
X65287500Y-90845000D03*
D18*
X76517500Y-85725000D03*
X66357500Y-85725000D03*
D15*
X71437500Y-85725000D03*
D12*
X68897500Y-90805000D03*
X75247500Y-88265000D03*
D14*
X78887500Y-88305000D03*
X55762500Y-71795000D03*
D18*
X66992500Y-66675000D03*
X56832500Y-66675000D03*
D15*
X61912500Y-66675000D03*
D12*
X59372500Y-71755000D03*
X65722500Y-69215000D03*
D14*
X69362500Y-69255000D03*
X51000000Y-52745000D03*
D18*
X62230000Y-47625000D03*
X52070000Y-47625000D03*
D15*
X57150000Y-47625000D03*
D12*
X54610000Y-52705000D03*
X60960000Y-50165000D03*
D14*
X64600000Y-50205000D03*
X41475000Y-33695000D03*
D18*
X52705000Y-28575000D03*
X42545000Y-28575000D03*
D15*
X47625000Y-28575000D03*
D12*
X45085000Y-33655000D03*
X51435000Y-31115000D03*
D14*
X55075000Y-31155000D03*
X24806200Y-109895000D03*
D18*
X36036200Y-104775000D03*
X25876200Y-104775000D03*
D15*
X30956200Y-104775000D03*
D12*
X28416200Y-109855000D03*
X34766200Y-107315000D03*
D14*
X38406200Y-107355000D03*
X34381200Y-90805000D03*
D12*
X44291200Y-88265000D03*
D13*
X45561200Y-85725000D03*
X35401200Y-85725000D03*
D15*
X40481200Y-85725000D03*
D12*
X37941200Y-90805000D03*
D14*
X47881200Y-88265000D03*
D16*
X52381200Y-92725000D03*
X28581200Y-92725000D03*
D15*
X28581200Y-77485000D03*
X52381200Y-77485000D03*
D14*
X43168800Y-69255000D03*
D12*
X39528800Y-69215000D03*
X33178800Y-71755000D03*
D15*
X35718800Y-66675000D03*
D18*
X30638800Y-66675000D03*
X40798800Y-66675000D03*
D14*
X29568800Y-71795000D03*
X40787500Y-50205000D03*
D12*
X37147500Y-50165000D03*
X30797500Y-52705000D03*
D15*
X33337500Y-47625000D03*
D18*
X28257500Y-47625000D03*
X38417500Y-47625000D03*
D14*
X27187500Y-52745000D03*
X22425000Y-33695000D03*
D18*
X33655000Y-28575000D03*
X23495000Y-28575000D03*
D15*
X28575000Y-28575000D03*
D12*
X26035000Y-33655000D03*
X32385000Y-31115000D03*
D14*
X36025000Y-31155000D03*
D20*
X28006200Y-100762000D03*
X28006200Y-99262000D03*
X33906200Y-99262000D03*
X33906200Y-100762000D03*
X51818800Y-100762000D03*
X51818800Y-99262000D03*
X57718800Y-99262000D03*
X57718800Y-100762000D03*
X37531200Y-81712500D03*
X37531200Y-80212500D03*
X43431200Y-80212500D03*
X43431200Y-81712500D03*
X32768800Y-62662500D03*
X32768800Y-61162500D03*
X38668800Y-61162500D03*
X38668800Y-62662500D03*
X30387500Y-43612500D03*
X30387500Y-42112500D03*
X36287500Y-42112500D03*
X36287500Y-43612500D03*
X25625000Y-24562500D03*
X25625000Y-23062500D03*
X31525000Y-23062500D03*
X31525000Y-24562500D03*
X44675000Y-24562500D03*
X44675000Y-23062500D03*
X50575000Y-23062500D03*
X50575000Y-24562500D03*
X54200000Y-43612500D03*
X54200000Y-42112500D03*
X60100000Y-42112500D03*
X60100000Y-43612500D03*
X58962500Y-62662500D03*
X58962500Y-61162500D03*
X64862500Y-61162500D03*
X64862500Y-62662500D03*
X68487500Y-81712500D03*
X68487500Y-80212500D03*
X74387500Y-80212500D03*
X74387500Y-81712500D03*
X75631200Y-100762000D03*
X75631200Y-99262000D03*
X81531200Y-99262000D03*
X81531200Y-100762000D03*
X87537500Y-81712500D03*
X87537500Y-80212500D03*
X93437500Y-80212500D03*
X93437500Y-81712500D03*
X78012500Y-62662500D03*
X78012500Y-61162500D03*
X83912500Y-61162500D03*
X83912500Y-62662500D03*
X73250000Y-43612500D03*
X73250000Y-42112500D03*
X79150000Y-42112500D03*
X79150000Y-43612500D03*
X63725000Y-24562500D03*
X63725000Y-23062500D03*
X69625000Y-23062500D03*
X69625000Y-24562500D03*
X82775000Y-24562500D03*
X82775000Y-23062500D03*
X88675000Y-23062500D03*
X88675000Y-24562500D03*
X92300000Y-43612500D03*
X92300000Y-42112500D03*
X98200000Y-42112500D03*
X98200000Y-43612500D03*
X97062000Y-62662500D03*
X97062000Y-61162500D03*
X102962000Y-61162500D03*
X102962000Y-62662500D03*
X106588000Y-81712500D03*
X106588000Y-80212500D03*
X112488000Y-80212500D03*
X112488000Y-81712500D03*
X125638000Y-81712500D03*
X125638000Y-80212500D03*
X131538000Y-80212500D03*
X131538000Y-81712500D03*
X116112000Y-62662500D03*
X116112000Y-61162500D03*
X122012000Y-61162500D03*
X122012000Y-62662500D03*
X111350000Y-43612500D03*
X111350000Y-42112500D03*
X117250000Y-42112500D03*
X117250000Y-43612500D03*
X101825000Y-24562500D03*
X101825000Y-23062500D03*
X107725000Y-23062500D03*
X107725000Y-24562500D03*
X120875000Y-24562500D03*
X120875000Y-23062500D03*
X126775000Y-23062500D03*
X126775000Y-24562500D03*
X130400000Y-43612500D03*
X130400000Y-42112500D03*
X136300000Y-42112500D03*
X136300000Y-43612500D03*
X135162000Y-62662500D03*
X135162000Y-61162500D03*
X141062000Y-61162500D03*
X141062000Y-62662500D03*
X144688000Y-81712500D03*
X144688000Y-80212500D03*
X150588000Y-80212500D03*
X150588000Y-81712500D03*
X147069000Y-100762000D03*
X147069000Y-99262000D03*
X152969000Y-99262000D03*
X152969000Y-100762000D03*
X163738000Y-81712500D03*
X163738000Y-80212500D03*
X169638000Y-80212500D03*
X169638000Y-81712500D03*
X154212000Y-62662500D03*
X154212000Y-61162500D03*
X160112000Y-61162500D03*
X160112000Y-62662500D03*
X149450000Y-43612500D03*
X149450000Y-42112500D03*
X155350000Y-42112500D03*
X155350000Y-43612500D03*
X139925000Y-24562500D03*
X139925000Y-23062500D03*
X145825000Y-23062500D03*
X145825000Y-24562500D03*
X158975000Y-24562500D03*
X158975000Y-23062500D03*
X164875000Y-23062500D03*
X164875000Y-24562500D03*
X168500000Y-43612500D03*
X168500000Y-42112500D03*
X174400000Y-42112500D03*
X174400000Y-43612500D03*
X173262000Y-62662500D03*
X173262000Y-61162500D03*
X179162000Y-61162500D03*
X179162000Y-62662500D03*
X182788000Y-81712500D03*
X182788000Y-80212500D03*
X188688000Y-80212500D03*
X188688000Y-81712500D03*
X192312000Y-62662500D03*
X192312000Y-61162500D03*
X198212000Y-61162500D03*
X198212000Y-62662500D03*
X187550000Y-43612500D03*
X187550000Y-42112500D03*
X193450000Y-42112500D03*
X193450000Y-43612500D03*
X178025000Y-24562500D03*
X178025000Y-23062500D03*
X183925000Y-23062500D03*
X183925000Y-24562500D03*
X197075000Y-24562500D03*
X197075000Y-23062500D03*
X202975000Y-23062500D03*
X202975000Y-24562500D03*
X206600000Y-43612500D03*
X206600000Y-42112500D03*
X212500000Y-42112500D03*
X212500000Y-43612500D03*
X211362000Y-62662500D03*
X211362000Y-61162500D03*
X217262000Y-61162500D03*
X217262000Y-62662500D03*
X201838000Y-81712500D03*
X201838000Y-80212500D03*
X207738000Y-80212500D03*
X207738000Y-81712500D03*
X218506000Y-100762000D03*
X218506000Y-99262000D03*
X224406000Y-99262000D03*
X224406000Y-100762000D03*
X220888000Y-81712500D03*
X220888000Y-80212500D03*
X226788000Y-80212500D03*
X226788000Y-81712500D03*
X230412000Y-62662500D03*
X230412000Y-61162500D03*
X236312000Y-61162500D03*
X236312000Y-62662500D03*
X225650000Y-43612500D03*
X225650000Y-42112500D03*
X231550000Y-42112500D03*
X231550000Y-43612500D03*
X216125000Y-24562500D03*
X216125000Y-23062500D03*
X222025000Y-23062500D03*
X222025000Y-24562500D03*
X235175000Y-24562500D03*
X235175000Y-23062500D03*
X241075000Y-23062500D03*
X241075000Y-24562500D03*
X254225000Y-24562500D03*
X254225000Y-23062500D03*
X260125000Y-23062500D03*
X260125000Y-24562500D03*
X244700000Y-43612500D03*
X244700000Y-42112500D03*
X250600000Y-42112500D03*
X250600000Y-43612500D03*
X249462000Y-62662500D03*
X249462000Y-61162500D03*
X255362000Y-61162500D03*
X255362000Y-62662500D03*
X239938000Y-81712500D03*
X239938000Y-80212500D03*
X245838000Y-80212500D03*
X245838000Y-81712500D03*
X242319000Y-100762000D03*
X242319000Y-99262000D03*
X248219000Y-99262000D03*
X248219000Y-100762000D03*
X266131000Y-100762000D03*
X266131000Y-99262000D03*
X272031000Y-99262000D03*
X272031000Y-100762000D03*
X258988000Y-81712500D03*
X258988000Y-80212500D03*
X264888000Y-80212500D03*
X264888000Y-81712500D03*
X268512000Y-62662500D03*
X268512000Y-61162500D03*
X274412000Y-61162500D03*
X274412000Y-62662500D03*
X263750000Y-43612500D03*
X263750000Y-42112500D03*
X269650000Y-42112500D03*
X269650000Y-43612500D03*
X273275000Y-24562500D03*
X273275000Y-23062500D03*
X279175000Y-23062500D03*
X279175000Y-24562500D03*
X292325000Y-24562500D03*
X292325000Y-23062500D03*
X298225000Y-23062500D03*
X298225000Y-24562500D03*
X289944000Y-53137500D03*
X289944000Y-51637500D03*
X295844000Y-51637500D03*
X295844000Y-53137500D03*
X285181000Y-81712500D03*
X285181000Y-80212500D03*
X291081000Y-80212500D03*
X291081000Y-81712500D03*
X299469000Y-100762000D03*
X299469000Y-99262000D03*
X305369000Y-99262000D03*
X305369000Y-100762000D03*
X318519000Y-81712500D03*
X318519000Y-80212500D03*
X324419000Y-80212500D03*
X324419000Y-81712500D03*
X318519000Y-100762000D03*
X318519000Y-99262000D03*
X324419000Y-99262000D03*
X324419000Y-100762000D03*
X337569000Y-100762000D03*
X337569000Y-99262000D03*
X343469000Y-99262000D03*
X343469000Y-100762000D03*
D21*
X321350000Y-21431200D03*
X323850000Y-21431200D03*
X326350000Y-21431200D03*
D22*
X333375000Y-106204000D03*
D23*
X333375000Y-98584000D03*
D24*
X333375000Y-100619000D03*
X333375000Y-104169000D03*
D22*
X350044000Y-77628800D03*
D23*
X350044000Y-70008800D03*
D24*
X350044000Y-72043800D03*
X350044000Y-75593800D03*
D22*
X314325000Y-106204000D03*
D23*
X314325000Y-98584000D03*
D24*
X314325000Y-100619000D03*
X314325000Y-104169000D03*
D22*
X314325000Y-87153800D03*
D23*
X314325000Y-79533800D03*
D24*
X314325000Y-81568800D03*
X314325000Y-85118800D03*
D22*
X288131000Y-30003800D03*
D23*
X288131000Y-22383800D03*
D24*
X288131000Y-24418800D03*
X288131000Y-27968800D03*
D22*
X295275000Y-106204000D03*
D23*
X295275000Y-98584000D03*
D24*
X295275000Y-100619000D03*
X295275000Y-104169000D03*
D22*
X280988000Y-87153800D03*
D23*
X280988000Y-79533800D03*
D24*
X280988000Y-81568800D03*
X280988000Y-85118800D03*
D22*
X285750000Y-58578800D03*
D23*
X285750000Y-50958800D03*
D24*
X285750000Y-52993800D03*
X285750000Y-56543800D03*
D22*
X269081000Y-30003800D03*
D23*
X269081000Y-22383800D03*
D24*
X269081000Y-24418800D03*
X269081000Y-27968800D03*
D22*
X264319000Y-68103800D03*
D23*
X264319000Y-60483800D03*
D24*
X264319000Y-62518800D03*
X264319000Y-66068800D03*
D22*
X259556000Y-49053800D03*
D23*
X259556000Y-41433800D03*
D24*
X259556000Y-43468800D03*
X259556000Y-47018800D03*
D22*
X250031000Y-30003800D03*
D23*
X250031000Y-22383800D03*
D24*
X250031000Y-24418800D03*
X250031000Y-27968800D03*
D22*
X261938000Y-106204000D03*
D23*
X261938000Y-98584000D03*
D24*
X261938000Y-100619000D03*
X261938000Y-104169000D03*
D22*
X254794000Y-87153800D03*
D23*
X254794000Y-79533800D03*
D24*
X254794000Y-81568800D03*
X254794000Y-85118800D03*
D22*
X245269000Y-68103800D03*
D23*
X245269000Y-60483800D03*
D24*
X245269000Y-62518800D03*
X245269000Y-66068800D03*
D22*
X240506000Y-49053800D03*
D23*
X240506000Y-41433800D03*
D24*
X240506000Y-43468800D03*
X240506000Y-47018800D03*
D22*
X230981000Y-30003800D03*
D23*
X230981000Y-22383800D03*
D24*
X230981000Y-24418800D03*
X230981000Y-27968800D03*
D22*
X238125000Y-106204000D03*
D23*
X238125000Y-98584000D03*
D24*
X238125000Y-100619000D03*
X238125000Y-104169000D03*
D22*
X235744000Y-87153800D03*
D23*
X235744000Y-79533800D03*
D24*
X235744000Y-81568800D03*
X235744000Y-85118800D03*
D22*
X226219000Y-68103800D03*
D23*
X226219000Y-60483800D03*
D24*
X226219000Y-62518800D03*
X226219000Y-66068800D03*
D22*
X221456000Y-49053800D03*
D23*
X221456000Y-41433800D03*
D24*
X221456000Y-43468800D03*
X221456000Y-47018800D03*
D22*
X211931000Y-30003800D03*
D23*
X211931000Y-22383800D03*
D24*
X211931000Y-24418800D03*
X211931000Y-27968800D03*
D22*
X214312000Y-106204000D03*
D23*
X214312000Y-98584000D03*
D24*
X214312000Y-100619000D03*
X214312000Y-104169000D03*
D22*
X216694000Y-87153800D03*
D23*
X216694000Y-79533800D03*
D24*
X216694000Y-81568800D03*
X216694000Y-85118800D03*
D22*
X207169000Y-68103800D03*
D23*
X207169000Y-60483800D03*
D24*
X207169000Y-62518800D03*
X207169000Y-66068800D03*
D22*
X202406000Y-49053800D03*
D23*
X202406000Y-41433800D03*
D24*
X202406000Y-43468800D03*
X202406000Y-47018800D03*
D22*
X192881000Y-30003800D03*
D23*
X192881000Y-22383800D03*
D24*
X192881000Y-24418800D03*
X192881000Y-27968800D03*
D22*
X197644000Y-87153800D03*
D23*
X197644000Y-79533800D03*
D24*
X197644000Y-81568800D03*
X197644000Y-85118800D03*
D22*
X188119000Y-68103800D03*
D23*
X188119000Y-60483800D03*
D24*
X188119000Y-62518800D03*
X188119000Y-66068800D03*
D22*
X183356000Y-49053800D03*
D23*
X183356000Y-41433800D03*
D24*
X183356000Y-43468800D03*
X183356000Y-47018800D03*
D22*
X173831000Y-30003800D03*
D23*
X173831000Y-22383800D03*
D24*
X173831000Y-24418800D03*
X173831000Y-27968800D03*
D22*
X178594000Y-87153800D03*
D23*
X178594000Y-79533800D03*
D24*
X178594000Y-81568800D03*
X178594000Y-85118800D03*
D22*
X169069000Y-68103800D03*
D23*
X169069000Y-60483800D03*
D24*
X169069000Y-62518800D03*
X169069000Y-66068800D03*
D22*
X164306000Y-49053800D03*
D23*
X164306000Y-41433800D03*
D24*
X164306000Y-43468800D03*
X164306000Y-47018800D03*
D22*
X154781000Y-30003800D03*
D23*
X154781000Y-22383800D03*
D24*
X154781000Y-24418800D03*
X154781000Y-27968800D03*
D22*
X159544000Y-87153800D03*
D23*
X159544000Y-79533800D03*
D24*
X159544000Y-81568800D03*
X159544000Y-85118800D03*
D22*
X150019000Y-68103800D03*
D23*
X150019000Y-60483800D03*
D24*
X150019000Y-62518800D03*
X150019000Y-66068800D03*
D22*
X145256000Y-49053800D03*
D23*
X145256000Y-41433800D03*
D24*
X145256000Y-43468800D03*
X145256000Y-47018800D03*
D22*
X135731000Y-30003800D03*
D23*
X135731000Y-22383800D03*
D24*
X135731000Y-24418800D03*
X135731000Y-27968800D03*
D22*
X140494000Y-87153800D03*
D23*
X140494000Y-79533800D03*
D24*
X140494000Y-81568800D03*
X140494000Y-85118800D03*
D22*
X130969000Y-68103800D03*
D23*
X130969000Y-60483800D03*
D24*
X130969000Y-62518800D03*
X130969000Y-66068800D03*
D22*
X126206000Y-49053800D03*
D23*
X126206000Y-41433800D03*
D24*
X126206000Y-43468800D03*
X126206000Y-47018800D03*
D22*
X116681000Y-30003800D03*
D23*
X116681000Y-22383800D03*
D24*
X116681000Y-24418800D03*
X116681000Y-27968800D03*
D22*
X121444000Y-87153800D03*
D23*
X121444000Y-79533800D03*
D24*
X121444000Y-81568800D03*
X121444000Y-85118800D03*
D22*
X111919000Y-68103800D03*
D23*
X111919000Y-60483800D03*
D24*
X111919000Y-62518800D03*
X111919000Y-66068800D03*
D22*
X107156000Y-49053800D03*
D23*
X107156000Y-41433800D03*
D24*
X107156000Y-43468800D03*
X107156000Y-47018800D03*
D22*
X97631200Y-30003800D03*
D23*
X97631200Y-22383800D03*
D24*
X97631200Y-24418800D03*
X97631200Y-27968800D03*
D22*
X142875000Y-106204000D03*
D23*
X142875000Y-98584000D03*
D24*
X142875000Y-100619000D03*
X142875000Y-104169000D03*
D22*
X102394000Y-87153800D03*
D23*
X102394000Y-79533800D03*
D24*
X102394000Y-81568800D03*
X102394000Y-85118800D03*
D22*
X92868800Y-68103800D03*
D23*
X92868800Y-60483800D03*
D24*
X92868800Y-62518800D03*
X92868800Y-66068800D03*
D22*
X88106200Y-49053800D03*
D23*
X88106200Y-41433800D03*
D24*
X88106200Y-43468800D03*
X88106200Y-47018800D03*
D22*
X78581200Y-30003800D03*
D23*
X78581200Y-22383800D03*
D24*
X78581200Y-24418800D03*
X78581200Y-27968800D03*
D22*
X71437500Y-106204000D03*
D23*
X71437500Y-98584000D03*
D24*
X71437500Y-100619000D03*
X71437500Y-104169000D03*
D22*
X83343800Y-87153800D03*
D23*
X83343800Y-79533800D03*
D24*
X83343800Y-81568800D03*
X83343800Y-85118800D03*
D22*
X73818800Y-68103800D03*
D23*
X73818800Y-60483800D03*
D24*
X73818800Y-62518800D03*
X73818800Y-66068800D03*
D22*
X69056200Y-49053800D03*
D23*
X69056200Y-41433800D03*
D24*
X69056200Y-43468800D03*
X69056200Y-47018800D03*
D22*
X59531200Y-30003800D03*
D23*
X59531200Y-22383800D03*
D24*
X59531200Y-24418800D03*
X59531200Y-27968800D03*
D22*
X47625000Y-106204000D03*
D23*
X47625000Y-98584000D03*
D24*
X47625000Y-100619000D03*
X47625000Y-104169000D03*
D22*
X64293800Y-87153800D03*
D23*
X64293800Y-79533800D03*
D24*
X64293800Y-81568800D03*
X64293800Y-85118800D03*
D22*
X54768800Y-68103800D03*
D23*
X54768800Y-60483800D03*
D24*
X54768800Y-62518800D03*
X54768800Y-66068800D03*
D22*
X50006200Y-49053800D03*
D23*
X50006200Y-41433800D03*
D24*
X50006200Y-43468800D03*
X50006200Y-47018800D03*
D22*
X40481200Y-30003800D03*
D23*
X40481200Y-22383800D03*
D24*
X40481200Y-24418800D03*
X40481200Y-27968800D03*
D22*
X23812500Y-106204000D03*
D23*
X23812500Y-98584000D03*
D24*
X23812500Y-100619000D03*
X23812500Y-104169000D03*
D22*
X33337500Y-87153800D03*
D23*
X33337500Y-79533800D03*
D24*
X33337500Y-81568800D03*
X33337500Y-85118800D03*
D22*
X28575000Y-68103800D03*
D23*
X28575000Y-60483800D03*
D24*
X28575000Y-62518800D03*
X28575000Y-66068800D03*
D22*
X26193800Y-49053800D03*
D23*
X26193800Y-41433800D03*
D24*
X26193800Y-43468800D03*
X26193800Y-47018800D03*
D22*
X21431200Y-30003800D03*
D23*
X21431200Y-22383800D03*
D24*
X21431200Y-24418800D03*
X21431200Y-27968800D03*
M02*
