M48
; DRILL file {KiCad (5.1.12)-1} date 12/17/22 21:01:27
; FORMAT={-:-/ absolute / metric / decimal}
; #@! TF.CreationDate,2022-12-17T21:01:27+09:00
; #@! TF.GenerationSoftware,Kicad,Pcbnew,(5.1.12)-1
; #@! TF.FileFunction,NonPlated,1,2,NPTH
FMAT,2
METRIC
T1C1.800
T2C2.000
T3C3.000
T4C3.048
T5C3.050
T6C3.988
T7C4.000
%
G90
G05
T1
X35.401Y-85.725
X45.561Y-85.725
X144.939Y-104.775
X155.099Y-104.775
X287.814Y-57.15
X297.974Y-57.15
T2
X23.495Y-28.575
X25.876Y-104.775
X28.258Y-47.625
X30.639Y-66.675
X33.655Y-28.575
X36.036Y-104.775
X38.417Y-47.625
X40.799Y-66.675
X42.545Y-28.575
X49.689Y-104.775
X52.07Y-47.625
X52.705Y-28.575
X56.832Y-66.675
X59.849Y-104.775
X61.595Y-28.575
X62.23Y-47.625
X66.358Y-85.725
X66.992Y-66.675
X71.12Y-47.625
X71.755Y-28.575
X73.501Y-104.775
X75.882Y-66.675
X76.517Y-85.725
X80.645Y-28.575
X81.28Y-47.625
X83.661Y-104.775
X85.407Y-85.725
X86.042Y-66.675
X90.17Y-47.625
X90.805Y-28.575
X94.932Y-66.675
X95.567Y-85.725
X99.695Y-28.575
X100.33Y-47.625
X104.458Y-85.725
X105.092Y-66.675
X109.22Y-47.625
X109.855Y-28.575
X113.982Y-66.675
X114.618Y-85.725
X118.745Y-28.575
X119.38Y-47.625
X123.508Y-85.725
X124.142Y-66.675
X128.27Y-47.625
X128.905Y-28.575
X133.032Y-66.675
X133.668Y-85.725
X137.795Y-28.575
X138.43Y-47.625
X142.558Y-85.725
X143.192Y-66.675
X147.32Y-47.625
X147.955Y-28.575
X152.082Y-66.675
X152.718Y-85.725
X156.845Y-28.575
X157.48Y-47.625
X161.608Y-85.725
X162.242Y-66.675
X166.37Y-47.625
X167.005Y-28.575
X171.132Y-66.675
X171.768Y-85.725
X175.895Y-28.575
X176.53Y-47.625
X180.658Y-85.725
X181.292Y-66.675
X185.42Y-47.625
X186.055Y-28.575
X190.182Y-66.675
X190.818Y-85.725
X194.945Y-28.575
X195.58Y-47.625
X199.708Y-85.725
X200.342Y-66.675
X204.47Y-47.625
X205.105Y-28.575
X209.232Y-66.675
X209.868Y-85.725
X213.995Y-28.575
X214.63Y-47.625
X216.376Y-104.775
X218.758Y-85.725
X219.392Y-66.675
X223.52Y-47.625
X224.155Y-28.575
X226.536Y-104.775
X228.282Y-66.675
X228.918Y-85.725
X233.045Y-28.575
X233.68Y-47.625
X237.808Y-85.725
X238.442Y-66.675
X240.189Y-104.775
X242.57Y-47.625
X243.205Y-28.575
X247.332Y-66.675
X247.968Y-85.725
X250.349Y-104.775
X252.095Y-28.575
X252.73Y-47.625
X256.858Y-85.725
X257.492Y-66.675
X261.62Y-47.625
X262.255Y-28.575
X264.001Y-104.775
X266.382Y-66.675
X267.018Y-85.725
X271.145Y-28.575
X271.78Y-47.625
X274.161Y-104.775
X276.542Y-66.675
X281.305Y-28.575
X283.051Y-85.725
X290.195Y-28.575
X293.211Y-85.725
X297.339Y-104.775
X300.355Y-28.575
X307.499Y-104.775
X316.389Y-85.725
X316.389Y-104.775
X326.549Y-85.725
X326.549Y-104.775
X335.439Y-104.775
X345.599Y-104.775
T3
X26.035Y-33.655
X28.416Y-109.855
X30.797Y-52.705
X32.385Y-31.115
X33.179Y-71.755
X34.766Y-107.315
X37.148Y-50.165
X37.941Y-90.805
X39.529Y-69.215
X44.291Y-88.265
X45.085Y-33.655
X51.435Y-31.115
X52.229Y-109.855
X54.61Y-52.705
X58.579Y-107.315
X59.372Y-71.755
X60.96Y-50.165
X64.135Y-33.655
X65.722Y-69.215
X68.897Y-90.805
X70.485Y-31.115
X73.66Y-52.705
X75.248Y-88.265
X76.041Y-109.855
X78.422Y-71.755
X80.01Y-50.165
X82.391Y-107.315
X83.185Y-33.655
X84.772Y-69.215
X87.947Y-90.805
X89.535Y-31.115
X92.71Y-52.705
X94.297Y-88.265
X97.472Y-71.755
X99.06Y-50.165
X102.235Y-33.655
X103.822Y-69.215
X106.998Y-90.805
X108.585Y-31.115
X111.76Y-52.705
X113.348Y-88.265
X116.522Y-71.755
X118.11Y-50.165
X121.285Y-33.655
X122.872Y-69.215
X126.048Y-90.805
X127.635Y-31.115
X130.81Y-52.705
X132.398Y-88.265
X135.572Y-71.755
X137.16Y-50.165
X140.335Y-33.655
X141.922Y-69.215
X145.098Y-90.805
X146.685Y-31.115
X147.479Y-109.855
X149.86Y-52.705
X151.448Y-88.265
X153.829Y-107.315
X154.622Y-71.755
X156.21Y-50.165
X159.385Y-33.655
X160.972Y-69.215
X164.148Y-90.805
X165.735Y-31.115
X168.91Y-52.705
X170.498Y-88.265
X173.672Y-71.755
X175.26Y-50.165
X178.435Y-33.655
X180.022Y-69.215
X183.198Y-90.805
X184.785Y-31.115
X187.96Y-52.705
X189.548Y-88.265
X192.722Y-71.755
X194.31Y-50.165
X197.485Y-33.655
X199.072Y-69.215
X202.248Y-90.805
X203.835Y-31.115
X207.01Y-52.705
X208.598Y-88.265
X211.772Y-71.755
X213.36Y-50.165
X216.535Y-33.655
X218.122Y-69.215
X218.916Y-109.855
X221.298Y-90.805
X222.885Y-31.115
X225.266Y-107.315
X226.06Y-52.705
X227.648Y-88.265
X230.822Y-71.755
X232.41Y-50.165
X235.585Y-33.655
X237.172Y-69.215
X240.348Y-90.805
X241.935Y-31.115
X242.729Y-109.855
X245.11Y-52.705
X246.698Y-88.265
X249.079Y-107.315
X249.872Y-71.755
X251.46Y-50.165
X254.635Y-33.655
X256.222Y-69.215
X259.398Y-90.805
X260.985Y-31.115
X264.16Y-52.705
X265.748Y-88.265
X266.541Y-109.855
X268.922Y-71.755
X270.51Y-50.165
X272.891Y-107.315
X273.685Y-33.655
X275.272Y-69.215
X280.035Y-31.115
X285.591Y-90.805
X290.354Y-62.23
X291.941Y-88.265
X292.735Y-33.655
X296.704Y-59.69
X299.085Y-31.115
X299.879Y-109.855
X306.229Y-107.315
X318.929Y-90.805
X318.929Y-109.855
X325.279Y-88.265
X325.279Y-107.315
X337.979Y-109.855
X344.329Y-107.315
T4
X285.909Y-45.212
X285.909Y-69.088
T5
X28.581Y-92.725
X52.381Y-92.725
X100.009Y-111.775
X200.029Y-111.775
T6
X292.894Y-57.15
X292.894Y-57.15
X301.149Y-45.212
X301.149Y-69.088
T7
X28.575Y-28.575
X28.581Y-77.485
X30.956Y-104.775
X33.337Y-47.625
X35.719Y-66.675
X40.481Y-85.725
X47.625Y-28.575
X52.381Y-77.485
X54.769Y-104.775
X57.15Y-47.625
X61.912Y-66.675
X66.675Y-28.575
X71.438Y-85.725
X76.2Y-47.625
X78.581Y-104.775
X80.962Y-66.675
X85.725Y-28.575
X90.487Y-85.725
X95.25Y-47.625
X100.009Y-96.535
X100.012Y-66.675
X104.775Y-28.575
X109.538Y-85.725
X114.3Y-47.625
X119.062Y-66.675
X123.825Y-28.575
X128.588Y-85.725
X133.35Y-47.625
X138.112Y-66.675
X142.875Y-28.575
X147.638Y-85.725
X150.019Y-104.775
X152.4Y-47.625
X157.162Y-66.675
X161.925Y-28.575
X166.688Y-85.725
X171.45Y-47.625
X176.212Y-66.675
X180.975Y-28.575
X185.738Y-85.725
X190.5Y-47.625
X195.262Y-66.675
X200.025Y-28.575
X200.029Y-96.535
X204.788Y-85.725
X209.55Y-47.625
X214.312Y-66.675
X219.075Y-28.575
X221.456Y-104.775
X223.838Y-85.725
X228.6Y-47.625
X233.362Y-66.675
X238.125Y-28.575
X242.888Y-85.725
X245.269Y-104.775
X247.65Y-47.625
X252.412Y-66.675
X257.175Y-28.575
X261.938Y-85.725
X266.7Y-47.625
X269.081Y-104.775
X271.462Y-66.675
X276.225Y-28.575
X288.131Y-85.725
X292.894Y-57.15
X295.275Y-28.575
X302.419Y-104.775
X321.469Y-85.725
X321.469Y-104.775
X340.519Y-104.775
T0
M30
