M48
; DRILL file {KiCad (5.1.12)-1} date 12/17/22 21:01:27
; FORMAT={-:-/ absolute / metric / decimal}
; #@! TF.CreationDate,2022-12-17T21:01:27+09:00
; #@! TF.GenerationSoftware,Kicad,Pcbnew,(5.1.12)-1
; #@! TF.FileFunction,Plated,1,2,PTH
FMAT,2
METRIC
T1C0.400
T2C0.800
T3C0.813
T4C1.000
T5C1.300
T6C2.000
%
G90
G05
T1
X23.812Y-23.812
X26.194Y-97.631
X28.575Y-42.862
X30.956Y-61.912
X33.977Y-58.531
X35.719Y-80.962
X35.938Y-41.091
X36.472Y-77.724
X40.54Y-60.635
X42.862Y-23.812
X45.201Y-79.829
X50.006Y-97.631
X50.111Y-99.948
X52.387Y-42.862
X52.447Y-38.822
X54.825Y-46.228
X57.15Y-60.187
X57.15Y-61.912
X57.261Y-63.312
X59.191Y-38.825
X59.305Y-40.542
X60.313Y-80.788
X61.912Y-23.812
X64.15Y-52.305
X66.675Y-80.962
X67.662Y-34.97
X70.415Y-71.364
X70.608Y-41.896
X71.438Y-42.862
X72.553Y-40.818
X73.623Y-97.435
X74.04Y-78.454
X75.215Y-60.382
X75.384Y-35.398
X75.933Y-94.169
X76.2Y-61.912
X76.313Y-60.47
X77.785Y-82.946
X79.019Y-96.399
X79.197Y-82.176
X80.962Y-23.812
X83.51Y-53.904
X85.725Y-80.962
X86.035Y-79.202
X87.248Y-99.62
X87.863Y-71.396
X90.022Y-41.658
X90.487Y-42.862
X91.462Y-38.355
X95.25Y-61.912
X95.317Y-35.32
X95.52Y-60.214
X96.794Y-40.542
X98.569Y-83.641
X100.012Y-23.812
X102.932Y-52.537
X104.775Y-80.962
X106.567Y-63.592
X107.292Y-71.672
X107.663Y-38.345
X108.486Y-40.556
X109.518Y-41.666
X109.538Y-42.862
X112.04Y-78.436
X114.3Y-61.912
X114.481Y-63.694
X115.834Y-63.688
X116.402Y-85.638
X117.352Y-38.542
X119.062Y-23.812
X122.362Y-47.099
X123.033Y-79.266
X123.825Y-80.962
X126.74Y-66.212
X127.092Y-37.561
X128.588Y-42.862
X131.03Y-40.937
X131.054Y-45.006
X132.71Y-60.212
X133.35Y-61.912
X134.932Y-25.6
X135.832Y-85.638
X138.112Y-23.812
X142.875Y-80.962
X143.154Y-48.767
X144.337Y-65.392
X144.715Y-63.558
X145.06Y-97.435
X146.902Y-37.556
X146.902Y-40.54
X147.638Y-42.862
X150.212Y-78.436
X152.4Y-61.912
X152.458Y-60.426
X154.335Y-63.681
X154.474Y-83.922
X154.77Y-41.09
X156.655Y-81.573
X157.162Y-23.812
X161.925Y-80.962
X163.71Y-82.743
X166.688Y-42.862
X166.779Y-44.057
X167.617Y-37.558
X167.773Y-68.673
X170.437Y-83.34
X171.45Y-61.912
X171.576Y-60.206
X172.178Y-53.894
X172.184Y-38.31
X172.986Y-40.579
X173.195Y-37.551
X174.755Y-80.263
X176.212Y-23.812
X176.396Y-69.861
X179.054Y-46.946
X180.975Y-80.962
X182.56Y-34.97
X183.416Y-66.212
X185.738Y-42.862
X186.872Y-44.63
X187.031Y-78.445
X190.339Y-27.341
X190.437Y-34.865
X190.5Y-61.912
X191.228Y-51.3
X191.355Y-63.682
X192.058Y-65.425
X192.182Y-83.927
X193.199Y-78.462
X195.262Y-23.812
X197.228Y-95.246
X197.5Y-48.082
X199.692Y-37.712
X200.025Y-80.962
X203.083Y-71.362
X203.728Y-40.864
X204.788Y-42.862
X205.776Y-88.606
X209.171Y-52.582
X209.55Y-61.912
X209.655Y-63.17
X210.145Y-80.775
X211.18Y-37.852
X211.254Y-66.324
X212.388Y-93.193
X214.114Y-95.287
X214.256Y-54.77
X214.312Y-23.812
X216.498Y-97.435
X218.547Y-31.413
X218.551Y-101.785
X219.075Y-80.962
X220.814Y-87.652
X222.59Y-65.968
X223.402Y-40.539
X223.838Y-42.862
X228.6Y-61.912
X228.604Y-27.149
X229.991Y-37.714
X230.194Y-40.646
X230.295Y-90.625
X230.295Y-96.108
X230.353Y-63.684
X230.554Y-66.938
X230.634Y-78.874
X233.362Y-23.812
X235.608Y-53.536
X236.1Y-109.25
X238.125Y-78.581
X240.31Y-97.435
X240.541Y-71.362
X242.888Y-42.862
X244.229Y-74.782
X244.333Y-78.597
X244.475Y-91.936
X244.95Y-45.121
X245.104Y-90.135
X245.239Y-96.117
X245.952Y-34.97
X246.876Y-108.651
X247.315Y-60.206
X247.61Y-27.745
X247.65Y-61.912
X250.054Y-40.542
X251.812Y-46.209
X252.412Y-23.812
X253.001Y-37.871
X257.175Y-78.581
X257.838Y-113.407
X258.063Y-50.499
X261.938Y-42.862
X262.823Y-69.132
X262.926Y-101.835
X264.1Y-44.635
X264.123Y-97.435
X264.413Y-98.98
X264.791Y-79.189
X266.596Y-98.165
X266.7Y-61.912
X267.347Y-78.433
X267.564Y-76.729
X268.728Y-63.7
X269.193Y-58.448
X270.089Y-91.097
X271.175Y-25.714
X271.462Y-23.812
X273.686Y-101.51
X276.618Y-49.713
X276.872Y-38.813
X277.921Y-62.69
X278.444Y-37.886
X283.369Y-78.581
X283.418Y-38.813
X283.635Y-26.924
X287.935Y-49.81
X288.25Y-53.954
X290.324Y-91.085
X290.324Y-78.817
X290.512Y-23.812
X291.145Y-31.162
X291.229Y-38.031
X292.284Y-113.259
X295.111Y-50.029
X297.458Y-77.09
X297.46Y-97.435
X297.726Y-25.605
X298.335Y-89.695
X302.354Y-96.138
X305.707Y-38.821
X307.851Y-102.688
X314.062Y-96.102
X316.51Y-97.435
X316.706Y-78.802
X316.959Y-38.031
X322.065Y-94.37
X322.982Y-96.114
X324.675Y-79.201
X327.723Y-33.533
X327.741Y-47.693
X334.361Y-31.224
X335.56Y-97.435
X335.85Y-99.777
X346.023Y-75.093
T3
X21.431Y-22.384
X21.431Y-30.004
X23.812Y-98.584
X23.812Y-106.204
X26.194Y-41.434
X26.194Y-49.054
X28.575Y-60.484
X28.575Y-68.104
X33.337Y-79.534
X33.337Y-87.154
X40.481Y-22.384
X40.481Y-30.004
X47.625Y-98.584
X47.625Y-106.204
X50.006Y-41.434
X50.006Y-49.054
X54.769Y-60.484
X54.769Y-68.104
X59.531Y-22.384
X59.531Y-30.004
X64.294Y-79.534
X64.294Y-87.154
X69.056Y-41.434
X69.056Y-49.054
X71.438Y-98.584
X71.438Y-106.204
X73.819Y-60.484
X73.819Y-68.104
X78.581Y-22.384
X78.581Y-30.004
X83.344Y-79.534
X83.344Y-87.154
X88.106Y-41.434
X88.106Y-49.054
X92.869Y-60.484
X92.869Y-68.104
X97.631Y-22.384
X97.631Y-30.004
X102.394Y-79.534
X102.394Y-87.154
X107.156Y-41.434
X107.156Y-49.054
X111.919Y-60.484
X111.919Y-68.104
X116.681Y-22.384
X116.681Y-30.004
X121.444Y-79.534
X121.444Y-87.154
X126.206Y-41.434
X126.206Y-49.054
X130.969Y-60.484
X130.969Y-68.104
X135.731Y-22.384
X135.731Y-30.004
X140.494Y-79.534
X140.494Y-87.154
X142.875Y-98.584
X142.875Y-106.204
X145.256Y-41.434
X145.256Y-49.054
X150.019Y-60.484
X150.019Y-68.104
X154.781Y-22.384
X154.781Y-30.004
X159.544Y-79.534
X159.544Y-87.154
X164.306Y-41.434
X164.306Y-49.054
X169.069Y-60.484
X169.069Y-68.104
X173.831Y-22.384
X173.831Y-30.004
X178.594Y-79.534
X178.594Y-87.154
X183.356Y-41.434
X183.356Y-49.054
X188.119Y-60.484
X188.119Y-68.104
X192.881Y-22.384
X192.881Y-30.004
X197.644Y-79.534
X197.644Y-87.154
X202.406Y-41.434
X202.406Y-49.054
X207.169Y-60.484
X207.169Y-68.104
X211.931Y-22.384
X211.931Y-30.004
X214.312Y-98.584
X214.312Y-106.204
X216.694Y-79.534
X216.694Y-87.154
X221.456Y-41.434
X221.456Y-49.054
X226.219Y-60.484
X226.219Y-68.104
X230.981Y-22.384
X230.981Y-30.004
X235.744Y-79.534
X235.744Y-87.154
X238.125Y-98.584
X238.125Y-106.204
X240.506Y-41.434
X240.506Y-49.054
X245.269Y-60.484
X245.269Y-68.104
X250.031Y-22.384
X250.031Y-30.004
X254.794Y-79.534
X254.794Y-87.154
X259.556Y-41.434
X259.556Y-49.054
X261.938Y-98.584
X261.938Y-106.204
X264.319Y-60.484
X264.319Y-68.104
X269.081Y-22.384
X269.081Y-30.004
X280.988Y-79.534
X280.988Y-87.154
X285.75Y-50.959
X285.75Y-58.579
X288.131Y-22.384
X288.131Y-30.004
X295.275Y-98.584
X295.275Y-106.204
X314.325Y-79.534
X314.325Y-87.154
X314.325Y-98.584
X314.325Y-106.204
X332.863Y-21.082
X332.863Y-23.622
X332.863Y-26.162
X332.863Y-28.702
X332.863Y-31.242
X332.863Y-33.782
X332.863Y-36.322
X332.863Y-38.862
X332.863Y-41.402
X332.863Y-43.942
X332.863Y-46.482
X332.863Y-49.022
X332.863Y-51.562
X333.375Y-98.584
X333.375Y-106.204
X348.083Y-21.082
X348.083Y-23.622
X348.083Y-26.162
X348.083Y-28.702
X348.083Y-31.242
X348.083Y-33.782
X348.083Y-36.322
X348.083Y-38.862
X348.083Y-41.402
X348.083Y-43.942
X348.083Y-46.482
X348.083Y-49.022
X348.083Y-51.562
X350.044Y-70.009
X350.044Y-77.629
T4
X333.019Y-64.175
X333.019Y-66.675
X333.019Y-69.175
X347.519Y-64.175
X347.519Y-69.175
T5
X337.269Y-57.15
X343.769Y-57.15
T2
G00X321.35Y-21.431
M15
G01X321.35Y-21.431
M16
G05
G00X323.85Y-21.431
M15
G01X323.85Y-21.431
M16
G05
G00X326.35Y-21.431
M15
G01X326.35Y-21.431
M16
G05
T6
G00X340.119Y-61.075
M15
G01X340.919Y-61.075
M16
G05
G00X340.119Y-72.275
M15
G01X340.919Y-72.275
M16
G05
T0
M30
