<?xml version="1.0" standalone="no"?>
 <!DOCTYPE svg PUBLIC "-//W3C//DTD SVG 1.1//EN" 
 "http://www.w3.org/Graphics/SVG/1.1/DTD/svg11.dtd"> 
<svg
  xmlns:svg="http://www.w3.org/2000/svg"
  xmlns="http://www.w3.org/2000/svg"
  xmlns:xlink="http://www.w3.org/1999/xlink"
  version="1.1"
  width="41.998900cm" height="29.700220cm" viewBox="0 0 165350 116930">
<title>SVG Picture created as jtnk67-Edge_Cuts.svg date 2022/12/23 09:26:31 </title>
  <desc>Picture generated by PCBNEW </desc>
<g style="fill:#000000; fill-opacity:1;stroke:#000000; stroke-opacity:1;
stroke-linecap:round; stroke-linejoin:round;"
 transform="translate(0 0) scale(1 1)">
</g>
<g style="fill:#000000; fill-opacity:0.0; 
stroke:#000000; stroke-width:-0.000393701; stroke-opacity:1; 
stroke-linecap:round; stroke-linejoin:round;">
</g>
<g style="fill:#000000; fill-opacity:0.0; 
stroke:#000000; stroke-width:39.3701; stroke-opacity:1; 
stroke-linecap:round; stroke-linejoin:round;">
<path d="M136875 20625
L135937 20625
" />
<path d="M136875 24375
L136875 20625
" />
<path d="M131250 24375
L136875 24375
" />
<path d="M131250 20625
L131250 24375
" />
<path d="M135937 20625
L131250 20625
" />
<path d="M5620 7972
L5620 44507
" />
<path d="M5620.08 44507.9 A1181.1 1181.1 0.0 0 0 6801.18 45689" />
<path d="M6801.18 6791.34 A1181.1 1181.1 0.0 0 0 5620.08 7972.44" />
<path d="M139688 7972.44 A1181.1 1181.1 0.0 0 0 138506 6791.34" />
<path d="M138506 45689 A1181.1 1181.1 0.0 0 0 139688 44507.9" />
<path d="M139687 44507
L139687 7972
" />
<path d="M6801 45688
L138506 45688
" />
<path d="M138506 6791
L6801 6791
" />
</g>
<g style="fill:#000000; fill-opacity:0.0; 
stroke:#000000; stroke-width:3.93701; stroke-opacity:1; 
stroke-linecap:round; stroke-linejoin:round;">
<circle cx="44062.6" cy="7500" r="433.071" /> 
<circle cx="82500" cy="7500" r="433.071" /> 
<circle cx="6328.74" cy="8484.25" r="433.071" /> 
<circle cx="44062.6" cy="44062.6" r="433.071" /> 
<circle cx="82500" cy="44062.6" r="433.071" /> 
<circle cx="138750" cy="44062.6" r="433.071" /> 
<circle cx="138750" cy="26240.2" r="433.071" /> 
<circle cx="138750" cy="8437.48" r="433.071" /> 
<circle cx="6328.74" cy="43996.1" r="433.071" /> 
<circle cx="6328.74" cy="26240.2" r="433.071" /> 
<g >
</g>
<g >
</g>
<g >
</g>
<g >
</g>
<g >
</g>
<g >
</g>
<g >
</g>
<g >
</g>
<g >
</g>
<g >
</g>
<g >
</g>
</g> 
</svg>
