  0
SECTION
  2
HEADER
  9
$ANGBASE
  50
0.0
  9
$ANGDIR
  70
1
  9
$MEASUREMENT
  70
0
  0
ENDSEC
  0
SECTION
  2
TABLES
  0
TABLE
  2
LTYPE
  70
4
  0
LTYPE
  5
40F
  2
CONTINUOUS
  70
0
  3
Solid line
  72
65
  73
0
  40
0.0
  0
LTYPE
  5
410
  2
DASHDOT
 70
0
  3
Dash Dot ____ _ ____ _
 72
65
 73
4
 40
2.0
 49
1.25
 49
-0.25
 49
0.25
 49
-0.25
  0
LTYPE
  5
411
  2
DASHED
 70
0
  3
Dashed __ __ __ __ __
 72
65
 73
2
 40
0.75
 49
0.5
 49
-0.25
  0
LTYPE
  5
43B
  2
DOTTED
 70
0
  3
Dotted .  .  .  .
 72
65
 73
2
 40
0.2
 49
0.0
 49
-0.2
  0
ENDTAB
  0
TABLE
  2
STYLE
  70
4
  0
STYLE
  2
KICAD
  70
0
  40
0
  41
1
  42
1
  50
0
  71
0
  3
isocp.shx
  0
STYLE
  2
KICADB
  70
0
  40
0
  41
1
  42
1
  50
0
  71
0
  3
isocp.shx
  0
STYLE
  2
KICADI
  70
0
  40
0
  41
1
  42
1
  50
15
  71
0
  3
isocp.shx
  0
STYLE
  2
KICADBI
  70
0
  40
0
  41
1
  42
1
  50
15
  71
0
  3
isocp.shx
  0
ENDTAB
  0
TABLE
  2
LAYER
  70
1
  0
LAYER
  2
BLACK
  70
0
  62
7
  6
CONTINUOUS
  0
ENDTAB
  0
ENDSEC
  0
SECTION
  2
ENTITIES
0
LINE
8
BLACK
6
CONTINUOUS
10
12.5072
20
-1.34648
11
12.5072
21
-1.34653
0
LINE
8
BLACK
6
CONTINUOUS
10
12.5072
20
-1.34653
11
12.5073
21
-1.34659
0
LINE
8
BLACK
6
CONTINUOUS
10
12.5073
20
-1.34659
11
12.5073
21
-1.34667
0
LINE
8
BLACK
6
CONTINUOUS
10
12.5073
20
-1.34667
11
12.5073
21
-1.39
0
LINE
8
BLACK
6
CONTINUOUS
10
12.5073
20
-1.39
11
12.5073
21
-1.39
0
LINE
8
BLACK
6
CONTINUOUS
10
12.5073
20
-1.39
11
12.5073
21
-1.39
0
LINE
8
BLACK
6
CONTINUOUS
10
12.5073
20
-1.39
11
12.5072
21
-1.4061
0
LINE
8
BLACK
6
CONTINUOUS
10
12.5072
20
-1.4061
11
12.5072
21
-1.4061
0
LINE
8
BLACK
6
CONTINUOUS
10
12.5072
20
-1.4061
11
12.5072
21
-1.40611
0
LINE
8
BLACK
6
CONTINUOUS
10
12.5072
20
-1.40611
11
12.5071
21
-1.41947
0
LINE
8
BLACK
6
CONTINUOUS
10
12.5071
20
-1.41947
11
12.5071
21
-1.41947
0
LINE
8
BLACK
6
CONTINUOUS
10
12.5071
20
-1.41947
11
12.5071
21
-1.41947
0
LINE
8
BLACK
6
CONTINUOUS
10
12.5071
20
-1.41947
11
12.5068
21
-1.42887
0
LINE
8
BLACK
6
CONTINUOUS
10
12.5068
20
-1.42887
11
12.5068
21
-1.42888
0
LINE
8
BLACK
6
CONTINUOUS
10
12.5068
20
-1.42888
11
12.5068
21
-1.42888
0
LINE
8
BLACK
6
CONTINUOUS
10
12.5068
20
-1.42888
11
12.5065
21
-1.43308
0
LINE
8
BLACK
6
CONTINUOUS
10
12.5065
20
-1.43308
11
12.5065
21
-1.43308
0
LINE
8
BLACK
6
CONTINUOUS
10
12.5065
20
-1.43308
11
12.5065
21
-1.43309
0
LINE
8
BLACK
6
CONTINUOUS
10
12.5065
20
-1.43309
11
12.5065
21
-1.43312
0
LINE
8
BLACK
6
CONTINUOUS
10
12.5065
20
-1.43312
11
12.5065
21
-1.43315
0
LINE
8
BLACK
6
CONTINUOUS
10
12.5065
20
-1.43315
11
12.5065
21
-1.43316
0
LINE
8
BLACK
6
CONTINUOUS
10
12.5065
20
-1.43316
11
12.5065
21
-1.43316
0
LINE
8
BLACK
6
CONTINUOUS
10
12.5065
20
-1.43316
11
12.5064
21
-1.43327
0
LINE
8
BLACK
6
CONTINUOUS
10
12.5064
20
-1.43327
11
12.5064
21
-1.43328
0
LINE
8
BLACK
6
CONTINUOUS
10
12.5064
20
-1.43328
11
12.5064
21
-1.43328
0
LINE
8
BLACK
6
CONTINUOUS
10
12.5064
20
-1.43328
11
12.5064
21
-1.4333
0
LINE
8
BLACK
6
CONTINUOUS
10
12.5064
20
-1.4333
11
12.5064
21
-1.43333
0
LINE
8
BLACK
6
CONTINUOUS
10
12.5064
20
-1.43333
11
12.5064
21
-1.43333
0
LINE
8
BLACK
6
CONTINUOUS
10
12.5064
20
-1.43333
11
12.5064
21
-1.43334
0
LINE
8
BLACK
6
CONTINUOUS
10
12.5064
20
-1.43334
11
12.5063
21
-1.43335
0
LINE
8
BLACK
6
CONTINUOUS
10
12.5063
20
-1.43335
11
12.5063
21
-1.43336
0
LINE
8
BLACK
6
CONTINUOUS
10
12.5063
20
-1.43336
11
12.5063
21
-1.43336
0
LINE
8
BLACK
6
CONTINUOUS
10
12.5063
20
-1.43336
11
12.5063
21
-1.43337
0
LINE
8
BLACK
6
CONTINUOUS
10
12.5063
20
-1.43337
11
12.5063
21
-1.43337
0
LINE
8
BLACK
6
CONTINUOUS
10
12.5063
20
-1.43337
11
12.5062
21
-1.43337
0
LINE
8
BLACK
6
CONTINUOUS
10
12.5062
20
-1.43337
11
12.5062
21
-1.43337
0
LINE
8
BLACK
6
CONTINUOUS
10
12.5062
20
-1.43337
11
12.5062
21
-1.43337
0
LINE
8
BLACK
6
CONTINUOUS
10
12.5062
20
-1.43337
11
12.5062
21
-1.43335
0
LINE
8
BLACK
6
CONTINUOUS
10
12.5062
20
-1.43335
11
12.5062
21
-1.43334
0
LINE
8
BLACK
6
CONTINUOUS
10
12.5062
20
-1.43334
11
12.5061
21
-1.43334
0
LINE
8
BLACK
6
CONTINUOUS
10
12.5061
20
-1.43334
11
12.5061
21
-1.43334
0
LINE
8
BLACK
6
CONTINUOUS
10
12.5061
20
-1.43334
11
12.5033
21
-1.43147
0
LINE
8
BLACK
6
CONTINUOUS
10
12.5033
20
-1.43147
11
12.5033
21
-1.43147
0
LINE
8
BLACK
6
CONTINUOUS
10
12.5033
20
-1.43147
11
12.5033
21
-1.43147
0
LINE
8
BLACK
6
CONTINUOUS
10
12.5033
20
-1.43147
11
12.4961
21
-1.42652
0
LINE
8
BLACK
6
CONTINUOUS
10
12.4961
20
-1.42652
11
12.4961
21
-1.42652
0
LINE
8
BLACK
6
CONTINUOUS
10
12.4961
20
-1.42652
11
12.496
21
-1.42652
0
LINE
8
BLACK
6
CONTINUOUS
10
12.496
20
-1.42652
11
12.4856
21
-1.41927
0
LINE
8
BLACK
6
CONTINUOUS
10
12.4856
20
-1.41927
11
12.4856
21
-1.41927
0
LINE
8
BLACK
6
CONTINUOUS
10
12.4856
20
-1.41927
11
12.4856
21
-1.41927
0
LINE
8
BLACK
6
CONTINUOUS
10
12.4856
20
-1.41927
11
12.4745
21
-1.41141
0
LINE
8
BLACK
6
CONTINUOUS
10
12.4745
20
-1.41141
11
12.4745
21
-1.41141
0
LINE
8
BLACK
6
CONTINUOUS
10
12.4745
20
-1.41141
11
12.4745
21
-1.41141
0
LINE
8
BLACK
6
CONTINUOUS
10
12.4745
20
-1.41141
11
12.4436
21
-1.38964
0
LINE
8
BLACK
6
CONTINUOUS
10
12.4436
20
-1.38964
11
12.4436
21
-1.38963
0
LINE
8
BLACK
6
CONTINUOUS
10
12.4436
20
-1.38963
11
12.4436
21
-1.38962
0
LINE
8
BLACK
6
CONTINUOUS
10
12.4436
20
-1.38962
11
12.4436
21
-1.3896
0
LINE
8
BLACK
6
CONTINUOUS
10
12.4436
20
-1.3896
11
12.4436
21
-1.38959
0
LINE
8
BLACK
6
CONTINUOUS
10
12.4436
20
-1.38959
11
12.4436
21
-1.38957
0
LINE
8
BLACK
6
CONTINUOUS
10
12.4436
20
-1.38957
11
12.4436
21
-1.38956
0
LINE
8
BLACK
6
CONTINUOUS
10
12.4436
20
-1.38956
11
12.4436
21
-1.38954
0
LINE
8
BLACK
6
CONTINUOUS
10
12.4436
20
-1.38954
11
12.4436
21
-1.38952
0
LINE
8
BLACK
6
CONTINUOUS
10
12.4436
20
-1.38952
11
12.4436
21
-1.3895
0
LINE
8
BLACK
6
CONTINUOUS
10
12.4436
20
-1.3895
11
12.4436
21
-1.38948
0
LINE
8
BLACK
6
CONTINUOUS
10
12.4436
20
-1.38948
11
12.4436
21
-1.34667
0
LINE
8
BLACK
6
CONTINUOUS
10
12.4436
20
-1.34667
11
12.4436
21
-1.34659
0
LINE
8
BLACK
6
CONTINUOUS
10
12.4436
20
-1.34659
11
12.4436
21
-1.34653
0
LINE
8
BLACK
6
CONTINUOUS
10
12.4436
20
-1.34653
11
12.4437
21
-1.34648
0
LINE
8
BLACK
6
CONTINUOUS
10
12.4437
20
-1.34648
11
12.4437
21
-1.34647
0
LINE
8
BLACK
6
CONTINUOUS
10
12.4437
20
-1.34647
11
12.5071
21
-1.34647
0
LINE
8
BLACK
6
CONTINUOUS
10
12.5071
20
-1.34647
11
12.5072
21
-1.34648
0
LINE
8
BLACK
6
CONTINUOUS
10
12.8005
20
-1.34315
11
12.8006
21
-1.34319
0
LINE
8
BLACK
6
CONTINUOUS
10
12.8006
20
-1.34319
11
12.8006
21
-1.34326
0
LINE
8
BLACK
6
CONTINUOUS
10
12.8006
20
-1.34326
11
12.8006
21
-1.34333
0
LINE
8
BLACK
6
CONTINUOUS
10
12.8006
20
-1.34333
11
12.8006
21
-1.38667
0
LINE
8
BLACK
6
CONTINUOUS
10
12.8006
20
-1.38667
11
12.8006
21
-1.38674
0
LINE
8
BLACK
6
CONTINUOUS
10
12.8006
20
-1.38674
11
12.8006
21
-1.38681
0
LINE
8
BLACK
6
CONTINUOUS
10
12.8006
20
-1.38681
11
12.8005
21
-1.38685
0
LINE
8
BLACK
6
CONTINUOUS
10
12.8005
20
-1.38685
11
12.8004
21
-1.38686
0
LINE
8
BLACK
6
CONTINUOUS
10
12.8004
20
-1.38686
11
12.7042
21
-1.38686
0
LINE
8
BLACK
6
CONTINUOUS
10
12.7042
20
-1.38686
11
12.7032
21
-1.4193
0
LINE
8
BLACK
6
CONTINUOUS
10
12.7032
20
-1.4193
11
12.7023
21
-1.45192
0
LINE
8
BLACK
6
CONTINUOUS
10
12.7023
20
-1.45192
11
12.7023
21
-1.45194
0
LINE
8
BLACK
6
CONTINUOUS
10
12.7023
20
-1.45194
11
12.7023
21
-1.45196
0
LINE
8
BLACK
6
CONTINUOUS
10
12.7023
20
-1.45196
11
12.7023
21
-1.45198
0
LINE
8
BLACK
6
CONTINUOUS
10
12.7023
20
-1.45198
11
12.7023
21
-1.45199
0
LINE
8
BLACK
6
CONTINUOUS
10
12.7023
20
-1.45199
11
12.7023
21
-1.45201
0
LINE
8
BLACK
6
CONTINUOUS
10
12.7023
20
-1.45201
11
12.7022
21
-1.45203
0
LINE
8
BLACK
6
CONTINUOUS
10
12.7022
20
-1.45203
11
12.7022
21
-1.45204
0
LINE
8
BLACK
6
CONTINUOUS
10
12.7022
20
-1.45204
11
12.7022
21
-1.45206
0
LINE
8
BLACK
6
CONTINUOUS
10
12.7022
20
-1.45206
11
12.7022
21
-1.45207
0
LINE
8
BLACK
6
CONTINUOUS
10
12.7022
20
-1.45207
11
12.7022
21
-1.45208
0
LINE
8
BLACK
6
CONTINUOUS
10
12.7022
20
-1.45208
11
12.7022
21
-1.45209
0
LINE
8
BLACK
6
CONTINUOUS
10
12.7022
20
-1.45209
11
12.7022
21
-1.4521
0
LINE
8
BLACK
6
CONTINUOUS
10
12.7022
20
-1.4521
11
12.7021
21
-1.4521
0
LINE
8
BLACK
6
CONTINUOUS
10
12.7021
20
-1.4521
11
12.7021
21
-1.45211
0
LINE
8
BLACK
6
CONTINUOUS
10
12.7021
20
-1.45211
11
12.7021
21
-1.45211
0
LINE
8
BLACK
6
CONTINUOUS
10
12.7021
20
-1.45211
11
12.7021
21
-1.45211
0
LINE
8
BLACK
6
CONTINUOUS
10
12.7021
20
-1.45211
11
12.7021
21
-1.45211
0
LINE
8
BLACK
6
CONTINUOUS
10
12.7021
20
-1.45211
11
12.702
21
-1.45211
0
LINE
8
BLACK
6
CONTINUOUS
10
12.702
20
-1.45211
11
12.702
21
-1.4521
0
LINE
8
BLACK
6
CONTINUOUS
10
12.702
20
-1.4521
11
12.702
21
-1.45209
0
LINE
8
BLACK
6
CONTINUOUS
10
12.702
20
-1.45209
11
12.702
21
-1.45208
0
LINE
8
BLACK
6
CONTINUOUS
10
12.702
20
-1.45208
11
12.702
21
-1.45208
0
LINE
8
BLACK
6
CONTINUOUS
10
12.702
20
-1.45208
11
12.6711
21
-1.43047
0
LINE
8
BLACK
6
CONTINUOUS
10
12.6711
20
-1.43047
11
12.6711
21
-1.43047
0
LINE
8
BLACK
6
CONTINUOUS
10
12.6711
20
-1.43047
11
12.6711
21
-1.43047
0
LINE
8
BLACK
6
CONTINUOUS
10
12.6711
20
-1.43047
11
12.6577
21
-1.42088
0
LINE
8
BLACK
6
CONTINUOUS
10
12.6577
20
-1.42088
11
12.6577
21
-1.42088
0
LINE
8
BLACK
6
CONTINUOUS
10
12.6577
20
-1.42088
11
12.6577
21
-1.42088
0
LINE
8
BLACK
6
CONTINUOUS
10
12.6577
20
-1.42088
11
12.6488
21
-1.41398
0
LINE
8
BLACK
6
CONTINUOUS
10
12.6488
20
-1.41398
11
12.6488
21
-1.41397
0
LINE
8
BLACK
6
CONTINUOUS
10
12.6488
20
-1.41397
11
12.6488
21
-1.41396
0
LINE
8
BLACK
6
CONTINUOUS
10
12.6488
20
-1.41396
11
12.6436
21
-1.40875
0
LINE
8
BLACK
6
CONTINUOUS
10
12.6436
20
-1.40875
11
12.6435
21
-1.40873
0
LINE
8
BLACK
6
CONTINUOUS
10
12.6435
20
-1.40873
11
12.6435
21
-1.40871
0
LINE
8
BLACK
6
CONTINUOUS
10
12.6435
20
-1.40871
11
12.641
21
-1.40419
0
LINE
8
BLACK
6
CONTINUOUS
10
12.641
20
-1.40419
11
12.641
21
-1.40415
0
LINE
8
BLACK
6
CONTINUOUS
10
12.641
20
-1.40415
11
12.641
21
-1.40412
0
LINE
8
BLACK
6
CONTINUOUS
10
12.641
20
-1.40412
11
12.6402
21
-1.39928
0
LINE
8
BLACK
6
CONTINUOUS
10
12.6402
20
-1.39928
11
12.6402
21
-1.39926
0
LINE
8
BLACK
6
CONTINUOUS
10
12.6402
20
-1.39926
11
12.6402
21
-1.39925
0
LINE
8
BLACK
6
CONTINUOUS
10
12.6402
20
-1.39925
11
12.6402
21
-1.39769
0
LINE
8
BLACK
6
CONTINUOUS
10
12.6402
20
-1.39769
11
12.6402
21
-1.39769
0
LINE
8
BLACK
6
CONTINUOUS
10
12.6402
20
-1.39769
11
12.6402
21
-1.39769
0
LINE
8
BLACK
6
CONTINUOUS
10
12.6402
20
-1.39769
11
12.6402
21
-1.38686
0
LINE
8
BLACK
6
CONTINUOUS
10
12.6402
20
-1.38686
11
12.5437
21
-1.38686
0
LINE
8
BLACK
6
CONTINUOUS
10
12.5437
20
-1.38686
11
12.5437
21
-1.38685
0
LINE
8
BLACK
6
CONTINUOUS
10
12.5437
20
-1.38685
11
12.5436
21
-1.38681
0
LINE
8
BLACK
6
CONTINUOUS
10
12.5436
20
-1.38681
11
12.5436
21
-1.38674
0
LINE
8
BLACK
6
CONTINUOUS
10
12.5436
20
-1.38674
11
12.5436
21
-1.38667
0
LINE
8
BLACK
6
CONTINUOUS
10
12.5436
20
-1.38667
11
12.5436
21
-1.34333
0
LINE
8
BLACK
6
CONTINUOUS
10
12.5436
20
-1.34333
11
12.5436
21
-1.34326
0
LINE
8
BLACK
6
CONTINUOUS
10
12.5436
20
-1.34326
11
12.5436
21
-1.34319
0
LINE
8
BLACK
6
CONTINUOUS
10
12.5436
20
-1.34319
11
12.5437
21
-1.34315
0
LINE
8
BLACK
6
CONTINUOUS
10
12.5437
20
-1.34315
11
12.5437
21
-1.34314
0
LINE
8
BLACK
6
CONTINUOUS
10
12.5437
20
-1.34314
11
12.8004
21
-1.34314
0
LINE
8
BLACK
6
CONTINUOUS
10
12.8004
20
-1.34314
11
12.8005
21
-1.34315
0
LINE
8
BLACK
6
CONTINUOUS
10
13.3658
20
-1.33981
11
13.3659
21
-1.33981
0
LINE
8
BLACK
6
CONTINUOUS
10
13.3659
20
-1.33981
11
13.3659
21
-1.33981
0
LINE
8
BLACK
6
CONTINUOUS
10
13.3659
20
-1.33981
11
13.3659
21
-1.33981
0
LINE
8
BLACK
6
CONTINUOUS
10
13.3659
20
-1.33981
11
13.3659
21
-1.33982
0
LINE
8
BLACK
6
CONTINUOUS
10
13.3659
20
-1.33982
11
13.3659
21
-1.33984
0
LINE
8
BLACK
6
CONTINUOUS
10
13.3659
20
-1.33984
11
13.3659
21
-1.33984
0
LINE
8
BLACK
6
CONTINUOUS
10
13.3659
20
-1.33984
11
13.3659
21
-1.33984
0
LINE
8
BLACK
6
CONTINUOUS
10
13.3659
20
-1.33984
11
13.366
21
-1.33987
0
LINE
8
BLACK
6
CONTINUOUS
10
13.366
20
-1.33987
11
13.366
21
-1.33989
0
LINE
8
BLACK
6
CONTINUOUS
10
13.366
20
-1.33989
11
13.366
21
-1.33989
0
LINE
8
BLACK
6
CONTINUOUS
10
13.366
20
-1.33989
11
13.366
21
-1.3399
0
LINE
8
BLACK
6
CONTINUOUS
10
13.366
20
-1.3399
11
13.366
21
-1.33993
0
LINE
8
BLACK
6
CONTINUOUS
10
13.366
20
-1.33993
11
13.366
21
-1.33996
0
LINE
8
BLACK
6
CONTINUOUS
10
13.366
20
-1.33996
11
13.3666
21
-1.34303
0
LINE
8
BLACK
6
CONTINUOUS
10
13.3666
20
-1.34303
11
13.3666
21
-1.34304
0
LINE
8
BLACK
6
CONTINUOUS
10
13.3666
20
-1.34304
11
13.3666
21
-1.34306
0
LINE
8
BLACK
6
CONTINUOUS
10
13.3666
20
-1.34306
11
13.3671
21
-1.3512
0
LINE
8
BLACK
6
CONTINUOUS
10
13.3671
20
-1.3512
11
13.3671
21
-1.3512
0
LINE
8
BLACK
6
CONTINUOUS
10
13.3671
20
-1.3512
11
13.3671
21
-1.3512
0
LINE
8
BLACK
6
CONTINUOUS
10
13.3671
20
-1.3512
11
13.3673
21
-1.36282
0
LINE
8
BLACK
6
CONTINUOUS
10
13.3673
20
-1.36282
11
13.3673
21
-1.36283
0
LINE
8
BLACK
6
CONTINUOUS
10
13.3673
20
-1.36283
11
13.3673
21
-1.36283
0
LINE
8
BLACK
6
CONTINUOUS
10
13.3673
20
-1.36283
11
13.3673
21
-1.36614
0
LINE
8
BLACK
6
CONTINUOUS
10
13.3673
20
-1.36614
11
13.3673
21
-1.36614
0
LINE
8
BLACK
6
CONTINUOUS
10
13.3673
20
-1.36614
11
13.3673
21
-1.36614
0
LINE
8
BLACK
6
CONTINUOUS
10
13.3673
20
-1.36614
11
13.3673
21
-1.39227
0
LINE
8
BLACK
6
CONTINUOUS
10
13.3673
20
-1.39227
11
13.3673
21
-1.39231
0
LINE
8
BLACK
6
CONTINUOUS
10
13.3673
20
-1.39231
11
13.3673
21
-1.39234
0
LINE
8
BLACK
6
CONTINUOUS
10
13.3673
20
-1.39234
11
13.3673
21
-1.39235
0
LINE
8
BLACK
6
CONTINUOUS
10
13.3673
20
-1.39235
11
13.3673
21
-1.39235
0
LINE
8
BLACK
6
CONTINUOUS
10
13.3673
20
-1.39235
11
13.3672
21
-1.39238
0
LINE
8
BLACK
6
CONTINUOUS
10
13.3672
20
-1.39238
11
13.3672
21
-1.39241
0
LINE
8
BLACK
6
CONTINUOUS
10
13.3672
20
-1.39241
11
13.3672
21
-1.39241
0
LINE
8
BLACK
6
CONTINUOUS
10
13.3672
20
-1.39241
11
13.3672
21
-1.39241
0
LINE
8
BLACK
6
CONTINUOUS
10
13.3672
20
-1.39241
11
13.3672
21
-1.39243
0
LINE
8
BLACK
6
CONTINUOUS
10
13.3672
20
-1.39243
11
13.3672
21
-1.39245
0
LINE
8
BLACK
6
CONTINUOUS
10
13.3672
20
-1.39245
11
13.3164
21
-1.41624
0
LINE
8
BLACK
6
CONTINUOUS
10
13.3164
20
-1.41624
11
13.2995
21
-1.42426
0
LINE
8
BLACK
6
CONTINUOUS
10
13.2995
20
-1.42426
11
13.2849
21
-1.43143
0
LINE
8
BLACK
6
CONTINUOUS
10
13.2849
20
-1.43143
11
13.2736
21
-1.43725
0
LINE
8
BLACK
6
CONTINUOUS
10
13.2736
20
-1.43725
11
13.2667
21
-1.44118
0
LINE
8
BLACK
6
CONTINUOUS
10
13.2667
20
-1.44118
11
13.265
21
-1.44245
0
LINE
8
BLACK
6
CONTINUOUS
10
13.265
20
-1.44245
11
13.2672
21
-1.44488
0
LINE
8
BLACK
6
CONTINUOUS
10
13.2672
20
-1.44488
11
13.2743
21
-1.45059
0
LINE
8
BLACK
6
CONTINUOUS
10
13.2743
20
-1.45059
11
13.2852
21
-1.4588
0
LINE
8
BLACK
6
CONTINUOUS
10
13.2852
20
-1.4588
11
13.2992
21
-1.4689
0
LINE
8
BLACK
6
CONTINUOUS
10
13.2992
20
-1.4689
11
13.3154
21
-1.48026
0
LINE
8
BLACK
6
CONTINUOUS
10
13.3154
20
-1.48026
11
13.3172
21
-1.4815
0
LINE
8
BLACK
6
CONTINUOUS
10
13.3172
20
-1.4815
11
13.3172
21
-1.48151
0
LINE
8
BLACK
6
CONTINUOUS
10
13.3172
20
-1.48151
11
13.3172
21
-1.48151
0
LINE
8
BLACK
6
CONTINUOUS
10
13.3172
20
-1.48151
11
13.3336
21
-1.49297
0
LINE
8
BLACK
6
CONTINUOUS
10
13.3336
20
-1.49297
11
13.3336
21
-1.49297
0
LINE
8
BLACK
6
CONTINUOUS
10
13.3336
20
-1.49297
11
13.3336
21
-1.49297
0
LINE
8
BLACK
6
CONTINUOUS
10
13.3336
20
-1.49297
11
13.348
21
-1.50324
0
LINE
8
BLACK
6
CONTINUOUS
10
13.348
20
-1.50324
11
13.348
21
-1.50324
0
LINE
8
BLACK
6
CONTINUOUS
10
13.348
20
-1.50324
11
13.348
21
-1.50324
0
LINE
8
BLACK
6
CONTINUOUS
10
13.348
20
-1.50324
11
13.3595
21
-1.51167
0
LINE
8
BLACK
6
CONTINUOUS
10
13.3595
20
-1.51167
11
13.3595
21
-1.51167
0
LINE
8
BLACK
6
CONTINUOUS
10
13.3595
20
-1.51167
11
13.3595
21
-1.51167
0
LINE
8
BLACK
6
CONTINUOUS
10
13.3595
20
-1.51167
11
13.3672
21
-1.51766
0
LINE
8
BLACK
6
CONTINUOUS
10
13.3672
20
-1.51766
11
13.3673
21
-1.51767
0
LINE
8
BLACK
6
CONTINUOUS
10
13.3673
20
-1.51767
11
13.3673
21
-1.51767
0
LINE
8
BLACK
6
CONTINUOUS
10
13.3673
20
-1.51767
11
13.3704
21
-1.52059
0
LINE
8
BLACK
6
CONTINUOUS
10
13.3704
20
-1.52059
11
13.3704
21
-1.5206
0
LINE
8
BLACK
6
CONTINUOUS
10
13.3704
20
-1.5206
11
13.3704
21
-1.52061
0
LINE
8
BLACK
6
CONTINUOUS
10
13.3704
20
-1.52061
11
13.3704
21
-1.52063
0
LINE
8
BLACK
6
CONTINUOUS
10
13.3704
20
-1.52063
11
13.3705
21
-1.52065
0
LINE
8
BLACK
6
CONTINUOUS
10
13.3705
20
-1.52065
11
13.3705
21
-1.52066
0
LINE
8
BLACK
6
CONTINUOUS
10
13.3705
20
-1.52066
11
13.3705
21
-1.52068
0
LINE
8
BLACK
6
CONTINUOUS
10
13.3705
20
-1.52068
11
13.3705
21
-1.52078
0
LINE
8
BLACK
6
CONTINUOUS
10
13.3705
20
-1.52078
11
13.3705
21
-1.52078
0
LINE
8
BLACK
6
CONTINUOUS
10
13.3705
20
-1.52078
11
13.3705
21
-1.52078
0
LINE
8
BLACK
6
CONTINUOUS
10
13.3705
20
-1.52078
11
13.3705
21
-1.52081
0
LINE
8
BLACK
6
CONTINUOUS
10
13.3705
20
-1.52081
11
13.3705
21
-1.52085
0
LINE
8
BLACK
6
CONTINUOUS
10
13.3705
20
-1.52085
11
13.3705
21
-1.52085
0
LINE
8
BLACK
6
CONTINUOUS
10
13.3705
20
-1.52085
11
13.3705
21
-1.52085
0
LINE
8
BLACK
6
CONTINUOUS
10
13.3705
20
-1.52085
11
13.3705
21
-1.52089
0
LINE
8
BLACK
6
CONTINUOUS
10
13.3705
20
-1.52089
11
13.3705
21
-1.52093
0
LINE
8
BLACK
6
CONTINUOUS
10
13.3705
20
-1.52093
11
13.3705
21
-1.52093
0
LINE
8
BLACK
6
CONTINUOUS
10
13.3705
20
-1.52093
11
13.3705
21
-1.52093
0
LINE
8
BLACK
6
CONTINUOUS
10
13.3705
20
-1.52093
11
13.3705
21
-1.52095
0
LINE
8
BLACK
6
CONTINUOUS
10
13.3705
20
-1.52095
11
13.3704
21
-1.52098
0
LINE
8
BLACK
6
CONTINUOUS
10
13.3704
20
-1.52098
11
13.3704
21
-1.52099
0
LINE
8
BLACK
6
CONTINUOUS
10
13.3704
20
-1.52099
11
13.3704
21
-1.52099
0
LINE
8
BLACK
6
CONTINUOUS
10
13.3704
20
-1.52099
11
13.3704
21
-1.521
0
LINE
8
BLACK
6
CONTINUOUS
10
13.3704
20
-1.521
11
13.3704
21
-1.52102
0
LINE
8
BLACK
6
CONTINUOUS
10
13.3704
20
-1.52102
11
13.3704
21
-1.52102
0
LINE
8
BLACK
6
CONTINUOUS
10
13.3704
20
-1.52102
11
13.3704
21
-1.52102
0
LINE
8
BLACK
6
CONTINUOUS
10
13.3704
20
-1.52102
11
13.3673
21
-1.52195
0
LINE
8
BLACK
6
CONTINUOUS
10
13.3673
20
-1.52195
11
13.3673
21
-1.52195
0
LINE
8
BLACK
6
CONTINUOUS
10
13.3673
20
-1.52195
11
13.3672
21
-1.52196
0
LINE
8
BLACK
6
CONTINUOUS
10
13.3672
20
-1.52196
11
13.3587
21
-1.5227
0
LINE
8
BLACK
6
CONTINUOUS
10
13.3587
20
-1.5227
11
13.3587
21
-1.5227
0
LINE
8
BLACK
6
CONTINUOUS
10
13.3587
20
-1.5227
11
13.3587
21
-1.5227
0
LINE
8
BLACK
6
CONTINUOUS
10
13.3587
20
-1.5227
11
13.3461
21
-1.5232
0
LINE
8
BLACK
6
CONTINUOUS
10
13.3461
20
-1.5232
11
13.3461
21
-1.5232
0
LINE
8
BLACK
6
CONTINUOUS
10
13.3461
20
-1.5232
11
13.346
21
-1.5232
0
LINE
8
BLACK
6
CONTINUOUS
10
13.346
20
-1.5232
11
13.3304
21
-1.52339
0
LINE
8
BLACK
6
CONTINUOUS
10
13.3304
20
-1.52339
11
13.3304
21
-1.52339
0
LINE
8
BLACK
6
CONTINUOUS
10
13.3304
20
-1.52339
11
13.3304
21
-1.52339
0
LINE
8
BLACK
6
CONTINUOUS
10
13.3304
20
-1.52339
11
13.3279
21
-1.52338
0
LINE
8
BLACK
6
CONTINUOUS
10
13.3279
20
-1.52338
11
13.3279
21
-1.52338
0
LINE
8
BLACK
6
CONTINUOUS
10
13.3279
20
-1.52338
11
13.3279
21
-1.52338
0
LINE
8
BLACK
6
CONTINUOUS
10
13.3279
20
-1.52338
11
13.2854
21
-1.52323
0
LINE
8
BLACK
6
CONTINUOUS
10
13.2854
20
-1.52323
11
13.2854
21
-1.52323
0
LINE
8
BLACK
6
CONTINUOUS
10
13.2854
20
-1.52323
11
13.2854
21
-1.52323
0
LINE
8
BLACK
6
CONTINUOUS
10
13.2854
20
-1.52323
11
13.2854
21
-1.52322
0
LINE
8
BLACK
6
CONTINUOUS
10
13.2854
20
-1.52322
11
13.2853
21
-1.52322
0
LINE
8
BLACK
6
CONTINUOUS
10
13.2853
20
-1.52322
11
13.2853
21
-1.52321
0
LINE
8
BLACK
6
CONTINUOUS
10
13.2853
20
-1.52321
11
13.2853
21
-1.5232
0
LINE
8
BLACK
6
CONTINUOUS
10
13.2853
20
-1.5232
11
13.1986
21
-1.46222
0
LINE
8
BLACK
6
CONTINUOUS
10
13.1986
20
-1.46222
11
13.1986
21
-1.46222
0
LINE
8
BLACK
6
CONTINUOUS
10
13.1986
20
-1.46222
11
13.112
21
-1.40124
0
LINE
8
BLACK
6
CONTINUOUS
10
13.112
20
-1.40124
11
13.112
21
-1.40123
0
LINE
8
BLACK
6
CONTINUOUS
10
13.112
20
-1.40123
11
13.1119
21
-1.40123
0
LINE
8
BLACK
6
CONTINUOUS
10
13.1119
20
-1.40123
11
13.1119
21
-1.40121
0
LINE
8
BLACK
6
CONTINUOUS
10
13.1119
20
-1.40121
11
13.1119
21
-1.40119
0
LINE
8
BLACK
6
CONTINUOUS
10
13.1119
20
-1.40119
11
13.1119
21
-1.40118
0
LINE
8
BLACK
6
CONTINUOUS
10
13.1119
20
-1.40118
11
13.1119
21
-1.40116
0
LINE
8
BLACK
6
CONTINUOUS
10
13.1119
20
-1.40116
11
13.1119
21
-1.40114
0
LINE
8
BLACK
6
CONTINUOUS
10
13.1119
20
-1.40114
11
13.1119
21
-1.40112
0
LINE
8
BLACK
6
CONTINUOUS
10
13.1119
20
-1.40112
11
13.1119
21
-1.4011
0
LINE
8
BLACK
6
CONTINUOUS
10
13.1119
20
-1.4011
11
13.1119
21
-1.40109
0
LINE
8
BLACK
6
CONTINUOUS
10
13.1119
20
-1.40109
11
13.1109
21
-1.37221
0
LINE
8
BLACK
6
CONTINUOUS
10
13.1109
20
-1.37221
11
13.1109
21
-1.37221
0
LINE
8
BLACK
6
CONTINUOUS
10
13.1109
20
-1.37221
11
13.1109
21
-1.37221
0
LINE
8
BLACK
6
CONTINUOUS
10
13.1109
20
-1.37221
11
13.1108
21
-1.35928
0
LINE
8
BLACK
6
CONTINUOUS
10
13.1108
20
-1.35928
11
13.1108
21
-1.35928
0
LINE
8
BLACK
6
CONTINUOUS
10
13.1108
20
-1.35928
11
13.1108
21
-1.35927
0
LINE
8
BLACK
6
CONTINUOUS
10
13.1108
20
-1.35927
11
13.1112
21
-1.34933
0
LINE
8
BLACK
6
CONTINUOUS
10
13.1112
20
-1.34933
11
13.1112
21
-1.34932
0
LINE
8
BLACK
6
CONTINUOUS
10
13.1112
20
-1.34932
11
13.1112
21
-1.34931
0
LINE
8
BLACK
6
CONTINUOUS
10
13.1112
20
-1.34931
11
13.1121
21
-1.34388
0
LINE
8
BLACK
6
CONTINUOUS
10
13.1121
20
-1.34388
11
13.1121
21
-1.34386
0
LINE
8
BLACK
6
CONTINUOUS
10
13.1121
20
-1.34386
11
13.1121
21
-1.34385
0
LINE
8
BLACK
6
CONTINUOUS
10
13.1121
20
-1.34385
11
13.1121
21
-1.34383
0
LINE
8
BLACK
6
CONTINUOUS
10
13.1121
20
-1.34383
11
13.1121
21
-1.34381
0
LINE
8
BLACK
6
CONTINUOUS
10
13.1121
20
-1.34381
11
13.1121
21
-1.3438
0
LINE
8
BLACK
6
CONTINUOUS
10
13.1121
20
-1.3438
11
13.1121
21
-1.34378
0
LINE
8
BLACK
6
CONTINUOUS
10
13.1121
20
-1.34378
11
13.1126
21
-1.34321
0
LINE
8
BLACK
6
CONTINUOUS
10
13.1126
20
-1.34321
11
13.1126
21
-1.3432
0
LINE
8
BLACK
6
CONTINUOUS
10
13.1126
20
-1.3432
11
13.1127
21
-1.34319
0
LINE
8
BLACK
6
CONTINUOUS
10
13.1127
20
-1.34319
11
13.1127
21
-1.34318
0
LINE
8
BLACK
6
CONTINUOUS
10
13.1127
20
-1.34318
11
13.1127
21
-1.34316
0
LINE
8
BLACK
6
CONTINUOUS
10
13.1127
20
-1.34316
11
13.1127
21
-1.34316
0
LINE
8
BLACK
6
CONTINUOUS
10
13.1127
20
-1.34316
11
13.1127
21
-1.34315
0
LINE
8
BLACK
6
CONTINUOUS
10
13.1127
20
-1.34315
11
13.1128
21
-1.34315
0
LINE
8
BLACK
6
CONTINUOUS
10
13.1128
20
-1.34315
11
13.1128
21
-1.34314
0
LINE
8
BLACK
6
CONTINUOUS
10
13.1128
20
-1.34314
11
13.1128
21
-1.34314
0
LINE
8
BLACK
6
CONTINUOUS
10
13.1128
20
-1.34314
11
13.1128
21
-1.34314
0
LINE
8
BLACK
6
CONTINUOUS
10
13.1128
20
-1.34314
11
13.1128
21
-1.34315
0
LINE
8
BLACK
6
CONTINUOUS
10
13.1128
20
-1.34315
11
13.1129
21
-1.34315
0
LINE
8
BLACK
6
CONTINUOUS
10
13.1129
20
-1.34315
11
13.1129
21
-1.34316
0
LINE
8
BLACK
6
CONTINUOUS
10
13.1129
20
-1.34316
11
13.1129
21
-1.34316
0
LINE
8
BLACK
6
CONTINUOUS
10
13.1129
20
-1.34316
11
13.1164
21
-1.34493
0
LINE
8
BLACK
6
CONTINUOUS
10
13.1164
20
-1.34493
11
13.1164
21
-1.34493
0
LINE
8
BLACK
6
CONTINUOUS
10
13.1164
20
-1.34493
11
13.1164
21
-1.34494
0
LINE
8
BLACK
6
CONTINUOUS
10
13.1164
20
-1.34494
11
13.1245
21
-1.34984
0
LINE
8
BLACK
6
CONTINUOUS
10
13.1245
20
-1.34984
11
13.1245
21
-1.34984
0
LINE
8
BLACK
6
CONTINUOUS
10
13.1245
20
-1.34984
11
13.1245
21
-1.34984
0
LINE
8
BLACK
6
CONTINUOUS
10
13.1245
20
-1.34984
11
13.1362
21
-1.35728
0
LINE
8
BLACK
6
CONTINUOUS
10
13.1362
20
-1.35728
11
13.1362
21
-1.35728
0
LINE
8
BLACK
6
CONTINUOUS
10
13.1362
20
-1.35728
11
13.1362
21
-1.35728
0
LINE
8
BLACK
6
CONTINUOUS
10
13.1362
20
-1.35728
11
13.1507
21
-1.36667
0
LINE
8
BLACK
6
CONTINUOUS
10
13.1507
20
-1.36667
11
13.1507
21
-1.36667
0
LINE
8
BLACK
6
CONTINUOUS
10
13.1507
20
-1.36667
11
13.1507
21
-1.36667
0
LINE
8
BLACK
6
CONTINUOUS
10
13.1507
20
-1.36667
11
13.165
21
-1.37617
0
LINE
8
BLACK
6
CONTINUOUS
10
13.165
20
-1.37617
11
13.165
21
-1.37617
0
LINE
8
BLACK
6
CONTINUOUS
10
13.165
20
-1.37617
11
13.165
21
-1.37617
0
LINE
8
BLACK
6
CONTINUOUS
10
13.165
20
-1.37617
11
13.2145
21
-1.4091
0
LINE
8
BLACK
6
CONTINUOUS
10
13.2145
20
-1.4091
11
13.2315
21
-1.4015
0
LINE
8
BLACK
6
CONTINUOUS
10
13.2315
20
-1.4015
11
13.2315
21
-1.4015
0
LINE
8
BLACK
6
CONTINUOUS
10
13.2315
20
-1.4015
11
13.2401
21
-1.39763
0
LINE
8
BLACK
6
CONTINUOUS
10
13.2401
20
-1.39763
11
13.2533
21
-1.39154
0
LINE
8
BLACK
6
CONTINUOUS
10
13.2533
20
-1.39154
11
13.27
21
-1.38385
0
LINE
8
BLACK
6
CONTINUOUS
10
13.27
20
-1.38385
11
13.27
21
-1.38385
0
LINE
8
BLACK
6
CONTINUOUS
10
13.27
20
-1.38385
11
13.2887
21
-1.37516
0
LINE
8
BLACK
6
CONTINUOUS
10
13.2887
20
-1.37516
11
13.2887
21
-1.37516
0
LINE
8
BLACK
6
CONTINUOUS
10
13.2887
20
-1.37516
11
13.3066
21
-1.36684
0
LINE
8
BLACK
6
CONTINUOUS
10
13.3066
20
-1.36684
11
13.3066
21
-1.36684
0
LINE
8
BLACK
6
CONTINUOUS
10
13.3066
20
-1.36684
11
13.3066
21
-1.36684
0
LINE
8
BLACK
6
CONTINUOUS
10
13.3066
20
-1.36684
11
13.3246
21
-1.35845
0
LINE
8
BLACK
6
CONTINUOUS
10
13.3246
20
-1.35845
11
13.3246
21
-1.35845
0
LINE
8
BLACK
6
CONTINUOUS
10
13.3246
20
-1.35845
11
13.3246
21
-1.35845
0
LINE
8
BLACK
6
CONTINUOUS
10
13.3246
20
-1.35845
11
13.3405
21
-1.35111
0
LINE
8
BLACK
6
CONTINUOUS
10
13.3405
20
-1.35111
11
13.3405
21
-1.35111
0
LINE
8
BLACK
6
CONTINUOUS
10
13.3405
20
-1.35111
11
13.3405
21
-1.35111
0
LINE
8
BLACK
6
CONTINUOUS
10
13.3405
20
-1.35111
11
13.3533
21
-1.34528
0
LINE
8
BLACK
6
CONTINUOUS
10
13.3533
20
-1.34528
11
13.3533
21
-1.34528
0
LINE
8
BLACK
6
CONTINUOUS
10
13.3533
20
-1.34528
11
13.3533
21
-1.34528
0
LINE
8
BLACK
6
CONTINUOUS
10
13.3533
20
-1.34528
11
13.362
21
-1.34137
0
LINE
8
BLACK
6
CONTINUOUS
10
13.362
20
-1.34137
11
13.362
21
-1.34137
0
LINE
8
BLACK
6
CONTINUOUS
10
13.362
20
-1.34137
11
13.362
21
-1.34137
0
LINE
8
BLACK
6
CONTINUOUS
10
13.362
20
-1.34137
11
13.3657
21
-1.33983
0
LINE
8
BLACK
6
CONTINUOUS
10
13.3657
20
-1.33983
11
13.3657
21
-1.33982
0
LINE
8
BLACK
6
CONTINUOUS
10
13.3657
20
-1.33982
11
13.3657
21
-1.33981
0
LINE
8
BLACK
6
CONTINUOUS
10
13.3657
20
-1.33981
11
13.3658
21
-1.33981
0
LINE
8
BLACK
6
CONTINUOUS
10
13.3658
20
-1.33981
11
13.3658
21
-1.33981
0
LINE
8
BLACK
6
CONTINUOUS
10
13.1104
20
-1.41924
11
13.1105
21
-1.41924
0
LINE
8
BLACK
6
CONTINUOUS
10
13.1105
20
-1.41924
11
13.1105
21
-1.41925
0
LINE
8
BLACK
6
CONTINUOUS
10
13.1105
20
-1.41925
11
13.1105
21
-1.41925
0
LINE
8
BLACK
6
CONTINUOUS
10
13.1105
20
-1.41925
11
13.1105
21
-1.41926
0
LINE
8
BLACK
6
CONTINUOUS
10
13.1105
20
-1.41926
11
13.1105
21
-1.41927
0
LINE
8
BLACK
6
CONTINUOUS
10
13.1105
20
-1.41927
11
13.1264
21
-1.43065
0
LINE
8
BLACK
6
CONTINUOUS
10
13.1264
20
-1.43065
11
13.1264
21
-1.43065
0
LINE
8
BLACK
6
CONTINUOUS
10
13.1264
20
-1.43065
11
13.1389
21
-1.43959
0
LINE
8
BLACK
6
CONTINUOUS
10
13.1389
20
-1.43959
11
13.1524
21
-1.44921
0
LINE
8
BLACK
6
CONTINUOUS
10
13.1524
20
-1.44921
11
13.1524
21
-1.44921
0
LINE
8
BLACK
6
CONTINUOUS
10
13.1524
20
-1.44921
11
13.158
21
-1.45317
0
LINE
8
BLACK
6
CONTINUOUS
10
13.158
20
-1.45317
11
13.158
21
-1.45317
0
LINE
8
BLACK
6
CONTINUOUS
10
13.158
20
-1.45317
11
13.1739
21
-1.4643
0
LINE
8
BLACK
6
CONTINUOUS
10
13.1739
20
-1.4643
11
13.1739
21
-1.46431
0
LINE
8
BLACK
6
CONTINUOUS
10
13.1739
20
-1.46431
11
13.1739
21
-1.46432
0
LINE
8
BLACK
6
CONTINUOUS
10
13.1739
20
-1.46432
11
13.1739
21
-1.46434
0
LINE
8
BLACK
6
CONTINUOUS
10
13.1739
20
-1.46434
11
13.1739
21
-1.46436
0
LINE
8
BLACK
6
CONTINUOUS
10
13.1739
20
-1.46436
11
13.1739
21
-1.46437
0
LINE
8
BLACK
6
CONTINUOUS
10
13.1739
20
-1.46437
11
13.1739
21
-1.46439
0
LINE
8
BLACK
6
CONTINUOUS
10
13.1739
20
-1.46439
11
13.1739
21
-1.46441
0
LINE
8
BLACK
6
CONTINUOUS
10
13.1739
20
-1.46441
11
13.1739
21
-1.46443
0
LINE
8
BLACK
6
CONTINUOUS
10
13.1739
20
-1.46443
11
13.1739
21
-1.46445
0
LINE
8
BLACK
6
CONTINUOUS
10
13.1739
20
-1.46445
11
13.1739
21
-1.46446
0
LINE
8
BLACK
6
CONTINUOUS
10
13.1739
20
-1.46446
11
13.1739
21
-1.52333
0
LINE
8
BLACK
6
CONTINUOUS
10
13.1739
20
-1.52333
11
13.1739
21
-1.52341
0
LINE
8
BLACK
6
CONTINUOUS
10
13.1739
20
-1.52341
11
13.1739
21
-1.52347
0
LINE
8
BLACK
6
CONTINUOUS
10
13.1739
20
-1.52347
11
13.1738
21
-1.52352
0
LINE
8
BLACK
6
CONTINUOUS
10
13.1738
20
-1.52352
11
13.1738
21
-1.52353
0
LINE
8
BLACK
6
CONTINUOUS
10
13.1738
20
-1.52353
11
13.1104
21
-1.52353
0
LINE
8
BLACK
6
CONTINUOUS
10
13.1104
20
-1.52353
11
13.1103
21
-1.52352
0
LINE
8
BLACK
6
CONTINUOUS
10
13.1103
20
-1.52352
11
13.1103
21
-1.52347
0
LINE
8
BLACK
6
CONTINUOUS
10
13.1103
20
-1.52347
11
13.1102
21
-1.52341
0
LINE
8
BLACK
6
CONTINUOUS
10
13.1102
20
-1.52341
11
13.1102
21
-1.52333
0
LINE
8
BLACK
6
CONTINUOUS
10
13.1102
20
-1.52333
11
13.1102
21
-1.41943
0
LINE
8
BLACK
6
CONTINUOUS
10
13.1102
20
-1.41943
11
13.1102
21
-1.41941
0
LINE
8
BLACK
6
CONTINUOUS
10
13.1102
20
-1.41941
11
13.1102
21
-1.41939
0
LINE
8
BLACK
6
CONTINUOUS
10
13.1102
20
-1.41939
11
13.1102
21
-1.41937
0
LINE
8
BLACK
6
CONTINUOUS
10
13.1102
20
-1.41937
11
13.1102
21
-1.41936
0
LINE
8
BLACK
6
CONTINUOUS
10
13.1102
20
-1.41936
11
13.1102
21
-1.41934
0
LINE
8
BLACK
6
CONTINUOUS
10
13.1102
20
-1.41934
11
13.1103
21
-1.41932
0
LINE
8
BLACK
6
CONTINUOUS
10
13.1103
20
-1.41932
11
13.1103
21
-1.41931
0
LINE
8
BLACK
6
CONTINUOUS
10
13.1103
20
-1.41931
11
13.1103
21
-1.41929
0
LINE
8
BLACK
6
CONTINUOUS
10
13.1103
20
-1.41929
11
13.1103
21
-1.41928
0
LINE
8
BLACK
6
CONTINUOUS
10
13.1103
20
-1.41928
11
13.1103
21
-1.41926
0
LINE
8
BLACK
6
CONTINUOUS
10
13.1103
20
-1.41926
11
13.1103
21
-1.41926
0
LINE
8
BLACK
6
CONTINUOUS
10
13.1103
20
-1.41926
11
13.1103
21
-1.41925
0
LINE
8
BLACK
6
CONTINUOUS
10
13.1103
20
-1.41925
11
13.1104
21
-1.41925
0
LINE
8
BLACK
6
CONTINUOUS
10
13.1104
20
-1.41925
11
13.1104
21
-1.41924
0
LINE
8
BLACK
6
CONTINUOUS
10
13.1104
20
-1.41924
11
13.1104
21
-1.41924
0
LINE
8
BLACK
6
CONTINUOUS
10
13.1104
20
-1.41924
11
13.1104
21
-1.41924
0
LINE
8
BLACK
6
CONTINUOUS
10
13.1104
20
-1.41924
11
13.1104
21
-1.41924
0
LINE
8
BLACK
6
CONTINUOUS
10
13.0721
20
-1.33742
11
13.0721
21
-1.33742
0
LINE
8
BLACK
6
CONTINUOUS
10
13.0721
20
-1.33742
11
13.0721
21
-1.33743
0
LINE
8
BLACK
6
CONTINUOUS
10
13.0721
20
-1.33743
11
13.0722
21
-1.33743
0
LINE
8
BLACK
6
CONTINUOUS
10
13.0722
20
-1.33743
11
13.0722
21
-1.33744
0
LINE
8
BLACK
6
CONTINUOUS
10
13.0722
20
-1.33744
11
13.0722
21
-1.33745
0
LINE
8
BLACK
6
CONTINUOUS
10
13.0722
20
-1.33745
11
13.0722
21
-1.33746
0
LINE
8
BLACK
6
CONTINUOUS
10
13.0722
20
-1.33746
11
13.0722
21
-1.33747
0
LINE
8
BLACK
6
CONTINUOUS
10
13.0722
20
-1.33747
11
13.0722
21
-1.33749
0
LINE
8
BLACK
6
CONTINUOUS
10
13.0722
20
-1.33749
11
13.0722
21
-1.3375
0
LINE
8
BLACK
6
CONTINUOUS
10
13.0722
20
-1.3375
11
13.0723
21
-1.33752
0
LINE
8
BLACK
6
CONTINUOUS
10
13.0723
20
-1.33752
11
13.0723
21
-1.33754
0
LINE
8
BLACK
6
CONTINUOUS
10
13.0723
20
-1.33754
11
13.0723
21
-1.33756
0
LINE
8
BLACK
6
CONTINUOUS
10
13.0723
20
-1.33756
11
13.0723
21
-1.33757
0
LINE
8
BLACK
6
CONTINUOUS
10
13.0723
20
-1.33757
11
13.0723
21
-1.33759
0
LINE
8
BLACK
6
CONTINUOUS
10
13.0723
20
-1.33759
11
13.0723
21
-1.33761
0
LINE
8
BLACK
6
CONTINUOUS
10
13.0723
20
-1.33761
11
13.0732
21
-1.42626
0
LINE
8
BLACK
6
CONTINUOUS
10
13.0732
20
-1.42626
11
13.0732
21
-1.42626
0
LINE
8
BLACK
6
CONTINUOUS
10
13.0732
20
-1.42626
11
13.0732
21
-1.42626
0
LINE
8
BLACK
6
CONTINUOUS
10
13.0732
20
-1.42626
11
13.0733
21
-1.45005
0
LINE
8
BLACK
6
CONTINUOUS
10
13.0733
20
-1.45005
11
13.0733
21
-1.45005
0
LINE
8
BLACK
6
CONTINUOUS
10
13.0733
20
-1.45005
11
13.0733
21
-1.45006
0
LINE
8
BLACK
6
CONTINUOUS
10
13.0733
20
-1.45006
11
13.0734
21
-1.47175
0
LINE
8
BLACK
6
CONTINUOUS
10
13.0734
20
-1.47175
11
13.0734
21
-1.47176
0
LINE
8
BLACK
6
CONTINUOUS
10
13.0734
20
-1.47176
11
13.0734
21
-1.47176
0
LINE
8
BLACK
6
CONTINUOUS
10
13.0734
20
-1.47176
11
13.0733
21
-1.49044
0
LINE
8
BLACK
6
CONTINUOUS
10
13.0733
20
-1.49044
11
13.0733
21
-1.49044
0
LINE
8
BLACK
6
CONTINUOUS
10
13.0733
20
-1.49044
11
13.0733
21
-1.49044
0
LINE
8
BLACK
6
CONTINUOUS
10
13.0733
20
-1.49044
11
13.0731
21
-1.50518
0
LINE
8
BLACK
6
CONTINUOUS
10
13.0731
20
-1.50518
11
13.0731
21
-1.50518
0
LINE
8
BLACK
6
CONTINUOUS
10
13.0731
20
-1.50518
11
13.0731
21
-1.50518
0
LINE
8
BLACK
6
CONTINUOUS
10
13.0731
20
-1.50518
11
13.0728
21
-1.51506
0
LINE
8
BLACK
6
CONTINUOUS
10
13.0728
20
-1.51506
11
13.0728
21
-1.51507
0
LINE
8
BLACK
6
CONTINUOUS
10
13.0728
20
-1.51507
11
13.0728
21
-1.51508
0
LINE
8
BLACK
6
CONTINUOUS
10
13.0728
20
-1.51508
11
13.0724
21
-1.51914
0
LINE
8
BLACK
6
CONTINUOUS
10
13.0724
20
-1.51914
11
13.0724
21
-1.51915
0
LINE
8
BLACK
6
CONTINUOUS
10
13.0724
20
-1.51915
11
13.0724
21
-1.51916
0
LINE
8
BLACK
6
CONTINUOUS
10
13.0724
20
-1.51916
11
13.0724
21
-1.51918
0
LINE
8
BLACK
6
CONTINUOUS
10
13.0724
20
-1.51918
11
13.0724
21
-1.51921
0
LINE
8
BLACK
6
CONTINUOUS
10
13.0724
20
-1.51921
11
13.0724
21
-1.51922
0
LINE
8
BLACK
6
CONTINUOUS
10
13.0724
20
-1.51922
11
13.0724
21
-1.51923
0
LINE
8
BLACK
6
CONTINUOUS
10
13.0724
20
-1.51923
11
13.0724
21
-1.51925
0
LINE
8
BLACK
6
CONTINUOUS
10
13.0724
20
-1.51925
11
13.0724
21
-1.51927
0
LINE
8
BLACK
6
CONTINUOUS
10
13.0724
20
-1.51927
11
13.0724
21
-1.51927
0
LINE
8
BLACK
6
CONTINUOUS
10
13.0724
20
-1.51927
11
13.0723
21
-1.51928
0
LINE
8
BLACK
6
CONTINUOUS
10
13.0723
20
-1.51928
11
13.0687
21
-1.52164
0
LINE
8
BLACK
6
CONTINUOUS
10
13.0687
20
-1.52164
11
13.0687
21
-1.52164
0
LINE
8
BLACK
6
CONTINUOUS
10
13.0687
20
-1.52164
11
13.0687
21
-1.52164
0
LINE
8
BLACK
6
CONTINUOUS
10
13.0687
20
-1.52164
11
13.0686
21
-1.52165
0
LINE
8
BLACK
6
CONTINUOUS
10
13.0686
20
-1.52165
11
13.0686
21
-1.52167
0
LINE
8
BLACK
6
CONTINUOUS
10
13.0686
20
-1.52167
11
13.0686
21
-1.52167
0
LINE
8
BLACK
6
CONTINUOUS
10
13.0686
20
-1.52167
11
13.0686
21
-1.52167
0
LINE
8
BLACK
6
CONTINUOUS
10
13.0686
20
-1.52167
11
13.0594
21
-1.52305
0
LINE
8
BLACK
6
CONTINUOUS
10
13.0594
20
-1.52305
11
13.0594
21
-1.52305
0
LINE
8
BLACK
6
CONTINUOUS
10
13.0594
20
-1.52305
11
13.0594
21
-1.52305
0
LINE
8
BLACK
6
CONTINUOUS
10
13.0594
20
-1.52305
11
13.0441
21
-1.52353
0
LINE
8
BLACK
6
CONTINUOUS
10
13.0441
20
-1.52353
11
13.0441
21
-1.52353
0
LINE
8
BLACK
6
CONTINUOUS
10
13.0441
20
-1.52353
11
13.0441
21
-1.52353
0
LINE
8
BLACK
6
CONTINUOUS
10
13.0441
20
-1.52353
11
13.0429
21
-1.52353
0
LINE
8
BLACK
6
CONTINUOUS
10
13.0429
20
-1.52353
11
13.0429
21
-1.52353
0
LINE
8
BLACK
6
CONTINUOUS
10
13.0429
20
-1.52353
11
13.0429
21
-1.52353
0
LINE
8
BLACK
6
CONTINUOUS
10
13.0429
20
-1.52353
11
13.0151
21
-1.52353
0
LINE
8
BLACK
6
CONTINUOUS
10
13.0151
20
-1.52353
11
13.0151
21
-1.52353
0
LINE
8
BLACK
6
CONTINUOUS
10
13.0151
20
-1.52353
11
13.015
21
-1.52353
0
LINE
8
BLACK
6
CONTINUOUS
10
13.015
20
-1.52353
11
13.015
21
-1.52352
0
LINE
8
BLACK
6
CONTINUOUS
10
13.015
20
-1.52352
11
13.015
21
-1.52352
0
LINE
8
BLACK
6
CONTINUOUS
10
13.015
20
-1.52352
11
13.015
21
-1.5235
0
LINE
8
BLACK
6
CONTINUOUS
10
13.015
20
-1.5235
11
13.015
21
-1.52349
0
LINE
8
BLACK
6
CONTINUOUS
10
13.015
20
-1.52349
11
12.926
21
-1.46102
0
LINE
8
BLACK
6
CONTINUOUS
10
12.926
20
-1.46102
11
12.837
21
-1.39855
0
LINE
8
BLACK
6
CONTINUOUS
10
12.837
20
-1.39855
11
12.837
21
-1.39853
0
LINE
8
BLACK
6
CONTINUOUS
10
12.837
20
-1.39853
11
12.8369
21
-1.39852
0
LINE
8
BLACK
6
CONTINUOUS
10
12.8369
20
-1.39852
11
12.8369
21
-1.39851
0
LINE
8
BLACK
6
CONTINUOUS
10
12.8369
20
-1.39851
11
12.8369
21
-1.39849
0
LINE
8
BLACK
6
CONTINUOUS
10
12.8369
20
-1.39849
11
12.8369
21
-1.39848
0
LINE
8
BLACK
6
CONTINUOUS
10
12.8369
20
-1.39848
11
12.8369
21
-1.39846
0
LINE
8
BLACK
6
CONTINUOUS
10
12.8369
20
-1.39846
11
12.8369
21
-1.39844
0
LINE
8
BLACK
6
CONTINUOUS
10
12.8369
20
-1.39844
11
12.8369
21
-1.39842
0
LINE
8
BLACK
6
CONTINUOUS
10
12.8369
20
-1.39842
11
12.8369
21
-1.3984
0
LINE
8
BLACK
6
CONTINUOUS
10
12.8369
20
-1.3984
11
12.8369
21
-1.39839
0
LINE
8
BLACK
6
CONTINUOUS
10
12.8369
20
-1.39839
11
12.8369
21
-1.37086
0
LINE
8
BLACK
6
CONTINUOUS
10
12.8369
20
-1.37086
11
12.8369
21
-1.37086
0
LINE
8
BLACK
6
CONTINUOUS
10
12.8369
20
-1.37086
11
12.8369
21
-1.37086
0
LINE
8
BLACK
6
CONTINUOUS
10
12.8369
20
-1.37086
11
12.837
21
-1.35723
0
LINE
8
BLACK
6
CONTINUOUS
10
12.837
20
-1.35723
11
12.837
21
-1.35722
0
LINE
8
BLACK
6
CONTINUOUS
10
12.837
20
-1.35722
11
12.837
21
-1.35721
0
LINE
8
BLACK
6
CONTINUOUS
10
12.837
20
-1.35721
11
12.8377
21
-1.34895
0
LINE
8
BLACK
6
CONTINUOUS
10
12.8377
20
-1.34895
11
12.8377
21
-1.34893
0
LINE
8
BLACK
6
CONTINUOUS
10
12.8377
20
-1.34893
11
12.8377
21
-1.3489
0
LINE
8
BLACK
6
CONTINUOUS
10
12.8377
20
-1.3489
11
12.8392
21
-1.34472
0
LINE
8
BLACK
6
CONTINUOUS
10
12.8392
20
-1.34472
11
12.8392
21
-1.3447
0
LINE
8
BLACK
6
CONTINUOUS
10
12.8392
20
-1.3447
11
12.8392
21
-1.34467
0
LINE
8
BLACK
6
CONTINUOUS
10
12.8392
20
-1.34467
11
12.8392
21
-1.34466
0
LINE
8
BLACK
6
CONTINUOUS
10
12.8392
20
-1.34466
11
12.8392
21
-1.34466
0
LINE
8
BLACK
6
CONTINUOUS
10
12.8392
20
-1.34466
11
12.8393
21
-1.34464
0
LINE
8
BLACK
6
CONTINUOUS
10
12.8393
20
-1.34464
11
12.8393
21
-1.34462
0
LINE
8
BLACK
6
CONTINUOUS
10
12.8393
20
-1.34462
11
12.8418
21
-1.34323
0
LINE
8
BLACK
6
CONTINUOUS
10
12.8418
20
-1.34323
11
12.8418
21
-1.34323
0
LINE
8
BLACK
6
CONTINUOUS
10
12.8418
20
-1.34323
11
12.8418
21
-1.34322
0
LINE
8
BLACK
6
CONTINUOUS
10
12.8418
20
-1.34322
11
12.8418
21
-1.34321
0
LINE
8
BLACK
6
CONTINUOUS
10
12.8418
20
-1.34321
11
12.8419
21
-1.3432
0
LINE
8
BLACK
6
CONTINUOUS
10
12.8419
20
-1.3432
11
12.8419
21
-1.3432
0
LINE
8
BLACK
6
CONTINUOUS
10
12.8419
20
-1.3432
11
12.8419
21
-1.3432
0
LINE
8
BLACK
6
CONTINUOUS
10
12.8419
20
-1.3432
11
12.843
21
-1.34314
0
LINE
8
BLACK
6
CONTINUOUS
10
12.843
20
-1.34314
11
12.843
21
-1.34314
0
LINE
8
BLACK
6
CONTINUOUS
10
12.843
20
-1.34314
11
12.843
21
-1.34314
0
LINE
8
BLACK
6
CONTINUOUS
10
12.843
20
-1.34314
11
12.8431
21
-1.34314
0
LINE
8
BLACK
6
CONTINUOUS
10
12.8431
20
-1.34314
11
12.8431
21
-1.34315
0
LINE
8
BLACK
6
CONTINUOUS
10
12.8431
20
-1.34315
11
12.8431
21
-1.34315
0
LINE
8
BLACK
6
CONTINUOUS
10
12.8431
20
-1.34315
11
12.8431
21
-1.34315
0
LINE
8
BLACK
6
CONTINUOUS
10
12.8431
20
-1.34315
11
12.8473
21
-1.34501
0
LINE
8
BLACK
6
CONTINUOUS
10
12.8473
20
-1.34501
11
12.8473
21
-1.34502
0
LINE
8
BLACK
6
CONTINUOUS
10
12.8473
20
-1.34502
11
12.8473
21
-1.34502
0
LINE
8
BLACK
6
CONTINUOUS
10
12.8473
20
-1.34502
11
12.8562
21
-1.35026
0
LINE
8
BLACK
6
CONTINUOUS
10
12.8562
20
-1.35026
11
12.8562
21
-1.35026
0
LINE
8
BLACK
6
CONTINUOUS
10
12.8562
20
-1.35026
11
12.8562
21
-1.35026
0
LINE
8
BLACK
6
CONTINUOUS
10
12.8562
20
-1.35026
11
12.8689
21
-1.35839
0
LINE
8
BLACK
6
CONTINUOUS
10
12.8689
20
-1.35839
11
12.8689
21
-1.35839
0
LINE
8
BLACK
6
CONTINUOUS
10
12.8689
20
-1.35839
11
12.8689
21
-1.35839
0
LINE
8
BLACK
6
CONTINUOUS
10
12.8689
20
-1.35839
11
12.8849
21
-1.36891
0
LINE
8
BLACK
6
CONTINUOUS
10
12.8849
20
-1.36891
11
12.8849
21
-1.36891
0
LINE
8
BLACK
6
CONTINUOUS
10
12.8849
20
-1.36891
11
12.8849
21
-1.36891
0
LINE
8
BLACK
6
CONTINUOUS
10
12.8849
20
-1.36891
11
12.9032
21
-1.38134
0
LINE
8
BLACK
6
CONTINUOUS
10
12.9032
20
-1.38134
11
12.9032
21
-1.38134
0
LINE
8
BLACK
6
CONTINUOUS
10
12.9032
20
-1.38134
11
12.9032
21
-1.38134
0
LINE
8
BLACK
6
CONTINUOUS
10
12.9032
20
-1.38134
11
12.9232
21
-1.39518
0
LINE
8
BLACK
6
CONTINUOUS
10
12.9232
20
-1.39518
11
12.9232
21
-1.39518
0
LINE
8
BLACK
6
CONTINUOUS
10
12.9232
20
-1.39518
11
12.9232
21
-1.39518
0
LINE
8
BLACK
6
CONTINUOUS
10
12.9232
20
-1.39518
11
12.9256
21
-1.3969
0
LINE
8
BLACK
6
CONTINUOUS
10
12.9256
20
-1.3969
11
12.9256
21
-1.3969
0
LINE
8
BLACK
6
CONTINUOUS
10
12.9256
20
-1.3969
11
12.9457
21
-1.41093
0
LINE
8
BLACK
6
CONTINUOUS
10
12.9457
20
-1.41093
11
12.9641
21
-1.4237
0
LINE
8
BLACK
6
CONTINUOUS
10
12.9641
20
-1.4237
11
12.98
21
-1.43472
0
LINE
8
BLACK
6
CONTINUOUS
10
12.98
20
-1.43472
11
12.98
21
-1.43472
0
LINE
8
BLACK
6
CONTINUOUS
10
12.98
20
-1.43472
11
12.9929
21
-1.44348
0
LINE
8
BLACK
6
CONTINUOUS
10
12.9929
20
-1.44348
11
13.0018
21
-1.44946
0
LINE
8
BLACK
6
CONTINUOUS
10
13.0018
20
-1.44946
11
13.0062
21
-1.45217
0
LINE
8
BLACK
6
CONTINUOUS
10
13.0062
20
-1.45217
11
13.0063
21
-1.45221
0
LINE
8
BLACK
6
CONTINUOUS
10
13.0063
20
-1.45221
11
13.008
21
-1.45141
0
LINE
8
BLACK
6
CONTINUOUS
10
13.008
20
-1.45141
11
13.0092
21
-1.4466
0
LINE
8
BLACK
6
CONTINUOUS
10
13.0092
20
-1.4466
11
13.01
21
-1.43684
0
LINE
8
BLACK
6
CONTINUOUS
10
13.01
20
-1.43684
11
13.0102
21
-1.42139
0
LINE
8
BLACK
6
CONTINUOUS
10
13.0102
20
-1.42139
11
13.0102
21
-1.41756
0
LINE
8
BLACK
6
CONTINUOUS
10
13.0102
20
-1.41756
11
13.0102
21
-1.38107
0
LINE
8
BLACK
6
CONTINUOUS
10
13.0102
20
-1.38107
11
13.0102
21
-1.38105
0
LINE
8
BLACK
6
CONTINUOUS
10
13.0102
20
-1.38105
11
13.0102
21
-1.38104
0
LINE
8
BLACK
6
CONTINUOUS
10
13.0102
20
-1.38104
11
13.0102
21
-1.38101
0
LINE
8
BLACK
6
CONTINUOUS
10
13.0102
20
-1.38101
11
13.0102
21
-1.38099
0
LINE
8
BLACK
6
CONTINUOUS
10
13.0102
20
-1.38099
11
13.0102
21
-1.38098
0
LINE
8
BLACK
6
CONTINUOUS
10
13.0102
20
-1.38098
11
13.0103
21
-1.38096
0
LINE
8
BLACK
6
CONTINUOUS
10
13.0103
20
-1.38096
11
13.0103
21
-1.38095
0
LINE
8
BLACK
6
CONTINUOUS
10
13.0103
20
-1.38095
11
13.0103
21
-1.38093
0
LINE
8
BLACK
6
CONTINUOUS
10
13.0103
20
-1.38093
11
13.0103
21
-1.38092
0
LINE
8
BLACK
6
CONTINUOUS
10
13.0103
20
-1.38092
11
13.0103
21
-1.38091
0
LINE
8
BLACK
6
CONTINUOUS
10
13.0103
20
-1.38091
11
13.0411
21
-1.35918
0
LINE
8
BLACK
6
CONTINUOUS
10
13.0411
20
-1.35918
11
13.072
21
-1.33745
0
LINE
8
BLACK
6
CONTINUOUS
10
13.072
20
-1.33745
11
13.072
21
-1.33745
0
LINE
8
BLACK
6
CONTINUOUS
10
13.072
20
-1.33745
11
13.072
21
-1.33743
0
LINE
8
BLACK
6
CONTINUOUS
10
13.072
20
-1.33743
11
13.072
21
-1.33743
0
LINE
8
BLACK
6
CONTINUOUS
10
13.072
20
-1.33743
11
13.072
21
-1.33742
0
LINE
8
BLACK
6
CONTINUOUS
10
13.072
20
-1.33742
11
13.0721
21
-1.33742
0
LINE
8
BLACK
6
CONTINUOUS
10
13.0721
20
-1.33742
11
13.0721
21
-1.33742
0
LINE
8
BLACK
6
CONTINUOUS
10
13.0721
20
-1.33742
11
13.0721
21
-1.33742
0
LINE
8
BLACK
6
CONTINUOUS
10
12.8371
20
-1.41915
11
12.8371
21
-1.41915
0
LINE
8
BLACK
6
CONTINUOUS
10
12.8371
20
-1.41915
11
12.8371
21
-1.41916
0
LINE
8
BLACK
6
CONTINUOUS
10
12.8371
20
-1.41916
11
12.8372
21
-1.41916
0
LINE
8
BLACK
6
CONTINUOUS
10
12.8372
20
-1.41916
11
12.8372
21
-1.41917
0
LINE
8
BLACK
6
CONTINUOUS
10
12.8372
20
-1.41917
11
12.8372
21
-1.41918
0
LINE
8
BLACK
6
CONTINUOUS
10
12.8372
20
-1.41918
11
12.8467
21
-1.42534
0
LINE
8
BLACK
6
CONTINUOUS
10
12.8467
20
-1.42534
11
12.8467
21
-1.42534
0
LINE
8
BLACK
6
CONTINUOUS
10
12.8467
20
-1.42534
11
12.8467
21
-1.42534
0
LINE
8
BLACK
6
CONTINUOUS
10
12.8467
20
-1.42534
11
12.8541
21
-1.43023
0
LINE
8
BLACK
6
CONTINUOUS
10
12.8541
20
-1.43023
11
12.8541
21
-1.43023
0
LINE
8
BLACK
6
CONTINUOUS
10
12.8541
20
-1.43023
11
12.8541
21
-1.43023
0
LINE
8
BLACK
6
CONTINUOUS
10
12.8541
20
-1.43023
11
12.8649
21
-1.43743
0
LINE
8
BLACK
6
CONTINUOUS
10
12.8649
20
-1.43743
11
12.8649
21
-1.43743
0
LINE
8
BLACK
6
CONTINUOUS
10
12.8649
20
-1.43743
11
12.8649
21
-1.43743
0
LINE
8
BLACK
6
CONTINUOUS
10
12.8649
20
-1.43743
11
12.8768
21
-1.44549
0
LINE
8
BLACK
6
CONTINUOUS
10
12.8768
20
-1.44549
11
12.8768
21
-1.44549
0
LINE
8
BLACK
6
CONTINUOUS
10
12.8768
20
-1.44549
11
12.8768
21
-1.44549
0
LINE
8
BLACK
6
CONTINUOUS
10
12.8768
20
-1.44549
11
12.8783
21
-1.4465
0
LINE
8
BLACK
6
CONTINUOUS
10
12.8783
20
-1.4465
11
12.8783
21
-1.4465
0
LINE
8
BLACK
6
CONTINUOUS
10
12.8783
20
-1.4465
11
12.9003
21
-1.4615
0
LINE
8
BLACK
6
CONTINUOUS
10
12.9003
20
-1.4615
11
12.9003
21
-1.46152
0
LINE
8
BLACK
6
CONTINUOUS
10
12.9003
20
-1.46152
11
12.9003
21
-1.46153
0
LINE
8
BLACK
6
CONTINUOUS
10
12.9003
20
-1.46153
11
12.9004
21
-1.46154
0
LINE
8
BLACK
6
CONTINUOUS
10
12.9004
20
-1.46154
11
12.9004
21
-1.46156
0
LINE
8
BLACK
6
CONTINUOUS
10
12.9004
20
-1.46156
11
12.9004
21
-1.46158
0
LINE
8
BLACK
6
CONTINUOUS
10
12.9004
20
-1.46158
11
12.9004
21
-1.46159
0
LINE
8
BLACK
6
CONTINUOUS
10
12.9004
20
-1.46159
11
12.9004
21
-1.46161
0
LINE
8
BLACK
6
CONTINUOUS
10
12.9004
20
-1.46161
11
12.9004
21
-1.46163
0
LINE
8
BLACK
6
CONTINUOUS
10
12.9004
20
-1.46163
11
12.9004
21
-1.46165
0
LINE
8
BLACK
6
CONTINUOUS
10
12.9004
20
-1.46165
11
12.9004
21
-1.46167
0
LINE
8
BLACK
6
CONTINUOUS
10
12.9004
20
-1.46167
11
12.9005
21
-1.4925
0
LINE
8
BLACK
6
CONTINUOUS
10
12.9005
20
-1.4925
11
12.9006
21
-1.52333
0
LINE
8
BLACK
6
CONTINUOUS
10
12.9006
20
-1.52333
11
12.9006
21
-1.52333
0
LINE
8
BLACK
6
CONTINUOUS
10
12.9006
20
-1.52333
11
12.9006
21
-1.52333
0
LINE
8
BLACK
6
CONTINUOUS
10
12.9006
20
-1.52333
11
12.9006
21
-1.52337
0
LINE
8
BLACK
6
CONTINUOUS
10
12.9006
20
-1.52337
11
12.9006
21
-1.52341
0
LINE
8
BLACK
6
CONTINUOUS
10
12.9006
20
-1.52341
11
12.9006
21
-1.52341
0
LINE
8
BLACK
6
CONTINUOUS
10
12.9006
20
-1.52341
11
12.9006
21
-1.52341
0
LINE
8
BLACK
6
CONTINUOUS
10
12.9006
20
-1.52341
11
12.9006
21
-1.52344
0
LINE
8
BLACK
6
CONTINUOUS
10
12.9006
20
-1.52344
11
12.9006
21
-1.52347
0
LINE
8
BLACK
6
CONTINUOUS
10
12.9006
20
-1.52347
11
12.9006
21
-1.52347
0
LINE
8
BLACK
6
CONTINUOUS
10
12.9006
20
-1.52347
11
12.9006
21
-1.52347
0
LINE
8
BLACK
6
CONTINUOUS
10
12.9006
20
-1.52347
11
12.9005
21
-1.52349
0
LINE
8
BLACK
6
CONTINUOUS
10
12.9005
20
-1.52349
11
12.9005
21
-1.52351
0
LINE
8
BLACK
6
CONTINUOUS
10
12.9005
20
-1.52351
11
12.9005
21
-1.52352
0
LINE
8
BLACK
6
CONTINUOUS
10
12.9005
20
-1.52352
11
12.9005
21
-1.52352
0
LINE
8
BLACK
6
CONTINUOUS
10
12.9005
20
-1.52352
11
12.9005
21
-1.52352
0
LINE
8
BLACK
6
CONTINUOUS
10
12.9005
20
-1.52352
11
12.9004
21
-1.52353
0
LINE
8
BLACK
6
CONTINUOUS
10
12.9004
20
-1.52353
11
12.9004
21
-1.52353
0
LINE
8
BLACK
6
CONTINUOUS
10
12.9004
20
-1.52353
11
12.9004
21
-1.52353
0
LINE
8
BLACK
6
CONTINUOUS
10
12.9004
20
-1.52353
11
12.8371
21
-1.52353
0
LINE
8
BLACK
6
CONTINUOUS
10
12.8371
20
-1.52353
11
12.837
21
-1.52352
0
LINE
8
BLACK
6
CONTINUOUS
10
12.837
20
-1.52352
11
12.8369
21
-1.52347
0
LINE
8
BLACK
6
CONTINUOUS
10
12.8369
20
-1.52347
11
12.8369
21
-1.52341
0
LINE
8
BLACK
6
CONTINUOUS
10
12.8369
20
-1.52341
11
12.8369
21
-1.52333
0
LINE
8
BLACK
6
CONTINUOUS
10
12.8369
20
-1.52333
11
12.8369
21
-1.41935
0
LINE
8
BLACK
6
CONTINUOUS
10
12.8369
20
-1.41935
11
12.8369
21
-1.41933
0
LINE
8
BLACK
6
CONTINUOUS
10
12.8369
20
-1.41933
11
12.8369
21
-1.41931
0
LINE
8
BLACK
6
CONTINUOUS
10
12.8369
20
-1.41931
11
12.8369
21
-1.41929
0
LINE
8
BLACK
6
CONTINUOUS
10
12.8369
20
-1.41929
11
12.8369
21
-1.41927
0
LINE
8
BLACK
6
CONTINUOUS
10
12.8369
20
-1.41927
11
12.8369
21
-1.41926
0
LINE
8
BLACK
6
CONTINUOUS
10
12.8369
20
-1.41926
11
12.8369
21
-1.41924
0
LINE
8
BLACK
6
CONTINUOUS
10
12.8369
20
-1.41924
11
12.8369
21
-1.41922
0
LINE
8
BLACK
6
CONTINUOUS
10
12.8369
20
-1.41922
11
12.8369
21
-1.41921
0
LINE
8
BLACK
6
CONTINUOUS
10
12.8369
20
-1.41921
11
12.837
21
-1.4192
0
LINE
8
BLACK
6
CONTINUOUS
10
12.837
20
-1.4192
11
12.837
21
-1.41918
0
LINE
8
BLACK
6
CONTINUOUS
10
12.837
20
-1.41918
11
12.837
21
-1.41918
0
LINE
8
BLACK
6
CONTINUOUS
10
12.837
20
-1.41918
11
12.837
21
-1.41916
0
LINE
8
BLACK
6
CONTINUOUS
10
12.837
20
-1.41916
11
12.837
21
-1.41916
0
LINE
8
BLACK
6
CONTINUOUS
10
12.837
20
-1.41916
11
12.837
21
-1.41915
0
LINE
8
BLACK
6
CONTINUOUS
10
12.837
20
-1.41915
11
12.8371
21
-1.41915
0
LINE
8
BLACK
6
CONTINUOUS
10
12.8371
20
-1.41915
11
12.8371
21
-1.41915
0
LINE
8
BLACK
6
CONTINUOUS
10
12.8371
20
-1.41915
11
12.8371
21
-1.41915
0
LINE
8
BLACK
6
CONTINUOUS
10
12.6404
20
-1.42915
11
12.6405
21
-1.42915
0
LINE
8
BLACK
6
CONTINUOUS
10
12.6405
20
-1.42915
11
12.6405
21
-1.42916
0
LINE
8
BLACK
6
CONTINUOUS
10
12.6405
20
-1.42916
11
12.6405
21
-1.42916
0
LINE
8
BLACK
6
CONTINUOUS
10
12.6405
20
-1.42916
11
12.6405
21
-1.42917
0
LINE
8
BLACK
6
CONTINUOUS
10
12.6405
20
-1.42917
11
12.6405
21
-1.42918
0
LINE
8
BLACK
6
CONTINUOUS
10
12.6405
20
-1.42918
11
12.65
21
-1.43534
0
LINE
8
BLACK
6
CONTINUOUS
10
12.65
20
-1.43534
11
12.65
21
-1.43534
0
LINE
8
BLACK
6
CONTINUOUS
10
12.65
20
-1.43534
11
12.65
21
-1.43534
0
LINE
8
BLACK
6
CONTINUOUS
10
12.65
20
-1.43534
11
12.6574
21
-1.44023
0
LINE
8
BLACK
6
CONTINUOUS
10
12.6574
20
-1.44023
11
12.6574
21
-1.44023
0
LINE
8
BLACK
6
CONTINUOUS
10
12.6574
20
-1.44023
11
12.6574
21
-1.44023
0
LINE
8
BLACK
6
CONTINUOUS
10
12.6574
20
-1.44023
11
12.6682
21
-1.44743
0
LINE
8
BLACK
6
CONTINUOUS
10
12.6682
20
-1.44743
11
12.6682
21
-1.44743
0
LINE
8
BLACK
6
CONTINUOUS
10
12.6682
20
-1.44743
11
12.6682
21
-1.44743
0
LINE
8
BLACK
6
CONTINUOUS
10
12.6682
20
-1.44743
11
12.6801
21
-1.45549
0
LINE
8
BLACK
6
CONTINUOUS
10
12.6801
20
-1.45549
11
12.6801
21
-1.45549
0
LINE
8
BLACK
6
CONTINUOUS
10
12.6801
20
-1.45549
11
12.6801
21
-1.45549
0
LINE
8
BLACK
6
CONTINUOUS
10
12.6801
20
-1.45549
11
12.6816
21
-1.4565
0
LINE
8
BLACK
6
CONTINUOUS
10
12.6816
20
-1.4565
11
12.6816
21
-1.4565
0
LINE
8
BLACK
6
CONTINUOUS
10
12.6816
20
-1.4565
11
12.7036
21
-1.4715
0
LINE
8
BLACK
6
CONTINUOUS
10
12.7036
20
-1.4715
11
12.7037
21
-1.47152
0
LINE
8
BLACK
6
CONTINUOUS
10
12.7037
20
-1.47152
11
12.7037
21
-1.47153
0
LINE
8
BLACK
6
CONTINUOUS
10
12.7037
20
-1.47153
11
12.7037
21
-1.47154
0
LINE
8
BLACK
6
CONTINUOUS
10
12.7037
20
-1.47154
11
12.7037
21
-1.47156
0
LINE
8
BLACK
6
CONTINUOUS
10
12.7037
20
-1.47156
11
12.7037
21
-1.47158
0
LINE
8
BLACK
6
CONTINUOUS
10
12.7037
20
-1.47158
11
12.7037
21
-1.47159
0
LINE
8
BLACK
6
CONTINUOUS
10
12.7037
20
-1.47159
11
12.7037
21
-1.47161
0
LINE
8
BLACK
6
CONTINUOUS
10
12.7037
20
-1.47161
11
12.7037
21
-1.47163
0
LINE
8
BLACK
6
CONTINUOUS
10
12.7037
20
-1.47163
11
12.7037
21
-1.47165
0
LINE
8
BLACK
6
CONTINUOUS
10
12.7037
20
-1.47165
11
12.7037
21
-1.47167
0
LINE
8
BLACK
6
CONTINUOUS
10
12.7037
20
-1.47167
11
12.7039
21
-1.52333
0
LINE
8
BLACK
6
CONTINUOUS
10
12.7039
20
-1.52333
11
12.7039
21
-1.52333
0
LINE
8
BLACK
6
CONTINUOUS
10
12.7039
20
-1.52333
11
12.7039
21
-1.52333
0
LINE
8
BLACK
6
CONTINUOUS
10
12.7039
20
-1.52333
11
12.7039
21
-1.52337
0
LINE
8
BLACK
6
CONTINUOUS
10
12.7039
20
-1.52337
11
12.7039
21
-1.52341
0
LINE
8
BLACK
6
CONTINUOUS
10
12.7039
20
-1.52341
11
12.7039
21
-1.52341
0
LINE
8
BLACK
6
CONTINUOUS
10
12.7039
20
-1.52341
11
12.7039
21
-1.52341
0
LINE
8
BLACK
6
CONTINUOUS
10
12.7039
20
-1.52341
11
12.7039
21
-1.52344
0
LINE
8
BLACK
6
CONTINUOUS
10
12.7039
20
-1.52344
11
12.7039
21
-1.52347
0
LINE
8
BLACK
6
CONTINUOUS
10
12.7039
20
-1.52347
11
12.7039
21
-1.52347
0
LINE
8
BLACK
6
CONTINUOUS
10
12.7039
20
-1.52347
11
12.7039
21
-1.52347
0
LINE
8
BLACK
6
CONTINUOUS
10
12.7039
20
-1.52347
11
12.7039
21
-1.52349
0
LINE
8
BLACK
6
CONTINUOUS
10
12.7039
20
-1.52349
11
12.7038
21
-1.52351
0
LINE
8
BLACK
6
CONTINUOUS
10
12.7038
20
-1.52351
11
12.7038
21
-1.52351
0
LINE
8
BLACK
6
CONTINUOUS
10
12.7038
20
-1.52351
11
12.7038
21
-1.52352
0
LINE
8
BLACK
6
CONTINUOUS
10
12.7038
20
-1.52352
11
12.7038
21
-1.52352
0
LINE
8
BLACK
6
CONTINUOUS
10
12.7038
20
-1.52352
11
12.7038
21
-1.52353
0
LINE
8
BLACK
6
CONTINUOUS
10
12.7038
20
-1.52353
11
12.7038
21
-1.52353
0
LINE
8
BLACK
6
CONTINUOUS
10
12.7038
20
-1.52353
11
12.7037
21
-1.52353
0
LINE
8
BLACK
6
CONTINUOUS
10
12.7037
20
-1.52353
11
12.6404
21
-1.52353
0
LINE
8
BLACK
6
CONTINUOUS
10
12.6404
20
-1.52353
11
12.6403
21
-1.52352
0
LINE
8
BLACK
6
CONTINUOUS
10
12.6403
20
-1.52352
11
12.6403
21
-1.52347
0
LINE
8
BLACK
6
CONTINUOUS
10
12.6403
20
-1.52347
11
12.6402
21
-1.52341
0
LINE
8
BLACK
6
CONTINUOUS
10
12.6402
20
-1.52341
11
12.6402
21
-1.52333
0
LINE
8
BLACK
6
CONTINUOUS
10
12.6402
20
-1.52333
11
12.6402
21
-1.42935
0
LINE
8
BLACK
6
CONTINUOUS
10
12.6402
20
-1.42935
11
12.6402
21
-1.42933
0
LINE
8
BLACK
6
CONTINUOUS
10
12.6402
20
-1.42933
11
12.6402
21
-1.42931
0
LINE
8
BLACK
6
CONTINUOUS
10
12.6402
20
-1.42931
11
12.6402
21
-1.42929
0
LINE
8
BLACK
6
CONTINUOUS
10
12.6402
20
-1.42929
11
12.6402
21
-1.42927
0
LINE
8
BLACK
6
CONTINUOUS
10
12.6402
20
-1.42927
11
12.6402
21
-1.42926
0
LINE
8
BLACK
6
CONTINUOUS
10
12.6402
20
-1.42926
11
12.6403
21
-1.42924
0
LINE
8
BLACK
6
CONTINUOUS
10
12.6403
20
-1.42924
11
12.6403
21
-1.42922
0
LINE
8
BLACK
6
CONTINUOUS
10
12.6403
20
-1.42922
11
12.6403
21
-1.42921
0
LINE
8
BLACK
6
CONTINUOUS
10
12.6403
20
-1.42921
11
12.6403
21
-1.4292
0
LINE
8
BLACK
6
CONTINUOUS
10
12.6403
20
-1.4292
11
12.6403
21
-1.42918
0
LINE
8
BLACK
6
CONTINUOUS
10
12.6403
20
-1.42918
11
12.6403
21
-1.42918
0
LINE
8
BLACK
6
CONTINUOUS
10
12.6403
20
-1.42918
11
12.6403
21
-1.42916
0
LINE
8
BLACK
6
CONTINUOUS
10
12.6403
20
-1.42916
11
12.6404
21
-1.42916
0
LINE
8
BLACK
6
CONTINUOUS
10
12.6404
20
-1.42916
11
12.6404
21
-1.42915
0
LINE
8
BLACK
6
CONTINUOUS
10
12.6404
20
-1.42915
11
12.6404
21
-1.42915
0
LINE
8
BLACK
6
CONTINUOUS
10
12.6404
20
-1.42915
11
12.6404
21
-1.42915
0
LINE
8
BLACK
6
CONTINUOUS
10
12.6404
20
-1.42915
11
12.6404
21
-1.42915
0
LINE
8
BLACK
6
CONTINUOUS
10
12.4438
20
-1.40935
11
12.4438
21
-1.40935
0
LINE
8
BLACK
6
CONTINUOUS
10
12.4438
20
-1.40935
11
12.4438
21
-1.40936
0
LINE
8
BLACK
6
CONTINUOUS
10
12.4438
20
-1.40936
11
12.4438
21
-1.40936
0
LINE
8
BLACK
6
CONTINUOUS
10
12.4438
20
-1.40936
11
12.4438
21
-1.40938
0
LINE
8
BLACK
6
CONTINUOUS
10
12.4438
20
-1.40938
11
12.4439
21
-1.40939
0
LINE
8
BLACK
6
CONTINUOUS
10
12.4439
20
-1.40939
11
12.468
21
-1.42654
0
LINE
8
BLACK
6
CONTINUOUS
10
12.468
20
-1.42654
11
12.468
21
-1.42654
0
LINE
8
BLACK
6
CONTINUOUS
10
12.468
20
-1.42654
11
12.4797
21
-1.43484
0
LINE
8
BLACK
6
CONTINUOUS
10
12.4797
20
-1.43484
11
12.4797
21
-1.43484
0
LINE
8
BLACK
6
CONTINUOUS
10
12.4797
20
-1.43484
11
12.4797
21
-1.43484
0
LINE
8
BLACK
6
CONTINUOUS
10
12.4797
20
-1.43484
11
12.4899
21
-1.44212
0
LINE
8
BLACK
6
CONTINUOUS
10
12.4899
20
-1.44212
11
12.4899
21
-1.44212
0
LINE
8
BLACK
6
CONTINUOUS
10
12.4899
20
-1.44212
11
12.4899
21
-1.44212
0
LINE
8
BLACK
6
CONTINUOUS
10
12.4899
20
-1.44212
11
12.497
21
-1.44716
0
LINE
8
BLACK
6
CONTINUOUS
10
12.497
20
-1.44716
11
12.497
21
-1.44716
0
LINE
8
BLACK
6
CONTINUOUS
10
12.497
20
-1.44716
11
12.497
21
-1.44716
0
LINE
8
BLACK
6
CONTINUOUS
10
12.497
20
-1.44716
11
12.4984
21
-1.44821
0
LINE
8
BLACK
6
CONTINUOUS
10
12.4984
20
-1.44821
11
12.4985
21
-1.44823
0
LINE
8
BLACK
6
CONTINUOUS
10
12.4985
20
-1.44823
11
12.4985
21
-1.44826
0
LINE
8
BLACK
6
CONTINUOUS
10
12.4985
20
-1.44826
11
12.5031
21
-1.4553
0
LINE
8
BLACK
6
CONTINUOUS
10
12.5031
20
-1.4553
11
12.5031
21
-1.45533
0
LINE
8
BLACK
6
CONTINUOUS
10
12.5031
20
-1.45533
11
12.5032
21
-1.45534
0
LINE
8
BLACK
6
CONTINUOUS
10
12.5032
20
-1.45534
11
12.5032
21
-1.45536
0
LINE
8
BLACK
6
CONTINUOUS
10
12.5032
20
-1.45536
11
12.5032
21
-1.45538
0
LINE
8
BLACK
6
CONTINUOUS
10
12.5032
20
-1.45538
11
12.5032
21
-1.4554
0
LINE
8
BLACK
6
CONTINUOUS
10
12.5032
20
-1.4554
11
12.5032
21
-1.45542
0
LINE
8
BLACK
6
CONTINUOUS
10
12.5032
20
-1.45542
11
12.5029
21
-1.46533
0
LINE
8
BLACK
6
CONTINUOUS
10
12.5029
20
-1.46533
11
12.5029
21
-1.46536
0
LINE
8
BLACK
6
CONTINUOUS
10
12.5029
20
-1.46536
11
12.5028
21
-1.4654
0
LINE
8
BLACK
6
CONTINUOUS
10
12.5028
20
-1.4654
11
12.4979
21
-1.47699
0
LINE
8
BLACK
6
CONTINUOUS
10
12.4979
20
-1.47699
11
12.4979
21
-1.47701
0
LINE
8
BLACK
6
CONTINUOUS
10
12.4979
20
-1.47701
11
12.4979
21
-1.47703
0
LINE
8
BLACK
6
CONTINUOUS
10
12.4979
20
-1.47703
11
12.4887
21
-1.48913
0
LINE
8
BLACK
6
CONTINUOUS
10
12.4887
20
-1.48913
11
12.4887
21
-1.48914
0
LINE
8
BLACK
6
CONTINUOUS
10
12.4887
20
-1.48914
11
12.4887
21
-1.48915
0
LINE
8
BLACK
6
CONTINUOUS
10
12.4887
20
-1.48915
11
12.4856
21
-1.49228
0
LINE
8
BLACK
6
CONTINUOUS
10
12.4856
20
-1.49228
11
12.4856
21
-1.49229
0
LINE
8
BLACK
6
CONTINUOUS
10
12.4856
20
-1.49229
11
12.4856
21
-1.4923
0
LINE
8
BLACK
6
CONTINUOUS
10
12.4856
20
-1.4923
11
12.4666
21
-1.50613
0
LINE
8
BLACK
6
CONTINUOUS
10
12.4666
20
-1.50613
11
12.4666
21
-1.50614
0
LINE
8
BLACK
6
CONTINUOUS
10
12.4666
20
-1.50614
11
12.4666
21
-1.50615
0
LINE
8
BLACK
6
CONTINUOUS
10
12.4666
20
-1.50615
11
12.4436
21
-1.51582
0
LINE
8
BLACK
6
CONTINUOUS
10
12.4436
20
-1.51582
11
12.4435
21
-1.51582
0
LINE
8
BLACK
6
CONTINUOUS
10
12.4435
20
-1.51582
11
12.4435
21
-1.51583
0
LINE
8
BLACK
6
CONTINUOUS
10
12.4435
20
-1.51583
11
12.4179
21
-1.52095
0
LINE
8
BLACK
6
CONTINUOUS
10
12.4179
20
-1.52095
11
12.4179
21
-1.52095
0
LINE
8
BLACK
6
CONTINUOUS
10
12.4179
20
-1.52095
11
12.4179
21
-1.52095
0
LINE
8
BLACK
6
CONTINUOUS
10
12.4179
20
-1.52095
11
12.3911
21
-1.52115
0
LINE
8
BLACK
6
CONTINUOUS
10
12.3911
20
-1.52115
11
12.3911
21
-1.52115
0
LINE
8
BLACK
6
CONTINUOUS
10
12.3911
20
-1.52115
11
12.3911
21
-1.52115
0
LINE
8
BLACK
6
CONTINUOUS
10
12.3911
20
-1.52115
11
12.3804
21
-1.51978
0
LINE
8
BLACK
6
CONTINUOUS
10
12.3804
20
-1.51978
11
12.3804
21
-1.51978
0
LINE
8
BLACK
6
CONTINUOUS
10
12.3804
20
-1.51978
11
12.3804
21
-1.51978
0
LINE
8
BLACK
6
CONTINUOUS
10
12.3804
20
-1.51978
11
12.3545
21
-1.51251
0
LINE
8
BLACK
6
CONTINUOUS
10
12.3545
20
-1.51251
11
12.3545
21
-1.5125
0
LINE
8
BLACK
6
CONTINUOUS
10
12.3545
20
-1.5125
11
12.3545
21
-1.51249
0
LINE
8
BLACK
6
CONTINUOUS
10
12.3545
20
-1.51249
11
12.3327
21
-1.50025
0
LINE
8
BLACK
6
CONTINUOUS
10
12.3327
20
-1.50025
11
12.3326
21
-1.50023
0
LINE
8
BLACK
6
CONTINUOUS
10
12.3326
20
-1.50023
11
12.3326
21
-1.50023
0
LINE
8
BLACK
6
CONTINUOUS
10
12.3326
20
-1.50023
11
12.3238
21
-1.49267
0
LINE
8
BLACK
6
CONTINUOUS
10
12.3238
20
-1.49267
11
12.3238
21
-1.49266
0
LINE
8
BLACK
6
CONTINUOUS
10
12.3238
20
-1.49266
11
12.3238
21
-1.49265
0
LINE
8
BLACK
6
CONTINUOUS
10
12.3238
20
-1.49265
11
12.3163
21
-1.48388
0
LINE
8
BLACK
6
CONTINUOUS
10
12.3163
20
-1.48388
11
12.3163
21
-1.48387
0
LINE
8
BLACK
6
CONTINUOUS
10
12.3163
20
-1.48387
11
12.3162
21
-1.48386
0
LINE
8
BLACK
6
CONTINUOUS
10
12.3162
20
-1.48386
11
12.3095
21
-1.47354
0
LINE
8
BLACK
6
CONTINUOUS
10
12.3095
20
-1.47354
11
12.3095
21
-1.47353
0
LINE
8
BLACK
6
CONTINUOUS
10
12.3095
20
-1.47353
11
12.3095
21
-1.47352
0
LINE
8
BLACK
6
CONTINUOUS
10
12.3095
20
-1.47352
11
12.3048
21
-1.46396
0
LINE
8
BLACK
6
CONTINUOUS
10
12.3048
20
-1.46396
11
12.3048
21
-1.46394
0
LINE
8
BLACK
6
CONTINUOUS
10
12.3048
20
-1.46394
11
12.3048
21
-1.46392
0
LINE
8
BLACK
6
CONTINUOUS
10
12.3048
20
-1.46392
11
12.3036
21
-1.45849
0
LINE
8
BLACK
6
CONTINUOUS
10
12.3036
20
-1.45849
11
12.3036
21
-1.45845
0
LINE
8
BLACK
6
CONTINUOUS
10
12.3036
20
-1.45845
11
12.3036
21
-1.45841
0
LINE
8
BLACK
6
CONTINUOUS
10
12.3036
20
-1.45841
11
12.3036
21
-1.45841
0
LINE
8
BLACK
6
CONTINUOUS
10
12.3036
20
-1.45841
11
12.3036
21
-1.45841
0
LINE
8
BLACK
6
CONTINUOUS
10
12.3036
20
-1.45841
11
12.3036
21
-1.45837
0
LINE
8
BLACK
6
CONTINUOUS
10
12.3036
20
-1.45837
11
12.3036
21
-1.45834
0
LINE
8
BLACK
6
CONTINUOUS
10
12.3036
20
-1.45834
11
12.3036
21
-1.45834
0
LINE
8
BLACK
6
CONTINUOUS
10
12.3036
20
-1.45834
11
12.3036
21
-1.45834
0
LINE
8
BLACK
6
CONTINUOUS
10
12.3036
20
-1.45834
11
12.3036
21
-1.45831
0
LINE
8
BLACK
6
CONTINUOUS
10
12.3036
20
-1.45831
11
12.3036
21
-1.45828
0
LINE
8
BLACK
6
CONTINUOUS
10
12.3036
20
-1.45828
11
12.3036
21
-1.45828
0
LINE
8
BLACK
6
CONTINUOUS
10
12.3036
20
-1.45828
11
12.3036
21
-1.45828
0
LINE
8
BLACK
6
CONTINUOUS
10
12.3036
20
-1.45828
11
12.3037
21
-1.45827
0
LINE
8
BLACK
6
CONTINUOUS
10
12.3037
20
-1.45827
11
12.3037
21
-1.45825
0
LINE
8
BLACK
6
CONTINUOUS
10
12.3037
20
-1.45825
11
12.3068
21
-1.45747
0
LINE
8
BLACK
6
CONTINUOUS
10
12.3068
20
-1.45747
11
12.3068
21
-1.45747
0
LINE
8
BLACK
6
CONTINUOUS
10
12.3068
20
-1.45747
11
12.3068
21
-1.45747
0
LINE
8
BLACK
6
CONTINUOUS
10
12.3068
20
-1.45747
11
12.3151
21
-1.45686
0
LINE
8
BLACK
6
CONTINUOUS
10
12.3151
20
-1.45686
11
12.3151
21
-1.45686
0
LINE
8
BLACK
6
CONTINUOUS
10
12.3151
20
-1.45686
11
12.3151
21
-1.45686
0
LINE
8
BLACK
6
CONTINUOUS
10
12.3151
20
-1.45686
11
12.3271
21
-1.45652
0
LINE
8
BLACK
6
CONTINUOUS
10
12.3271
20
-1.45652
11
12.3271
21
-1.45652
0
LINE
8
BLACK
6
CONTINUOUS
10
12.3271
20
-1.45652
11
12.3271
21
-1.45652
0
LINE
8
BLACK
6
CONTINUOUS
10
12.3271
20
-1.45652
11
12.3341
21
-1.45647
0
LINE
8
BLACK
6
CONTINUOUS
10
12.3341
20
-1.45647
11
12.3341
21
-1.45647
0
LINE
8
BLACK
6
CONTINUOUS
10
12.3341
20
-1.45647
11
12.3341
21
-1.45647
0
LINE
8
BLACK
6
CONTINUOUS
10
12.3341
20
-1.45647
11
12.3486
21
-1.4566
0
LINE
8
BLACK
6
CONTINUOUS
10
12.3486
20
-1.4566
11
12.3487
21
-1.4566
0
LINE
8
BLACK
6
CONTINUOUS
10
12.3487
20
-1.4566
11
12.3487
21
-1.4566
0
LINE
8
BLACK
6
CONTINUOUS
10
12.3487
20
-1.4566
11
12.3581
21
-1.45722
0
LINE
8
BLACK
6
CONTINUOUS
10
12.3581
20
-1.45722
11
12.3581
21
-1.45723
0
LINE
8
BLACK
6
CONTINUOUS
10
12.3581
20
-1.45723
11
12.3581
21
-1.45723
0
LINE
8
BLACK
6
CONTINUOUS
10
12.3581
20
-1.45723
11
12.3641
21
-1.4587
0
LINE
8
BLACK
6
CONTINUOUS
10
12.3641
20
-1.4587
11
12.3641
21
-1.45871
0
LINE
8
BLACK
6
CONTINUOUS
10
12.3641
20
-1.45871
11
12.3641
21
-1.45873
0
LINE
8
BLACK
6
CONTINUOUS
10
12.3641
20
-1.45873
11
12.3681
21
-1.4614
0
LINE
8
BLACK
6
CONTINUOUS
10
12.3681
20
-1.4614
11
12.3681
21
-1.46142
0
LINE
8
BLACK
6
CONTINUOUS
10
12.3681
20
-1.46142
11
12.3682
21
-1.46143
0
LINE
8
BLACK
6
CONTINUOUS
10
12.3682
20
-1.46143
11
12.3711
21
-1.46478
0
LINE
8
BLACK
6
CONTINUOUS
10
12.3711
20
-1.46478
11
12.3817
21
-1.47327
0
LINE
8
BLACK
6
CONTINUOUS
10
12.3817
20
-1.47327
11
12.3955
21
-1.47752
0
LINE
8
BLACK
6
CONTINUOUS
10
12.3955
20
-1.47752
11
12.4107
21
-1.4775
0
LINE
8
BLACK
6
CONTINUOUS
10
12.4107
20
-1.4775
11
12.4252
21
-1.47317
0
LINE
8
BLACK
6
CONTINUOUS
10
12.4252
20
-1.47317
11
12.4358
21
-1.46608
0
LINE
8
BLACK
6
CONTINUOUS
10
12.4358
20
-1.46608
11
12.4399
21
-1.4614
0
LINE
8
BLACK
6
CONTINUOUS
10
12.4399
20
-1.4614
11
12.4422
21
-1.45577
0
LINE
8
BLACK
6
CONTINUOUS
10
12.4422
20
-1.45577
11
12.4433
21
-1.44725
0
LINE
8
BLACK
6
CONTINUOUS
10
12.4433
20
-1.44725
11
12.4436
21
-1.43419
0
LINE
8
BLACK
6
CONTINUOUS
10
12.4436
20
-1.43419
11
12.4436
21
-1.40955
0
LINE
8
BLACK
6
CONTINUOUS
10
12.4436
20
-1.40955
11
12.4436
21
-1.40952
0
LINE
8
BLACK
6
CONTINUOUS
10
12.4436
20
-1.40952
11
12.4436
21
-1.4095
0
LINE
8
BLACK
6
CONTINUOUS
10
12.4436
20
-1.4095
11
12.4436
21
-1.40949
0
LINE
8
BLACK
6
CONTINUOUS
10
12.4436
20
-1.40949
11
12.4436
21
-1.40947
0
LINE
8
BLACK
6
CONTINUOUS
10
12.4436
20
-1.40947
11
12.4436
21
-1.40945
0
LINE
8
BLACK
6
CONTINUOUS
10
12.4436
20
-1.40945
11
12.4436
21
-1.40943
0
LINE
8
BLACK
6
CONTINUOUS
10
12.4436
20
-1.40943
11
12.4436
21
-1.40942
0
LINE
8
BLACK
6
CONTINUOUS
10
12.4436
20
-1.40942
11
12.4436
21
-1.40941
0
LINE
8
BLACK
6
CONTINUOUS
10
12.4436
20
-1.40941
11
12.4436
21
-1.40939
0
LINE
8
BLACK
6
CONTINUOUS
10
12.4436
20
-1.40939
11
12.4436
21
-1.40938
0
LINE
8
BLACK
6
CONTINUOUS
10
12.4436
20
-1.40938
11
12.4437
21
-1.40937
0
LINE
8
BLACK
6
CONTINUOUS
10
12.4437
20
-1.40937
11
12.4437
21
-1.40936
0
LINE
8
BLACK
6
CONTINUOUS
10
12.4437
20
-1.40936
11
12.4437
21
-1.40936
0
LINE
8
BLACK
6
CONTINUOUS
10
12.4437
20
-1.40936
11
12.4437
21
-1.40935
0
LINE
8
BLACK
6
CONTINUOUS
10
12.4437
20
-1.40935
11
12.4437
21
-1.40935
0
LINE
8
BLACK
6
CONTINUOUS
10
12.4437
20
-1.40935
11
12.4437
21
-1.40935
0
LINE
8
BLACK
6
CONTINUOUS
10
12.4437
20
-1.40935
11
12.4438
21
-1.40935
0
LINE
8
BLACK
6
CONTINUOUS
10
12.8023
20
-1.7598
11
12.8023
21
-1.7598
0
LINE
8
BLACK
6
CONTINUOUS
10
12.8023
20
-1.7598
11
12.8202
21
-1.76007
0
LINE
8
BLACK
6
CONTINUOUS
10
12.8202
20
-1.76007
11
12.8202
21
-1.76008
0
LINE
8
BLACK
6
CONTINUOUS
10
12.8202
20
-1.76008
11
12.8202
21
-1.76007
0
LINE
8
BLACK
6
CONTINUOUS
10
12.8202
20
-1.76007
11
12.8323
21
-1.76087
0
LINE
8
BLACK
6
CONTINUOUS
10
12.8323
20
-1.76087
11
12.8323
21
-1.76087
0
LINE
8
BLACK
6
CONTINUOUS
10
12.8323
20
-1.76087
11
12.8324
21
-1.76087
0
LINE
8
BLACK
6
CONTINUOUS
10
12.8324
20
-1.76087
11
12.8383
21
-1.76216
0
LINE
8
BLACK
6
CONTINUOUS
10
12.8383
20
-1.76216
11
12.8383
21
-1.76216
0
LINE
8
BLACK
6
CONTINUOUS
10
12.8383
20
-1.76216
11
12.8383
21
-1.76217
0
LINE
8
BLACK
6
CONTINUOUS
10
12.8383
20
-1.76217
11
12.8383
21
-1.76218
0
LINE
8
BLACK
6
CONTINUOUS
10
12.8383
20
-1.76218
11
12.8384
21
-1.76219
0
LINE
8
BLACK
6
CONTINUOUS
10
12.8384
20
-1.76219
11
12.8384
21
-1.7622
0
LINE
8
BLACK
6
CONTINUOUS
10
12.8384
20
-1.7622
11
12.8384
21
-1.7622
0
LINE
8
BLACK
6
CONTINUOUS
10
12.8384
20
-1.7622
11
12.8384
21
-1.76223
0
LINE
8
BLACK
6
CONTINUOUS
10
12.8384
20
-1.76223
11
12.8384
21
-1.76225
0
LINE
8
BLACK
6
CONTINUOUS
10
12.8384
20
-1.76225
11
12.8384
21
-1.76226
0
LINE
8
BLACK
6
CONTINUOUS
10
12.8384
20
-1.76226
11
12.8384
21
-1.76226
0
LINE
8
BLACK
6
CONTINUOUS
10
12.8384
20
-1.76226
11
12.8389
21
-1.76324
0
LINE
8
BLACK
6
CONTINUOUS
10
12.8389
20
-1.76324
11
12.8389
21
-1.76326
0
LINE
8
BLACK
6
CONTINUOUS
10
12.8389
20
-1.76326
11
12.8389
21
-1.76327
0
LINE
8
BLACK
6
CONTINUOUS
10
12.8389
20
-1.76327
11
12.8389
21
-1.76329
0
LINE
8
BLACK
6
CONTINUOUS
10
12.8389
20
-1.76329
11
12.8389
21
-1.76332
0
LINE
8
BLACK
6
CONTINUOUS
10
12.8389
20
-1.76332
11
12.8389
21
-1.76333
0
LINE
8
BLACK
6
CONTINUOUS
10
12.8389
20
-1.76333
11
12.8389
21
-1.76334
0
LINE
8
BLACK
6
CONTINUOUS
10
12.8389
20
-1.76334
11
12.8389
21
-1.76337
0
LINE
8
BLACK
6
CONTINUOUS
10
12.8389
20
-1.76337
11
12.8389
21
-1.7634
0
LINE
8
BLACK
6
CONTINUOUS
10
12.8389
20
-1.7634
11
12.8389
21
-1.76341
0
LINE
8
BLACK
6
CONTINUOUS
10
12.8389
20
-1.76341
11
12.8389
21
-1.76342
0
LINE
8
BLACK
6
CONTINUOUS
10
12.8389
20
-1.76342
11
12.8389
21
-1.76344
0
LINE
8
BLACK
6
CONTINUOUS
10
12.8389
20
-1.76344
11
12.8389
21
-1.76346
0
LINE
8
BLACK
6
CONTINUOUS
10
12.8389
20
-1.76346
11
12.8389
21
-1.76347
0
LINE
8
BLACK
6
CONTINUOUS
10
12.8389
20
-1.76347
11
12.8389
21
-1.76348
0
LINE
8
BLACK
6
CONTINUOUS
10
12.8389
20
-1.76348
11
12.8389
21
-1.76349
0
LINE
8
BLACK
6
CONTINUOUS
10
12.8389
20
-1.76349
11
12.8388
21
-1.76351
0
LINE
8
BLACK
6
CONTINUOUS
10
12.8388
20
-1.76351
11
12.8388
21
-1.76351
0
LINE
8
BLACK
6
CONTINUOUS
10
12.8388
20
-1.76351
11
12.8388
21
-1.76352
0
LINE
8
BLACK
6
CONTINUOUS
10
12.8388
20
-1.76352
11
12.8348
21
-1.76492
0
LINE
8
BLACK
6
CONTINUOUS
10
12.8348
20
-1.76492
11
12.8347
21
-1.76493
0
LINE
8
BLACK
6
CONTINUOUS
10
12.8347
20
-1.76493
11
12.8347
21
-1.76493
0
LINE
8
BLACK
6
CONTINUOUS
10
12.8347
20
-1.76493
11
12.8253
21
-1.76603
0
LINE
8
BLACK
6
CONTINUOUS
10
12.8253
20
-1.76603
11
12.8253
21
-1.76603
0
LINE
8
BLACK
6
CONTINUOUS
10
12.8253
20
-1.76603
11
12.8253
21
-1.76603
0
LINE
8
BLACK
6
CONTINUOUS
10
12.8253
20
-1.76603
11
12.8119
21
-1.7667
0
LINE
8
BLACK
6
CONTINUOUS
10
12.8119
20
-1.7667
11
12.8119
21
-1.7667
0
LINE
8
BLACK
6
CONTINUOUS
10
12.8119
20
-1.7667
11
12.8119
21
-1.7667
0
LINE
8
BLACK
6
CONTINUOUS
10
12.8119
20
-1.7667
11
12.8002
21
-1.76686
0
LINE
8
BLACK
6
CONTINUOUS
10
12.8002
20
-1.76686
11
12.8002
21
-1.76686
0
LINE
8
BLACK
6
CONTINUOUS
10
12.8002
20
-1.76686
11
12.8002
21
-1.76686
0
LINE
8
BLACK
6
CONTINUOUS
10
12.8002
20
-1.76686
11
12.7837
21
-1.76657
0
LINE
8
BLACK
6
CONTINUOUS
10
12.7837
20
-1.76657
11
12.7837
21
-1.76657
0
LINE
8
BLACK
6
CONTINUOUS
10
12.7837
20
-1.76657
11
12.7837
21
-1.76657
0
LINE
8
BLACK
6
CONTINUOUS
10
12.7837
20
-1.76657
11
12.7717
21
-1.76575
0
LINE
8
BLACK
6
CONTINUOUS
10
12.7717
20
-1.76575
11
12.7717
21
-1.76575
0
LINE
8
BLACK
6
CONTINUOUS
10
12.7717
20
-1.76575
11
12.7716
21
-1.76575
0
LINE
8
BLACK
6
CONTINUOUS
10
12.7716
20
-1.76575
11
12.7649
21
-1.76447
0
LINE
8
BLACK
6
CONTINUOUS
10
12.7649
20
-1.76447
11
12.7649
21
-1.76447
0
LINE
8
BLACK
6
CONTINUOUS
10
12.7649
20
-1.76447
11
12.7649
21
-1.76447
0
LINE
8
BLACK
6
CONTINUOUS
10
12.7649
20
-1.76447
11
12.7648
21
-1.76446
0
LINE
8
BLACK
6
CONTINUOUS
10
12.7648
20
-1.76446
11
12.7648
21
-1.76445
0
LINE
8
BLACK
6
CONTINUOUS
10
12.7648
20
-1.76445
11
12.7648
21
-1.76444
0
LINE
8
BLACK
6
CONTINUOUS
10
12.7648
20
-1.76444
11
12.7648
21
-1.76443
0
LINE
8
BLACK
6
CONTINUOUS
10
12.7648
20
-1.76443
11
12.7636
21
-1.76349
0
LINE
8
BLACK
6
CONTINUOUS
10
12.7636
20
-1.76349
11
12.7636
21
-1.76348
0
LINE
8
BLACK
6
CONTINUOUS
10
12.7636
20
-1.76348
11
12.7636
21
-1.76348
0
LINE
8
BLACK
6
CONTINUOUS
10
12.7636
20
-1.76348
11
12.7636
21
-1.76345
0
LINE
8
BLACK
6
CONTINUOUS
10
12.7636
20
-1.76345
11
12.7636
21
-1.76343
0
LINE
8
BLACK
6
CONTINUOUS
10
12.7636
20
-1.76343
11
12.7636
21
-1.76342
0
LINE
8
BLACK
6
CONTINUOUS
10
12.7636
20
-1.76342
11
12.7636
21
-1.76342
0
LINE
8
BLACK
6
CONTINUOUS
10
12.7636
20
-1.76342
11
12.7636
21
-1.76338
0
LINE
8
BLACK
6
CONTINUOUS
10
12.7636
20
-1.76338
11
12.7636
21
-1.76335
0
LINE
8
BLACK
6
CONTINUOUS
10
12.7636
20
-1.76335
11
12.7636
21
-1.76335
0
LINE
8
BLACK
6
CONTINUOUS
10
12.7636
20
-1.76335
11
12.7636
21
-1.76334
0
LINE
8
BLACK
6
CONTINUOUS
10
12.7636
20
-1.76334
11
12.7636
21
-1.76331
0
LINE
8
BLACK
6
CONTINUOUS
10
12.7636
20
-1.76331
11
12.7636
21
-1.76328
0
LINE
8
BLACK
6
CONTINUOUS
10
12.7636
20
-1.76328
11
12.7636
21
-1.76327
0
LINE
8
BLACK
6
CONTINUOUS
10
12.7636
20
-1.76327
11
12.7636
21
-1.76327
0
LINE
8
BLACK
6
CONTINUOUS
10
12.7636
20
-1.76327
11
12.7636
21
-1.76324
0
LINE
8
BLACK
6
CONTINUOUS
10
12.7636
20
-1.76324
11
12.7636
21
-1.76321
0
LINE
8
BLACK
6
CONTINUOUS
10
12.7636
20
-1.76321
11
12.7636
21
-1.76321
0
LINE
8
BLACK
6
CONTINUOUS
10
12.7636
20
-1.76321
11
12.7636
21
-1.7632
0
LINE
8
BLACK
6
CONTINUOUS
10
12.7636
20
-1.7632
11
12.7636
21
-1.76318
0
LINE
8
BLACK
6
CONTINUOUS
10
12.7636
20
-1.76318
11
12.7637
21
-1.76316
0
LINE
8
BLACK
6
CONTINUOUS
10
12.7637
20
-1.76316
11
12.7637
21
-1.76316
0
LINE
8
BLACK
6
CONTINUOUS
10
12.7637
20
-1.76316
11
12.7637
21
-1.76315
0
LINE
8
BLACK
6
CONTINUOUS
10
12.7637
20
-1.76315
11
12.7669
21
-1.76167
0
LINE
8
BLACK
6
CONTINUOUS
10
12.7669
20
-1.76167
11
12.7669
21
-1.76167
0
LINE
8
BLACK
6
CONTINUOUS
10
12.7669
20
-1.76167
11
12.7669
21
-1.76166
0
LINE
8
BLACK
6
CONTINUOUS
10
12.7669
20
-1.76166
11
12.776
21
-1.76057
0
LINE
8
BLACK
6
CONTINUOUS
10
12.776
20
-1.76057
11
12.776
21
-1.76057
0
LINE
8
BLACK
6
CONTINUOUS
10
12.776
20
-1.76057
11
12.776
21
-1.76057
0
LINE
8
BLACK
6
CONTINUOUS
10
12.776
20
-1.76057
11
12.7901
21
-1.75993
0
LINE
8
BLACK
6
CONTINUOUS
10
12.7901
20
-1.75993
11
12.7901
21
-1.75994
0
LINE
8
BLACK
6
CONTINUOUS
10
12.7901
20
-1.75994
11
12.7901
21
-1.75993
0
LINE
8
BLACK
6
CONTINUOUS
10
12.7901
20
-1.75993
11
12.8023
21
-1.7598
0
LINE
8
BLACK
6
CONTINUOUS
10
12.8023
20
-1.7598
11
12.8023
21
-1.7598
0
LINE
8
BLACK
6
CONTINUOUS
10
12.9738
20
-1.7598
11
12.9738
21
-1.7598
0
LINE
8
BLACK
6
CONTINUOUS
10
12.9738
20
-1.7598
11
12.9738
21
-1.75981
0
LINE
8
BLACK
6
CONTINUOUS
10
12.9738
20
-1.75981
11
12.9738
21
-1.75982
0
LINE
8
BLACK
6
CONTINUOUS
10
12.9738
20
-1.75982
11
12.9738
21
-1.75982
0
LINE
8
BLACK
6
CONTINUOUS
10
12.9738
20
-1.75982
11
12.9738
21
-1.75982
0
LINE
8
BLACK
6
CONTINUOUS
10
12.9738
20
-1.75982
11
12.9739
21
-1.75985
0
LINE
8
BLACK
6
CONTINUOUS
10
12.9739
20
-1.75985
11
12.9739
21
-1.75986
0
LINE
8
BLACK
6
CONTINUOUS
10
12.9739
20
-1.75986
11
12.9739
21
-1.75987
0
LINE
8
BLACK
6
CONTINUOUS
10
12.9739
20
-1.75987
11
12.9739
21
-1.75987
0
LINE
8
BLACK
6
CONTINUOUS
10
12.9739
20
-1.75987
11
12.9764
21
-1.76272
0
LINE
8
BLACK
6
CONTINUOUS
10
12.9764
20
-1.76272
11
12.9764
21
-1.76274
0
LINE
8
BLACK
6
CONTINUOUS
10
12.9764
20
-1.76274
11
12.9764
21
-1.76275
0
LINE
8
BLACK
6
CONTINUOUS
10
12.9764
20
-1.76275
11
12.9764
21
-1.76277
0
LINE
8
BLACK
6
CONTINUOUS
10
12.9764
20
-1.76277
11
12.9764
21
-1.76279
0
LINE
8
BLACK
6
CONTINUOUS
10
12.9764
20
-1.76279
11
12.9764
21
-1.76281
0
LINE
8
BLACK
6
CONTINUOUS
10
12.9764
20
-1.76281
11
12.9765
21
-1.76282
0
LINE
8
BLACK
6
CONTINUOUS
10
12.9765
20
-1.76282
11
12.9773
21
-1.7683
0
LINE
8
BLACK
6
CONTINUOUS
10
12.9773
20
-1.7683
11
12.9773
21
-1.76834
0
LINE
8
BLACK
6
CONTINUOUS
10
12.9773
20
-1.76834
11
12.9773
21
-1.76837
0
LINE
8
BLACK
6
CONTINUOUS
10
12.9773
20
-1.76837
11
12.9761
21
-1.77463
0
LINE
8
BLACK
6
CONTINUOUS
10
12.9761
20
-1.77463
11
12.9761
21
-1.77466
0
LINE
8
BLACK
6
CONTINUOUS
10
12.9761
20
-1.77466
11
12.9761
21
-1.77468
0
LINE
8
BLACK
6
CONTINUOUS
10
12.9761
20
-1.77468
11
12.9761
21
-1.77469
0
LINE
8
BLACK
6
CONTINUOUS
10
12.9761
20
-1.77469
11
12.9761
21
-1.7747
0
LINE
8
BLACK
6
CONTINUOUS
10
12.9761
20
-1.7747
11
12.9761
21
-1.77472
0
LINE
8
BLACK
6
CONTINUOUS
10
12.9761
20
-1.77472
11
12.9761
21
-1.77474
0
LINE
8
BLACK
6
CONTINUOUS
10
12.9761
20
-1.77474
11
12.9739
21
-1.77681
0
LINE
8
BLACK
6
CONTINUOUS
10
12.9739
20
-1.77681
11
12.9739
21
-1.77681
0
LINE
8
BLACK
6
CONTINUOUS
10
12.9739
20
-1.77681
11
12.9739
21
-1.77681
0
LINE
8
BLACK
6
CONTINUOUS
10
12.9739
20
-1.77681
11
12.9738
21
-1.77683
0
LINE
8
BLACK
6
CONTINUOUS
10
12.9738
20
-1.77683
11
12.9738
21
-1.77685
0
LINE
8
BLACK
6
CONTINUOUS
10
12.9738
20
-1.77685
11
12.9738
21
-1.77685
0
LINE
8
BLACK
6
CONTINUOUS
10
12.9738
20
-1.77685
11
12.9738
21
-1.77685
0
LINE
8
BLACK
6
CONTINUOUS
10
12.9738
20
-1.77685
11
12.9738
21
-1.77686
0
LINE
8
BLACK
6
CONTINUOUS
10
12.9738
20
-1.77686
11
12.9737
21
-1.77686
0
LINE
8
BLACK
6
CONTINUOUS
10
12.9737
20
-1.77686
11
12.9737
21
-1.77686
0
LINE
8
BLACK
6
CONTINUOUS
10
12.9737
20
-1.77686
11
12.9737
21
-1.77686
0
LINE
8
BLACK
6
CONTINUOUS
10
12.9737
20
-1.77686
11
12.9737
21
-1.77685
0
LINE
8
BLACK
6
CONTINUOUS
10
12.9737
20
-1.77685
11
12.9737
21
-1.77685
0
LINE
8
BLACK
6
CONTINUOUS
10
12.9737
20
-1.77685
11
12.9737
21
-1.77684
0
LINE
8
BLACK
6
CONTINUOUS
10
12.9737
20
-1.77684
11
12.9737
21
-1.77684
0
LINE
8
BLACK
6
CONTINUOUS
10
12.9737
20
-1.77684
11
12.9736
21
-1.77682
0
LINE
8
BLACK
6
CONTINUOUS
10
12.9736
20
-1.77682
11
12.9736
21
-1.7768
0
LINE
8
BLACK
6
CONTINUOUS
10
12.9736
20
-1.7768
11
12.9736
21
-1.7768
0
LINE
8
BLACK
6
CONTINUOUS
10
12.9736
20
-1.7768
11
12.9736
21
-1.7768
0
LINE
8
BLACK
6
CONTINUOUS
10
12.9736
20
-1.7768
11
12.9711
21
-1.77394
0
LINE
8
BLACK
6
CONTINUOUS
10
12.9711
20
-1.77394
11
12.9711
21
-1.77393
0
LINE
8
BLACK
6
CONTINUOUS
10
12.9711
20
-1.77393
11
12.9711
21
-1.77392
0
LINE
8
BLACK
6
CONTINUOUS
10
12.9711
20
-1.77392
11
12.9711
21
-1.7739
0
LINE
8
BLACK
6
CONTINUOUS
10
12.9711
20
-1.7739
11
12.9711
21
-1.77388
0
LINE
8
BLACK
6
CONTINUOUS
10
12.9711
20
-1.77388
11
12.9711
21
-1.77386
0
LINE
8
BLACK
6
CONTINUOUS
10
12.9711
20
-1.77386
11
12.971
21
-1.77384
0
LINE
8
BLACK
6
CONTINUOUS
10
12.971
20
-1.77384
11
12.9702
21
-1.76836
0
LINE
8
BLACK
6
CONTINUOUS
10
12.9702
20
-1.76836
11
12.9702
21
-1.76833
0
LINE
8
BLACK
6
CONTINUOUS
10
12.9702
20
-1.76833
11
12.9702
21
-1.7683
0
LINE
8
BLACK
6
CONTINUOUS
10
12.9702
20
-1.7683
11
12.9714
21
-1.76203
0
LINE
8
BLACK
6
CONTINUOUS
10
12.9714
20
-1.76203
11
12.9714
21
-1.76201
0
LINE
8
BLACK
6
CONTINUOUS
10
12.9714
20
-1.76201
11
12.9714
21
-1.76199
0
LINE
8
BLACK
6
CONTINUOUS
10
12.9714
20
-1.76199
11
12.9714
21
-1.76198
0
LINE
8
BLACK
6
CONTINUOUS
10
12.9714
20
-1.76198
11
12.9714
21
-1.76196
0
LINE
8
BLACK
6
CONTINUOUS
10
12.9714
20
-1.76196
11
12.9714
21
-1.76195
0
LINE
8
BLACK
6
CONTINUOUS
10
12.9714
20
-1.76195
11
12.9714
21
-1.76193
0
LINE
8
BLACK
6
CONTINUOUS
10
12.9714
20
-1.76193
11
12.9736
21
-1.75986
0
LINE
8
BLACK
6
CONTINUOUS
10
12.9736
20
-1.75986
11
12.9736
21
-1.75985
0
LINE
8
BLACK
6
CONTINUOUS
10
12.9736
20
-1.75985
11
12.9736
21
-1.75985
0
LINE
8
BLACK
6
CONTINUOUS
10
12.9736
20
-1.75985
11
12.9737
21
-1.75983
0
LINE
8
BLACK
6
CONTINUOUS
10
12.9737
20
-1.75983
11
12.9737
21
-1.75982
0
LINE
8
BLACK
6
CONTINUOUS
10
12.9737
20
-1.75982
11
12.9737
21
-1.75982
0
LINE
8
BLACK
6
CONTINUOUS
10
12.9737
20
-1.75982
11
12.9737
21
-1.75981
0
LINE
8
BLACK
6
CONTINUOUS
10
12.9737
20
-1.75981
11
12.9737
21
-1.75981
0
LINE
8
BLACK
6
CONTINUOUS
10
12.9737
20
-1.75981
11
12.9738
21
-1.7598
0
LINE
8
BLACK
6
CONTINUOUS
10
12.9738
20
-1.7598
11
12.9738
21
-1.7598
0
LINE
8
BLACK
6
CONTINUOUS
10
12.7988
20
-1.81314
11
12.7988
21
-1.81314
0
LINE
8
BLACK
6
CONTINUOUS
10
12.7988
20
-1.81314
11
12.8148
21
-1.81344
0
LINE
8
BLACK
6
CONTINUOUS
10
12.8148
20
-1.81344
11
12.8148
21
-1.81344
0
LINE
8
BLACK
6
CONTINUOUS
10
12.8148
20
-1.81344
11
12.8148
21
-1.81344
0
LINE
8
BLACK
6
CONTINUOUS
10
12.8148
20
-1.81344
11
12.8264
21
-1.81429
0
LINE
8
BLACK
6
CONTINUOUS
10
12.8264
20
-1.81429
11
12.8265
21
-1.81429
0
LINE
8
BLACK
6
CONTINUOUS
10
12.8265
20
-1.81429
11
12.8265
21
-1.81429
0
LINE
8
BLACK
6
CONTINUOUS
10
12.8265
20
-1.81429
11
12.8329
21
-1.81561
0
LINE
8
BLACK
6
CONTINUOUS
10
12.8329
20
-1.81561
11
12.8329
21
-1.81561
0
LINE
8
BLACK
6
CONTINUOUS
10
12.8329
20
-1.81561
11
12.8329
21
-1.81562
0
LINE
8
BLACK
6
CONTINUOUS
10
12.8329
20
-1.81562
11
12.8329
21
-1.81563
0
LINE
8
BLACK
6
CONTINUOUS
10
12.8329
20
-1.81563
11
12.8329
21
-1.81564
0
LINE
8
BLACK
6
CONTINUOUS
10
12.8329
20
-1.81564
11
12.8329
21
-1.81565
0
LINE
8
BLACK
6
CONTINUOUS
10
12.8329
20
-1.81565
11
12.8329
21
-1.81566
0
LINE
8
BLACK
6
CONTINUOUS
10
12.8329
20
-1.81566
11
12.8339
21
-1.81652
0
LINE
8
BLACK
6
CONTINUOUS
10
12.8339
20
-1.81652
11
12.8339
21
-1.81655
0
LINE
8
BLACK
6
CONTINUOUS
10
12.8339
20
-1.81655
11
12.8339
21
-1.81658
0
LINE
8
BLACK
6
CONTINUOUS
10
12.8339
20
-1.81658
11
12.8339
21
-1.81658
0
LINE
8
BLACK
6
CONTINUOUS
10
12.8339
20
-1.81658
11
12.8339
21
-1.81658
0
LINE
8
BLACK
6
CONTINUOUS
10
12.8339
20
-1.81658
11
12.8339
21
-1.81662
0
LINE
8
BLACK
6
CONTINUOUS
10
12.8339
20
-1.81662
11
12.8339
21
-1.81666
0
LINE
8
BLACK
6
CONTINUOUS
10
12.8339
20
-1.81666
11
12.8339
21
-1.81666
0
LINE
8
BLACK
6
CONTINUOUS
10
12.8339
20
-1.81666
11
12.8339
21
-1.81666
0
LINE
8
BLACK
6
CONTINUOUS
10
12.8339
20
-1.81666
11
12.8339
21
-1.8167
0
LINE
8
BLACK
6
CONTINUOUS
10
12.8339
20
-1.8167
11
12.8339
21
-1.81673
0
LINE
8
BLACK
6
CONTINUOUS
10
12.8339
20
-1.81673
11
12.8339
21
-1.81673
0
LINE
8
BLACK
6
CONTINUOUS
10
12.8339
20
-1.81673
11
12.8339
21
-1.81673
0
LINE
8
BLACK
6
CONTINUOUS
10
12.8339
20
-1.81673
11
12.8339
21
-1.81677
0
LINE
8
BLACK
6
CONTINUOUS
10
12.8339
20
-1.81677
11
12.8339
21
-1.8168
0
LINE
8
BLACK
6
CONTINUOUS
10
12.8339
20
-1.8168
11
12.8339
21
-1.8168
0
LINE
8
BLACK
6
CONTINUOUS
10
12.8339
20
-1.8168
11
12.8339
21
-1.8168
0
LINE
8
BLACK
6
CONTINUOUS
10
12.8339
20
-1.8168
11
12.8339
21
-1.81682
0
LINE
8
BLACK
6
CONTINUOUS
10
12.8339
20
-1.81682
11
12.8338
21
-1.81684
0
LINE
8
BLACK
6
CONTINUOUS
10
12.8338
20
-1.81684
11
12.8307
21
-1.81837
0
LINE
8
BLACK
6
CONTINUOUS
10
12.8307
20
-1.81837
11
12.8306
21
-1.81838
0
LINE
8
BLACK
6
CONTINUOUS
10
12.8306
20
-1.81838
11
12.8306
21
-1.81839
0
LINE
8
BLACK
6
CONTINUOUS
10
12.8306
20
-1.81839
11
12.8217
21
-1.8195
0
LINE
8
BLACK
6
CONTINUOUS
10
12.8217
20
-1.8195
11
12.8217
21
-1.8195
0
LINE
8
BLACK
6
CONTINUOUS
10
12.8217
20
-1.8195
11
12.8216
21
-1.8195
0
LINE
8
BLACK
6
CONTINUOUS
10
12.8216
20
-1.8195
11
12.8079
21
-1.82011
0
LINE
8
BLACK
6
CONTINUOUS
10
12.8079
20
-1.82011
11
12.8079
21
-1.82011
0
LINE
8
BLACK
6
CONTINUOUS
10
12.8079
20
-1.82011
11
12.8079
21
-1.82011
0
LINE
8
BLACK
6
CONTINUOUS
10
12.8079
20
-1.82011
11
12.7988
21
-1.8202
0
LINE
8
BLACK
6
CONTINUOUS
10
12.7988
20
-1.8202
11
12.7987
21
-1.8202
0
LINE
8
BLACK
6
CONTINUOUS
10
12.7987
20
-1.8202
11
12.7987
21
-1.8202
0
LINE
8
BLACK
6
CONTINUOUS
10
12.7987
20
-1.8202
11
12.7827
21
-1.81989
0
LINE
8
BLACK
6
CONTINUOUS
10
12.7827
20
-1.81989
11
12.7827
21
-1.81989
0
LINE
8
BLACK
6
CONTINUOUS
10
12.7827
20
-1.81989
11
12.7827
21
-1.81989
0
LINE
8
BLACK
6
CONTINUOUS
10
12.7827
20
-1.81989
11
12.7711
21
-1.81904
0
LINE
8
BLACK
6
CONTINUOUS
10
12.7711
20
-1.81904
11
12.771
21
-1.81904
0
LINE
8
BLACK
6
CONTINUOUS
10
12.771
20
-1.81904
11
12.771
21
-1.81904
0
LINE
8
BLACK
6
CONTINUOUS
10
12.771
20
-1.81904
11
12.7646
21
-1.81773
0
LINE
8
BLACK
6
CONTINUOUS
10
12.7646
20
-1.81773
11
12.7646
21
-1.81772
0
LINE
8
BLACK
6
CONTINUOUS
10
12.7646
20
-1.81772
11
12.7646
21
-1.81772
0
LINE
8
BLACK
6
CONTINUOUS
10
12.7646
20
-1.81772
11
12.7646
21
-1.81771
0
LINE
8
BLACK
6
CONTINUOUS
10
12.7646
20
-1.81771
11
12.7646
21
-1.8177
0
LINE
8
BLACK
6
CONTINUOUS
10
12.7646
20
-1.8177
11
12.7646
21
-1.81769
0
LINE
8
BLACK
6
CONTINUOUS
10
12.7646
20
-1.81769
11
12.7646
21
-1.81768
0
LINE
8
BLACK
6
CONTINUOUS
10
12.7646
20
-1.81768
11
12.7636
21
-1.81681
0
LINE
8
BLACK
6
CONTINUOUS
10
12.7636
20
-1.81681
11
12.7636
21
-1.81678
0
LINE
8
BLACK
6
CONTINUOUS
10
12.7636
20
-1.81678
11
12.7636
21
-1.81675
0
LINE
8
BLACK
6
CONTINUOUS
10
12.7636
20
-1.81675
11
12.7636
21
-1.81675
0
LINE
8
BLACK
6
CONTINUOUS
10
12.7636
20
-1.81675
11
12.7636
21
-1.81675
0
LINE
8
BLACK
6
CONTINUOUS
10
12.7636
20
-1.81675
11
12.7636
21
-1.81671
0
LINE
8
BLACK
6
CONTINUOUS
10
12.7636
20
-1.81671
11
12.7636
21
-1.81668
0
LINE
8
BLACK
6
CONTINUOUS
10
12.7636
20
-1.81668
11
12.7636
21
-1.81668
0
LINE
8
BLACK
6
CONTINUOUS
10
12.7636
20
-1.81668
11
12.7636
21
-1.81667
0
LINE
8
BLACK
6
CONTINUOUS
10
12.7636
20
-1.81667
11
12.7636
21
-1.81664
0
LINE
8
BLACK
6
CONTINUOUS
10
12.7636
20
-1.81664
11
12.7636
21
-1.8166
0
LINE
8
BLACK
6
CONTINUOUS
10
12.7636
20
-1.8166
11
12.7636
21
-1.8166
0
LINE
8
BLACK
6
CONTINUOUS
10
12.7636
20
-1.8166
11
12.7636
21
-1.8166
0
LINE
8
BLACK
6
CONTINUOUS
10
12.7636
20
-1.8166
11
12.7636
21
-1.81657
0
LINE
8
BLACK
6
CONTINUOUS
10
12.7636
20
-1.81657
11
12.7636
21
-1.81654
0
LINE
8
BLACK
6
CONTINUOUS
10
12.7636
20
-1.81654
11
12.7636
21
-1.81653
0
LINE
8
BLACK
6
CONTINUOUS
10
12.7636
20
-1.81653
11
12.7636
21
-1.81653
0
LINE
8
BLACK
6
CONTINUOUS
10
12.7636
20
-1.81653
11
12.7636
21
-1.81651
0
LINE
8
BLACK
6
CONTINUOUS
10
12.7636
20
-1.81651
11
12.7637
21
-1.81649
0
LINE
8
BLACK
6
CONTINUOUS
10
12.7637
20
-1.81649
11
12.7668
21
-1.81496
0
LINE
8
BLACK
6
CONTINUOUS
10
12.7668
20
-1.81496
11
12.7669
21
-1.81496
0
LINE
8
BLACK
6
CONTINUOUS
10
12.7669
20
-1.81496
11
12.7669
21
-1.81495
0
LINE
8
BLACK
6
CONTINUOUS
10
12.7669
20
-1.81495
11
12.7758
21
-1.81384
0
LINE
8
BLACK
6
CONTINUOUS
10
12.7758
20
-1.81384
11
12.7758
21
-1.81384
0
LINE
8
BLACK
6
CONTINUOUS
10
12.7758
20
-1.81384
11
12.7759
21
-1.81383
0
LINE
8
BLACK
6
CONTINUOUS
10
12.7759
20
-1.81383
11
12.7896
21
-1.81323
0
LINE
8
BLACK
6
CONTINUOUS
10
12.7896
20
-1.81323
11
12.7896
21
-1.81323
0
LINE
8
BLACK
6
CONTINUOUS
10
12.7896
20
-1.81323
11
12.7896
21
-1.81323
0
LINE
8
BLACK
6
CONTINUOUS
10
12.7896
20
-1.81323
11
12.7987
21
-1.81314
0
LINE
8
BLACK
6
CONTINUOUS
10
12.7987
20
-1.81314
11
12.7988
21
-1.81314
0
LINE
8
BLACK
6
CONTINUOUS
10
12.8629
20
-1.84999
11
12.863
21
-1.84999
0
LINE
8
BLACK
6
CONTINUOUS
10
12.863
20
-1.84999
11
12.863
21
-1.84999
0
LINE
8
BLACK
6
CONTINUOUS
10
12.863
20
-1.84999
11
12.863
21
-1.84999
0
LINE
8
BLACK
6
CONTINUOUS
10
12.863
20
-1.84999
11
12.863
21
-1.85001
0
LINE
8
BLACK
6
CONTINUOUS
10
12.863
20
-1.85001
11
12.863
21
-1.85002
0
LINE
8
BLACK
6
CONTINUOUS
10
12.863
20
-1.85002
11
12.863
21
-1.85002
0
LINE
8
BLACK
6
CONTINUOUS
10
12.863
20
-1.85002
11
12.863
21
-1.85002
0
LINE
8
BLACK
6
CONTINUOUS
10
12.863
20
-1.85002
11
12.8665
21
-1.85252
0
LINE
8
BLACK
6
CONTINUOUS
10
12.8665
20
-1.85252
11
12.8666
21
-1.85254
0
LINE
8
BLACK
6
CONTINUOUS
10
12.8666
20
-1.85254
11
12.8666
21
-1.85255
0
LINE
8
BLACK
6
CONTINUOUS
10
12.8666
20
-1.85255
11
12.8721
21
-1.85849
0
LINE
8
BLACK
6
CONTINUOUS
10
12.8721
20
-1.85849
11
12.8721
21
-1.8585
0
LINE
8
BLACK
6
CONTINUOUS
10
12.8721
20
-1.8585
11
12.8721
21
-1.8585
0
LINE
8
BLACK
6
CONTINUOUS
10
12.8721
20
-1.8585
11
12.8733
21
-1.86006
0
LINE
8
BLACK
6
CONTINUOUS
10
12.8733
20
-1.86006
11
12.8733
21
-1.86007
0
LINE
8
BLACK
6
CONTINUOUS
10
12.8733
20
-1.86007
11
12.8733
21
-1.86008
0
LINE
8
BLACK
6
CONTINUOUS
10
12.8733
20
-1.86008
11
12.8776
21
-1.86695
0
LINE
8
BLACK
6
CONTINUOUS
10
12.8776
20
-1.86695
11
12.8776
21
-1.86698
0
LINE
8
BLACK
6
CONTINUOUS
10
12.8776
20
-1.86698
11
12.8776
21
-1.86701
0
LINE
8
BLACK
6
CONTINUOUS
10
12.8776
20
-1.86701
11
12.8776
21
-1.86702
0
LINE
8
BLACK
6
CONTINUOUS
10
12.8776
20
-1.86702
11
12.8776
21
-1.86702
0
LINE
8
BLACK
6
CONTINUOUS
10
12.8776
20
-1.86702
11
12.8776
21
-1.86705
0
LINE
8
BLACK
6
CONTINUOUS
10
12.8776
20
-1.86705
11
12.8776
21
-1.86709
0
LINE
8
BLACK
6
CONTINUOUS
10
12.8776
20
-1.86709
11
12.8772
21
-1.86987
0
LINE
8
BLACK
6
CONTINUOUS
10
12.8772
20
-1.86987
11
12.8772
21
-1.86989
0
LINE
8
BLACK
6
CONTINUOUS
10
12.8772
20
-1.86989
11
12.8772
21
-1.86991
0
LINE
8
BLACK
6
CONTINUOUS
10
12.8772
20
-1.86991
11
12.8772
21
-1.86993
0
LINE
8
BLACK
6
CONTINUOUS
10
12.8772
20
-1.86993
11
12.8772
21
-1.86994
0
LINE
8
BLACK
6
CONTINUOUS
10
12.8772
20
-1.86994
11
12.8771
21
-1.86996
0
LINE
8
BLACK
6
CONTINUOUS
10
12.8771
20
-1.86996
11
12.8771
21
-1.86998
0
LINE
8
BLACK
6
CONTINUOUS
10
12.8771
20
-1.86998
11
12.8771
21
-1.86999
0
LINE
8
BLACK
6
CONTINUOUS
10
12.8771
20
-1.86999
11
12.8771
21
-1.87
0
LINE
8
BLACK
6
CONTINUOUS
10
12.8771
20
-1.87
11
12.8771
21
-1.87001
0
LINE
8
BLACK
6
CONTINUOUS
10
12.8771
20
-1.87001
11
12.8771
21
-1.87002
0
LINE
8
BLACK
6
CONTINUOUS
10
12.8771
20
-1.87002
11
12.877
21
-1.87002
0
LINE
8
BLACK
6
CONTINUOUS
10
12.877
20
-1.87002
11
12.877
21
-1.87003
0
LINE
8
BLACK
6
CONTINUOUS
10
12.877
20
-1.87003
11
12.877
21
-1.87003
0
LINE
8
BLACK
6
CONTINUOUS
10
12.877
20
-1.87003
11
12.877
21
-1.87004
0
LINE
8
BLACK
6
CONTINUOUS
10
12.877
20
-1.87004
11
12.877
21
-1.87003
0
LINE
8
BLACK
6
CONTINUOUS
10
12.877
20
-1.87003
11
12.877
21
-1.87003
0
LINE
8
BLACK
6
CONTINUOUS
10
12.877
20
-1.87003
11
12.8769
21
-1.87003
0
LINE
8
BLACK
6
CONTINUOUS
10
12.8769
20
-1.87003
11
12.8769
21
-1.87002
0
LINE
8
BLACK
6
CONTINUOUS
10
12.8769
20
-1.87002
11
12.8726
21
-1.86829
0
LINE
8
BLACK
6
CONTINUOUS
10
12.8726
20
-1.86829
11
12.8725
21
-1.86827
0
LINE
8
BLACK
6
CONTINUOUS
10
12.8725
20
-1.86827
11
12.8725
21
-1.86825
0
LINE
8
BLACK
6
CONTINUOUS
10
12.8725
20
-1.86825
11
12.867
21
-1.86348
0
LINE
8
BLACK
6
CONTINUOUS
10
12.867
20
-1.86348
11
12.8669
21
-1.86347
0
LINE
8
BLACK
6
CONTINUOUS
10
12.8669
20
-1.86347
11
12.8669
21
-1.86346
0
LINE
8
BLACK
6
CONTINUOUS
10
12.8669
20
-1.86346
11
12.8618
21
-1.85697
0
LINE
8
BLACK
6
CONTINUOUS
10
12.8618
20
-1.85697
11
12.8618
21
-1.85693
0
LINE
8
BLACK
6
CONTINUOUS
10
12.8618
20
-1.85693
11
12.8618
21
-1.8569
0
LINE
8
BLACK
6
CONTINUOUS
10
12.8618
20
-1.8569
11
12.8602
21
-1.85197
0
LINE
8
BLACK
6
CONTINUOUS
10
12.8602
20
-1.85197
11
12.8602
21
-1.85197
0
LINE
8
BLACK
6
CONTINUOUS
10
12.8602
20
-1.85197
11
12.8602
21
-1.85196
0
LINE
8
BLACK
6
CONTINUOUS
10
12.8602
20
-1.85196
11
12.8602
21
-1.85193
0
LINE
8
BLACK
6
CONTINUOUS
10
12.8602
20
-1.85193
11
12.8602
21
-1.8519
0
LINE
8
BLACK
6
CONTINUOUS
10
12.8602
20
-1.8519
11
12.8602
21
-1.85189
0
LINE
8
BLACK
6
CONTINUOUS
10
12.8602
20
-1.85189
11
12.8602
21
-1.85188
0
LINE
8
BLACK
6
CONTINUOUS
10
12.8602
20
-1.85188
11
12.8603
21
-1.85185
0
LINE
8
BLACK
6
CONTINUOUS
10
12.8603
20
-1.85185
11
12.8603
21
-1.85182
0
LINE
8
BLACK
6
CONTINUOUS
10
12.8603
20
-1.85182
11
12.8603
21
-1.85182
0
LINE
8
BLACK
6
CONTINUOUS
10
12.8603
20
-1.85182
11
12.8603
21
-1.85181
0
LINE
8
BLACK
6
CONTINUOUS
10
12.8603
20
-1.85181
11
12.8603
21
-1.85179
0
LINE
8
BLACK
6
CONTINUOUS
10
12.8603
20
-1.85179
11
12.8603
21
-1.85176
0
LINE
8
BLACK
6
CONTINUOUS
10
12.8603
20
-1.85176
11
12.8603
21
-1.85176
0
LINE
8
BLACK
6
CONTINUOUS
10
12.8603
20
-1.85176
11
12.8603
21
-1.85175
0
LINE
8
BLACK
6
CONTINUOUS
10
12.8603
20
-1.85175
11
12.8628
21
-1.85002
0
LINE
8
BLACK
6
CONTINUOUS
10
12.8628
20
-1.85002
11
12.8628
21
-1.85002
0
LINE
8
BLACK
6
CONTINUOUS
10
12.8628
20
-1.85002
11
12.8628
21
-1.85002
0
LINE
8
BLACK
6
CONTINUOUS
10
12.8628
20
-1.85002
11
12.8628
21
-1.85001
0
LINE
8
BLACK
6
CONTINUOUS
10
12.8628
20
-1.85001
11
12.8629
21
-1.84999
0
LINE
8
BLACK
6
CONTINUOUS
10
12.8629
20
-1.84999
11
12.8629
21
-1.84999
0
LINE
8
BLACK
6
CONTINUOUS
10
12.8629
20
-1.84999
11
12.8629
21
-1.84999
0
LINE
8
BLACK
6
CONTINUOUS
10
12.8629
20
-1.84999
11
12.8629
21
-1.84999
0
LINE
8
BLACK
6
CONTINUOUS
10
13.2203
20
-1.75954
11
13.2203
21
-1.75954
0
LINE
8
BLACK
6
CONTINUOUS
10
13.2203
20
-1.75954
11
13.2203
21
-1.75955
0
LINE
8
BLACK
6
CONTINUOUS
10
13.2203
20
-1.75955
11
13.2204
21
-1.75955
0
LINE
8
BLACK
6
CONTINUOUS
10
13.2204
20
-1.75955
11
13.2204
21
-1.75956
0
LINE
8
BLACK
6
CONTINUOUS
10
13.2204
20
-1.75956
11
13.2204
21
-1.75956
0
LINE
8
BLACK
6
CONTINUOUS
10
13.2204
20
-1.75956
11
13.2204
21
-1.75958
0
LINE
8
BLACK
6
CONTINUOUS
10
13.2204
20
-1.75958
11
13.2204
21
-1.7596
0
LINE
8
BLACK
6
CONTINUOUS
10
13.2204
20
-1.7596
11
13.2204
21
-1.7596
0
LINE
8
BLACK
6
CONTINUOUS
10
13.2204
20
-1.7596
11
13.2204
21
-1.7596
0
LINE
8
BLACK
6
CONTINUOUS
10
13.2204
20
-1.7596
11
13.2204
21
-1.75963
0
LINE
8
BLACK
6
CONTINUOUS
10
13.2204
20
-1.75963
11
13.2205
21
-1.75966
0
LINE
8
BLACK
6
CONTINUOUS
10
13.2205
20
-1.75966
11
13.2205
21
-1.75967
0
LINE
8
BLACK
6
CONTINUOUS
10
13.2205
20
-1.75967
11
13.2205
21
-1.75967
0
LINE
8
BLACK
6
CONTINUOUS
10
13.2205
20
-1.75967
11
13.2216
21
-1.76293
0
LINE
8
BLACK
6
CONTINUOUS
10
13.2216
20
-1.76293
11
13.2216
21
-1.76296
0
LINE
8
BLACK
6
CONTINUOUS
10
13.2216
20
-1.76296
11
13.2216
21
-1.76298
0
LINE
8
BLACK
6
CONTINUOUS
10
13.2216
20
-1.76298
11
13.2227
21
-1.77216
0
LINE
8
BLACK
6
CONTINUOUS
10
13.2227
20
-1.77216
11
13.2227
21
-1.77217
0
LINE
8
BLACK
6
CONTINUOUS
10
13.2227
20
-1.77217
11
13.2227
21
-1.77217
0
LINE
8
BLACK
6
CONTINUOUS
10
13.2227
20
-1.77217
11
13.2235
21
-1.78713
0
LINE
8
BLACK
6
CONTINUOUS
10
13.2235
20
-1.78713
11
13.2235
21
-1.78713
0
LINE
8
BLACK
6
CONTINUOUS
10
13.2235
20
-1.78713
11
13.2235
21
-1.78714
0
LINE
8
BLACK
6
CONTINUOUS
10
13.2235
20
-1.78714
11
13.2239
21
-1.80772
0
LINE
8
BLACK
6
CONTINUOUS
10
13.2239
20
-1.80772
11
13.2239
21
-1.80772
0
LINE
8
BLACK
6
CONTINUOUS
10
13.2239
20
-1.80772
11
13.2239
21
-1.80772
0
LINE
8
BLACK
6
CONTINUOUS
10
13.2239
20
-1.80772
11
13.2239
21
-1.819
0
LINE
8
BLACK
6
CONTINUOUS
10
13.2239
20
-1.819
11
13.2239
21
-1.819
0
LINE
8
BLACK
6
CONTINUOUS
10
13.2239
20
-1.819
11
13.2239
21
-1.819
0
LINE
8
BLACK
6
CONTINUOUS
10
13.2239
20
-1.819
11
13.2238
21
-1.83773
0
LINE
8
BLACK
6
CONTINUOUS
10
13.2238
20
-1.83773
11
13.2238
21
-1.83773
0
LINE
8
BLACK
6
CONTINUOUS
10
13.2238
20
-1.83773
11
13.2238
21
-1.83773
0
LINE
8
BLACK
6
CONTINUOUS
10
13.2238
20
-1.83773
11
13.2234
21
-1.85365
0
LINE
8
BLACK
6
CONTINUOUS
10
13.2234
20
-1.85365
11
13.2234
21
-1.85365
0
LINE
8
BLACK
6
CONTINUOUS
10
13.2234
20
-1.85365
11
13.2234
21
-1.85365
0
LINE
8
BLACK
6
CONTINUOUS
10
13.2234
20
-1.85365
11
13.2228
21
-1.86578
0
LINE
8
BLACK
6
CONTINUOUS
10
13.2228
20
-1.86578
11
13.2228
21
-1.86579
0
LINE
8
BLACK
6
CONTINUOUS
10
13.2228
20
-1.86579
11
13.2228
21
-1.8658
0
LINE
8
BLACK
6
CONTINUOUS
10
13.2228
20
-1.8658
11
13.222
21
-1.87315
0
LINE
8
BLACK
6
CONTINUOUS
10
13.222
20
-1.87315
11
13.222
21
-1.87318
0
LINE
8
BLACK
6
CONTINUOUS
10
13.222
20
-1.87318
11
13.2219
21
-1.87322
0
LINE
8
BLACK
6
CONTINUOUS
10
13.2219
20
-1.87322
11
13.2211
21
-1.87492
0
LINE
8
BLACK
6
CONTINUOUS
10
13.2211
20
-1.87492
11
13.2211
21
-1.87492
0
LINE
8
BLACK
6
CONTINUOUS
10
13.2211
20
-1.87492
11
13.2211
21
-1.87493
0
LINE
8
BLACK
6
CONTINUOUS
10
13.2211
20
-1.87493
11
13.2211
21
-1.87495
0
LINE
8
BLACK
6
CONTINUOUS
10
13.2211
20
-1.87495
11
13.2211
21
-1.87498
0
LINE
8
BLACK
6
CONTINUOUS
10
13.2211
20
-1.87498
11
13.2211
21
-1.87498
0
LINE
8
BLACK
6
CONTINUOUS
10
13.2211
20
-1.87498
11
13.2211
21
-1.87499
0
LINE
8
BLACK
6
CONTINUOUS
10
13.2211
20
-1.87499
11
13.221
21
-1.875
0
LINE
8
BLACK
6
CONTINUOUS
10
13.221
20
-1.875
11
13.221
21
-1.87502
0
LINE
8
BLACK
6
CONTINUOUS
10
13.221
20
-1.87502
11
13.221
21
-1.87502
0
LINE
8
BLACK
6
CONTINUOUS
10
13.221
20
-1.87502
11
13.221
21
-1.87502
0
LINE
8
BLACK
6
CONTINUOUS
10
13.221
20
-1.87502
11
13.221
21
-1.87503
0
LINE
8
BLACK
6
CONTINUOUS
10
13.221
20
-1.87503
11
13.2209
21
-1.87503
0
LINE
8
BLACK
6
CONTINUOUS
10
13.2209
20
-1.87503
11
13.2209
21
-1.87503
0
LINE
8
BLACK
6
CONTINUOUS
10
13.2209
20
-1.87503
11
13.2209
21
-1.87503
0
LINE
8
BLACK
6
CONTINUOUS
10
13.2209
20
-1.87503
11
13.2209
21
-1.87502
0
LINE
8
BLACK
6
CONTINUOUS
10
13.2209
20
-1.87502
11
13.2208
21
-1.87501
0
LINE
8
BLACK
6
CONTINUOUS
10
13.2208
20
-1.87501
11
13.2208
21
-1.87501
0
LINE
8
BLACK
6
CONTINUOUS
10
13.2208
20
-1.87501
11
13.2208
21
-1.87501
0
LINE
8
BLACK
6
CONTINUOUS
10
13.2208
20
-1.87501
11
13.2208
21
-1.87498
0
LINE
8
BLACK
6
CONTINUOUS
10
13.2208
20
-1.87498
11
13.2208
21
-1.87496
0
LINE
8
BLACK
6
CONTINUOUS
10
13.2208
20
-1.87496
11
13.2208
21
-1.87496
0
LINE
8
BLACK
6
CONTINUOUS
10
13.2208
20
-1.87496
11
13.2208
21
-1.87496
0
LINE
8
BLACK
6
CONTINUOUS
10
13.2208
20
-1.87496
11
13.2176
21
-1.87105
0
LINE
8
BLACK
6
CONTINUOUS
10
13.2176
20
-1.87105
11
13.2176
21
-1.87105
0
LINE
8
BLACK
6
CONTINUOUS
10
13.2176
20
-1.87105
11
13.2176
21
-1.87105
0
LINE
8
BLACK
6
CONTINUOUS
10
13.2176
20
-1.87105
11
13.2114
21
-1.86325
0
LINE
8
BLACK
6
CONTINUOUS
10
13.2114
20
-1.86325
11
13.2114
21
-1.86325
0
LINE
8
BLACK
6
CONTINUOUS
10
13.2114
20
-1.86325
11
13.2114
21
-1.86325
0
LINE
8
BLACK
6
CONTINUOUS
10
13.2114
20
-1.86325
11
13.2033
21
-1.85293
0
LINE
8
BLACK
6
CONTINUOUS
10
13.2033
20
-1.85293
11
13.2033
21
-1.85293
0
LINE
8
BLACK
6
CONTINUOUS
10
13.2033
20
-1.85293
11
13.2033
21
-1.85293
0
LINE
8
BLACK
6
CONTINUOUS
10
13.2033
20
-1.85293
11
13.1991
21
-1.84762
0
LINE
8
BLACK
6
CONTINUOUS
10
13.1991
20
-1.84762
11
13.1875
21
-1.83279
0
LINE
8
BLACK
6
CONTINUOUS
10
13.1875
20
-1.83279
11
13.1744
21
-1.81609
0
LINE
8
BLACK
6
CONTINUOUS
10
13.1744
20
-1.81609
11
13.1623
21
-1.80086
0
LINE
8
BLACK
6
CONTINUOUS
10
13.1623
20
-1.80086
11
13.1623
21
-1.80086
0
LINE
8
BLACK
6
CONTINUOUS
10
13.1623
20
-1.80086
11
13.1611
21
-1.79929
0
LINE
8
BLACK
6
CONTINUOUS
10
13.1611
20
-1.79929
11
13.1611
21
-1.79929
0
LINE
8
BLACK
6
CONTINUOUS
10
13.1611
20
-1.79929
11
13.1423
21
-1.77554
0
LINE
8
BLACK
6
CONTINUOUS
10
13.1423
20
-1.77554
11
13.1406
21
-1.82613
0
LINE
8
BLACK
6
CONTINUOUS
10
13.1406
20
-1.82613
11
13.1406
21
-1.82613
0
LINE
8
BLACK
6
CONTINUOUS
10
13.1406
20
-1.82613
11
13.1406
21
-1.82613
0
LINE
8
BLACK
6
CONTINUOUS
10
13.1406
20
-1.82613
11
13.1399
21
-1.84349
0
LINE
8
BLACK
6
CONTINUOUS
10
13.1399
20
-1.84349
11
13.1399
21
-1.8435
0
LINE
8
BLACK
6
CONTINUOUS
10
13.1399
20
-1.8435
11
13.1399
21
-1.8435
0
LINE
8
BLACK
6
CONTINUOUS
10
13.1399
20
-1.8435
11
13.139
21
-1.85801
0
LINE
8
BLACK
6
CONTINUOUS
10
13.139
20
-1.85801
11
13.139
21
-1.85801
0
LINE
8
BLACK
6
CONTINUOUS
10
13.139
20
-1.85801
11
13.139
21
-1.85801
0
LINE
8
BLACK
6
CONTINUOUS
10
13.139
20
-1.85801
11
13.138
21
-1.8686
0
LINE
8
BLACK
6
CONTINUOUS
10
13.138
20
-1.8686
11
13.138
21
-1.86861
0
LINE
8
BLACK
6
CONTINUOUS
10
13.138
20
-1.86861
11
13.138
21
-1.86862
0
LINE
8
BLACK
6
CONTINUOUS
10
13.138
20
-1.86862
11
13.137
21
-1.87422
0
LINE
8
BLACK
6
CONTINUOUS
10
13.137
20
-1.87422
11
13.137
21
-1.87424
0
LINE
8
BLACK
6
CONTINUOUS
10
13.137
20
-1.87424
11
13.137
21
-1.87426
0
LINE
8
BLACK
6
CONTINUOUS
10
13.137
20
-1.87426
11
13.137
21
-1.87427
0
LINE
8
BLACK
6
CONTINUOUS
10
13.137
20
-1.87427
11
13.137
21
-1.87429
0
LINE
8
BLACK
6
CONTINUOUS
10
13.137
20
-1.87429
11
13.1369
21
-1.87431
0
LINE
8
BLACK
6
CONTINUOUS
10
13.1369
20
-1.87431
11
13.1369
21
-1.87432
0
LINE
8
BLACK
6
CONTINUOUS
10
13.1369
20
-1.87432
11
13.1364
21
-1.87487
0
LINE
8
BLACK
6
CONTINUOUS
10
13.1364
20
-1.87487
11
13.1364
21
-1.87488
0
LINE
8
BLACK
6
CONTINUOUS
10
13.1364
20
-1.87488
11
13.1364
21
-1.8749
0
LINE
8
BLACK
6
CONTINUOUS
10
13.1364
20
-1.8749
11
13.1363
21
-1.8749
0
LINE
8
BLACK
6
CONTINUOUS
10
13.1363
20
-1.8749
11
13.1363
21
-1.87492
0
LINE
8
BLACK
6
CONTINUOUS
10
13.1363
20
-1.87492
11
13.1363
21
-1.87492
0
LINE
8
BLACK
6
CONTINUOUS
10
13.1363
20
-1.87492
11
13.1363
21
-1.87493
0
LINE
8
BLACK
6
CONTINUOUS
10
13.1363
20
-1.87493
11
13.1363
21
-1.87493
0
LINE
8
BLACK
6
CONTINUOUS
10
13.1363
20
-1.87493
11
13.1363
21
-1.87493
0
LINE
8
BLACK
6
CONTINUOUS
10
13.1363
20
-1.87493
11
13.1362
21
-1.87493
0
LINE
8
BLACK
6
CONTINUOUS
10
13.1362
20
-1.87493
11
13.1362
21
-1.87493
0
LINE
8
BLACK
6
CONTINUOUS
10
13.1362
20
-1.87493
11
13.1362
21
-1.87492
0
LINE
8
BLACK
6
CONTINUOUS
10
13.1362
20
-1.87492
11
13.1362
21
-1.87492
0
LINE
8
BLACK
6
CONTINUOUS
10
13.1362
20
-1.87492
11
13.1362
21
-1.87491
0
LINE
8
BLACK
6
CONTINUOUS
10
13.1362
20
-1.87491
11
13.1361
21
-1.8749
0
LINE
8
BLACK
6
CONTINUOUS
10
13.1361
20
-1.8749
11
13.1361
21
-1.87489
0
LINE
8
BLACK
6
CONTINUOUS
10
13.1361
20
-1.87489
11
13.1361
21
-1.87487
0
LINE
8
BLACK
6
CONTINUOUS
10
13.1361
20
-1.87487
11
13.1361
21
-1.87486
0
LINE
8
BLACK
6
CONTINUOUS
10
13.1361
20
-1.87486
11
13.1361
21
-1.87485
0
LINE
8
BLACK
6
CONTINUOUS
10
13.1361
20
-1.87485
11
13.1361
21
-1.87483
0
LINE
8
BLACK
6
CONTINUOUS
10
13.1361
20
-1.87483
11
13.1361
21
-1.87481
0
LINE
8
BLACK
6
CONTINUOUS
10
13.1361
20
-1.87481
11
13.1361
21
-1.87479
0
LINE
8
BLACK
6
CONTINUOUS
10
13.1361
20
-1.87479
11
13.1361
21
-1.87478
0
LINE
8
BLACK
6
CONTINUOUS
10
13.1361
20
-1.87478
11
13.1352
21
-1.87077
0
LINE
8
BLACK
6
CONTINUOUS
10
13.1352
20
-1.87077
11
13.1352
21
-1.87076
0
LINE
8
BLACK
6
CONTINUOUS
10
13.1352
20
-1.87076
11
13.1352
21
-1.87075
0
LINE
8
BLACK
6
CONTINUOUS
10
13.1352
20
-1.87075
11
13.1345
21
-1.86159
0
LINE
8
BLACK
6
CONTINUOUS
10
13.1345
20
-1.86159
11
13.1345
21
-1.86159
0
LINE
8
BLACK
6
CONTINUOUS
10
13.1345
20
-1.86159
11
13.1345
21
-1.86158
0
LINE
8
BLACK
6
CONTINUOUS
10
13.1345
20
-1.86158
11
13.134
21
-1.84858
0
LINE
8
BLACK
6
CONTINUOUS
10
13.134
20
-1.84858
11
13.134
21
-1.84858
0
LINE
8
BLACK
6
CONTINUOUS
10
13.134
20
-1.84858
11
13.134
21
-1.84857
0
LINE
8
BLACK
6
CONTINUOUS
10
13.134
20
-1.84857
11
13.1337
21
-1.83304
0
LINE
8
BLACK
6
CONTINUOUS
10
13.1337
20
-1.83304
11
13.1337
21
-1.83304
0
LINE
8
BLACK
6
CONTINUOUS
10
13.1337
20
-1.83304
11
13.1337
21
-1.83304
0
LINE
8
BLACK
6
CONTINUOUS
10
13.1337
20
-1.83304
11
13.1336
21
-1.81627
0
LINE
8
BLACK
6
CONTINUOUS
10
13.1336
20
-1.81627
11
13.1336
21
-1.81627
0
LINE
8
BLACK
6
CONTINUOUS
10
13.1336
20
-1.81627
11
13.1336
21
-1.81627
0
LINE
8
BLACK
6
CONTINUOUS
10
13.1336
20
-1.81627
11
13.1337
21
-1.7996
0
LINE
8
BLACK
6
CONTINUOUS
10
13.1337
20
-1.7996
11
13.1337
21
-1.7996
0
LINE
8
BLACK
6
CONTINUOUS
10
13.1337
20
-1.7996
11
13.1337
21
-1.7996
0
LINE
8
BLACK
6
CONTINUOUS
10
13.1337
20
-1.7996
11
13.134
21
-1.78432
0
LINE
8
BLACK
6
CONTINUOUS
10
13.134
20
-1.78432
11
13.134
21
-1.78432
0
LINE
8
BLACK
6
CONTINUOUS
10
13.134
20
-1.78432
11
13.134
21
-1.78432
0
LINE
8
BLACK
6
CONTINUOUS
10
13.134
20
-1.78432
11
13.1345
21
-1.77175
0
LINE
8
BLACK
6
CONTINUOUS
10
13.1345
20
-1.77175
11
13.1345
21
-1.77175
0
LINE
8
BLACK
6
CONTINUOUS
10
13.1345
20
-1.77175
11
13.1345
21
-1.77174
0
LINE
8
BLACK
6
CONTINUOUS
10
13.1345
20
-1.77174
11
13.1352
21
-1.7632
0
LINE
8
BLACK
6
CONTINUOUS
10
13.1352
20
-1.7632
11
13.1352
21
-1.76318
0
LINE
8
BLACK
6
CONTINUOUS
10
13.1352
20
-1.76318
11
13.1352
21
-1.76316
0
LINE
8
BLACK
6
CONTINUOUS
10
13.1352
20
-1.76316
11
13.1361
21
-1.75995
0
LINE
8
BLACK
6
CONTINUOUS
10
13.1361
20
-1.75995
11
13.1361
21
-1.75994
0
LINE
8
BLACK
6
CONTINUOUS
10
13.1361
20
-1.75994
11
13.1361
21
-1.75994
0
LINE
8
BLACK
6
CONTINUOUS
10
13.1361
20
-1.75994
11
13.1361
21
-1.75991
0
LINE
8
BLACK
6
CONTINUOUS
10
13.1361
20
-1.75991
11
13.1361
21
-1.75988
0
LINE
8
BLACK
6
CONTINUOUS
10
13.1361
20
-1.75988
11
13.1361
21
-1.75988
0
LINE
8
BLACK
6
CONTINUOUS
10
13.1361
20
-1.75988
11
13.1361
21
-1.75987
0
LINE
8
BLACK
6
CONTINUOUS
10
13.1361
20
-1.75987
11
13.1361
21
-1.75985
0
LINE
8
BLACK
6
CONTINUOUS
10
13.1361
20
-1.75985
11
13.1362
21
-1.75983
0
LINE
8
BLACK
6
CONTINUOUS
10
13.1362
20
-1.75983
11
13.1362
21
-1.75983
0
LINE
8
BLACK
6
CONTINUOUS
10
13.1362
20
-1.75983
11
13.1362
21
-1.75982
0
LINE
8
BLACK
6
CONTINUOUS
10
13.1362
20
-1.75982
11
13.1362
21
-1.75982
0
LINE
8
BLACK
6
CONTINUOUS
10
13.1362
20
-1.75982
11
13.1362
21
-1.75981
0
LINE
8
BLACK
6
CONTINUOUS
10
13.1362
20
-1.75981
11
13.1362
21
-1.75981
0
LINE
8
BLACK
6
CONTINUOUS
10
13.1362
20
-1.75981
11
13.1362
21
-1.7598
0
LINE
8
BLACK
6
CONTINUOUS
10
13.1362
20
-1.7598
11
13.1363
21
-1.7598
0
LINE
8
BLACK
6
CONTINUOUS
10
13.1363
20
-1.7598
11
13.1363
21
-1.7598
0
LINE
8
BLACK
6
CONTINUOUS
10
13.1363
20
-1.7598
11
13.1363
21
-1.7598
0
LINE
8
BLACK
6
CONTINUOUS
10
13.1363
20
-1.7598
11
13.1363
21
-1.75981
0
LINE
8
BLACK
6
CONTINUOUS
10
13.1363
20
-1.75981
11
13.1363
21
-1.75981
0
LINE
8
BLACK
6
CONTINUOUS
10
13.1363
20
-1.75981
11
13.1363
21
-1.75981
0
LINE
8
BLACK
6
CONTINUOUS
10
13.1363
20
-1.75981
11
13.1363
21
-1.75981
0
LINE
8
BLACK
6
CONTINUOUS
10
13.1363
20
-1.75981
11
13.1364
21
-1.75983
0
LINE
8
BLACK
6
CONTINUOUS
10
13.1364
20
-1.75983
11
13.1364
21
-1.75985
0
LINE
8
BLACK
6
CONTINUOUS
10
13.1364
20
-1.75985
11
13.1364
21
-1.75985
0
LINE
8
BLACK
6
CONTINUOUS
10
13.1364
20
-1.75985
11
13.1364
21
-1.75985
0
LINE
8
BLACK
6
CONTINUOUS
10
13.1364
20
-1.75985
11
13.1392
21
-1.76235
0
LINE
8
BLACK
6
CONTINUOUS
10
13.1392
20
-1.76235
11
13.1392
21
-1.76236
0
LINE
8
BLACK
6
CONTINUOUS
10
13.1392
20
-1.76236
11
13.1392
21
-1.76237
0
LINE
8
BLACK
6
CONTINUOUS
10
13.1392
20
-1.76237
11
13.1453
21
-1.76932
0
LINE
8
BLACK
6
CONTINUOUS
10
13.1453
20
-1.76932
11
13.1453
21
-1.76932
0
LINE
8
BLACK
6
CONTINUOUS
10
13.1453
20
-1.76932
11
13.1453
21
-1.76933
0
LINE
8
BLACK
6
CONTINUOUS
10
13.1453
20
-1.76933
11
13.1542
21
-1.77991
0
LINE
8
BLACK
6
CONTINUOUS
10
13.1542
20
-1.77991
11
13.1542
21
-1.77991
0
LINE
8
BLACK
6
CONTINUOUS
10
13.1542
20
-1.77991
11
13.1542
21
-1.77991
0
LINE
8
BLACK
6
CONTINUOUS
10
13.1542
20
-1.77991
11
13.1651
21
-1.79331
0
LINE
8
BLACK
6
CONTINUOUS
10
13.1651
20
-1.79331
11
13.1651
21
-1.79331
0
LINE
8
BLACK
6
CONTINUOUS
10
13.1651
20
-1.79331
11
13.1651
21
-1.79331
0
LINE
8
BLACK
6
CONTINUOUS
10
13.1651
20
-1.79331
11
13.1773
21
-1.80869
0
LINE
8
BLACK
6
CONTINUOUS
10
13.1773
20
-1.80869
11
13.1773
21
-1.80869
0
LINE
8
BLACK
6
CONTINUOUS
10
13.1773
20
-1.80869
11
13.1773
21
-1.80869
0
LINE
8
BLACK
6
CONTINUOUS
10
13.1773
20
-1.80869
11
13.2152
21
-1.85706
0
LINE
8
BLACK
6
CONTINUOUS
10
13.2152
20
-1.85706
11
13.2161
21
-1.8088
0
LINE
8
BLACK
6
CONTINUOUS
10
13.2161
20
-1.8088
11
13.2161
21
-1.8088
0
LINE
8
BLACK
6
CONTINUOUS
10
13.2161
20
-1.8088
11
13.2161
21
-1.8088
0
LINE
8
BLACK
6
CONTINUOUS
10
13.2161
20
-1.8088
11
13.2168
21
-1.78692
0
LINE
8
BLACK
6
CONTINUOUS
10
13.2168
20
-1.78692
11
13.2168
21
-1.78692
0
LINE
8
BLACK
6
CONTINUOUS
10
13.2168
20
-1.78692
11
13.2168
21
-1.78691
0
LINE
8
BLACK
6
CONTINUOUS
10
13.2168
20
-1.78691
11
13.2177
21
-1.77154
0
LINE
8
BLACK
6
CONTINUOUS
10
13.2177
20
-1.77154
11
13.2177
21
-1.77153
0
LINE
8
BLACK
6
CONTINUOUS
10
13.2177
20
-1.77153
11
13.2177
21
-1.77153
0
LINE
8
BLACK
6
CONTINUOUS
10
13.2177
20
-1.77153
11
13.2189
21
-1.76251
0
LINE
8
BLACK
6
CONTINUOUS
10
13.2189
20
-1.76251
11
13.2189
21
-1.76249
0
LINE
8
BLACK
6
CONTINUOUS
10
13.2189
20
-1.76249
11
13.2189
21
-1.76246
0
LINE
8
BLACK
6
CONTINUOUS
10
13.2189
20
-1.76246
11
13.2201
21
-1.75966
0
LINE
8
BLACK
6
CONTINUOUS
10
13.2201
20
-1.75966
11
13.2201
21
-1.75965
0
LINE
8
BLACK
6
CONTINUOUS
10
13.2201
20
-1.75965
11
13.2201
21
-1.75965
0
LINE
8
BLACK
6
CONTINUOUS
10
13.2201
20
-1.75965
11
13.2201
21
-1.75962
0
LINE
8
BLACK
6
CONTINUOUS
10
13.2201
20
-1.75962
11
13.2201
21
-1.75959
0
LINE
8
BLACK
6
CONTINUOUS
10
13.2201
20
-1.75959
11
13.2201
21
-1.75959
0
LINE
8
BLACK
6
CONTINUOUS
10
13.2201
20
-1.75959
11
13.2201
21
-1.75959
0
LINE
8
BLACK
6
CONTINUOUS
10
13.2201
20
-1.75959
11
13.2202
21
-1.75957
0
LINE
8
BLACK
6
CONTINUOUS
10
13.2202
20
-1.75957
11
13.2202
21
-1.75955
0
LINE
8
BLACK
6
CONTINUOUS
10
13.2202
20
-1.75955
11
13.2202
21
-1.75955
0
LINE
8
BLACK
6
CONTINUOUS
10
13.2202
20
-1.75955
11
13.2202
21
-1.75955
0
LINE
8
BLACK
6
CONTINUOUS
10
13.2202
20
-1.75955
11
13.2202
21
-1.75954
0
LINE
8
BLACK
6
CONTINUOUS
10
13.2202
20
-1.75954
11
13.2203
21
-1.75954
0
LINE
8
BLACK
6
CONTINUOUS
10
13.2203
20
-1.75954
11
13.2203
21
-1.75954
0
LINE
8
BLACK
6
CONTINUOUS
10
13.0643
20
-1.75857
11
13.0643
21
-1.75857
0
LINE
8
BLACK
6
CONTINUOUS
10
13.0643
20
-1.75857
11
13.0805
21
-1.76015
0
LINE
8
BLACK
6
CONTINUOUS
10
13.0805
20
-1.76015
11
13.0805
21
-1.76016
0
LINE
8
BLACK
6
CONTINUOUS
10
13.0805
20
-1.76016
11
13.0805
21
-1.76016
0
LINE
8
BLACK
6
CONTINUOUS
10
13.0805
20
-1.76016
11
13.0933
21
-1.7644
0
LINE
8
BLACK
6
CONTINUOUS
10
13.0933
20
-1.7644
11
13.0933
21
-1.76441
0
LINE
8
BLACK
6
CONTINUOUS
10
13.0933
20
-1.76441
11
13.0933
21
-1.76442
0
LINE
8
BLACK
6
CONTINUOUS
10
13.0933
20
-1.76442
11
13.101
21
-1.76908
0
LINE
8
BLACK
6
CONTINUOUS
10
13.101
20
-1.76908
11
13.101
21
-1.76908
0
LINE
8
BLACK
6
CONTINUOUS
10
13.101
20
-1.76908
11
13.101
21
-1.76908
0
LINE
8
BLACK
6
CONTINUOUS
10
13.101
20
-1.76908
11
13.101
21
-1.76911
0
LINE
8
BLACK
6
CONTINUOUS
10
13.101
20
-1.76911
11
13.1011
21
-1.76913
0
LINE
8
BLACK
6
CONTINUOUS
10
13.1011
20
-1.76913
11
13.1011
21
-1.76913
0
LINE
8
BLACK
6
CONTINUOUS
10
13.1011
20
-1.76913
11
13.1011
21
-1.76913
0
LINE
8
BLACK
6
CONTINUOUS
10
13.1011
20
-1.76913
11
13.1027
21
-1.77156
0
LINE
8
BLACK
6
CONTINUOUS
10
13.1027
20
-1.77156
11
13.1027
21
-1.77158
0
LINE
8
BLACK
6
CONTINUOUS
10
13.1027
20
-1.77158
11
13.1028
21
-1.77159
0
LINE
8
BLACK
6
CONTINUOUS
10
13.1028
20
-1.77159
11
13.1028
21
-1.77161
0
LINE
8
BLACK
6
CONTINUOUS
10
13.1028
20
-1.77161
11
13.1028
21
-1.77163
0
LINE
8
BLACK
6
CONTINUOUS
10
13.1028
20
-1.77163
11
13.1028
21
-1.77165
0
LINE
8
BLACK
6
CONTINUOUS
10
13.1028
20
-1.77165
11
13.1028
21
-1.77167
0
LINE
8
BLACK
6
CONTINUOUS
10
13.1028
20
-1.77167
11
13.1028
21
-1.77169
0
LINE
8
BLACK
6
CONTINUOUS
10
13.1028
20
-1.77169
11
13.1028
21
-1.77171
0
LINE
8
BLACK
6
CONTINUOUS
10
13.1028
20
-1.77171
11
13.1028
21
-1.77172
0
LINE
8
BLACK
6
CONTINUOUS
10
13.1028
20
-1.77172
11
13.1028
21
-1.77175
0
LINE
8
BLACK
6
CONTINUOUS
10
13.1028
20
-1.77175
11
13.1027
21
-1.77176
0
LINE
8
BLACK
6
CONTINUOUS
10
13.1027
20
-1.77176
11
13.1027
21
-1.77178
0
LINE
8
BLACK
6
CONTINUOUS
10
13.1027
20
-1.77178
11
13.1027
21
-1.77179
0
LINE
8
BLACK
6
CONTINUOUS
10
13.1027
20
-1.77179
11
13.1027
21
-1.77181
0
LINE
8
BLACK
6
CONTINUOUS
10
13.1027
20
-1.77181
11
13.1027
21
-1.77182
0
LINE
8
BLACK
6
CONTINUOUS
10
13.1027
20
-1.77182
11
13.1027
21
-1.77183
0
LINE
8
BLACK
6
CONTINUOUS
10
13.1027
20
-1.77183
11
13.1027
21
-1.77184
0
LINE
8
BLACK
6
CONTINUOUS
10
13.1027
20
-1.77184
11
13.1026
21
-1.77185
0
LINE
8
BLACK
6
CONTINUOUS
10
13.1026
20
-1.77185
11
13.1026
21
-1.77186
0
LINE
8
BLACK
6
CONTINUOUS
10
13.1026
20
-1.77186
11
13.1026
21
-1.77186
0
LINE
8
BLACK
6
CONTINUOUS
10
13.1026
20
-1.77186
11
13.1026
21
-1.77186
0
LINE
8
BLACK
6
CONTINUOUS
10
13.1026
20
-1.77186
11
13.1026
21
-1.77187
0
LINE
8
BLACK
6
CONTINUOUS
10
13.1026
20
-1.77187
11
13.0986
21
-1.77186
0
LINE
8
BLACK
6
CONTINUOUS
10
13.0986
20
-1.77186
11
13.0986
21
-1.77185
0
LINE
8
BLACK
6
CONTINUOUS
10
13.0986
20
-1.77185
11
13.0986
21
-1.77185
0
LINE
8
BLACK
6
CONTINUOUS
10
13.0986
20
-1.77185
11
13.0893
21
-1.76922
0
LINE
8
BLACK
6
CONTINUOUS
10
13.0893
20
-1.76922
11
13.0893
21
-1.76922
0
LINE
8
BLACK
6
CONTINUOUS
10
13.0893
20
-1.76922
11
13.0893
21
-1.76921
0
LINE
8
BLACK
6
CONTINUOUS
10
13.0893
20
-1.76921
11
13.0867
21
-1.76831
0
LINE
8
BLACK
6
CONTINUOUS
10
13.0867
20
-1.76831
11
13.0679
21
-1.76443
0
LINE
8
BLACK
6
CONTINUOUS
10
13.0679
20
-1.76443
11
13.05
21
-1.76606
0
LINE
8
BLACK
6
CONTINUOUS
10
13.05
20
-1.76606
11
13.0343
21
-1.77278
0
LINE
8
BLACK
6
CONTINUOUS
10
13.0343
20
-1.77278
11
13.0219
21
-1.78417
0
LINE
8
BLACK
6
CONTINUOUS
10
13.0219
20
-1.78417
11
13.0172
21
-1.79189
0
LINE
8
BLACK
6
CONTINUOUS
10
13.0172
20
-1.79189
11
13.0115
21
-1.81024
0
LINE
8
BLACK
6
CONTINUOUS
10
13.0115
20
-1.81024
11
13.0117
21
-1.82829
0
LINE
8
BLACK
6
CONTINUOUS
10
13.0117
20
-1.82829
11
13.0175
21
-1.84481
0
LINE
8
BLACK
6
CONTINUOUS
10
13.0175
20
-1.84481
11
13.0286
21
-1.85855
0
LINE
8
BLACK
6
CONTINUOUS
10
13.0286
20
-1.85855
11
13.0339
21
-1.86256
0
LINE
8
BLACK
6
CONTINUOUS
10
13.0339
20
-1.86256
11
13.0414
21
-1.86691
0
LINE
8
BLACK
6
CONTINUOUS
10
13.0414
20
-1.86691
11
13.0491
21
-1.86906
0
LINE
8
BLACK
6
CONTINUOUS
10
13.0491
20
-1.86906
11
13.0595
21
-1.8695
0
LINE
8
BLACK
6
CONTINUOUS
10
13.0595
20
-1.8695
11
13.0675
21
-1.86917
0
LINE
8
BLACK
6
CONTINUOUS
10
13.0675
20
-1.86917
11
13.0826
21
-1.86776
0
LINE
8
BLACK
6
CONTINUOUS
10
13.0826
20
-1.86776
11
13.0922
21
-1.86479
0
LINE
8
BLACK
6
CONTINUOUS
10
13.0922
20
-1.86479
11
13.0975
21
-1.85915
0
LINE
8
BLACK
6
CONTINUOUS
10
13.0975
20
-1.85915
11
13.0998
21
-1.84967
0
LINE
8
BLACK
6
CONTINUOUS
10
13.0998
20
-1.84967
11
13.1002
21
-1.83811
0
LINE
8
BLACK
6
CONTINUOUS
10
13.1002
20
-1.83811
11
13.1002
21
-1.83811
0
LINE
8
BLACK
6
CONTINUOUS
10
13.1002
20
-1.83811
11
13.1002
21
-1.83811
0
LINE
8
BLACK
6
CONTINUOUS
10
13.1002
20
-1.83811
11
13.1007
21
-1.82685
0
LINE
8
BLACK
6
CONTINUOUS
10
13.1007
20
-1.82685
11
13.1007
21
-1.82684
0
LINE
8
BLACK
6
CONTINUOUS
10
13.1007
20
-1.82684
11
13.1007
21
-1.82682
0
LINE
8
BLACK
6
CONTINUOUS
10
13.1007
20
-1.82682
11
13.102
21
-1.81842
0
LINE
8
BLACK
6
CONTINUOUS
10
13.102
20
-1.81842
11
13.102
21
-1.81839
0
LINE
8
BLACK
6
CONTINUOUS
10
13.102
20
-1.81839
11
13.102
21
-1.81837
0
LINE
8
BLACK
6
CONTINUOUS
10
13.102
20
-1.81837
11
13.1036
21
-1.81492
0
LINE
8
BLACK
6
CONTINUOUS
10
13.1036
20
-1.81492
11
13.1036
21
-1.81489
0
LINE
8
BLACK
6
CONTINUOUS
10
13.1036
20
-1.81489
11
13.1036
21
-1.81486
0
LINE
8
BLACK
6
CONTINUOUS
10
13.1036
20
-1.81486
11
13.1036
21
-1.81486
0
LINE
8
BLACK
6
CONTINUOUS
10
13.1036
20
-1.81486
11
13.1036
21
-1.81486
0
LINE
8
BLACK
6
CONTINUOUS
10
13.1036
20
-1.81486
11
13.1036
21
-1.81484
0
LINE
8
BLACK
6
CONTINUOUS
10
13.1036
20
-1.81484
11
13.1037
21
-1.81482
0
LINE
8
BLACK
6
CONTINUOUS
10
13.1037
20
-1.81482
11
13.1037
21
-1.81482
0
LINE
8
BLACK
6
CONTINUOUS
10
13.1037
20
-1.81482
11
13.1037
21
-1.81482
0
LINE
8
BLACK
6
CONTINUOUS
10
13.1037
20
-1.81482
11
13.1037
21
-1.81481
0
LINE
8
BLACK
6
CONTINUOUS
10
13.1037
20
-1.81481
11
13.1038
21
-1.8148
0
LINE
8
BLACK
6
CONTINUOUS
10
13.1038
20
-1.8148
11
13.1038
21
-1.8148
0
LINE
8
BLACK
6
CONTINUOUS
10
13.1038
20
-1.8148
11
13.1038
21
-1.8148
0
LINE
8
BLACK
6
CONTINUOUS
10
13.1038
20
-1.8148
11
13.1038
21
-1.81481
0
LINE
8
BLACK
6
CONTINUOUS
10
13.1038
20
-1.81481
11
13.1038
21
-1.81482
0
LINE
8
BLACK
6
CONTINUOUS
10
13.1038
20
-1.81482
11
13.1038
21
-1.81482
0
LINE
8
BLACK
6
CONTINUOUS
10
13.1038
20
-1.81482
11
13.1038
21
-1.81482
0
LINE
8
BLACK
6
CONTINUOUS
10
13.1038
20
-1.81482
11
13.1039
21
-1.81484
0
LINE
8
BLACK
6
CONTINUOUS
10
13.1039
20
-1.81484
11
13.1039
21
-1.81486
0
LINE
8
BLACK
6
CONTINUOUS
10
13.1039
20
-1.81486
11
13.1057
21
-1.81677
0
LINE
8
BLACK
6
CONTINUOUS
10
13.1057
20
-1.81677
11
13.1057
21
-1.81679
0
LINE
8
BLACK
6
CONTINUOUS
10
13.1057
20
-1.81679
11
13.1057
21
-1.81681
0
LINE
8
BLACK
6
CONTINUOUS
10
13.1057
20
-1.81681
11
13.1057
21
-1.81682
0
LINE
8
BLACK
6
CONTINUOUS
10
13.1057
20
-1.81682
11
13.1058
21
-1.81684
0
LINE
8
BLACK
6
CONTINUOUS
10
13.1058
20
-1.81684
11
13.1058
21
-1.81686
0
LINE
8
BLACK
6
CONTINUOUS
10
13.1058
20
-1.81686
11
13.1058
21
-1.81688
0
LINE
8
BLACK
6
CONTINUOUS
10
13.1058
20
-1.81688
11
13.1069
21
-1.82488
0
LINE
8
BLACK
6
CONTINUOUS
10
13.1069
20
-1.82488
11
13.1069
21
-1.82489
0
LINE
8
BLACK
6
CONTINUOUS
10
13.1069
20
-1.82489
11
13.1069
21
-1.8249
0
LINE
8
BLACK
6
CONTINUOUS
10
13.1069
20
-1.8249
11
13.1073
21
-1.83775
0
LINE
8
BLACK
6
CONTINUOUS
10
13.1073
20
-1.83775
11
13.1073
21
-1.83775
0
LINE
8
BLACK
6
CONTINUOUS
10
13.1073
20
-1.83775
11
13.1073
21
-1.83776
0
LINE
8
BLACK
6
CONTINUOUS
10
13.1073
20
-1.83776
11
13.1071
21
-1.85063
0
LINE
8
BLACK
6
CONTINUOUS
10
13.1071
20
-1.85063
11
13.1071
21
-1.85064
0
LINE
8
BLACK
6
CONTINUOUS
10
13.1071
20
-1.85064
11
13.1071
21
-1.85065
0
LINE
8
BLACK
6
CONTINUOUS
10
13.1071
20
-1.85065
11
13.1062
21
-1.85864
0
LINE
8
BLACK
6
CONTINUOUS
10
13.1062
20
-1.85864
11
13.1062
21
-1.85867
0
LINE
8
BLACK
6
CONTINUOUS
10
13.1062
20
-1.85867
11
13.1062
21
-1.8587
0
LINE
8
BLACK
6
CONTINUOUS
10
13.1062
20
-1.8587
11
13.1041
21
-1.8636
0
LINE
8
BLACK
6
CONTINUOUS
10
13.1041
20
-1.8636
11
13.1041
21
-1.86361
0
LINE
8
BLACK
6
CONTINUOUS
10
13.1041
20
-1.86361
11
13.1041
21
-1.86361
0
LINE
8
BLACK
6
CONTINUOUS
10
13.1041
20
-1.86361
11
13.1041
21
-1.86364
0
LINE
8
BLACK
6
CONTINUOUS
10
13.1041
20
-1.86364
11
13.1041
21
-1.86367
0
LINE
8
BLACK
6
CONTINUOUS
10
13.1041
20
-1.86367
11
13.1041
21
-1.86367
0
LINE
8
BLACK
6
CONTINUOUS
10
13.1041
20
-1.86367
11
13.1041
21
-1.86367
0
LINE
8
BLACK
6
CONTINUOUS
10
13.1041
20
-1.86367
11
13.1002
21
-1.86727
0
LINE
8
BLACK
6
CONTINUOUS
10
13.1002
20
-1.86727
11
13.1002
21
-1.86728
0
LINE
8
BLACK
6
CONTINUOUS
10
13.1002
20
-1.86728
11
13.1002
21
-1.86729
0
LINE
8
BLACK
6
CONTINUOUS
10
13.1002
20
-1.86729
11
13.098
21
-1.8688
0
LINE
8
BLACK
6
CONTINUOUS
10
13.098
20
-1.8688
11
13.098
21
-1.86881
0
LINE
8
BLACK
6
CONTINUOUS
10
13.098
20
-1.86881
11
13.098
21
-1.86882
0
LINE
8
BLACK
6
CONTINUOUS
10
13.098
20
-1.86882
11
13.0883
21
-1.8729
0
LINE
8
BLACK
6
CONTINUOUS
10
13.0883
20
-1.8729
11
13.0882
21
-1.8729
0
LINE
8
BLACK
6
CONTINUOUS
10
13.0882
20
-1.8729
11
13.0882
21
-1.87291
0
LINE
8
BLACK
6
CONTINUOUS
10
13.0882
20
-1.87291
11
13.0746
21
-1.87561
0
LINE
8
BLACK
6
CONTINUOUS
10
13.0746
20
-1.87561
11
13.0746
21
-1.87561
0
LINE
8
BLACK
6
CONTINUOUS
10
13.0746
20
-1.87561
11
13.0746
21
-1.87561
0
LINE
8
BLACK
6
CONTINUOUS
10
13.0746
20
-1.87561
11
13.0688
21
-1.87614
0
LINE
8
BLACK
6
CONTINUOUS
10
13.0688
20
-1.87614
11
13.0688
21
-1.87614
0
LINE
8
BLACK
6
CONTINUOUS
10
13.0688
20
-1.87614
11
13.0688
21
-1.87614
0
LINE
8
BLACK
6
CONTINUOUS
10
13.0688
20
-1.87614
11
13.0552
21
-1.87629
0
LINE
8
BLACK
6
CONTINUOUS
10
13.0552
20
-1.87629
11
13.0551
21
-1.87628
0
LINE
8
BLACK
6
CONTINUOUS
10
13.0551
20
-1.87628
11
13.0551
21
-1.87628
0
LINE
8
BLACK
6
CONTINUOUS
10
13.0551
20
-1.87628
11
13.0446
21
-1.87426
0
LINE
8
BLACK
6
CONTINUOUS
10
13.0446
20
-1.87426
11
13.0446
21
-1.87425
0
LINE
8
BLACK
6
CONTINUOUS
10
13.0446
20
-1.87425
11
13.0446
21
-1.87425
0
LINE
8
BLACK
6
CONTINUOUS
10
13.0446
20
-1.87425
11
13.0338
21
-1.86943
0
LINE
8
BLACK
6
CONTINUOUS
10
13.0338
20
-1.86943
11
13.0338
21
-1.86942
0
LINE
8
BLACK
6
CONTINUOUS
10
13.0338
20
-1.86942
11
13.0338
21
-1.86941
0
LINE
8
BLACK
6
CONTINUOUS
10
13.0338
20
-1.86941
11
13.0193
21
-1.85827
0
LINE
8
BLACK
6
CONTINUOUS
10
13.0193
20
-1.85827
11
13.0193
21
-1.85825
0
LINE
8
BLACK
6
CONTINUOUS
10
13.0193
20
-1.85825
11
13.0193
21
-1.85823
0
LINE
8
BLACK
6
CONTINUOUS
10
13.0193
20
-1.85823
11
13.0096
21
-1.84371
0
LINE
8
BLACK
6
CONTINUOUS
10
13.0096
20
-1.84371
11
13.0096
21
-1.84369
0
LINE
8
BLACK
6
CONTINUOUS
10
13.0096
20
-1.84369
11
13.0096
21
-1.84366
0
LINE
8
BLACK
6
CONTINUOUS
10
13.0096
20
-1.84366
11
13.0046
21
-1.82708
0
LINE
8
BLACK
6
CONTINUOUS
10
13.0046
20
-1.82708
11
13.0045
21
-1.82705
0
LINE
8
BLACK
6
CONTINUOUS
10
13.0045
20
-1.82705
11
13.0045
21
-1.82702
0
LINE
8
BLACK
6
CONTINUOUS
10
13.0045
20
-1.82702
11
13.0043
21
-1.80967
0
LINE
8
BLACK
6
CONTINUOUS
10
13.0043
20
-1.80967
11
13.0043
21
-1.80964
0
LINE
8
BLACK
6
CONTINUOUS
10
13.0043
20
-1.80964
11
13.0043
21
-1.80961
0
LINE
8
BLACK
6
CONTINUOUS
10
13.0043
20
-1.80961
11
13.0087
21
-1.79279
0
LINE
8
BLACK
6
CONTINUOUS
10
13.0087
20
-1.79279
11
13.0087
21
-1.79277
0
LINE
8
BLACK
6
CONTINUOUS
10
13.0087
20
-1.79277
11
13.0087
21
-1.79274
0
LINE
8
BLACK
6
CONTINUOUS
10
13.0087
20
-1.79274
11
13.0178
21
-1.77776
0
LINE
8
BLACK
6
CONTINUOUS
10
13.0178
20
-1.77776
11
13.0178
21
-1.77774
0
LINE
8
BLACK
6
CONTINUOUS
10
13.0178
20
-1.77774
11
13.0179
21
-1.77771
0
LINE
8
BLACK
6
CONTINUOUS
10
13.0179
20
-1.77771
11
13.0317
21
-1.76588
0
LINE
8
BLACK
6
CONTINUOUS
10
13.0317
20
-1.76588
11
13.0317
21
-1.76587
0
LINE
8
BLACK
6
CONTINUOUS
10
13.0317
20
-1.76587
11
13.0317
21
-1.76586
0
LINE
8
BLACK
6
CONTINUOUS
10
13.0317
20
-1.76586
11
13.0347
21
-1.76416
0
LINE
8
BLACK
6
CONTINUOUS
10
13.0347
20
-1.76416
11
13.0347
21
-1.76416
0
LINE
8
BLACK
6
CONTINUOUS
10
13.0347
20
-1.76416
11
13.0347
21
-1.76415
0
LINE
8
BLACK
6
CONTINUOUS
10
13.0347
20
-1.76415
11
13.048
21
-1.7599
0
LINE
8
BLACK
6
CONTINUOUS
10
13.048
20
-1.7599
11
13.048
21
-1.7599
0
LINE
8
BLACK
6
CONTINUOUS
10
13.048
20
-1.7599
11
13.048
21
-1.75989
0
LINE
8
BLACK
6
CONTINUOUS
10
13.048
20
-1.75989
11
13.0642
21
-1.75857
0
LINE
8
BLACK
6
CONTINUOUS
10
13.0642
20
-1.75857
11
13.0643
21
-1.75857
0
LINE
8
BLACK
6
CONTINUOUS
10
12.9738
20
-1.79314
11
12.9738
21
-1.79314
0
LINE
8
BLACK
6
CONTINUOUS
10
12.9738
20
-1.79314
11
12.9738
21
-1.79314
0
LINE
8
BLACK
6
CONTINUOUS
10
12.9738
20
-1.79314
11
12.9738
21
-1.79315
0
LINE
8
BLACK
6
CONTINUOUS
10
12.9738
20
-1.79315
11
12.9738
21
-1.79315
0
LINE
8
BLACK
6
CONTINUOUS
10
12.9738
20
-1.79315
11
12.9738
21
-1.79316
0
LINE
8
BLACK
6
CONTINUOUS
10
12.9738
20
-1.79316
11
12.9739
21
-1.79317
0
LINE
8
BLACK
6
CONTINUOUS
10
12.9739
20
-1.79317
11
12.9739
21
-1.79319
0
LINE
8
BLACK
6
CONTINUOUS
10
12.9739
20
-1.79319
11
12.9739
21
-1.7932
0
LINE
8
BLACK
6
CONTINUOUS
10
12.9739
20
-1.7932
11
12.9739
21
-1.7932
0
LINE
8
BLACK
6
CONTINUOUS
10
12.9739
20
-1.7932
11
12.9739
21
-1.79323
0
LINE
8
BLACK
6
CONTINUOUS
10
12.9739
20
-1.79323
11
12.9739
21
-1.79325
0
LINE
8
BLACK
6
CONTINUOUS
10
12.9739
20
-1.79325
11
12.9754
21
-1.79646
0
LINE
8
BLACK
6
CONTINUOUS
10
12.9754
20
-1.79646
11
12.9754
21
-1.79649
0
LINE
8
BLACK
6
CONTINUOUS
10
12.9754
20
-1.79649
11
12.9754
21
-1.79652
0
LINE
8
BLACK
6
CONTINUOUS
10
12.9754
20
-1.79652
11
12.9765
21
-1.80566
0
LINE
8
BLACK
6
CONTINUOUS
10
12.9765
20
-1.80566
11
12.9765
21
-1.80567
0
LINE
8
BLACK
6
CONTINUOUS
10
12.9765
20
-1.80567
11
12.9765
21
-1.80568
0
LINE
8
BLACK
6
CONTINUOUS
10
12.9765
20
-1.80568
11
12.9771
21
-1.82004
0
LINE
8
BLACK
6
CONTINUOUS
10
12.9771
20
-1.82004
11
12.9771
21
-1.82004
0
LINE
8
BLACK
6
CONTINUOUS
10
12.9771
20
-1.82004
11
12.9771
21
-1.82004
0
LINE
8
BLACK
6
CONTINUOUS
10
12.9771
20
-1.82004
11
12.9773
21
-1.835
0
LINE
8
BLACK
6
CONTINUOUS
10
12.9773
20
-1.835
11
12.9773
21
-1.835
0
LINE
8
BLACK
6
CONTINUOUS
10
12.9773
20
-1.835
11
12.9773
21
-1.835
0
LINE
8
BLACK
6
CONTINUOUS
10
12.9773
20
-1.835
11
12.9772
21
-1.85079
0
LINE
8
BLACK
6
CONTINUOUS
10
12.9772
20
-1.85079
11
12.9772
21
-1.85079
0
LINE
8
BLACK
6
CONTINUOUS
10
12.9772
20
-1.85079
11
12.9772
21
-1.85079
0
LINE
8
BLACK
6
CONTINUOUS
10
12.9772
20
-1.85079
11
12.977
21
-1.86383
0
LINE
8
BLACK
6
CONTINUOUS
10
12.977
20
-1.86383
11
12.977
21
-1.86383
0
LINE
8
BLACK
6
CONTINUOUS
10
12.977
20
-1.86383
11
12.977
21
-1.86383
0
LINE
8
BLACK
6
CONTINUOUS
10
12.977
20
-1.86383
11
12.9766
21
-1.87287
0
LINE
8
BLACK
6
CONTINUOUS
10
12.9766
20
-1.87287
11
12.9766
21
-1.87288
0
LINE
8
BLACK
6
CONTINUOUS
10
12.9766
20
-1.87288
11
12.9766
21
-1.87288
0
LINE
8
BLACK
6
CONTINUOUS
10
12.9766
20
-1.87288
11
12.9762
21
-1.87665
0
LINE
8
BLACK
6
CONTINUOUS
10
12.9762
20
-1.87665
11
12.9762
21
-1.87668
0
LINE
8
BLACK
6
CONTINUOUS
10
12.9762
20
-1.87668
11
12.9762
21
-1.87672
0
LINE
8
BLACK
6
CONTINUOUS
10
12.9762
20
-1.87672
11
12.9762
21
-1.87672
0
LINE
8
BLACK
6
CONTINUOUS
10
12.9762
20
-1.87672
11
12.9762
21
-1.87672
0
LINE
8
BLACK
6
CONTINUOUS
10
12.9762
20
-1.87672
11
12.9762
21
-1.87675
0
LINE
8
BLACK
6
CONTINUOUS
10
12.9762
20
-1.87675
11
12.9761
21
-1.87678
0
LINE
8
BLACK
6
CONTINUOUS
10
12.9761
20
-1.87678
11
12.9761
21
-1.87678
0
LINE
8
BLACK
6
CONTINUOUS
10
12.9761
20
-1.87678
11
12.9761
21
-1.87678
0
LINE
8
BLACK
6
CONTINUOUS
10
12.9761
20
-1.87678
11
12.9761
21
-1.87678
0
LINE
8
BLACK
6
CONTINUOUS
10
12.9761
20
-1.87678
11
12.9761
21
-1.87682
0
LINE
8
BLACK
6
CONTINUOUS
10
12.9761
20
-1.87682
11
12.9761
21
-1.87682
0
LINE
8
BLACK
6
CONTINUOUS
10
12.9761
20
-1.87682
11
12.9761
21
-1.87683
0
LINE
8
BLACK
6
CONTINUOUS
10
12.9761
20
-1.87683
11
12.9761
21
-1.87684
0
LINE
8
BLACK
6
CONTINUOUS
10
12.9761
20
-1.87684
11
12.976
21
-1.87686
0
LINE
8
BLACK
6
CONTINUOUS
10
12.976
20
-1.87686
11
12.976
21
-1.87686
0
LINE
8
BLACK
6
CONTINUOUS
10
12.976
20
-1.87686
11
12.976
21
-1.87686
0
LINE
8
BLACK
6
CONTINUOUS
10
12.976
20
-1.87686
11
12.976
21
-1.87686
0
LINE
8
BLACK
6
CONTINUOUS
10
12.976
20
-1.87686
11
12.976
21
-1.87686
0
LINE
8
BLACK
6
CONTINUOUS
10
12.976
20
-1.87686
11
12.9759
21
-1.87686
0
LINE
8
BLACK
6
CONTINUOUS
10
12.9759
20
-1.87686
11
12.9759
21
-1.87686
0
LINE
8
BLACK
6
CONTINUOUS
10
12.9759
20
-1.87686
11
12.9759
21
-1.87685
0
LINE
8
BLACK
6
CONTINUOUS
10
12.9759
20
-1.87685
11
12.9759
21
-1.87684
0
LINE
8
BLACK
6
CONTINUOUS
10
12.9759
20
-1.87684
11
12.9759
21
-1.87684
0
LINE
8
BLACK
6
CONTINUOUS
10
12.9759
20
-1.87684
11
12.9759
21
-1.87683
0
LINE
8
BLACK
6
CONTINUOUS
10
12.9759
20
-1.87683
11
12.9729
21
-1.87493
0
LINE
8
BLACK
6
CONTINUOUS
10
12.9729
20
-1.87493
11
12.9729
21
-1.87492
0
LINE
8
BLACK
6
CONTINUOUS
10
12.9729
20
-1.87492
11
12.9728
21
-1.87491
0
LINE
8
BLACK
6
CONTINUOUS
10
12.9728
20
-1.87491
11
12.9725
21
-1.87459
0
LINE
8
BLACK
6
CONTINUOUS
10
12.9725
20
-1.87459
11
12.9725
21
-1.87457
0
LINE
8
BLACK
6
CONTINUOUS
10
12.9725
20
-1.87457
11
12.9725
21
-1.87456
0
LINE
8
BLACK
6
CONTINUOUS
10
12.9725
20
-1.87456
11
12.9725
21
-1.87454
0
LINE
8
BLACK
6
CONTINUOUS
10
12.9725
20
-1.87454
11
12.9725
21
-1.87452
0
LINE
8
BLACK
6
CONTINUOUS
10
12.9725
20
-1.87452
11
12.9725
21
-1.87451
0
LINE
8
BLACK
6
CONTINUOUS
10
12.9725
20
-1.87451
11
12.9724
21
-1.87449
0
LINE
8
BLACK
6
CONTINUOUS
10
12.9724
20
-1.87449
11
12.9713
21
-1.87026
0
LINE
8
BLACK
6
CONTINUOUS
10
12.9713
20
-1.87026
11
12.9713
21
-1.87024
0
LINE
8
BLACK
6
CONTINUOUS
10
12.9713
20
-1.87024
11
12.9713
21
-1.87023
0
LINE
8
BLACK
6
CONTINUOUS
10
12.9713
20
-1.87023
11
12.9706
21
-1.86121
0
LINE
8
BLACK
6
CONTINUOUS
10
12.9706
20
-1.86121
11
12.9706
21
-1.8612
0
LINE
8
BLACK
6
CONTINUOUS
10
12.9706
20
-1.8612
11
12.9706
21
-1.8612
0
LINE
8
BLACK
6
CONTINUOUS
10
12.9706
20
-1.8612
11
12.9702
21
-1.84894
0
LINE
8
BLACK
6
CONTINUOUS
10
12.9702
20
-1.84894
11
12.9702
21
-1.84894
0
LINE
8
BLACK
6
CONTINUOUS
10
12.9702
20
-1.84894
11
12.9702
21
-1.84894
0
LINE
8
BLACK
6
CONTINUOUS
10
12.9702
20
-1.84894
11
12.9702
21
-1.83501
0
LINE
8
BLACK
6
CONTINUOUS
10
12.9702
20
-1.83501
11
12.9702
21
-1.83501
0
LINE
8
BLACK
6
CONTINUOUS
10
12.9702
20
-1.83501
11
12.9702
21
-1.83501
0
LINE
8
BLACK
6
CONTINUOUS
10
12.9702
20
-1.83501
11
12.9705
21
-1.82097
0
LINE
8
BLACK
6
CONTINUOUS
10
12.9705
20
-1.82097
11
12.9705
21
-1.82096
0
LINE
8
BLACK
6
CONTINUOUS
10
12.9705
20
-1.82096
11
12.9705
21
-1.82096
0
LINE
8
BLACK
6
CONTINUOUS
10
12.9705
20
-1.82096
11
12.9711
21
-1.80836
0
LINE
8
BLACK
6
CONTINUOUS
10
12.9711
20
-1.80836
11
12.9711
21
-1.80836
0
LINE
8
BLACK
6
CONTINUOUS
10
12.9711
20
-1.80836
11
12.9711
21
-1.80835
0
LINE
8
BLACK
6
CONTINUOUS
10
12.9711
20
-1.80835
11
12.972
21
-1.79875
0
LINE
8
BLACK
6
CONTINUOUS
10
12.972
20
-1.79875
11
12.972
21
-1.79874
0
LINE
8
BLACK
6
CONTINUOUS
10
12.972
20
-1.79874
11
12.972
21
-1.79873
0
LINE
8
BLACK
6
CONTINUOUS
10
12.972
20
-1.79873
11
12.9731
21
-1.79369
0
LINE
8
BLACK
6
CONTINUOUS
10
12.9731
20
-1.79369
11
12.9731
21
-1.79367
0
LINE
8
BLACK
6
CONTINUOUS
10
12.9731
20
-1.79367
11
12.9731
21
-1.79365
0
LINE
8
BLACK
6
CONTINUOUS
10
12.9731
20
-1.79365
11
12.9731
21
-1.79363
0
LINE
8
BLACK
6
CONTINUOUS
10
12.9731
20
-1.79363
11
12.9731
21
-1.79362
0
LINE
8
BLACK
6
CONTINUOUS
10
12.9731
20
-1.79362
11
12.9732
21
-1.7936
0
LINE
8
BLACK
6
CONTINUOUS
10
12.9732
20
-1.7936
11
12.9732
21
-1.79358
0
LINE
8
BLACK
6
CONTINUOUS
10
12.9732
20
-1.79358
11
12.9736
21
-1.79319
0
LINE
8
BLACK
6
CONTINUOUS
10
12.9736
20
-1.79319
11
12.9736
21
-1.79317
0
LINE
8
BLACK
6
CONTINUOUS
10
12.9736
20
-1.79317
11
12.9737
21
-1.79315
0
LINE
8
BLACK
6
CONTINUOUS
10
12.9737
20
-1.79315
11
12.9737
21
-1.79315
0
LINE
8
BLACK
6
CONTINUOUS
10
12.9737
20
-1.79315
11
12.9737
21
-1.79315
0
LINE
8
BLACK
6
CONTINUOUS
10
12.9737
20
-1.79315
11
12.9737
21
-1.79314
0
LINE
8
BLACK
6
CONTINUOUS
10
12.9737
20
-1.79314
11
12.9737
21
-1.79314
0
LINE
8
BLACK
6
CONTINUOUS
10
12.9737
20
-1.79314
11
12.9738
21
-1.79314
0
LINE
8
BLACK
6
CONTINUOUS
10
12.9058
20
-1.7581
11
12.9058
21
-1.7581
0
LINE
8
BLACK
6
CONTINUOUS
10
12.9058
20
-1.7581
11
12.9058
21
-1.75811
0
LINE
8
BLACK
6
CONTINUOUS
10
12.9058
20
-1.75811
11
12.9067
21
-1.75842
0
LINE
8
BLACK
6
CONTINUOUS
10
12.9067
20
-1.75842
11
12.9067
21
-1.75843
0
LINE
8
BLACK
6
CONTINUOUS
10
12.9067
20
-1.75843
11
12.9067
21
-1.75843
0
LINE
8
BLACK
6
CONTINUOUS
10
12.9067
20
-1.75843
11
12.9067
21
-1.75845
0
LINE
8
BLACK
6
CONTINUOUS
10
12.9067
20
-1.75845
11
12.9067
21
-1.75846
0
LINE
8
BLACK
6
CONTINUOUS
10
12.9067
20
-1.75846
11
12.9067
21
-1.75847
0
LINE
8
BLACK
6
CONTINUOUS
10
12.9067
20
-1.75847
11
12.9068
21
-1.75848
0
LINE
8
BLACK
6
CONTINUOUS
10
12.9068
20
-1.75848
11
12.9082
21
-1.76039
0
LINE
8
BLACK
6
CONTINUOUS
10
12.9082
20
-1.76039
11
12.9082
21
-1.76041
0
LINE
8
BLACK
6
CONTINUOUS
10
12.9082
20
-1.76041
11
12.9082
21
-1.76043
0
LINE
8
BLACK
6
CONTINUOUS
10
12.9082
20
-1.76043
11
12.9082
21
-1.76044
0
LINE
8
BLACK
6
CONTINUOUS
10
12.9082
20
-1.76044
11
12.9082
21
-1.76045
0
LINE
8
BLACK
6
CONTINUOUS
10
12.9082
20
-1.76045
11
12.9082
21
-1.76048
0
LINE
8
BLACK
6
CONTINUOUS
10
12.9082
20
-1.76048
11
12.9083
21
-1.76051
0
LINE
8
BLACK
6
CONTINUOUS
10
12.9083
20
-1.76051
11
12.9082
21
-1.76052
0
LINE
8
BLACK
6
CONTINUOUS
10
12.9082
20
-1.76052
11
12.9082
21
-1.76053
0
LINE
8
BLACK
6
CONTINUOUS
10
12.9082
20
-1.76053
11
12.9082
21
-1.76056
0
LINE
8
BLACK
6
CONTINUOUS
10
12.9082
20
-1.76056
11
12.9082
21
-1.76058
0
LINE
8
BLACK
6
CONTINUOUS
10
12.9082
20
-1.76058
11
12.9082
21
-1.76059
0
LINE
8
BLACK
6
CONTINUOUS
10
12.9082
20
-1.76059
11
12.9082
21
-1.7606
0
LINE
8
BLACK
6
CONTINUOUS
10
12.9082
20
-1.7606
11
12.9082
21
-1.76062
0
LINE
8
BLACK
6
CONTINUOUS
10
12.9082
20
-1.76062
11
12.9082
21
-1.76064
0
LINE
8
BLACK
6
CONTINUOUS
10
12.9082
20
-1.76064
11
12.9082
21
-1.76065
0
LINE
8
BLACK
6
CONTINUOUS
10
12.9082
20
-1.76065
11
12.9082
21
-1.76066
0
LINE
8
BLACK
6
CONTINUOUS
10
12.9082
20
-1.76066
11
12.9082
21
-1.76067
0
LINE
8
BLACK
6
CONTINUOUS
10
12.9082
20
-1.76067
11
12.9081
21
-1.76069
0
LINE
8
BLACK
6
CONTINUOUS
10
12.9081
20
-1.76069
11
12.9034
21
-1.76265
0
LINE
8
BLACK
6
CONTINUOUS
10
12.9034
20
-1.76265
11
12.9034
21
-1.76265
0
LINE
8
BLACK
6
CONTINUOUS
10
12.9034
20
-1.76265
11
12.9034
21
-1.76266
0
LINE
8
BLACK
6
CONTINUOUS
10
12.9034
20
-1.76266
11
12.8976
21
-1.7639
0
LINE
8
BLACK
6
CONTINUOUS
10
12.8976
20
-1.7639
11
12.8842
21
-1.76765
0
LINE
8
BLACK
6
CONTINUOUS
10
12.8842
20
-1.76765
11
12.8756
21
-1.77347
0
LINE
8
BLACK
6
CONTINUOUS
10
12.8756
20
-1.77347
11
12.8703
21
-1.78255
0
LINE
8
BLACK
6
CONTINUOUS
10
12.8703
20
-1.78255
11
12.8702
21
-1.78286
0
LINE
8
BLACK
6
CONTINUOUS
10
12.8702
20
-1.78286
11
12.8693
21
-1.79291
0
LINE
8
BLACK
6
CONTINUOUS
10
12.8693
20
-1.79291
11
12.8747
21
-1.80139
0
LINE
8
BLACK
6
CONTINUOUS
10
12.8747
20
-1.80139
11
12.8866
21
-1.8083
0
LINE
8
BLACK
6
CONTINUOUS
10
12.8866
20
-1.8083
11
12.8963
21
-1.81154
0
LINE
8
BLACK
6
CONTINUOUS
10
12.8963
20
-1.81154
11
12.9177
21
-1.81841
0
LINE
8
BLACK
6
CONTINUOUS
10
12.9177
20
-1.81841
11
12.9178
21
-1.81842
0
LINE
8
BLACK
6
CONTINUOUS
10
12.9178
20
-1.81842
11
12.9178
21
-1.81842
0
LINE
8
BLACK
6
CONTINUOUS
10
12.9178
20
-1.81842
11
12.9329
21
-1.82573
0
LINE
8
BLACK
6
CONTINUOUS
10
12.9329
20
-1.82573
11
12.9329
21
-1.82575
0
LINE
8
BLACK
6
CONTINUOUS
10
12.9329
20
-1.82575
11
12.933
21
-1.82576
0
LINE
8
BLACK
6
CONTINUOUS
10
12.933
20
-1.82576
11
12.9422
21
-1.83383
0
LINE
8
BLACK
6
CONTINUOUS
10
12.9422
20
-1.83383
11
12.9422
21
-1.83384
0
LINE
8
BLACK
6
CONTINUOUS
10
12.9422
20
-1.83384
11
12.9422
21
-1.83384
0
LINE
8
BLACK
6
CONTINUOUS
10
12.9422
20
-1.83384
11
12.9422
21
-1.83387
0
LINE
8
BLACK
6
CONTINUOUS
10
12.9422
20
-1.83387
11
12.9423
21
-1.8339
0
LINE
8
BLACK
6
CONTINUOUS
10
12.9423
20
-1.8339
11
12.9423
21
-1.8339
0
LINE
8
BLACK
6
CONTINUOUS
10
12.9423
20
-1.8339
11
12.9423
21
-1.83391
0
LINE
8
BLACK
6
CONTINUOUS
10
12.9423
20
-1.83391
11
12.946
21
-1.84306
0
LINE
8
BLACK
6
CONTINUOUS
10
12.946
20
-1.84306
11
12.946
21
-1.84306
0
LINE
8
BLACK
6
CONTINUOUS
10
12.946
20
-1.84306
11
12.946
21
-1.84307
0
LINE
8
BLACK
6
CONTINUOUS
10
12.946
20
-1.84307
11
12.946
21
-1.8431
0
LINE
8
BLACK
6
CONTINUOUS
10
12.946
20
-1.8431
11
12.9461
21
-1.84313
0
LINE
8
BLACK
6
CONTINUOUS
10
12.9461
20
-1.84313
11
12.9461
21
-1.84314
0
LINE
8
BLACK
6
CONTINUOUS
10
12.9461
20
-1.84314
11
12.9461
21
-1.84315
0
LINE
8
BLACK
6
CONTINUOUS
10
12.9461
20
-1.84315
11
12.9454
21
-1.85134
0
LINE
8
BLACK
6
CONTINUOUS
10
12.9454
20
-1.85134
11
12.9454
21
-1.85134
0
LINE
8
BLACK
6
CONTINUOUS
10
12.9454
20
-1.85134
11
12.9454
21
-1.85134
0
LINE
8
BLACK
6
CONTINUOUS
10
12.9454
20
-1.85134
11
12.9454
21
-1.85138
0
LINE
8
BLACK
6
CONTINUOUS
10
12.9454
20
-1.85138
11
12.9454
21
-1.85141
0
LINE
8
BLACK
6
CONTINUOUS
10
12.9454
20
-1.85141
11
12.9454
21
-1.85141
0
LINE
8
BLACK
6
CONTINUOUS
10
12.9454
20
-1.85141
11
12.9454
21
-1.85142
0
LINE
8
BLACK
6
CONTINUOUS
10
12.9454
20
-1.85142
11
12.9396
21
-1.86219
0
LINE
8
BLACK
6
CONTINUOUS
10
12.9396
20
-1.86219
11
12.9396
21
-1.86221
0
LINE
8
BLACK
6
CONTINUOUS
10
12.9396
20
-1.86221
11
12.9396
21
-1.86224
0
LINE
8
BLACK
6
CONTINUOUS
10
12.9396
20
-1.86224
11
12.9295
21
-1.87106
0
LINE
8
BLACK
6
CONTINUOUS
10
12.9295
20
-1.87106
11
12.9295
21
-1.87108
0
LINE
8
BLACK
6
CONTINUOUS
10
12.9295
20
-1.87108
11
12.9294
21
-1.87109
0
LINE
8
BLACK
6
CONTINUOUS
10
12.9294
20
-1.87109
11
12.9173
21
-1.87622
0
LINE
8
BLACK
6
CONTINUOUS
10
12.9173
20
-1.87622
11
12.9173
21
-1.87622
0
LINE
8
BLACK
6
CONTINUOUS
10
12.9173
20
-1.87622
11
12.9173
21
-1.87623
0
LINE
8
BLACK
6
CONTINUOUS
10
12.9173
20
-1.87623
11
12.9117
21
-1.87686
0
LINE
8
BLACK
6
CONTINUOUS
10
12.9117
20
-1.87686
11
12.9116
21
-1.87686
0
LINE
8
BLACK
6
CONTINUOUS
10
12.9116
20
-1.87686
11
12.9116
21
-1.87686
0
LINE
8
BLACK
6
CONTINUOUS
10
12.9116
20
-1.87686
11
12.9042
21
-1.87606
0
LINE
8
BLACK
6
CONTINUOUS
10
12.9042
20
-1.87606
11
12.9041
21
-1.87605
0
LINE
8
BLACK
6
CONTINUOUS
10
12.9041
20
-1.87605
11
12.9041
21
-1.87605
0
LINE
8
BLACK
6
CONTINUOUS
10
12.9041
20
-1.87605
11
12.9041
21
-1.87604
0
LINE
8
BLACK
6
CONTINUOUS
10
12.9041
20
-1.87604
11
12.9041
21
-1.87603
0
LINE
8
BLACK
6
CONTINUOUS
10
12.9041
20
-1.87603
11
12.9041
21
-1.87602
0
LINE
8
BLACK
6
CONTINUOUS
10
12.9041
20
-1.87602
11
12.904
21
-1.87601
0
LINE
8
BLACK
6
CONTINUOUS
10
12.904
20
-1.87601
11
12.9018
21
-1.87389
0
LINE
8
BLACK
6
CONTINUOUS
10
12.9018
20
-1.87389
11
12.9018
21
-1.87388
0
LINE
8
BLACK
6
CONTINUOUS
10
12.9018
20
-1.87388
11
12.9018
21
-1.87388
0
LINE
8
BLACK
6
CONTINUOUS
10
12.9018
20
-1.87388
11
12.9017
21
-1.87385
0
LINE
8
BLACK
6
CONTINUOUS
10
12.9017
20
-1.87385
11
12.9017
21
-1.87382
0
LINE
8
BLACK
6
CONTINUOUS
10
12.9017
20
-1.87382
11
12.9017
21
-1.87382
0
LINE
8
BLACK
6
CONTINUOUS
10
12.9017
20
-1.87382
11
12.9017
21
-1.87381
0
LINE
8
BLACK
6
CONTINUOUS
10
12.9017
20
-1.87381
11
12.9017
21
-1.87378
0
LINE
8
BLACK
6
CONTINUOUS
10
12.9017
20
-1.87378
11
12.9017
21
-1.87375
0
LINE
8
BLACK
6
CONTINUOUS
10
12.9017
20
-1.87375
11
12.9017
21
-1.87374
0
LINE
8
BLACK
6
CONTINUOUS
10
12.9017
20
-1.87374
11
12.9017
21
-1.87374
0
LINE
8
BLACK
6
CONTINUOUS
10
12.9017
20
-1.87374
11
12.9017
21
-1.8737
0
LINE
8
BLACK
6
CONTINUOUS
10
12.9017
20
-1.8737
11
12.9017
21
-1.87367
0
LINE
8
BLACK
6
CONTINUOUS
10
12.9017
20
-1.87367
11
12.9017
21
-1.87367
0
LINE
8
BLACK
6
CONTINUOUS
10
12.9017
20
-1.87367
11
12.9017
21
-1.87366
0
LINE
8
BLACK
6
CONTINUOUS
10
12.9017
20
-1.87366
11
12.9019
21
-1.87325
0
LINE
8
BLACK
6
CONTINUOUS
10
12.9019
20
-1.87325
11
12.9019
21
-1.87323
0
LINE
8
BLACK
6
CONTINUOUS
10
12.9019
20
-1.87323
11
12.9019
21
-1.87322
0
LINE
8
BLACK
6
CONTINUOUS
10
12.9019
20
-1.87322
11
12.9019
21
-1.8732
0
LINE
8
BLACK
6
CONTINUOUS
10
12.9019
20
-1.8732
11
12.9019
21
-1.87319
0
LINE
8
BLACK
6
CONTINUOUS
10
12.9019
20
-1.87319
11
12.902
21
-1.87318
0
LINE
8
BLACK
6
CONTINUOUS
10
12.902
20
-1.87318
11
12.902
21
-1.87316
0
LINE
8
BLACK
6
CONTINUOUS
10
12.902
20
-1.87316
11
12.9067
21
-1.87039
0
LINE
8
BLACK
6
CONTINUOUS
10
12.9067
20
-1.87039
11
12.9067
21
-1.87039
0
LINE
8
BLACK
6
CONTINUOUS
10
12.9067
20
-1.87039
11
12.9067
21
-1.87039
0
LINE
8
BLACK
6
CONTINUOUS
10
12.9067
20
-1.87039
11
12.9067
21
-1.87037
0
LINE
8
BLACK
6
CONTINUOUS
10
12.9067
20
-1.87037
11
12.9067
21
-1.87036
0
LINE
8
BLACK
6
CONTINUOUS
10
12.9067
20
-1.87036
11
12.9067
21
-1.87036
0
LINE
8
BLACK
6
CONTINUOUS
10
12.9067
20
-1.87036
11
12.9067
21
-1.87036
0
LINE
8
BLACK
6
CONTINUOUS
10
12.9067
20
-1.87036
11
12.9107
21
-1.86981
0
LINE
8
BLACK
6
CONTINUOUS
10
12.9107
20
-1.86981
11
12.9214
21
-1.86748
0
LINE
8
BLACK
6
CONTINUOUS
10
12.9214
20
-1.86748
11
12.9312
21
-1.86161
0
LINE
8
BLACK
6
CONTINUOUS
10
12.9312
20
-1.86161
11
12.9375
21
-1.85386
0
LINE
8
BLACK
6
CONTINUOUS
10
12.9375
20
-1.85386
11
12.9382
21
-1.85167
0
LINE
8
BLACK
6
CONTINUOUS
10
12.9382
20
-1.85167
11
12.9391
21
-1.8435
0
LINE
8
BLACK
6
CONTINUOUS
10
12.9391
20
-1.8435
11
12.9366
21
-1.8368
0
LINE
8
BLACK
6
CONTINUOUS
10
12.9366
20
-1.8368
11
12.93
21
-1.83099
0
LINE
8
BLACK
6
CONTINUOUS
10
12.93
20
-1.83099
11
12.9186
21
-1.82555
0
LINE
8
BLACK
6
CONTINUOUS
10
12.9186
20
-1.82555
11
12.9016
21
-1.81996
0
LINE
8
BLACK
6
CONTINUOUS
10
12.9016
20
-1.81996
11
12.891
21
-1.817
0
LINE
8
BLACK
6
CONTINUOUS
10
12.891
20
-1.817
11
12.891
21
-1.81699
0
LINE
8
BLACK
6
CONTINUOUS
10
12.891
20
-1.81699
11
12.891
21
-1.81699
0
LINE
8
BLACK
6
CONTINUOUS
10
12.891
20
-1.81699
11
12.8805
21
-1.8131
0
LINE
8
BLACK
6
CONTINUOUS
10
12.8805
20
-1.8131
11
12.8805
21
-1.8131
0
LINE
8
BLACK
6
CONTINUOUS
10
12.8805
20
-1.8131
11
12.8805
21
-1.81309
0
LINE
8
BLACK
6
CONTINUOUS
10
12.8805
20
-1.81309
11
12.8718
21
-1.80812
0
LINE
8
BLACK
6
CONTINUOUS
10
12.8718
20
-1.80812
11
12.8718
21
-1.80811
0
LINE
8
BLACK
6
CONTINUOUS
10
12.8718
20
-1.80811
11
12.8718
21
-1.8081
0
LINE
8
BLACK
6
CONTINUOUS
10
12.8718
20
-1.8081
11
12.8701
21
-1.80662
0
LINE
8
BLACK
6
CONTINUOUS
10
12.8701
20
-1.80662
11
12.8701
21
-1.8066
0
LINE
8
BLACK
6
CONTINUOUS
10
12.8701
20
-1.8066
11
12.8701
21
-1.80657
0
LINE
8
BLACK
6
CONTINUOUS
10
12.8701
20
-1.80657
11
12.8649
21
-1.79725
0
LINE
8
BLACK
6
CONTINUOUS
10
12.8649
20
-1.79725
11
12.8649
21
-1.79724
0
LINE
8
BLACK
6
CONTINUOUS
10
12.8649
20
-1.79724
11
12.8649
21
-1.79724
0
LINE
8
BLACK
6
CONTINUOUS
10
12.8649
20
-1.79724
11
12.8649
21
-1.79721
0
LINE
8
BLACK
6
CONTINUOUS
10
12.8649
20
-1.79721
11
12.8649
21
-1.79717
0
LINE
8
BLACK
6
CONTINUOUS
10
12.8649
20
-1.79717
11
12.8649
21
-1.79717
0
LINE
8
BLACK
6
CONTINUOUS
10
12.8649
20
-1.79717
11
12.8649
21
-1.79717
0
LINE
8
BLACK
6
CONTINUOUS
10
12.8649
20
-1.79717
11
12.8638
21
-1.78533
0
LINE
8
BLACK
6
CONTINUOUS
10
12.8638
20
-1.78533
11
12.8638
21
-1.78529
0
LINE
8
BLACK
6
CONTINUOUS
10
12.8638
20
-1.78529
11
12.8638
21
-1.78526
0
LINE
8
BLACK
6
CONTINUOUS
10
12.8638
20
-1.78526
11
12.8669
21
-1.77376
0
LINE
8
BLACK
6
CONTINUOUS
10
12.8669
20
-1.77376
11
12.8669
21
-1.77374
0
LINE
8
BLACK
6
CONTINUOUS
10
12.8669
20
-1.77374
11
12.8669
21
-1.77372
0
LINE
8
BLACK
6
CONTINUOUS
10
12.8669
20
-1.77372
11
12.8687
21
-1.77074
0
LINE
8
BLACK
6
CONTINUOUS
10
12.8687
20
-1.77074
11
12.8687
21
-1.77071
0
LINE
8
BLACK
6
CONTINUOUS
10
12.8687
20
-1.77071
11
12.8687
21
-1.77069
0
LINE
8
BLACK
6
CONTINUOUS
10
12.8687
20
-1.77069
11
12.8756
21
-1.76497
0
LINE
8
BLACK
6
CONTINUOUS
10
12.8756
20
-1.76497
11
12.8756
21
-1.76495
0
LINE
8
BLACK
6
CONTINUOUS
10
12.8756
20
-1.76495
11
12.8756
21
-1.76494
0
LINE
8
BLACK
6
CONTINUOUS
10
12.8756
20
-1.76494
11
12.886
21
-1.76033
0
LINE
8
BLACK
6
CONTINUOUS
10
12.886
20
-1.76033
11
12.886
21
-1.76033
0
LINE
8
BLACK
6
CONTINUOUS
10
12.886
20
-1.76033
11
12.886
21
-1.76032
0
LINE
8
BLACK
6
CONTINUOUS
10
12.886
20
-1.76032
11
12.8969
21
-1.75774
0
LINE
8
BLACK
6
CONTINUOUS
10
12.8969
20
-1.75774
11
12.897
21
-1.75774
0
LINE
8
BLACK
6
CONTINUOUS
10
12.897
20
-1.75774
11
12.897
21
-1.75774
0
LINE
8
BLACK
6
CONTINUOUS
10
12.897
20
-1.75774
11
12.9058
21
-1.7581
0
LINE
8
BLACK
6
CONTINUOUS
10
12.8021
20
-1.8698
11
12.8021
21
-1.8698
0
LINE
8
BLACK
6
CONTINUOUS
10
12.8021
20
-1.8698
11
12.8191
21
-1.87008
0
LINE
8
BLACK
6
CONTINUOUS
10
12.8191
20
-1.87008
11
12.8191
21
-1.87008
0
LINE
8
BLACK
6
CONTINUOUS
10
12.8191
20
-1.87008
11
12.8192
21
-1.87008
0
LINE
8
BLACK
6
CONTINUOUS
10
12.8192
20
-1.87008
11
12.8317
21
-1.87087
0
LINE
8
BLACK
6
CONTINUOUS
10
12.8317
20
-1.87087
11
12.8317
21
-1.87087
0
LINE
8
BLACK
6
CONTINUOUS
10
12.8317
20
-1.87087
11
12.8317
21
-1.87087
0
LINE
8
BLACK
6
CONTINUOUS
10
12.8317
20
-1.87087
11
12.839
21
-1.8721
0
LINE
8
BLACK
6
CONTINUOUS
10
12.839
20
-1.8721
11
12.839
21
-1.8721
0
LINE
8
BLACK
6
CONTINUOUS
10
12.839
20
-1.8721
11
12.839
21
-1.8721
0
LINE
8
BLACK
6
CONTINUOUS
10
12.839
20
-1.8721
11
12.839
21
-1.87211
0
LINE
8
BLACK
6
CONTINUOUS
10
12.839
20
-1.87211
11
12.839
21
-1.87212
0
LINE
8
BLACK
6
CONTINUOUS
10
12.839
20
-1.87212
11
12.839
21
-1.87213
0
LINE
8
BLACK
6
CONTINUOUS
10
12.839
20
-1.87213
11
12.839
21
-1.87213
0
LINE
8
BLACK
6
CONTINUOUS
10
12.839
20
-1.87213
11
12.8405
21
-1.87317
0
LINE
8
BLACK
6
CONTINUOUS
10
12.8405
20
-1.87317
11
12.8405
21
-1.87318
0
LINE
8
BLACK
6
CONTINUOUS
10
12.8405
20
-1.87318
11
12.8405
21
-1.87319
0
LINE
8
BLACK
6
CONTINUOUS
10
12.8405
20
-1.87319
11
12.8406
21
-1.87321
0
LINE
8
BLACK
6
CONTINUOUS
10
12.8406
20
-1.87321
11
12.8406
21
-1.87323
0
LINE
8
BLACK
6
CONTINUOUS
10
12.8406
20
-1.87323
11
12.8406
21
-1.87324
0
LINE
8
BLACK
6
CONTINUOUS
10
12.8406
20
-1.87324
11
12.8406
21
-1.87325
0
LINE
8
BLACK
6
CONTINUOUS
10
12.8406
20
-1.87325
11
12.8406
21
-1.87328
0
LINE
8
BLACK
6
CONTINUOUS
10
12.8406
20
-1.87328
11
12.8406
21
-1.8733
0
LINE
8
BLACK
6
CONTINUOUS
10
12.8406
20
-1.8733
11
12.8406
21
-1.87331
0
LINE
8
BLACK
6
CONTINUOUS
10
12.8406
20
-1.87331
11
12.8406
21
-1.87333
0
LINE
8
BLACK
6
CONTINUOUS
10
12.8406
20
-1.87333
11
12.8406
21
-1.87335
0
LINE
8
BLACK
6
CONTINUOUS
10
12.8406
20
-1.87335
11
12.8406
21
-1.87338
0
LINE
8
BLACK
6
CONTINUOUS
10
12.8406
20
-1.87338
11
12.8406
21
-1.87339
0
LINE
8
BLACK
6
CONTINUOUS
10
12.8406
20
-1.87339
11
12.8406
21
-1.8734
0
LINE
8
BLACK
6
CONTINUOUS
10
12.8406
20
-1.8734
11
12.8406
21
-1.87342
0
LINE
8
BLACK
6
CONTINUOUS
10
12.8406
20
-1.87342
11
12.8406
21
-1.87345
0
LINE
8
BLACK
6
CONTINUOUS
10
12.8406
20
-1.87345
11
12.8406
21
-1.87346
0
LINE
8
BLACK
6
CONTINUOUS
10
12.8406
20
-1.87346
11
12.8406
21
-1.87347
0
LINE
8
BLACK
6
CONTINUOUS
10
12.8406
20
-1.87347
11
12.8405
21
-1.87348
0
LINE
8
BLACK
6
CONTINUOUS
10
12.8405
20
-1.87348
11
12.8405
21
-1.8735
0
LINE
8
BLACK
6
CONTINUOUS
10
12.8405
20
-1.8735
11
12.8405
21
-1.8735
0
LINE
8
BLACK
6
CONTINUOUS
10
12.8405
20
-1.8735
11
12.8405
21
-1.87351
0
LINE
8
BLACK
6
CONTINUOUS
10
12.8405
20
-1.87351
11
12.8373
21
-1.875
0
LINE
8
BLACK
6
CONTINUOUS
10
12.8373
20
-1.875
11
12.8373
21
-1.875
0
LINE
8
BLACK
6
CONTINUOUS
10
12.8373
20
-1.875
11
12.8372
21
-1.87501
0
LINE
8
BLACK
6
CONTINUOUS
10
12.8372
20
-1.87501
11
12.8282
21
-1.8761
0
LINE
8
BLACK
6
CONTINUOUS
10
12.8282
20
-1.8761
11
12.8282
21
-1.8761
0
LINE
8
BLACK
6
CONTINUOUS
10
12.8282
20
-1.8761
11
12.8282
21
-1.8761
0
LINE
8
BLACK
6
CONTINUOUS
10
12.8282
20
-1.8761
11
12.8141
21
-1.87673
0
LINE
8
BLACK
6
CONTINUOUS
10
12.8141
20
-1.87673
11
12.8141
21
-1.87673
0
LINE
8
BLACK
6
CONTINUOUS
10
12.8141
20
-1.87673
11
12.8141
21
-1.87673
0
LINE
8
BLACK
6
CONTINUOUS
10
12.8141
20
-1.87673
11
12.8021
21
-1.87686
0
LINE
8
BLACK
6
CONTINUOUS
10
12.8021
20
-1.87686
11
12.8021
21
-1.87686
0
LINE
8
BLACK
6
CONTINUOUS
10
12.8021
20
-1.87686
11
12.8021
21
-1.87686
0
LINE
8
BLACK
6
CONTINUOUS
10
12.8021
20
-1.87686
11
12.785
21
-1.87659
0
LINE
8
BLACK
6
CONTINUOUS
10
12.785
20
-1.87659
11
12.785
21
-1.87658
0
LINE
8
BLACK
6
CONTINUOUS
10
12.785
20
-1.87658
11
12.785
21
-1.87659
0
LINE
8
BLACK
6
CONTINUOUS
10
12.785
20
-1.87659
11
12.7725
21
-1.8758
0
LINE
8
BLACK
6
CONTINUOUS
10
12.7725
20
-1.8758
11
12.7725
21
-1.8758
0
LINE
8
BLACK
6
CONTINUOUS
10
12.7725
20
-1.8758
11
12.7724
21
-1.8758
0
LINE
8
BLACK
6
CONTINUOUS
10
12.7724
20
-1.8758
11
12.7652
21
-1.87457
0
LINE
8
BLACK
6
CONTINUOUS
10
12.7652
20
-1.87457
11
12.7652
21
-1.87457
0
LINE
8
BLACK
6
CONTINUOUS
10
12.7652
20
-1.87457
11
12.7652
21
-1.87457
0
LINE
8
BLACK
6
CONTINUOUS
10
12.7652
20
-1.87457
11
12.7652
21
-1.87455
0
LINE
8
BLACK
6
CONTINUOUS
10
12.7652
20
-1.87455
11
12.7651
21
-1.87454
0
LINE
8
BLACK
6
CONTINUOUS
10
12.7651
20
-1.87454
11
12.7651
21
-1.87454
0
LINE
8
BLACK
6
CONTINUOUS
10
12.7651
20
-1.87454
11
12.7651
21
-1.87454
0
LINE
8
BLACK
6
CONTINUOUS
10
12.7651
20
-1.87454
11
12.7636
21
-1.87349
0
LINE
8
BLACK
6
CONTINUOUS
10
12.7636
20
-1.87349
11
12.7636
21
-1.87348
0
LINE
8
BLACK
6
CONTINUOUS
10
12.7636
20
-1.87348
11
12.7636
21
-1.87348
0
LINE
8
BLACK
6
CONTINUOUS
10
12.7636
20
-1.87348
11
12.7636
21
-1.87346
0
LINE
8
BLACK
6
CONTINUOUS
10
12.7636
20
-1.87346
11
12.7636
21
-1.87344
0
LINE
8
BLACK
6
CONTINUOUS
10
12.7636
20
-1.87344
11
12.7636
21
-1.87343
0
LINE
8
BLACK
6
CONTINUOUS
10
12.7636
20
-1.87343
11
12.7636
21
-1.87342
0
LINE
8
BLACK
6
CONTINUOUS
10
12.7636
20
-1.87342
11
12.7636
21
-1.87339
0
LINE
8
BLACK
6
CONTINUOUS
10
12.7636
20
-1.87339
11
12.7636
21
-1.87337
0
LINE
8
BLACK
6
CONTINUOUS
10
12.7636
20
-1.87337
11
12.7636
21
-1.87335
0
LINE
8
BLACK
6
CONTINUOUS
10
12.7636
20
-1.87335
11
12.7636
21
-1.87334
0
LINE
8
BLACK
6
CONTINUOUS
10
12.7636
20
-1.87334
11
12.7636
21
-1.87332
0
LINE
8
BLACK
6
CONTINUOUS
10
12.7636
20
-1.87332
11
12.7636
21
-1.87329
0
LINE
8
BLACK
6
CONTINUOUS
10
12.7636
20
-1.87329
11
12.7636
21
-1.87328
0
LINE
8
BLACK
6
CONTINUOUS
10
12.7636
20
-1.87328
11
12.7636
21
-1.87327
0
LINE
8
BLACK
6
CONTINUOUS
10
12.7636
20
-1.87327
11
12.7636
21
-1.87324
0
LINE
8
BLACK
6
CONTINUOUS
10
12.7636
20
-1.87324
11
12.7636
21
-1.87322
0
LINE
8
BLACK
6
CONTINUOUS
10
12.7636
20
-1.87322
11
12.7636
21
-1.87321
0
LINE
8
BLACK
6
CONTINUOUS
10
12.7636
20
-1.87321
11
12.7636
21
-1.8732
0
LINE
8
BLACK
6
CONTINUOUS
10
12.7636
20
-1.8732
11
12.7636
21
-1.87318
0
LINE
8
BLACK
6
CONTINUOUS
10
12.7636
20
-1.87318
11
12.7636
21
-1.87317
0
LINE
8
BLACK
6
CONTINUOUS
10
12.7636
20
-1.87317
11
12.7637
21
-1.87316
0
LINE
8
BLACK
6
CONTINUOUS
10
12.7637
20
-1.87316
11
12.7637
21
-1.87315
0
LINE
8
BLACK
6
CONTINUOUS
10
12.7637
20
-1.87315
11
12.7669
21
-1.87167
0
LINE
8
BLACK
6
CONTINUOUS
10
12.7669
20
-1.87167
11
12.7669
21
-1.87166
0
LINE
8
BLACK
6
CONTINUOUS
10
12.7669
20
-1.87166
11
12.7669
21
-1.87165
0
LINE
8
BLACK
6
CONTINUOUS
10
12.7669
20
-1.87165
11
12.776
21
-1.87056
0
LINE
8
BLACK
6
CONTINUOUS
10
12.776
20
-1.87056
11
12.776
21
-1.87056
0
LINE
8
BLACK
6
CONTINUOUS
10
12.776
20
-1.87056
11
12.776
21
-1.87056
0
LINE
8
BLACK
6
CONTINUOUS
10
12.776
20
-1.87056
11
12.7901
21
-1.86993
0
LINE
8
BLACK
6
CONTINUOUS
10
12.7901
20
-1.86993
11
12.7901
21
-1.86993
0
LINE
8
BLACK
6
CONTINUOUS
10
12.7901
20
-1.86993
11
12.7901
21
-1.86993
0
LINE
8
BLACK
6
CONTINUOUS
10
12.7901
20
-1.86993
11
12.8021
21
-1.8698
0
LINE
8
BLACK
6
CONTINUOUS
10
12.8021
20
-1.8698
11
12.8021
21
-1.8698
0
LINE
8
BLACK
6
CONTINUOUS
10
12.5894
20
-1.60342
11
12.5894
21
-1.60342
0
LINE
8
BLACK
6
CONTINUOUS
10
12.5894
20
-1.60342
11
12.5894
21
-1.60342
0
LINE
8
BLACK
6
CONTINUOUS
10
12.5894
20
-1.60342
11
12.6119
21
-1.60439
0
LINE
8
BLACK
6
CONTINUOUS
10
12.6119
20
-1.60439
11
12.6119
21
-1.60439
0
LINE
8
BLACK
6
CONTINUOUS
10
12.6119
20
-1.60439
11
12.6119
21
-1.60439
0
LINE
8
BLACK
6
CONTINUOUS
10
12.6119
20
-1.60439
11
12.6302
21
-1.60625
0
LINE
8
BLACK
6
CONTINUOUS
10
12.6302
20
-1.60625
11
12.6303
21
-1.60626
0
LINE
8
BLACK
6
CONTINUOUS
10
12.6303
20
-1.60626
11
12.6303
21
-1.60626
0
LINE
8
BLACK
6
CONTINUOUS
10
12.6303
20
-1.60626
11
12.6456
21
-1.60922
0
LINE
8
BLACK
6
CONTINUOUS
10
12.6456
20
-1.60922
11
12.6456
21
-1.60922
0
LINE
8
BLACK
6
CONTINUOUS
10
12.6456
20
-1.60922
11
12.6456
21
-1.60922
0
LINE
8
BLACK
6
CONTINUOUS
10
12.6456
20
-1.60922
11
12.6592
21
-1.61348
0
LINE
8
BLACK
6
CONTINUOUS
10
12.6592
20
-1.61348
11
12.6592
21
-1.61348
0
LINE
8
BLACK
6
CONTINUOUS
10
12.6592
20
-1.61348
11
12.6592
21
-1.61349
0
LINE
8
BLACK
6
CONTINUOUS
10
12.6592
20
-1.61349
11
12.6723
21
-1.61924
0
LINE
8
BLACK
6
CONTINUOUS
10
12.6723
20
-1.61924
11
12.6723
21
-1.61924
0
LINE
8
BLACK
6
CONTINUOUS
10
12.6723
20
-1.61924
11
12.6723
21
-1.61925
0
LINE
8
BLACK
6
CONTINUOUS
10
12.6723
20
-1.61925
11
12.6784
21
-1.62244
0
LINE
8
BLACK
6
CONTINUOUS
10
12.6784
20
-1.62244
11
12.6784
21
-1.62244
0
LINE
8
BLACK
6
CONTINUOUS
10
12.6784
20
-1.62244
11
12.6784
21
-1.62245
0
LINE
8
BLACK
6
CONTINUOUS
10
12.6784
20
-1.62245
11
12.7021
21
-1.6389
0
LINE
8
BLACK
6
CONTINUOUS
10
12.7021
20
-1.6389
11
12.7021
21
-1.63892
0
LINE
8
BLACK
6
CONTINUOUS
10
12.7021
20
-1.63892
11
12.7021
21
-1.63893
0
LINE
8
BLACK
6
CONTINUOUS
10
12.7021
20
-1.63893
11
12.7216
21
-1.65985
0
LINE
8
BLACK
6
CONTINUOUS
10
12.7216
20
-1.65985
11
12.7216
21
-1.65987
0
LINE
8
BLACK
6
CONTINUOUS
10
12.7216
20
-1.65987
11
12.7216
21
-1.65988
0
LINE
8
BLACK
6
CONTINUOUS
10
12.7216
20
-1.65988
11
12.7366
21
-1.68441
0
LINE
8
BLACK
6
CONTINUOUS
10
12.7366
20
-1.68441
11
12.7366
21
-1.68442
0
LINE
8
BLACK
6
CONTINUOUS
10
12.7366
20
-1.68442
11
12.7366
21
-1.68444
0
LINE
8
BLACK
6
CONTINUOUS
10
12.7366
20
-1.68444
11
12.7469
21
-1.7117
0
LINE
8
BLACK
6
CONTINUOUS
10
12.7469
20
-1.7117
11
12.7469
21
-1.71172
0
LINE
8
BLACK
6
CONTINUOUS
10
12.7469
20
-1.71172
11
12.7469
21
-1.71173
0
LINE
8
BLACK
6
CONTINUOUS
10
12.7469
20
-1.71173
11
12.7522
21
-1.74086
0
LINE
8
BLACK
6
CONTINUOUS
10
12.7522
20
-1.74086
11
12.7522
21
-1.74088
0
LINE
8
BLACK
6
CONTINUOUS
10
12.7522
20
-1.74088
11
12.7522
21
-1.74089
0
LINE
8
BLACK
6
CONTINUOUS
10
12.7522
20
-1.74089
11
12.7524
21
-1.77102
0
LINE
8
BLACK
6
CONTINUOUS
10
12.7524
20
-1.77102
11
12.7524
21
-1.77104
0
LINE
8
BLACK
6
CONTINUOUS
10
12.7524
20
-1.77104
11
12.7524
21
-1.77105
0
LINE
8
BLACK
6
CONTINUOUS
10
12.7524
20
-1.77105
11
12.7471
21
-1.80131
0
LINE
8
BLACK
6
CONTINUOUS
10
12.7471
20
-1.80131
11
12.7471
21
-1.80133
0
LINE
8
BLACK
6
CONTINUOUS
10
12.7471
20
-1.80133
11
12.7471
21
-1.80134
0
LINE
8
BLACK
6
CONTINUOUS
10
12.7471
20
-1.80134
11
12.7362
21
-1.83086
0
LINE
8
BLACK
6
CONTINUOUS
10
12.7362
20
-1.83086
11
12.7362
21
-1.83087
0
LINE
8
BLACK
6
CONTINUOUS
10
12.7362
20
-1.83087
11
12.7362
21
-1.83088
0
LINE
8
BLACK
6
CONTINUOUS
10
12.7362
20
-1.83088
11
12.7355
21
-1.83232
0
LINE
8
BLACK
6
CONTINUOUS
10
12.7355
20
-1.83232
11
12.7355
21
-1.83233
0
LINE
8
BLACK
6
CONTINUOUS
10
12.7355
20
-1.83233
11
12.7355
21
-1.83234
0
LINE
8
BLACK
6
CONTINUOUS
10
12.7355
20
-1.83234
11
12.7196
21
-1.85767
0
LINE
8
BLACK
6
CONTINUOUS
10
12.7196
20
-1.85767
11
12.7196
21
-1.85768
0
LINE
8
BLACK
6
CONTINUOUS
10
12.7196
20
-1.85768
11
12.7195
21
-1.8577
0
LINE
8
BLACK
6
CONTINUOUS
10
12.7195
20
-1.8577
11
12.6988
21
-1.87842
0
LINE
8
BLACK
6
CONTINUOUS
10
12.6988
20
-1.87842
11
12.6988
21
-1.87843
0
LINE
8
BLACK
6
CONTINUOUS
10
12.6988
20
-1.87843
11
12.6988
21
-1.87845
0
LINE
8
BLACK
6
CONTINUOUS
10
12.6988
20
-1.87845
11
12.6734
21
-1.89447
0
LINE
8
BLACK
6
CONTINUOUS
10
12.6734
20
-1.89447
11
12.6734
21
-1.89448
0
LINE
8
BLACK
6
CONTINUOUS
10
12.6734
20
-1.89448
11
12.6734
21
-1.89449
0
LINE
8
BLACK
6
CONTINUOUS
10
12.6734
20
-1.89449
11
12.6434
21
-1.90572
0
LINE
8
BLACK
6
CONTINUOUS
10
12.6434
20
-1.90572
11
12.6434
21
-1.90573
0
LINE
8
BLACK
6
CONTINUOUS
10
12.6434
20
-1.90573
11
12.6434
21
-1.90573
0
LINE
8
BLACK
6
CONTINUOUS
10
12.6434
20
-1.90573
11
12.6321
21
-1.90848
0
LINE
8
BLACK
6
CONTINUOUS
10
12.6321
20
-1.90848
11
12.6321
21
-1.90848
0
LINE
8
BLACK
6
CONTINUOUS
10
12.6321
20
-1.90848
11
12.6321
21
-1.90848
0
LINE
8
BLACK
6
CONTINUOUS
10
12.6321
20
-1.90848
11
12.622
21
-1.90999
0
LINE
8
BLACK
6
CONTINUOUS
10
12.622
20
-1.90999
11
12.622
21
-1.90999
0
LINE
8
BLACK
6
CONTINUOUS
10
12.622
20
-1.90999
11
12.622
21
-1.90999
0
LINE
8
BLACK
6
CONTINUOUS
10
12.622
20
-1.90999
11
12.6079
21
-1.91129
0
LINE
8
BLACK
6
CONTINUOUS
10
12.6079
20
-1.91129
11
12.6079
21
-1.91128
0
LINE
8
BLACK
6
CONTINUOUS
10
12.6079
20
-1.91128
11
12.6079
21
-1.91129
0
LINE
8
BLACK
6
CONTINUOUS
10
12.6079
20
-1.91129
11
12.591
21
-1.91233
0
LINE
8
BLACK
6
CONTINUOUS
10
12.591
20
-1.91233
11
12.591
21
-1.91233
0
LINE
8
BLACK
6
CONTINUOUS
10
12.591
20
-1.91233
11
12.591
21
-1.91233
0
LINE
8
BLACK
6
CONTINUOUS
10
12.591
20
-1.91233
11
12.5726
21
-1.91309
0
LINE
8
BLACK
6
CONTINUOUS
10
12.5726
20
-1.91309
11
12.5726
21
-1.91309
0
LINE
8
BLACK
6
CONTINUOUS
10
12.5726
20
-1.91309
11
12.5726
21
-1.91309
0
LINE
8
BLACK
6
CONTINUOUS
10
12.5726
20
-1.91309
11
12.5541
21
-1.91355
0
LINE
8
BLACK
6
CONTINUOUS
10
12.5541
20
-1.91355
11
12.5541
21
-1.91355
0
LINE
8
BLACK
6
CONTINUOUS
10
12.5541
20
-1.91355
11
12.5541
21
-1.91355
0
LINE
8
BLACK
6
CONTINUOUS
10
12.5541
20
-1.91355
11
12.5366
21
-1.91367
0
LINE
8
BLACK
6
CONTINUOUS
10
12.5366
20
-1.91367
11
12.5366
21
-1.91367
0
LINE
8
BLACK
6
CONTINUOUS
10
12.5366
20
-1.91367
11
12.5366
21
-1.91367
0
LINE
8
BLACK
6
CONTINUOUS
10
12.5366
20
-1.91367
11
12.5215
21
-1.91344
0
LINE
8
BLACK
6
CONTINUOUS
10
12.5215
20
-1.91344
11
12.5215
21
-1.91344
0
LINE
8
BLACK
6
CONTINUOUS
10
12.5215
20
-1.91344
11
12.5215
21
-1.91344
0
LINE
8
BLACK
6
CONTINUOUS
10
12.5215
20
-1.91344
11
12.51
21
-1.91281
0
LINE
8
BLACK
6
CONTINUOUS
10
12.51
20
-1.91281
11
12.51
21
-1.91281
0
LINE
8
BLACK
6
CONTINUOUS
10
12.51
20
-1.91281
11
12.51
21
-1.91281
0
LINE
8
BLACK
6
CONTINUOUS
10
12.51
20
-1.91281
11
12.5035
21
-1.91177
0
LINE
8
BLACK
6
CONTINUOUS
10
12.5035
20
-1.91177
11
12.5035
21
-1.91176
0
LINE
8
BLACK
6
CONTINUOUS
10
12.5035
20
-1.91176
11
12.5034
21
-1.91175
0
LINE
8
BLACK
6
CONTINUOUS
10
12.5034
20
-1.91175
11
12.5025
21
-1.91129
0
LINE
8
BLACK
6
CONTINUOUS
10
12.5025
20
-1.91129
11
12.5025
21
-1.91128
0
LINE
8
BLACK
6
CONTINUOUS
10
12.5025
20
-1.91128
11
12.5025
21
-1.91127
0
LINE
8
BLACK
6
CONTINUOUS
10
12.5025
20
-1.91127
11
12.5025
21
-1.91125
0
LINE
8
BLACK
6
CONTINUOUS
10
12.5025
20
-1.91125
11
12.5025
21
-1.91124
0
LINE
8
BLACK
6
CONTINUOUS
10
12.5025
20
-1.91124
11
12.5025
21
-1.91123
0
LINE
8
BLACK
6
CONTINUOUS
10
12.5025
20
-1.91123
11
12.5025
21
-1.91122
0
LINE
8
BLACK
6
CONTINUOUS
10
12.5025
20
-1.91122
11
12.5025
21
-1.91119
0
LINE
8
BLACK
6
CONTINUOUS
10
12.5025
20
-1.91119
11
12.5025
21
-1.91117
0
LINE
8
BLACK
6
CONTINUOUS
10
12.5025
20
-1.91117
11
12.5024
21
-1.91116
0
LINE
8
BLACK
6
CONTINUOUS
10
12.5024
20
-1.91116
11
12.5024
21
-1.91115
0
LINE
8
BLACK
6
CONTINUOUS
10
12.5024
20
-1.91115
11
12.5018
21
-1.90728
0
LINE
8
BLACK
6
CONTINUOUS
10
12.5018
20
-1.90728
11
12.5018
21
-1.90726
0
LINE
8
BLACK
6
CONTINUOUS
10
12.5018
20
-1.90726
11
12.5018
21
-1.90725
0
LINE
8
BLACK
6
CONTINUOUS
10
12.5018
20
-1.90725
11
12.5012
21
-1.89776
0
LINE
8
BLACK
6
CONTINUOUS
10
12.5012
20
-1.89776
11
12.5012
21
-1.89776
0
LINE
8
BLACK
6
CONTINUOUS
10
12.5012
20
-1.89776
11
12.5012
21
-1.89776
0
LINE
8
BLACK
6
CONTINUOUS
10
12.5012
20
-1.89776
11
12.5007
21
-1.8837
0
LINE
8
BLACK
6
CONTINUOUS
10
12.5007
20
-1.8837
11
12.5007
21
-1.8837
0
LINE
8
BLACK
6
CONTINUOUS
10
12.5007
20
-1.8837
11
12.5007
21
-1.8837
0
LINE
8
BLACK
6
CONTINUOUS
10
12.5007
20
-1.8837
11
12.5004
21
-1.86611
0
LINE
8
BLACK
6
CONTINUOUS
10
12.5004
20
-1.86611
11
12.5004
21
-1.86611
0
LINE
8
BLACK
6
CONTINUOUS
10
12.5004
20
-1.86611
11
12.5004
21
-1.86611
0
LINE
8
BLACK
6
CONTINUOUS
10
12.5004
20
-1.86611
11
12.5002
21
-1.84605
0
LINE
8
BLACK
6
CONTINUOUS
10
12.5002
20
-1.84605
11
12.5002
21
-1.84605
0
LINE
8
BLACK
6
CONTINUOUS
10
12.5002
20
-1.84605
11
12.5002
21
-1.84605
0
LINE
8
BLACK
6
CONTINUOUS
10
12.5002
20
-1.84605
11
12.5002
21
-1.84278
0
LINE
8
BLACK
6
CONTINUOUS
10
12.5002
20
-1.84278
11
12.5002
21
-1.77667
0
LINE
8
BLACK
6
CONTINUOUS
10
12.5002
20
-1.77667
11
12.5002
21
-1.77659
0
LINE
8
BLACK
6
CONTINUOUS
10
12.5002
20
-1.77659
11
12.5003
21
-1.77653
0
LINE
8
BLACK
6
CONTINUOUS
10
12.5003
20
-1.77653
11
12.5003
21
-1.77648
0
LINE
8
BLACK
6
CONTINUOUS
10
12.5003
20
-1.77648
11
12.5004
21
-1.77647
0
LINE
8
BLACK
6
CONTINUOUS
10
12.5004
20
-1.77647
11
12.5171
21
-1.77647
0
LINE
8
BLACK
6
CONTINUOUS
10
12.5171
20
-1.77647
11
12.5172
21
-1.77648
0
LINE
8
BLACK
6
CONTINUOUS
10
12.5172
20
-1.77648
11
12.5172
21
-1.77653
0
LINE
8
BLACK
6
CONTINUOUS
10
12.5172
20
-1.77653
11
12.5173
21
-1.77659
0
LINE
8
BLACK
6
CONTINUOUS
10
12.5173
20
-1.77659
11
12.5173
21
-1.77667
0
LINE
8
BLACK
6
CONTINUOUS
10
12.5173
20
-1.77667
11
12.5173
21
-1.89647
0
LINE
8
BLACK
6
CONTINUOUS
10
12.5173
20
-1.89647
11
12.5647
21
-1.89647
0
LINE
8
BLACK
6
CONTINUOUS
10
12.5647
20
-1.89647
11
12.5971
21
-1.89552
0
LINE
8
BLACK
6
CONTINUOUS
10
12.5971
20
-1.89552
11
12.6242
21
-1.89243
0
LINE
8
BLACK
6
CONTINUOUS
10
12.6242
20
-1.89243
11
12.6469
21
-1.88686
0
LINE
8
BLACK
6
CONTINUOUS
10
12.6469
20
-1.88686
11
12.6663
21
-1.87845
0
LINE
8
BLACK
6
CONTINUOUS
10
12.6663
20
-1.87845
11
12.6835
21
-1.86686
0
LINE
8
BLACK
6
CONTINUOUS
10
12.6835
20
-1.86686
11
12.6995
21
-1.85171
0
LINE
8
BLACK
6
CONTINUOUS
10
12.6995
20
-1.85171
11
12.7003
21
-1.85084
0
LINE
8
BLACK
6
CONTINUOUS
10
12.7003
20
-1.85084
11
12.7156
21
-1.83027
0
LINE
8
BLACK
6
CONTINUOUS
10
12.7156
20
-1.83027
11
12.7259
21
-1.80699
0
LINE
8
BLACK
6
CONTINUOUS
10
12.7259
20
-1.80699
11
12.7316
21
-1.77987
0
LINE
8
BLACK
6
CONTINUOUS
10
12.7316
20
-1.77987
11
12.7327
21
-1.76819
0
LINE
8
BLACK
6
CONTINUOUS
10
12.7327
20
-1.76819
11
12.732
21
-1.73552
0
LINE
8
BLACK
6
CONTINUOUS
10
12.732
20
-1.73552
11
12.7256
21
-1.70619
0
LINE
8
BLACK
6
CONTINUOUS
10
12.7256
20
-1.70619
11
12.7138
21
-1.68048
0
LINE
8
BLACK
6
CONTINUOUS
10
12.7138
20
-1.68048
11
12.6968
21
-1.65867
0
LINE
8
BLACK
6
CONTINUOUS
10
12.6968
20
-1.65867
11
12.6748
21
-1.64104
0
LINE
8
BLACK
6
CONTINUOUS
10
12.6748
20
-1.64104
11
12.648
21
-1.62789
0
LINE
8
BLACK
6
CONTINUOUS
10
12.648
20
-1.62789
11
12.6192
21
-1.61997
0
LINE
8
BLACK
6
CONTINUOUS
10
12.6192
20
-1.61997
11
12.61
21
-1.61887
0
LINE
8
BLACK
6
CONTINUOUS
10
12.61
20
-1.61887
11
12.5958
21
-1.61793
0
LINE
8
BLACK
6
CONTINUOUS
10
12.5958
20
-1.61793
11
12.5783
21
-1.61725
0
LINE
8
BLACK
6
CONTINUOUS
10
12.5783
20
-1.61725
11
12.5592
21
-1.6169
0
LINE
8
BLACK
6
CONTINUOUS
10
12.5592
20
-1.6169
11
12.5516
21
-1.61686
0
LINE
8
BLACK
6
CONTINUOUS
10
12.5516
20
-1.61686
11
12.5321
21
-1.61682
0
LINE
8
BLACK
6
CONTINUOUS
10
12.5321
20
-1.61682
11
12.5321
21
-1.61682
0
LINE
8
BLACK
6
CONTINUOUS
10
12.5321
20
-1.61682
11
12.5321
21
-1.61682
0
LINE
8
BLACK
6
CONTINUOUS
10
12.5321
20
-1.61682
11
12.5183
21
-1.61661
0
LINE
8
BLACK
6
CONTINUOUS
10
12.5183
20
-1.61661
11
12.5183
21
-1.61661
0
LINE
8
BLACK
6
CONTINUOUS
10
12.5183
20
-1.61661
11
12.5183
21
-1.61661
0
LINE
8
BLACK
6
CONTINUOUS
10
12.5183
20
-1.61661
11
12.5093
21
-1.6161
0
LINE
8
BLACK
6
CONTINUOUS
10
12.5093
20
-1.6161
11
12.5092
21
-1.6161
0
LINE
8
BLACK
6
CONTINUOUS
10
12.5092
20
-1.6161
11
12.5092
21
-1.6161
0
LINE
8
BLACK
6
CONTINUOUS
10
12.5092
20
-1.6161
11
12.5039
21
-1.61517
0
LINE
8
BLACK
6
CONTINUOUS
10
12.5039
20
-1.61517
11
12.5038
21
-1.61516
0
LINE
8
BLACK
6
CONTINUOUS
10
12.5038
20
-1.61516
11
12.5038
21
-1.61515
0
LINE
8
BLACK
6
CONTINUOUS
10
12.5038
20
-1.61515
11
12.5012
21
-1.61367
0
LINE
8
BLACK
6
CONTINUOUS
10
12.5012
20
-1.61367
11
12.5012
21
-1.61365
0
LINE
8
BLACK
6
CONTINUOUS
10
12.5012
20
-1.61365
11
12.5012
21
-1.61363
0
LINE
8
BLACK
6
CONTINUOUS
10
12.5012
20
-1.61363
11
12.5012
21
-1.61362
0
LINE
8
BLACK
6
CONTINUOUS
10
12.5012
20
-1.61362
11
12.5011
21
-1.61362
0
LINE
8
BLACK
6
CONTINUOUS
10
12.5011
20
-1.61362
11
12.5011
21
-1.61359
0
LINE
8
BLACK
6
CONTINUOUS
10
12.5011
20
-1.61359
11
12.5011
21
-1.61357
0
LINE
8
BLACK
6
CONTINUOUS
10
12.5011
20
-1.61357
11
12.5003
21
-1.61141
0
LINE
8
BLACK
6
CONTINUOUS
10
12.5003
20
-1.61141
11
12.5003
21
-1.61138
0
LINE
8
BLACK
6
CONTINUOUS
10
12.5003
20
-1.61138
11
12.5003
21
-1.61135
0
LINE
8
BLACK
6
CONTINUOUS
10
12.5003
20
-1.61135
11
12.5002
21
-1.61001
0
LINE
8
BLACK
6
CONTINUOUS
10
12.5002
20
-1.61001
11
12.5002
21
-1.60999
0
LINE
8
BLACK
6
CONTINUOUS
10
12.5002
20
-1.60999
11
12.5002
21
-1.60998
0
LINE
8
BLACK
6
CONTINUOUS
10
12.5002
20
-1.60998
11
12.5005
21
-1.60762
0
LINE
8
BLACK
6
CONTINUOUS
10
12.5005
20
-1.60762
11
12.5005
21
-1.60761
0
LINE
8
BLACK
6
CONTINUOUS
10
12.5005
20
-1.60761
11
12.5005
21
-1.60759
0
LINE
8
BLACK
6
CONTINUOUS
10
12.5005
20
-1.60759
11
12.5005
21
-1.60757
0
LINE
8
BLACK
6
CONTINUOUS
10
12.5005
20
-1.60757
11
12.5005
21
-1.60755
0
LINE
8
BLACK
6
CONTINUOUS
10
12.5005
20
-1.60755
11
12.5005
21
-1.60754
0
LINE
8
BLACK
6
CONTINUOUS
10
12.5005
20
-1.60754
11
12.5005
21
-1.60752
0
LINE
8
BLACK
6
CONTINUOUS
10
12.5005
20
-1.60752
11
12.502
21
-1.6058
0
LINE
8
BLACK
6
CONTINUOUS
10
12.502
20
-1.6058
11
12.502
21
-1.60579
0
LINE
8
BLACK
6
CONTINUOUS
10
12.502
20
-1.60579
11
12.502
21
-1.60578
0
LINE
8
BLACK
6
CONTINUOUS
10
12.502
20
-1.60578
11
12.502
21
-1.60576
0
LINE
8
BLACK
6
CONTINUOUS
10
12.502
20
-1.60576
11
12.502
21
-1.60575
0
LINE
8
BLACK
6
CONTINUOUS
10
12.502
20
-1.60575
11
12.5021
21
-1.60574
0
LINE
8
BLACK
6
CONTINUOUS
10
12.5021
20
-1.60574
11
12.5021
21
-1.60574
0
LINE
8
BLACK
6
CONTINUOUS
10
12.5021
20
-1.60574
11
12.5056
21
-1.60455
0
LINE
8
BLACK
6
CONTINUOUS
10
12.5056
20
-1.60455
11
12.5056
21
-1.60454
0
LINE
8
BLACK
6
CONTINUOUS
10
12.5056
20
-1.60454
11
12.5056
21
-1.60454
0
LINE
8
BLACK
6
CONTINUOUS
10
12.5056
20
-1.60454
11
12.5121
21
-1.60378
0
LINE
8
BLACK
6
CONTINUOUS
10
12.5121
20
-1.60378
11
12.5121
21
-1.60378
0
LINE
8
BLACK
6
CONTINUOUS
10
12.5121
20
-1.60378
11
12.5121
21
-1.60378
0
LINE
8
BLACK
6
CONTINUOUS
10
12.5121
20
-1.60378
11
12.5224
21
-1.60336
0
LINE
8
BLACK
6
CONTINUOUS
10
12.5224
20
-1.60336
11
12.5224
21
-1.60336
0
LINE
8
BLACK
6
CONTINUOUS
10
12.5224
20
-1.60336
11
12.5224
21
-1.60336
0
LINE
8
BLACK
6
CONTINUOUS
10
12.5224
20
-1.60336
11
12.5375
21
-1.60318
0
LINE
8
BLACK
6
CONTINUOUS
10
12.5375
20
-1.60318
11
12.5375
21
-1.60318
0
LINE
8
BLACK
6
CONTINUOUS
10
12.5375
20
-1.60318
11
12.5375
21
-1.60318
0
LINE
8
BLACK
6
CONTINUOUS
10
12.5375
20
-1.60318
11
12.5582
21
-1.60314
0
LINE
8
BLACK
6
CONTINUOUS
10
12.5582
20
-1.60314
11
12.5582
21
-1.60314
0
LINE
8
BLACK
6
CONTINUOUS
10
12.5582
20
-1.60314
11
12.5582
21
-1.60314
0
LINE
8
BLACK
6
CONTINUOUS
10
12.5582
20
-1.60314
11
12.5614
21
-1.60314
0
LINE
8
BLACK
6
CONTINUOUS
10
12.5614
20
-1.60314
11
12.5614
21
-1.60314
0
LINE
8
BLACK
6
CONTINUOUS
10
12.5614
20
-1.60314
11
12.5614
21
-1.60314
0
LINE
8
BLACK
6
CONTINUOUS
10
12.5614
20
-1.60314
11
12.5894
21
-1.60342
0
LINE
8
BLACK
6
CONTINUOUS
10
12.8697
20
-0.904886
11
12.8697
21
-0.904886
0
LINE
8
BLACK
6
CONTINUOUS
10
12.8697
20
-0.904886
11
12.8697
21
-0.904886
0
LINE
8
BLACK
6
CONTINUOUS
10
12.8697
20
-0.904886
11
12.8904
21
-0.905196
0
LINE
8
BLACK
6
CONTINUOUS
10
12.8904
20
-0.905196
11
12.8904
21
-0.905196
0
LINE
8
BLACK
6
CONTINUOUS
10
12.8904
20
-0.905196
11
12.8904
21
-0.905196
0
LINE
8
BLACK
6
CONTINUOUS
10
12.8904
20
-0.905196
11
12.907
21
-0.905824
0
LINE
8
BLACK
6
CONTINUOUS
10
12.907
20
-0.905824
11
12.907
21
-0.905825
0
LINE
8
BLACK
6
CONTINUOUS
10
12.907
20
-0.905825
11
12.907
21
-0.905824
0
LINE
8
BLACK
6
CONTINUOUS
10
12.907
20
-0.905824
11
12.9211
21
-0.906861
0
LINE
8
BLACK
6
CONTINUOUS
10
12.9211
20
-0.906861
11
12.9211
21
-0.906863
0
LINE
8
BLACK
6
CONTINUOUS
10
12.9211
20
-0.906863
11
12.9211
21
-0.906862
0
LINE
8
BLACK
6
CONTINUOUS
10
12.9211
20
-0.906862
11
12.9338
21
-0.9084
0
LINE
8
BLACK
6
CONTINUOUS
10
12.9338
20
-0.9084
11
12.9338
21
-0.908402
0
LINE
8
BLACK
6
CONTINUOUS
10
12.9338
20
-0.908402
11
12.9338
21
-0.908401
0
LINE
8
BLACK
6
CONTINUOUS
10
12.9338
20
-0.908401
11
12.9467
21
-0.910532
0
LINE
8
BLACK
6
CONTINUOUS
10
12.9467
20
-0.910532
11
12.9467
21
-0.910533
0
LINE
8
BLACK
6
CONTINUOUS
10
12.9467
20
-0.910533
11
12.9467
21
-0.910533
0
LINE
8
BLACK
6
CONTINUOUS
10
12.9467
20
-0.910533
11
12.9566
21
-0.912461
0
LINE
8
BLACK
6
CONTINUOUS
10
12.9566
20
-0.912461
11
12.9566
21
-0.912463
0
LINE
8
BLACK
6
CONTINUOUS
10
12.9566
20
-0.912463
11
12.9566
21
-0.912463
0
LINE
8
BLACK
6
CONTINUOUS
10
12.9566
20
-0.912463
11
13.019
21
-0.928499
0
LINE
8
BLACK
6
CONTINUOUS
10
13.019
20
-0.928499
11
13.0191
21
-0.928503
0
LINE
8
BLACK
6
CONTINUOUS
10
13.0191
20
-0.928503
11
13.0191
21
-0.928505
0
LINE
8
BLACK
6
CONTINUOUS
10
13.0191
20
-0.928505
11
13.0794
21
-0.950853
0
LINE
8
BLACK
6
CONTINUOUS
10
13.0794
20
-0.950853
11
13.0794
21
-0.950858
0
LINE
8
BLACK
6
CONTINUOUS
10
13.0794
20
-0.950858
11
13.0794
21
-0.950861
0
LINE
8
BLACK
6
CONTINUOUS
10
13.0794
20
-0.950861
11
13.1376
21
-0.979455
0
LINE
8
BLACK
6
CONTINUOUS
10
13.1376
20
-0.979455
11
13.1376
21
-0.97946
0
LINE
8
BLACK
6
CONTINUOUS
10
13.1376
20
-0.97946
11
13.1376
21
-0.979463
0
LINE
8
BLACK
6
CONTINUOUS
10
13.1376
20
-0.979463
11
13.1805
21
-1.00559
0
LINE
8
BLACK
6
CONTINUOUS
10
13.1805
20
-1.00559
11
13.1805
21
-1.00559
0
LINE
8
BLACK
6
CONTINUOUS
10
13.1805
20
-1.00559
11
13.1805
21
-1.0056
0
LINE
8
BLACK
6
CONTINUOUS
10
13.1805
20
-1.0056
11
13.2037
21
-1.02248
0
LINE
8
BLACK
6
CONTINUOUS
10
13.2037
20
-1.02248
11
13.2037
21
-1.02248
0
LINE
8
BLACK
6
CONTINUOUS
10
13.2037
20
-1.02248
11
13.2037
21
-1.02249
0
LINE
8
BLACK
6
CONTINUOUS
10
13.2037
20
-1.02249
11
13.2291
21
-1.04362
0
LINE
8
BLACK
6
CONTINUOUS
10
13.2291
20
-1.04362
11
13.2291
21
-1.04362
0
LINE
8
BLACK
6
CONTINUOUS
10
13.2291
20
-1.04362
11
13.2291
21
-1.04363
0
LINE
8
BLACK
6
CONTINUOUS
10
13.2291
20
-1.04363
11
13.2553
21
-1.06766
0
LINE
8
BLACK
6
CONTINUOUS
10
13.2553
20
-1.06766
11
13.2553
21
-1.06766
0
LINE
8
BLACK
6
CONTINUOUS
10
13.2553
20
-1.06766
11
13.2553
21
-1.06766
0
LINE
8
BLACK
6
CONTINUOUS
10
13.2553
20
-1.06766
11
13.281
21
-1.09323
0
LINE
8
BLACK
6
CONTINUOUS
10
13.281
20
-1.09323
11
13.281
21
-1.09323
0
LINE
8
BLACK
6
CONTINUOUS
10
13.281
20
-1.09323
11
13.281
21
-1.09323
0
LINE
8
BLACK
6
CONTINUOUS
10
13.281
20
-1.09323
11
13.3047
21
-1.11898
0
LINE
8
BLACK
6
CONTINUOUS
10
13.3047
20
-1.11898
11
13.3047
21
-1.11898
0
LINE
8
BLACK
6
CONTINUOUS
10
13.3047
20
-1.11898
11
13.3047
21
-1.11898
0
LINE
8
BLACK
6
CONTINUOUS
10
13.3047
20
-1.11898
11
13.325
21
-1.14355
0
LINE
8
BLACK
6
CONTINUOUS
10
13.325
20
-1.14355
11
13.325
21
-1.14355
0
LINE
8
BLACK
6
CONTINUOUS
10
13.325
20
-1.14355
11
13.325
21
-1.14355
0
LINE
8
BLACK
6
CONTINUOUS
10
13.325
20
-1.14355
11
13.3344
21
-1.15625
0
LINE
8
BLACK
6
CONTINUOUS
10
13.3344
20
-1.15625
11
13.3344
21
-1.15625
0
LINE
8
BLACK
6
CONTINUOUS
10
13.3344
20
-1.15625
11
13.3344
21
-1.15626
0
LINE
8
BLACK
6
CONTINUOUS
10
13.3344
20
-1.15626
11
13.3677
21
-1.20934
0
LINE
8
BLACK
6
CONTINUOUS
10
13.3677
20
-1.20934
11
13.3677
21
-1.20935
0
LINE
8
BLACK
6
CONTINUOUS
10
13.3677
20
-1.20935
11
13.3677
21
-1.20936
0
LINE
8
BLACK
6
CONTINUOUS
10
13.3677
20
-1.20936
11
13.395
21
-1.2646
0
LINE
8
BLACK
6
CONTINUOUS
10
13.395
20
-1.2646
11
13.395
21
-1.26461
0
LINE
8
BLACK
6
CONTINUOUS
10
13.395
20
-1.26461
11
13.395
21
-1.26462
0
LINE
8
BLACK
6
CONTINUOUS
10
13.395
20
-1.26462
11
13.4161
21
-1.32157
0
LINE
8
BLACK
6
CONTINUOUS
10
13.4161
20
-1.32157
11
13.4161
21
-1.32158
0
LINE
8
BLACK
6
CONTINUOUS
10
13.4161
20
-1.32158
11
13.4161
21
-1.32159
0
LINE
8
BLACK
6
CONTINUOUS
10
13.4161
20
-1.32159
11
13.4313
21
-1.37981
0
LINE
8
BLACK
6
CONTINUOUS
10
13.4313
20
-1.37981
11
13.4313
21
-1.37982
0
LINE
8
BLACK
6
CONTINUOUS
10
13.4313
20
-1.37982
11
13.4313
21
-1.37983
0
LINE
8
BLACK
6
CONTINUOUS
10
13.4313
20
-1.37983
11
13.4405
21
-1.43887
0
LINE
8
BLACK
6
CONTINUOUS
10
13.4405
20
-1.43887
11
13.4405
21
-1.43888
0
LINE
8
BLACK
6
CONTINUOUS
10
13.4405
20
-1.43888
11
13.4405
21
-1.43889
0
LINE
8
BLACK
6
CONTINUOUS
10
13.4405
20
-1.43889
11
13.4437
21
-1.49828
0
LINE
8
BLACK
6
CONTINUOUS
10
13.4437
20
-1.49828
11
13.4437
21
-1.49829
0
LINE
8
BLACK
6
CONTINUOUS
10
13.4437
20
-1.49829
11
13.4437
21
-1.4983
0
LINE
8
BLACK
6
CONTINUOUS
10
13.4437
20
-1.4983
11
13.4411
21
-1.55762
0
LINE
8
BLACK
6
CONTINUOUS
10
13.4411
20
-1.55762
11
13.4411
21
-1.55763
0
LINE
8
BLACK
6
CONTINUOUS
10
13.4411
20
-1.55763
11
13.4411
21
-1.55764
0
LINE
8
BLACK
6
CONTINUOUS
10
13.4411
20
-1.55764
11
13.4326
21
-1.61642
0
LINE
8
BLACK
6
CONTINUOUS
10
13.4326
20
-1.61642
11
13.4326
21
-1.61643
0
LINE
8
BLACK
6
CONTINUOUS
10
13.4326
20
-1.61643
11
13.4326
21
-1.61644
0
LINE
8
BLACK
6
CONTINUOUS
10
13.4326
20
-1.61644
11
13.4183
21
-1.67424
0
LINE
8
BLACK
6
CONTINUOUS
10
13.4183
20
-1.67424
11
13.4183
21
-1.67425
0
LINE
8
BLACK
6
CONTINUOUS
10
13.4183
20
-1.67425
11
13.4183
21
-1.67426
0
LINE
8
BLACK
6
CONTINUOUS
10
13.4183
20
-1.67426
11
13.3982
21
-1.73062
0
LINE
8
BLACK
6
CONTINUOUS
10
13.3982
20
-1.73062
11
13.3982
21
-1.73063
0
LINE
8
BLACK
6
CONTINUOUS
10
13.3982
20
-1.73063
11
13.3982
21
-1.73064
0
LINE
8
BLACK
6
CONTINUOUS
10
13.3982
20
-1.73064
11
13.3724
21
-1.78513
0
LINE
8
BLACK
6
CONTINUOUS
10
13.3724
20
-1.78513
11
13.3724
21
-1.78514
0
LINE
8
BLACK
6
CONTINUOUS
10
13.3724
20
-1.78514
11
13.3724
21
-1.78514
0
LINE
8
BLACK
6
CONTINUOUS
10
13.3724
20
-1.78514
11
13.3409
21
-1.8373
0
LINE
8
BLACK
6
CONTINUOUS
10
13.3409
20
-1.8373
11
13.3409
21
-1.83731
0
LINE
8
BLACK
6
CONTINUOUS
10
13.3409
20
-1.83731
11
13.3409
21
-1.83732
0
LINE
8
BLACK
6
CONTINUOUS
10
13.3409
20
-1.83732
11
13.3037
21
-1.88669
0
LINE
8
BLACK
6
CONTINUOUS
10
13.3037
20
-1.88669
11
13.3037
21
-1.88669
0
LINE
8
BLACK
6
CONTINUOUS
10
13.3037
20
-1.88669
11
13.3037
21
-1.8867
0
LINE
8
BLACK
6
CONTINUOUS
10
13.3037
20
-1.8867
11
13.2649
21
-1.92895
0
LINE
8
BLACK
6
CONTINUOUS
10
13.2649
20
-1.92895
11
13.2649
21
-1.92895
0
LINE
8
BLACK
6
CONTINUOUS
10
13.2649
20
-1.92895
11
13.2649
21
-1.92896
0
LINE
8
BLACK
6
CONTINUOUS
10
13.2649
20
-1.92896
11
13.2184
21
-1.97045
0
LINE
8
BLACK
6
CONTINUOUS
10
13.2184
20
-1.97045
11
13.2184
21
-1.97045
0
LINE
8
BLACK
6
CONTINUOUS
10
13.2184
20
-1.97045
11
13.2184
21
-1.97046
0
LINE
8
BLACK
6
CONTINUOUS
10
13.2184
20
-1.97046
11
13.1681
21
-2.00657
0
LINE
8
BLACK
6
CONTINUOUS
10
13.1681
20
-2.00657
11
13.1681
21
-2.00657
0
LINE
8
BLACK
6
CONTINUOUS
10
13.1681
20
-2.00657
11
13.1681
21
-2.00658
0
LINE
8
BLACK
6
CONTINUOUS
10
13.1681
20
-2.00658
11
13.1143
21
-2.03717
0
LINE
8
BLACK
6
CONTINUOUS
10
13.1143
20
-2.03717
11
13.1143
21
-2.03717
0
LINE
8
BLACK
6
CONTINUOUS
10
13.1143
20
-2.03717
11
13.1143
21
-2.03717
0
LINE
8
BLACK
6
CONTINUOUS
10
13.1143
20
-2.03717
11
13.0574
21
-2.06209
0
LINE
8
BLACK
6
CONTINUOUS
10
13.0574
20
-2.06209
11
13.0574
21
-2.06209
0
LINE
8
BLACK
6
CONTINUOUS
10
13.0574
20
-2.06209
11
13.0574
21
-2.06209
0
LINE
8
BLACK
6
CONTINUOUS
10
13.0574
20
-2.06209
11
12.9976
21
-2.08118
0
LINE
8
BLACK
6
CONTINUOUS
10
12.9976
20
-2.08118
11
12.9976
21
-2.08118
0
LINE
8
BLACK
6
CONTINUOUS
10
12.9976
20
-2.08118
11
12.9976
21
-2.08119
0
LINE
8
BLACK
6
CONTINUOUS
10
12.9976
20
-2.08119
11
12.9353
21
-2.09431
0
LINE
8
BLACK
6
CONTINUOUS
10
12.9353
20
-2.09431
11
12.9353
21
-2.09431
0
LINE
8
BLACK
6
CONTINUOUS
10
12.9353
20
-2.09431
11
12.9353
21
-2.09431
0
LINE
8
BLACK
6
CONTINUOUS
10
12.9353
20
-2.09431
11
12.8888
21
-2.1
0
LINE
8
BLACK
6
CONTINUOUS
10
12.8888
20
-2.1
11
12.8888
21
-2.1
0
LINE
8
BLACK
6
CONTINUOUS
10
12.8888
20
-2.1
11
12.8888
21
-2.1
0
LINE
8
BLACK
6
CONTINUOUS
10
12.8888
20
-2.1
11
12.8699
21
-2.10157
0
LINE
8
BLACK
6
CONTINUOUS
10
12.8699
20
-2.10157
11
12.8699
21
-2.10157
0
LINE
8
BLACK
6
CONTINUOUS
10
12.8699
20
-2.10157
11
12.8699
21
-2.10157
0
LINE
8
BLACK
6
CONTINUOUS
10
12.8699
20
-2.10157
11
12.8551
21
-2.10252
0
LINE
8
BLACK
6
CONTINUOUS
10
12.8551
20
-2.10252
11
12.8551
21
-2.10252
0
LINE
8
BLACK
6
CONTINUOUS
10
12.8551
20
-2.10252
11
12.8551
21
-2.10252
0
LINE
8
BLACK
6
CONTINUOUS
10
12.8551
20
-2.10252
11
12.8425
21
-2.10285
0
LINE
8
BLACK
6
CONTINUOUS
10
12.8425
20
-2.10285
11
12.8425
21
-2.10285
0
LINE
8
BLACK
6
CONTINUOUS
10
12.8425
20
-2.10285
11
12.8425
21
-2.10285
0
LINE
8
BLACK
6
CONTINUOUS
10
12.8425
20
-2.10285
11
12.8298
21
-2.10255
0
LINE
8
BLACK
6
CONTINUOUS
10
12.8298
20
-2.10255
11
12.8298
21
-2.10255
0
LINE
8
BLACK
6
CONTINUOUS
10
12.8298
20
-2.10255
11
12.8298
21
-2.10255
0
LINE
8
BLACK
6
CONTINUOUS
10
12.8298
20
-2.10255
11
12.815
21
-2.10161
0
LINE
8
BLACK
6
CONTINUOUS
10
12.815
20
-2.10161
11
12.815
21
-2.1016
0
LINE
8
BLACK
6
CONTINUOUS
10
12.815
20
-2.1016
11
12.815
21
-2.1016
0
LINE
8
BLACK
6
CONTINUOUS
10
12.815
20
-2.1016
11
12.796
21
-2.10002
0
LINE
8
BLACK
6
CONTINUOUS
10
12.796
20
-2.10002
11
12.796
21
-2.10002
0
LINE
8
BLACK
6
CONTINUOUS
10
12.796
20
-2.10002
11
12.796
21
-2.10002
0
LINE
8
BLACK
6
CONTINUOUS
10
12.796
20
-2.10002
11
12.7924
21
-2.09971
0
LINE
8
BLACK
6
CONTINUOUS
10
12.7924
20
-2.09971
11
12.7924
21
-2.09971
0
LINE
8
BLACK
6
CONTINUOUS
10
12.7924
20
-2.09971
11
12.7924
21
-2.09971
0
LINE
8
BLACK
6
CONTINUOUS
10
12.7924
20
-2.09971
11
12.7304
21
-2.09098
0
LINE
8
BLACK
6
CONTINUOUS
10
12.7304
20
-2.09098
11
12.7304
21
-2.09098
0
LINE
8
BLACK
6
CONTINUOUS
10
12.7304
20
-2.09098
11
12.7304
21
-2.09098
0
LINE
8
BLACK
6
CONTINUOUS
10
12.7304
20
-2.09098
11
12.6703
21
-2.07607
0
LINE
8
BLACK
6
CONTINUOUS
10
12.6703
20
-2.07607
11
12.6703
21
-2.07606
0
LINE
8
BLACK
6
CONTINUOUS
10
12.6703
20
-2.07606
11
12.6703
21
-2.07606
0
LINE
8
BLACK
6
CONTINUOUS
10
12.6703
20
-2.07606
11
12.6125
21
-2.05524
0
LINE
8
BLACK
6
CONTINUOUS
10
12.6125
20
-2.05524
11
12.6125
21
-2.05523
0
LINE
8
BLACK
6
CONTINUOUS
10
12.6125
20
-2.05523
11
12.6125
21
-2.05523
0
LINE
8
BLACK
6
CONTINUOUS
10
12.6125
20
-2.05523
11
12.5574
21
-2.02878
0
LINE
8
BLACK
6
CONTINUOUS
10
12.5574
20
-2.02878
11
12.5574
21
-2.02878
0
LINE
8
BLACK
6
CONTINUOUS
10
12.5574
20
-2.02878
11
12.5574
21
-2.02877
0
LINE
8
BLACK
6
CONTINUOUS
10
12.5574
20
-2.02877
11
12.5054
21
-1.99699
0
LINE
8
BLACK
6
CONTINUOUS
10
12.5054
20
-1.99699
11
12.5054
21
-1.99698
0
LINE
8
BLACK
6
CONTINUOUS
10
12.5054
20
-1.99698
11
12.5053
21
-1.99697
0
LINE
8
BLACK
6
CONTINUOUS
10
12.5053
20
-1.99697
11
12.4569
21
-1.96012
0
LINE
8
BLACK
6
CONTINUOUS
10
12.4569
20
-1.96012
11
12.4568
21
-1.96012
0
LINE
8
BLACK
6
CONTINUOUS
10
12.4568
20
-1.96012
11
12.4568
21
-1.96011
0
LINE
8
BLACK
6
CONTINUOUS
10
12.4568
20
-1.96011
11
12.4123
21
-1.91848
0
LINE
8
BLACK
6
CONTINUOUS
10
12.4123
20
-1.91848
11
12.4123
21
-1.91847
0
LINE
8
BLACK
6
CONTINUOUS
10
12.4123
20
-1.91847
11
12.4123
21
-1.91847
0
LINE
8
BLACK
6
CONTINUOUS
10
12.4123
20
-1.91847
11
12.372
21
-1.87234
0
LINE
8
BLACK
6
CONTINUOUS
10
12.372
20
-1.87234
11
12.372
21
-1.87233
0
LINE
8
BLACK
6
CONTINUOUS
10
12.372
20
-1.87233
11
12.372
21
-1.87232
0
LINE
8
BLACK
6
CONTINUOUS
10
12.372
20
-1.87232
11
12.3365
21
-1.82198
0
LINE
8
BLACK
6
CONTINUOUS
10
12.3365
20
-1.82198
11
12.3365
21
-1.82197
0
LINE
8
BLACK
6
CONTINUOUS
10
12.3365
20
-1.82197
11
12.3365
21
-1.82197
0
LINE
8
BLACK
6
CONTINUOUS
10
12.3365
20
-1.82197
11
12.3061
21
-1.76769
0
LINE
8
BLACK
6
CONTINUOUS
10
12.3061
20
-1.76769
11
12.3061
21
-1.76769
0
LINE
8
BLACK
6
CONTINUOUS
10
12.3061
20
-1.76769
11
12.3061
21
-1.76768
0
LINE
8
BLACK
6
CONTINUOUS
10
12.3061
20
-1.76768
11
12.302
21
-1.75913
0
LINE
8
BLACK
6
CONTINUOUS
10
12.302
20
-1.75913
11
12.302
21
-1.75912
0
LINE
8
BLACK
6
CONTINUOUS
10
12.302
20
-1.75912
11
12.302
21
-1.75912
0
LINE
8
BLACK
6
CONTINUOUS
10
12.302
20
-1.75912
11
12.278
21
-1.70085
0
LINE
8
BLACK
6
CONTINUOUS
10
12.278
20
-1.70085
11
12.278
21
-1.70084
0
LINE
8
BLACK
6
CONTINUOUS
10
12.278
20
-1.70084
11
12.278
21
-1.70083
0
LINE
8
BLACK
6
CONTINUOUS
10
12.278
20
-1.70083
11
12.2604
21
-1.64119
0
LINE
8
BLACK
6
CONTINUOUS
10
12.2604
20
-1.64119
11
12.2604
21
-1.64118
0
LINE
8
BLACK
6
CONTINUOUS
10
12.2604
20
-1.64118
11
12.2604
21
-1.64117
0
LINE
8
BLACK
6
CONTINUOUS
10
12.2604
20
-1.64117
11
12.2491
21
-1.58061
0
LINE
8
BLACK
6
CONTINUOUS
10
12.2491
20
-1.58061
11
12.2491
21
-1.5806
0
LINE
8
BLACK
6
CONTINUOUS
10
12.2491
20
-1.5806
11
12.2491
21
-1.58059
0
LINE
8
BLACK
6
CONTINUOUS
10
12.2491
20
-1.58059
11
12.2441
21
-1.51958
0
LINE
8
BLACK
6
CONTINUOUS
10
12.2441
20
-1.51958
11
12.2441
21
-1.51957
0
LINE
8
BLACK
6
CONTINUOUS
10
12.2441
20
-1.51957
11
12.2441
21
-1.51956
0
LINE
8
BLACK
6
CONTINUOUS
10
12.2441
20
-1.51956
11
12.245
21
-1.47523
0
LINE
8
BLACK
6
CONTINUOUS
10
12.245
20
-1.47523
11
12.2693
21
-1.47523
0
LINE
8
BLACK
6
CONTINUOUS
10
12.2693
20
-1.47523
11
12.2696
21
-1.53371
0
LINE
8
BLACK
6
CONTINUOUS
10
12.2696
20
-1.53371
11
12.2758
21
-1.59168
0
LINE
8
BLACK
6
CONTINUOUS
10
12.2758
20
-1.59168
11
12.2878
21
-1.64869
0
LINE
8
BLACK
6
CONTINUOUS
10
12.2878
20
-1.64869
11
12.3055
21
-1.70427
0
LINE
8
BLACK
6
CONTINUOUS
10
12.3055
20
-1.70427
11
12.3289
21
-1.75794
0
LINE
8
BLACK
6
CONTINUOUS
10
12.3289
20
-1.75794
11
12.3577
21
-1.80924
0
LINE
8
BLACK
6
CONTINUOUS
10
12.3577
20
-1.80924
11
12.3919
21
-1.85769
0
LINE
8
BLACK
6
CONTINUOUS
10
12.3919
20
-1.85769
11
12.4315
21
-1.90284
0
LINE
8
BLACK
6
CONTINUOUS
10
12.4315
20
-1.90284
11
12.4762
21
-1.94422
0
LINE
8
BLACK
6
CONTINUOUS
10
12.4762
20
-1.94422
11
12.4789
21
-1.94641
0
LINE
8
BLACK
6
CONTINUOUS
10
12.4789
20
-1.94641
11
12.5262
21
-1.98111
0
LINE
8
BLACK
6
CONTINUOUS
10
12.5262
20
-1.98111
11
12.5778
21
-2.01128
0
LINE
8
BLACK
6
CONTINUOUS
10
12.5778
20
-2.01128
11
12.6329
21
-2.03647
0
LINE
8
BLACK
6
CONTINUOUS
10
12.6329
20
-2.03647
11
12.6905
21
-2.05622
0
LINE
8
BLACK
6
CONTINUOUS
10
12.6905
20
-2.05622
11
12.7101
21
-2.06152
0
LINE
8
BLACK
6
CONTINUOUS
10
12.7101
20
-2.06152
11
12.744
21
-2.06837
0
LINE
8
BLACK
6
CONTINUOUS
10
12.744
20
-2.06837
11
12.7823
21
-2.07313
0
LINE
8
BLACK
6
CONTINUOUS
10
12.7823
20
-2.07313
11
12.8227
21
-2.07571
0
LINE
8
BLACK
6
CONTINUOUS
10
12.8227
20
-2.07571
11
12.8632
21
-2.07601
0
LINE
8
BLACK
6
CONTINUOUS
10
12.8632
20
-2.07601
11
12.9016
21
-2.07393
0
LINE
8
BLACK
6
CONTINUOUS
10
12.9016
20
-2.07393
11
12.923
21
-2.07148
0
LINE
8
BLACK
6
CONTINUOUS
10
12.923
20
-2.07148
11
12.9721
21
-2.06255
0
LINE
8
BLACK
6
CONTINUOUS
10
12.9721
20
-2.06255
11
13.0183
21
-2.04987
0
LINE
8
BLACK
6
CONTINUOUS
10
13.0183
20
-2.04987
11
13.0641
21
-2.03268
0
LINE
8
BLACK
6
CONTINUOUS
10
13.0641
20
-2.03268
11
13.0894
21
-2.02136
0
LINE
8
BLACK
6
CONTINUOUS
10
13.0894
20
-2.02136
11
13.143
21
-1.99254
0
LINE
8
BLACK
6
CONTINUOUS
10
13.143
20
-1.99254
11
13.1924
21
-1.95894
0
LINE
8
BLACK
6
CONTINUOUS
10
13.1924
20
-1.95894
11
13.2373
21
-1.921
0
LINE
8
BLACK
6
CONTINUOUS
10
13.2373
20
-1.921
11
13.2776
21
-1.87914
0
LINE
8
BLACK
6
CONTINUOUS
10
13.2776
20
-1.87914
11
13.3132
21
-1.83379
0
LINE
8
BLACK
6
CONTINUOUS
10
13.3132
20
-1.83379
11
13.3439
21
-1.78538
0
LINE
8
BLACK
6
CONTINUOUS
10
13.3439
20
-1.78538
11
13.3696
21
-1.73435
0
LINE
8
BLACK
6
CONTINUOUS
10
13.3696
20
-1.73435
11
13.3901
21
-1.68112
0
LINE
8
BLACK
6
CONTINUOUS
10
13.3901
20
-1.68112
11
13.4052
21
-1.62613
0
LINE
8
BLACK
6
CONTINUOUS
10
13.4052
20
-1.62613
11
13.4149
21
-1.5698
0
LINE
8
BLACK
6
CONTINUOUS
10
13.4149
20
-1.5698
11
13.4189
21
-1.51257
0
LINE
8
BLACK
6
CONTINUOUS
10
13.4189
20
-1.51257
11
13.4171
21
-1.45487
0
LINE
8
BLACK
6
CONTINUOUS
10
13.4171
20
-1.45487
11
13.4094
21
-1.39712
0
LINE
8
BLACK
6
CONTINUOUS
10
13.4094
20
-1.39712
11
13.3956
21
-1.33977
0
LINE
8
BLACK
6
CONTINUOUS
10
13.3956
20
-1.33977
11
13.3756
21
-1.28323
0
LINE
8
BLACK
6
CONTINUOUS
10
13.3756
20
-1.28323
11
13.3585
21
-1.24573
0
LINE
8
BLACK
6
CONTINUOUS
10
13.3585
20
-1.24573
11
13.332
21
-1.19788
0
LINE
8
BLACK
6
CONTINUOUS
10
13.332
20
-1.19788
11
13.3026
21
-1.15476
0
LINE
8
BLACK
6
CONTINUOUS
10
13.3026
20
-1.15476
11
13.2688
21
-1.11464
0
LINE
8
BLACK
6
CONTINUOUS
10
13.2688
20
-1.11464
11
13.239
21
-1.0846
0
LINE
8
BLACK
6
CONTINUOUS
10
13.239
20
-1.0846
11
13.1925
21
-1.04495
0
LINE
8
BLACK
6
CONTINUOUS
10
13.1925
20
-1.04495
11
13.1434
21
-1.01117
0
LINE
8
BLACK
6
CONTINUOUS
10
13.1434
20
-1.01117
11
13.0922
21
-0.983184
0
LINE
8
BLACK
6
CONTINUOUS
10
13.0922
20
-0.983184
11
13.0391
21
-0.960922
0
LINE
8
BLACK
6
CONTINUOUS
10
13.0391
20
-0.960922
11
12.9848
21
-0.944308
0
LINE
8
BLACK
6
CONTINUOUS
10
12.9848
20
-0.944308
11
12.9295
21
-0.933268
0
LINE
8
BLACK
6
CONTINUOUS
10
12.9295
20
-0.933268
11
12.8738
21
-0.927727
0
LINE
8
BLACK
6
CONTINUOUS
10
12.8738
20
-0.927727
11
12.818
21
-0.92761
0
LINE
8
BLACK
6
CONTINUOUS
10
12.818
20
-0.92761
11
12.7626
21
-0.932843
0
LINE
8
BLACK
6
CONTINUOUS
10
12.7626
20
-0.932843
11
12.7079
21
-0.943351
0
LINE
8
BLACK
6
CONTINUOUS
10
12.7079
20
-0.943351
11
12.6545
21
-0.959061
0
LINE
8
BLACK
6
CONTINUOUS
10
12.6545
20
-0.959061
11
12.6027
21
-0.979896
0
LINE
8
BLACK
6
CONTINUOUS
10
12.6027
20
-0.979896
11
12.5529
21
-1.00578
0
LINE
8
BLACK
6
CONTINUOUS
10
12.5529
20
-1.00578
11
12.5056
21
-1.03665
0
LINE
8
BLACK
6
CONTINUOUS
10
12.5056
20
-1.03665
11
12.4611
21
-1.07241
0
LINE
8
BLACK
6
CONTINUOUS
10
12.4611
20
-1.07241
11
12.42
21
-1.11301
0
LINE
8
BLACK
6
CONTINUOUS
10
12.42
20
-1.11301
11
12.3826
21
-1.15836
0
LINE
8
BLACK
6
CONTINUOUS
10
12.3826
20
-1.15836
11
12.3494
21
-1.20838
0
LINE
8
BLACK
6
CONTINUOUS
10
12.3494
20
-1.20838
11
12.329
21
-1.24573
0
LINE
8
BLACK
6
CONTINUOUS
10
12.329
20
-1.24573
11
12.3047
21
-1.30151
0
LINE
8
BLACK
6
CONTINUOUS
10
12.3047
20
-1.30151
11
12.2867
21
-1.35866
0
LINE
8
BLACK
6
CONTINUOUS
10
12.2867
20
-1.35866
11
12.2749
21
-1.41673
0
LINE
8
BLACK
6
CONTINUOUS
10
12.2749
20
-1.41673
11
12.2693
21
-1.47523
0
LINE
8
BLACK
6
CONTINUOUS
10
12.2693
20
-1.47523
11
12.245
21
-1.47523
0
LINE
8
BLACK
6
CONTINUOUS
10
12.245
20
-1.47523
11
12.245
21
-1.47522
0
LINE
8
BLACK
6
CONTINUOUS
10
12.245
20
-1.47522
11
12.245
21
-1.47522
0
LINE
8
BLACK
6
CONTINUOUS
10
12.245
20
-1.47522
11
12.2453
21
-1.45856
0
LINE
8
BLACK
6
CONTINUOUS
10
12.2453
20
-1.45856
11
12.2453
21
-1.45855
0
LINE
8
BLACK
6
CONTINUOUS
10
12.2453
20
-1.45855
11
12.2453
21
-1.45854
0
LINE
8
BLACK
6
CONTINUOUS
10
12.2453
20
-1.45854
11
12.2528
21
-1.39801
0
LINE
8
BLACK
6
CONTINUOUS
10
12.2528
20
-1.39801
11
12.2528
21
-1.398
0
LINE
8
BLACK
6
CONTINUOUS
10
12.2528
20
-1.398
11
12.2528
21
-1.39799
0
LINE
8
BLACK
6
CONTINUOUS
10
12.2528
20
-1.39799
11
12.2664
21
-1.3384
0
LINE
8
BLACK
6
CONTINUOUS
10
12.2664
20
-1.3384
11
12.2664
21
-1.33839
0
LINE
8
BLACK
6
CONTINUOUS
10
12.2664
20
-1.33839
11
12.2664
21
-1.33838
0
LINE
8
BLACK
6
CONTINUOUS
10
12.2664
20
-1.33838
11
12.2861
21
-1.28019
0
LINE
8
BLACK
6
CONTINUOUS
10
12.2861
20
-1.28019
11
12.2861
21
-1.28018
0
LINE
8
BLACK
6
CONTINUOUS
10
12.2861
20
-1.28018
11
12.2861
21
-1.28017
0
LINE
8
BLACK
6
CONTINUOUS
10
12.2861
20
-1.28017
11
12.312
21
-1.22385
0
LINE
8
BLACK
6
CONTINUOUS
10
12.312
20
-1.22385
11
12.312
21
-1.22384
0
LINE
8
BLACK
6
CONTINUOUS
10
12.312
20
-1.22384
11
12.312
21
-1.22383
0
LINE
8
BLACK
6
CONTINUOUS
10
12.312
20
-1.22383
11
12.3438
21
-1.16983
0
LINE
8
BLACK
6
CONTINUOUS
10
12.3438
20
-1.16983
11
12.3438
21
-1.16983
0
LINE
8
BLACK
6
CONTINUOUS
10
12.3438
20
-1.16983
11
12.3438
21
-1.16982
0
LINE
8
BLACK
6
CONTINUOUS
10
12.3438
20
-1.16982
11
12.3531
21
-1.15625
0
LINE
8
BLACK
6
CONTINUOUS
10
12.3531
20
-1.15625
11
12.3531
21
-1.15625
0
LINE
8
BLACK
6
CONTINUOUS
10
12.3531
20
-1.15625
11
12.3531
21
-1.15624
0
LINE
8
BLACK
6
CONTINUOUS
10
12.3531
20
-1.15624
11
12.371
21
-1.13293
0
LINE
8
BLACK
6
CONTINUOUS
10
12.371
20
-1.13293
11
12.371
21
-1.13293
0
LINE
8
BLACK
6
CONTINUOUS
10
12.371
20
-1.13293
11
12.371
21
-1.13292
0
LINE
8
BLACK
6
CONTINUOUS
10
12.371
20
-1.13292
11
12.393
21
-1.10767
0
LINE
8
BLACK
6
CONTINUOUS
10
12.393
20
-1.10767
11
12.393
21
-1.10767
0
LINE
8
BLACK
6
CONTINUOUS
10
12.393
20
-1.10767
11
12.393
21
-1.10766
0
LINE
8
BLACK
6
CONTINUOUS
10
12.393
20
-1.10766
11
12.4177
21
-1.08183
0
LINE
8
BLACK
6
CONTINUOUS
10
12.4177
20
-1.08183
11
12.4177
21
-1.08183
0
LINE
8
BLACK
6
CONTINUOUS
10
12.4177
20
-1.08183
11
12.4177
21
-1.08183
0
LINE
8
BLACK
6
CONTINUOUS
10
12.4177
20
-1.08183
11
12.4438
21
-1.05677
0
LINE
8
BLACK
6
CONTINUOUS
10
12.4438
20
-1.05677
11
12.4438
21
-1.05677
0
LINE
8
BLACK
6
CONTINUOUS
10
12.4438
20
-1.05677
11
12.4438
21
-1.05677
0
LINE
8
BLACK
6
CONTINUOUS
10
12.4438
20
-1.05677
11
12.4698
21
-1.03385
0
LINE
8
BLACK
6
CONTINUOUS
10
12.4698
20
-1.03385
11
12.4698
21
-1.03385
0
LINE
8
BLACK
6
CONTINUOUS
10
12.4698
20
-1.03385
11
12.4698
21
-1.03384
0
LINE
8
BLACK
6
CONTINUOUS
10
12.4698
20
-1.03384
11
12.4944
21
-1.01442
0
LINE
8
BLACK
6
CONTINUOUS
10
12.4944
20
-1.01442
11
12.4944
21
-1.01442
0
LINE
8
BLACK
6
CONTINUOUS
10
12.4944
20
-1.01442
11
12.4944
21
-1.01441
0
LINE
8
BLACK
6
CONTINUOUS
10
12.4944
20
-1.01441
11
12.507
21
-1.0056
0
LINE
8
BLACK
6
CONTINUOUS
10
12.507
20
-1.0056
11
12.507
21
-1.00559
0
LINE
8
BLACK
6
CONTINUOUS
10
12.507
20
-1.00559
11
12.507
21
-1.00559
0
LINE
8
BLACK
6
CONTINUOUS
10
12.507
20
-1.00559
11
12.5633
21
-0.972247
0
LINE
8
BLACK
6
CONTINUOUS
10
12.5633
20
-0.972247
11
12.5633
21
-0.972244
0
LINE
8
BLACK
6
CONTINUOUS
10
12.5633
20
-0.972244
11
12.5633
21
-0.972238
0
LINE
8
BLACK
6
CONTINUOUS
10
12.5633
20
-0.972238
11
12.6219
21
-0.945093
0
LINE
8
BLACK
6
CONTINUOUS
10
12.6219
20
-0.945093
11
12.6219
21
-0.94509
0
LINE
8
BLACK
6
CONTINUOUS
10
12.6219
20
-0.94509
11
12.6219
21
-0.945085
0
LINE
8
BLACK
6
CONTINUOUS
10
12.6219
20
-0.945085
11
12.6828
21
-0.924202
0
LINE
8
BLACK
6
CONTINUOUS
10
12.6828
20
-0.924202
11
12.6828
21
-0.9242
0
LINE
8
BLACK
6
CONTINUOUS
10
12.6828
20
-0.9242
11
12.6828
21
-0.924196
0
LINE
8
BLACK
6
CONTINUOUS
10
12.6828
20
-0.924196
11
12.7309
21
-0.912463
0
LINE
8
BLACK
6
CONTINUOUS
10
12.7309
20
-0.912463
11
12.7309
21
-0.912463
0
LINE
8
BLACK
6
CONTINUOUS
10
12.7309
20
-0.912463
11
12.7309
21
-0.912461
0
LINE
8
BLACK
6
CONTINUOUS
10
12.7309
20
-0.912461
11
12.7446
21
-0.909853
0
LINE
8
BLACK
6
CONTINUOUS
10
12.7446
20
-0.909853
11
12.7446
21
-0.909853
0
LINE
8
BLACK
6
CONTINUOUS
10
12.7446
20
-0.909853
11
12.7446
21
-0.909852
0
LINE
8
BLACK
6
CONTINUOUS
10
12.7446
20
-0.909852
11
12.7573
21
-0.907902
0
LINE
8
BLACK
6
CONTINUOUS
10
12.7573
20
-0.907902
11
12.7573
21
-0.907902
0
LINE
8
BLACK
6
CONTINUOUS
10
12.7573
20
-0.907902
11
12.7573
21
-0.907901
0
LINE
8
BLACK
6
CONTINUOUS
10
12.7573
20
-0.907901
11
12.7703
21
-0.906516
0
LINE
8
BLACK
6
CONTINUOUS
10
12.7703
20
-0.906516
11
12.7703
21
-0.906516
0
LINE
8
BLACK
6
CONTINUOUS
10
12.7703
20
-0.906516
11
12.7703
21
-0.906515
0
LINE
8
BLACK
6
CONTINUOUS
10
12.7703
20
-0.906515
11
12.7849
21
-0.905605
0
LINE
8
BLACK
6
CONTINUOUS
10
12.7849
20
-0.905605
11
12.7849
21
-0.905606
0
LINE
8
BLACK
6
CONTINUOUS
10
12.7849
20
-0.905606
11
12.7849
21
-0.905605
0
LINE
8
BLACK
6
CONTINUOUS
10
12.7849
20
-0.905605
11
12.8026
21
-0.905078
0
LINE
8
BLACK
6
CONTINUOUS
10
12.8026
20
-0.905078
11
12.8026
21
-0.905078
0
LINE
8
BLACK
6
CONTINUOUS
10
12.8026
20
-0.905078
11
12.8026
21
-0.905078
0
LINE
8
BLACK
6
CONTINUOUS
10
12.8026
20
-0.905078
11
12.8247
21
-0.904843
0
LINE
8
BLACK
6
CONTINUOUS
10
12.8247
20
-0.904843
11
12.8247
21
-0.904843
0
LINE
8
BLACK
6
CONTINUOUS
10
12.8247
20
-0.904843
11
12.8247
21
-0.904843
0
LINE
8
BLACK
6
CONTINUOUS
10
12.8247
20
-0.904843
11
12.8437
21
-0.904803
0
LINE
8
BLACK
6
CONTINUOUS
10
12.8437
20
-0.904803
11
12.8438
21
-0.904803
0
LINE
8
BLACK
6
CONTINUOUS
10
12.8438
20
-0.904803
11
12.8438
21
-0.904803
0
LINE
8
BLACK
6
CONTINUOUS
10
12.8438
20
-0.904803
11
12.8697
21
-0.904886
  0
ENDSEC
  0
EOF
