  0
SECTION
  2
HEADER
  9
$ANGBASE
  50
0.0
  9
$ANGDIR
  70
1
  9
$MEASUREMENT
  70
1
  0
ENDSEC
  0
SECTION
  2
TABLES
  0
TABLE
  2
LTYPE
  70
4
  0
LTYPE
  5
40F
  2
CONTINUOUS
  70
0
  3
Solid line
  72
65
  73
0
  40
0.0
  0
LTYPE
  5
410
  2
DASHDOT
 70
0
  3
Dash Dot ____ _ ____ _
 72
65
 73
4
 40
2.0
 49
1.25
 49
-0.25
 49
0.25
 49
-0.25
  0
LTYPE
  5
411
  2
DASHED
 70
0
  3
Dashed __ __ __ __ __
 72
65
 73
2
 40
0.75
 49
0.5
 49
-0.25
  0
LTYPE
  5
43B
  2
DOTTED
 70
0
  3
Dotted .  .  .  .
 72
65
 73
2
 40
0.2
 49
0.0
 49
-0.2
  0
ENDTAB
  0
TABLE
  2
STYLE
  70
4
  0
STYLE
  2
KICAD
  70
0
  40
0
  41
1
  42
1
  50
0
  71
0
  3
isocp.shx
  0
STYLE
  2
KICADB
  70
0
  40
0
  41
1
  42
1
  50
0
  71
0
  3
isocp.shx
  0
STYLE
  2
KICADI
  70
0
  40
0
  41
1
  42
1
  50
15
  71
0
  3
isocp.shx
  0
STYLE
  2
KICADBI
  70
0
  40
0
  41
1
  42
1
  50
15
  71
0
  3
isocp.shx
  0
ENDTAB
  0
TABLE
  2
LAYER
  70
1
  0
LAYER
  2
BLACK
  70
0
  62
7
  6
CONTINUOUS
  0
ENDTAB
  0
ENDSEC
  0
SECTION
  2
ENTITIES
0
LINE
8
BLACK
6
CONTINUOUS
10
17.2826
20
-116.1
11
17.2826
21
-116.1
0
LINE
8
BLACK
6
CONTINUOUS
10
17.2826
20
-116.1
11
16.6999
21
-116.043
0
LINE
8
BLACK
6
CONTINUOUS
10
16.6999
20
-116.043
11
16.6999
21
-116.043
0
LINE
8
BLACK
6
CONTINUOUS
10
16.6999
20
-116.043
11
16.6999
21
-116.043
0
LINE
8
BLACK
6
CONTINUOUS
10
16.6999
20
-116.043
11
16.6992
21
-116.043
0
LINE
8
BLACK
6
CONTINUOUS
10
16.6992
20
-116.043
11
16.6948
21
-116.042
0
LINE
8
BLACK
6
CONTINUOUS
10
16.6948
20
-116.042
11
16.6903
21
-116.041
0
LINE
8
BLACK
6
CONTINUOUS
10
16.6903
20
-116.041
11
16.1298
21
-115.872
0
LINE
8
BLACK
6
CONTINUOUS
10
16.1298
20
-115.872
11
16.1298
21
-115.872
0
LINE
8
BLACK
6
CONTINUOUS
10
16.1298
20
-115.872
11
16.1298
21
-115.872
0
LINE
8
BLACK
6
CONTINUOUS
10
16.1298
20
-115.872
11
16.1292
21
-115.871
0
LINE
8
BLACK
6
CONTINUOUS
10
16.1292
20
-115.871
11
16.1251
21
-115.87
0
LINE
8
BLACK
6
CONTINUOUS
10
16.1251
20
-115.87
11
16.1208
21
-115.868
0
LINE
8
BLACK
6
CONTINUOUS
10
16.1208
20
-115.868
11
15.6039
21
-115.593
0
LINE
8
BLACK
6
CONTINUOUS
10
15.6039
20
-115.593
11
15.6038
21
-115.593
0
LINE
8
BLACK
6
CONTINUOUS
10
15.6038
20
-115.593
11
15.6032
21
-115.593
0
LINE
8
BLACK
6
CONTINUOUS
10
15.6032
20
-115.593
11
15.5995
21
-115.59
0
LINE
8
BLACK
6
CONTINUOUS
10
15.5995
20
-115.59
11
15.5957
21
-115.588
0
LINE
8
BLACK
6
CONTINUOUS
10
15.5957
20
-115.588
11
15.142
21
-115.217
0
LINE
8
BLACK
6
CONTINUOUS
10
15.142
20
-115.217
11
15.142
21
-115.217
0
LINE
8
BLACK
6
CONTINUOUS
10
15.142
20
-115.217
11
15.142
21
-115.217
0
LINE
8
BLACK
6
CONTINUOUS
10
15.142
20
-115.217
11
15.1415
21
-115.217
0
LINE
8
BLACK
6
CONTINUOUS
10
15.1415
20
-115.217
11
15.1383
21
-115.214
0
LINE
8
BLACK
6
CONTINUOUS
10
15.1383
20
-115.214
11
15.1351
21
-115.211
0
LINE
8
BLACK
6
CONTINUOUS
10
15.1351
20
-115.211
11
14.7619
21
-114.759
0
LINE
8
BLACK
6
CONTINUOUS
10
14.7619
20
-114.759
11
14.7614
21
-114.759
0
LINE
8
BLACK
6
CONTINUOUS
10
14.7614
20
-114.759
11
14.7589
21
-114.755
0
LINE
8
BLACK
6
CONTINUOUS
10
14.7589
20
-114.755
11
14.7564
21
-114.751
0
LINE
8
BLACK
6
CONTINUOUS
10
14.7564
20
-114.751
11
14.4779
21
-114.236
0
LINE
8
BLACK
6
CONTINUOUS
10
14.4779
20
-114.236
11
14.4779
21
-114.236
0
LINE
8
BLACK
6
CONTINUOUS
10
14.4779
20
-114.236
11
14.4779
21
-114.236
0
LINE
8
BLACK
6
CONTINUOUS
10
14.4779
20
-114.236
11
14.4776
21
-114.236
0
LINE
8
BLACK
6
CONTINUOUS
10
14.4776
20
-114.236
11
14.4759
21
-114.232
0
LINE
8
BLACK
6
CONTINUOUS
10
14.4759
20
-114.232
11
14.4741
21
-114.227
0
LINE
8
BLACK
6
CONTINUOUS
10
14.4741
20
-114.227
11
14.301
21
-113.668
0
LINE
8
BLACK
6
CONTINUOUS
10
14.301
20
-113.668
11
14.3008
21
-113.667
0
LINE
8
BLACK
6
CONTINUOUS
10
14.3008
20
-113.667
11
14.3
21
-113.663
0
LINE
8
BLACK
6
CONTINUOUS
10
14.3
20
-113.663
11
14.299
21
-113.658
0
LINE
8
BLACK
6
CONTINUOUS
10
14.299
20
-113.658
11
14.2378
21
-113.076
0
LINE
8
BLACK
6
CONTINUOUS
10
14.2378
20
-113.076
11
14.2378
21
-113.075
0
LINE
8
BLACK
6
CONTINUOUS
10
14.2378
20
-113.075
11
14.2378
21
-113.073
0
LINE
8
BLACK
6
CONTINUOUS
10
14.2378
20
-113.073
11
14.2376
21
-113.071
0
LINE
8
BLACK
6
CONTINUOUS
10
14.2376
20
-113.071
11
14.2375
21
-113.053
0
LINE
8
BLACK
6
CONTINUOUS
10
14.2375
20
-113.053
11
14.2375
21
-113.052
0
LINE
8
BLACK
6
CONTINUOUS
10
14.2375
20
-113.052
11
14.2375
21
-20.2476
0
LINE
8
BLACK
6
CONTINUOUS
10
14.2375
20
-20.2476
11
14.2377
21
-20.2451
0
LINE
8
BLACK
6
CONTINUOUS
10
14.2377
20
-20.2451
11
14.2377
21
-20.2451
0
LINE
8
BLACK
6
CONTINUOUS
10
14.2377
20
-20.2451
11
14.2949
21
-19.6624
0
LINE
8
BLACK
6
CONTINUOUS
10
14.2949
20
-19.6624
11
14.2949
21
-19.6624
0
LINE
8
BLACK
6
CONTINUOUS
10
14.2949
20
-19.6624
11
14.2949
21
-19.6624
0
LINE
8
BLACK
6
CONTINUOUS
10
14.2949
20
-19.6624
11
14.2949
21
-19.6617
0
LINE
8
BLACK
6
CONTINUOUS
10
14.2949
20
-19.6617
11
14.2959
21
-19.6573
0
LINE
8
BLACK
6
CONTINUOUS
10
14.2959
20
-19.6573
11
14.2968
21
-19.6528
0
LINE
8
BLACK
6
CONTINUOUS
10
14.2968
20
-19.6528
11
14.466
21
-19.0923
0
LINE
8
BLACK
6
CONTINUOUS
10
14.466
20
-19.0923
11
14.4662
21
-19.0917
0
LINE
8
BLACK
6
CONTINUOUS
10
14.4662
20
-19.0917
11
14.468
21
-19.0875
0
LINE
8
BLACK
6
CONTINUOUS
10
14.468
20
-19.0875
11
14.4697
21
-19.0833
0
LINE
8
BLACK
6
CONTINUOUS
10
14.4697
20
-19.0833
11
14.7446
21
-18.5664
0
LINE
8
BLACK
6
CONTINUOUS
10
14.7446
20
-18.5664
11
14.7446
21
-18.5664
0
LINE
8
BLACK
6
CONTINUOUS
10
14.7446
20
-18.5664
11
14.7446
21
-18.5663
0
LINE
8
BLACK
6
CONTINUOUS
10
14.7446
20
-18.5663
11
14.7449
21
-18.5657
0
LINE
8
BLACK
6
CONTINUOUS
10
14.7449
20
-18.5657
11
14.7475
21
-18.562
0
LINE
8
BLACK
6
CONTINUOUS
10
14.7475
20
-18.562
11
14.75
21
-18.5582
0
LINE
8
BLACK
6
CONTINUOUS
10
14.75
20
-18.5582
11
15.12
21
-18.1045
0
LINE
8
BLACK
6
CONTINUOUS
10
15.12
20
-18.1045
11
15.1205
21
-18.104
0
LINE
8
BLACK
6
CONTINUOUS
10
15.1205
20
-18.104
11
15.1237
21
-18.1008
0
LINE
8
BLACK
6
CONTINUOUS
10
15.1237
20
-18.1008
11
15.1269
21
-18.0976
0
LINE
8
BLACK
6
CONTINUOUS
10
15.1269
20
-18.0976
11
15.578
21
-17.7244
0
LINE
8
BLACK
6
CONTINUOUS
10
15.578
20
-17.7244
11
15.578
21
-17.7244
0
LINE
8
BLACK
6
CONTINUOUS
10
15.578
20
-17.7244
11
15.5781
21
-17.7244
0
LINE
8
BLACK
6
CONTINUOUS
10
15.5781
20
-17.7244
11
15.5786
21
-17.7239
0
LINE
8
BLACK
6
CONTINUOUS
10
15.5786
20
-17.7239
11
15.5824
21
-17.7215
0
LINE
8
BLACK
6
CONTINUOUS
10
15.5824
20
-17.7215
11
15.5861
21
-17.7189
0
LINE
8
BLACK
6
CONTINUOUS
10
15.5861
20
-17.7189
11
16.1012
21
-17.4404
0
LINE
8
BLACK
6
CONTINUOUS
10
16.1012
20
-17.4404
11
16.1012
21
-17.4404
0
LINE
8
BLACK
6
CONTINUOUS
10
16.1012
20
-17.4404
11
16.1012
21
-17.4404
0
LINE
8
BLACK
6
CONTINUOUS
10
16.1012
20
-17.4404
11
16.1018
21
-17.4401
0
LINE
8
BLACK
6
CONTINUOUS
10
16.1018
20
-17.4401
11
16.106
21
-17.4384
0
LINE
8
BLACK
6
CONTINUOUS
10
16.106
20
-17.4384
11
16.1102
21
-17.4366
0
LINE
8
BLACK
6
CONTINUOUS
10
16.1102
20
-17.4366
11
16.6695
21
-17.2635
0
LINE
8
BLACK
6
CONTINUOUS
10
16.6695
20
-17.2635
11
16.6695
21
-17.2635
0
LINE
8
BLACK
6
CONTINUOUS
10
16.6695
20
-17.2635
11
16.6701
21
-17.2633
0
LINE
8
BLACK
6
CONTINUOUS
10
16.6701
20
-17.2633
11
16.6746
21
-17.2625
0
LINE
8
BLACK
6
CONTINUOUS
10
16.6746
20
-17.2625
11
16.679
21
-17.2615
0
LINE
8
BLACK
6
CONTINUOUS
10
16.679
20
-17.2615
11
17.2613
21
-17.2003
0
LINE
8
BLACK
6
CONTINUOUS
10
17.2613
20
-17.2003
11
17.262
21
-17.2003
0
LINE
8
BLACK
6
CONTINUOUS
10
17.262
20
-17.2003
11
17.2642
21
-17.2003
0
LINE
8
BLACK
6
CONTINUOUS
10
17.2642
20
-17.2003
11
17.2664
21
-17.2001
0
LINE
8
BLACK
6
CONTINUOUS
10
17.2664
20
-17.2001
11
17.285
21
-17.2
0
LINE
8
BLACK
6
CONTINUOUS
10
17.285
20
-17.2
11
17.2851
21
-17.2
0
LINE
8
BLACK
6
CONTINUOUS
10
17.2851
20
-17.2
11
351.821
21
-17.2
0
LINE
8
BLACK
6
CONTINUOUS
10
351.821
20
-17.2
11
351.824
21
-17.2002
0
LINE
8
BLACK
6
CONTINUOUS
10
351.824
20
-17.2002
11
351.824
21
-17.2002
0
LINE
8
BLACK
6
CONTINUOUS
10
351.824
20
-17.2002
11
352.406
21
-17.2574
0
LINE
8
BLACK
6
CONTINUOUS
10
352.406
20
-17.2574
11
352.406
21
-17.2574
0
LINE
8
BLACK
6
CONTINUOUS
10
352.406
20
-17.2574
11
352.406
21
-17.2574
0
LINE
8
BLACK
6
CONTINUOUS
10
352.406
20
-17.2574
11
352.407
21
-17.2574
0
LINE
8
BLACK
6
CONTINUOUS
10
352.407
20
-17.2574
11
352.411
21
-17.2584
0
LINE
8
BLACK
6
CONTINUOUS
10
352.411
20
-17.2584
11
352.416
21
-17.2593
0
LINE
8
BLACK
6
CONTINUOUS
10
352.416
20
-17.2593
11
352.976
21
-17.4285
0
LINE
8
BLACK
6
CONTINUOUS
10
352.976
20
-17.4285
11
352.977
21
-17.4287
0
LINE
8
BLACK
6
CONTINUOUS
10
352.977
20
-17.4287
11
352.981
21
-17.4305
0
LINE
8
BLACK
6
CONTINUOUS
10
352.981
20
-17.4305
11
352.985
21
-17.4322
0
LINE
8
BLACK
6
CONTINUOUS
10
352.985
20
-17.4322
11
353.502
21
-17.7071
0
LINE
8
BLACK
6
CONTINUOUS
10
353.502
20
-17.7071
11
353.502
21
-17.7071
0
LINE
8
BLACK
6
CONTINUOUS
10
353.502
20
-17.7071
11
353.502
21
-17.7071
0
LINE
8
BLACK
6
CONTINUOUS
10
353.502
20
-17.7071
11
353.503
21
-17.7074
0
LINE
8
BLACK
6
CONTINUOUS
10
353.503
20
-17.7074
11
353.507
21
-17.71
0
LINE
8
BLACK
6
CONTINUOUS
10
353.507
20
-17.71
11
353.511
21
-17.7125
0
LINE
8
BLACK
6
CONTINUOUS
10
353.511
20
-17.7125
11
353.964
21
-18.0825
0
LINE
8
BLACK
6
CONTINUOUS
10
353.964
20
-18.0825
11
353.965
21
-18.083
0
LINE
8
BLACK
6
CONTINUOUS
10
353.965
20
-18.083
11
353.968
21
-18.0862
0
LINE
8
BLACK
6
CONTINUOUS
10
353.968
20
-18.0862
11
353.971
21
-18.0894
0
LINE
8
BLACK
6
CONTINUOUS
10
353.971
20
-18.0894
11
354.344
21
-18.5405
0
LINE
8
BLACK
6
CONTINUOUS
10
354.344
20
-18.5405
11
354.344
21
-18.5405
0
LINE
8
BLACK
6
CONTINUOUS
10
354.344
20
-18.5405
11
354.344
21
-18.5406
0
LINE
8
BLACK
6
CONTINUOUS
10
354.344
20
-18.5406
11
354.345
21
-18.5411
0
LINE
8
BLACK
6
CONTINUOUS
10
354.345
20
-18.5411
11
354.347
21
-18.5449
0
LINE
8
BLACK
6
CONTINUOUS
10
354.347
20
-18.5449
11
354.35
21
-18.5486
0
LINE
8
BLACK
6
CONTINUOUS
10
354.35
20
-18.5486
11
354.628
21
-19.0637
0
LINE
8
BLACK
6
CONTINUOUS
10
354.628
20
-19.0637
11
354.628
21
-19.0637
0
LINE
8
BLACK
6
CONTINUOUS
10
354.628
20
-19.0637
11
354.628
21
-19.0637
0
LINE
8
BLACK
6
CONTINUOUS
10
354.628
20
-19.0637
11
354.629
21
-19.0643
0
LINE
8
BLACK
6
CONTINUOUS
10
354.629
20
-19.0643
11
354.63
21
-19.0685
0
LINE
8
BLACK
6
CONTINUOUS
10
354.63
20
-19.0685
11
354.632
21
-19.0727
0
LINE
8
BLACK
6
CONTINUOUS
10
354.632
20
-19.0727
11
354.805
21
-19.632
0
LINE
8
BLACK
6
CONTINUOUS
10
354.805
20
-19.632
11
354.805
21
-19.6326
0
LINE
8
BLACK
6
CONTINUOUS
10
354.805
20
-19.6326
11
354.806
21
-19.6371
0
LINE
8
BLACK
6
CONTINUOUS
10
354.806
20
-19.6371
11
354.807
21
-19.6415
0
LINE
8
BLACK
6
CONTINUOUS
10
354.807
20
-19.6415
11
354.868
21
-20.2238
0
LINE
8
BLACK
6
CONTINUOUS
10
354.868
20
-20.2238
11
354.868
21
-20.2245
0
LINE
8
BLACK
6
CONTINUOUS
10
354.868
20
-20.2245
11
354.868
21
-20.2267
0
LINE
8
BLACK
6
CONTINUOUS
10
354.868
20
-20.2267
11
354.869
21
-20.2289
0
LINE
8
BLACK
6
CONTINUOUS
10
354.869
20
-20.2289
11
354.869
21
-20.2475
0
LINE
8
BLACK
6
CONTINUOUS
10
354.869
20
-20.2475
11
354.869
21
-20.2476
0
LINE
8
BLACK
6
CONTINUOUS
10
354.869
20
-20.2476
11
354.869
21
-113.052
0
LINE
8
BLACK
6
CONTINUOUS
10
354.869
20
-113.052
11
354.869
21
-113.055
0
LINE
8
BLACK
6
CONTINUOUS
10
354.869
20
-113.055
11
354.869
21
-113.055
0
LINE
8
BLACK
6
CONTINUOUS
10
354.869
20
-113.055
11
354.811
21
-113.638
0
LINE
8
BLACK
6
CONTINUOUS
10
354.811
20
-113.638
11
354.811
21
-113.638
0
LINE
8
BLACK
6
CONTINUOUS
10
354.811
20
-113.638
11
354.811
21
-113.638
0
LINE
8
BLACK
6
CONTINUOUS
10
354.811
20
-113.638
11
354.811
21
-113.638
0
LINE
8
BLACK
6
CONTINUOUS
10
354.811
20
-113.638
11
354.81
21
-113.643
0
LINE
8
BLACK
6
CONTINUOUS
10
354.81
20
-113.643
11
354.809
21
-113.647
0
LINE
8
BLACK
6
CONTINUOUS
10
354.809
20
-113.647
11
354.64
21
-114.208
0
LINE
8
BLACK
6
CONTINUOUS
10
354.64
20
-114.208
11
354.64
21
-114.208
0
LINE
8
BLACK
6
CONTINUOUS
10
354.64
20
-114.208
11
354.64
21
-114.208
0
LINE
8
BLACK
6
CONTINUOUS
10
354.64
20
-114.208
11
354.64
21
-114.208
0
LINE
8
BLACK
6
CONTINUOUS
10
354.64
20
-114.208
11
354.638
21
-114.212
0
LINE
8
BLACK
6
CONTINUOUS
10
354.638
20
-114.212
11
354.637
21
-114.217
0
LINE
8
BLACK
6
CONTINUOUS
10
354.637
20
-114.217
11
354.362
21
-114.734
0
LINE
8
BLACK
6
CONTINUOUS
10
354.362
20
-114.734
11
354.361
21
-114.734
0
LINE
8
BLACK
6
CONTINUOUS
10
354.361
20
-114.734
11
354.359
21
-114.738
0
LINE
8
BLACK
6
CONTINUOUS
10
354.359
20
-114.738
11
354.356
21
-114.742
0
LINE
8
BLACK
6
CONTINUOUS
10
354.356
20
-114.742
11
353.986
21
-115.195
0
LINE
8
BLACK
6
CONTINUOUS
10
353.986
20
-115.195
11
353.986
21
-115.196
0
LINE
8
BLACK
6
CONTINUOUS
10
353.986
20
-115.196
11
353.986
21
-115.196
0
LINE
8
BLACK
6
CONTINUOUS
10
353.986
20
-115.196
11
353.986
21
-115.196
0
LINE
8
BLACK
6
CONTINUOUS
10
353.986
20
-115.196
11
353.983
21
-115.199
0
LINE
8
BLACK
6
CONTINUOUS
10
353.983
20
-115.199
11
353.979
21
-115.202
0
LINE
8
BLACK
6
CONTINUOUS
10
353.979
20
-115.202
11
353.528
21
-115.576
0
LINE
8
BLACK
6
CONTINUOUS
10
353.528
20
-115.576
11
353.528
21
-115.576
0
LINE
8
BLACK
6
CONTINUOUS
10
353.528
20
-115.576
11
353.524
21
-115.579
0
LINE
8
BLACK
6
CONTINUOUS
10
353.524
20
-115.579
11
353.52
21
-115.581
0
LINE
8
BLACK
6
CONTINUOUS
10
353.52
20
-115.581
11
353.005
21
-115.86
0
LINE
8
BLACK
6
CONTINUOUS
10
353.005
20
-115.86
11
353.005
21
-115.86
0
LINE
8
BLACK
6
CONTINUOUS
10
353.005
20
-115.86
11
353.005
21
-115.86
0
LINE
8
BLACK
6
CONTINUOUS
10
353.005
20
-115.86
11
353.004
21
-115.86
0
LINE
8
BLACK
6
CONTINUOUS
10
353.004
20
-115.86
11
353
21
-115.862
0
LINE
8
BLACK
6
CONTINUOUS
10
353
20
-115.862
11
352.996
21
-115.863
0
LINE
8
BLACK
6
CONTINUOUS
10
352.996
20
-115.863
11
352.437
21
-116.036
0
LINE
8
BLACK
6
CONTINUOUS
10
352.437
20
-116.036
11
352.436
21
-116.037
0
LINE
8
BLACK
6
CONTINUOUS
10
352.436
20
-116.037
11
352.432
21
-116.038
0
LINE
8
BLACK
6
CONTINUOUS
10
352.432
20
-116.038
11
352.427
21
-116.038
0
LINE
8
BLACK
6
CONTINUOUS
10
352.427
20
-116.038
11
351.845
21
-116.1
0
LINE
8
BLACK
6
CONTINUOUS
10
351.845
20
-116.1
11
351.844
21
-116.1
0
LINE
8
BLACK
6
CONTINUOUS
10
351.844
20
-116.1
11
351.842
21
-116.1
0
LINE
8
BLACK
6
CONTINUOUS
10
351.842
20
-116.1
11
351.84
21
-116.1
0
LINE
8
BLACK
6
CONTINUOUS
10
351.84
20
-116.1
11
351.821
21
-116.1
0
LINE
8
BLACK
6
CONTINUOUS
10
351.821
20
-116.1
11
351.821
21
-116.1
0
LINE
8
BLACK
6
CONTINUOUS
10
351.821
20
-116.1
11
17.2851
21
-116.1
0
LINE
8
BLACK
6
CONTINUOUS
10
17.2851
20
-116.1
11
17.2826
21
-116.1
0
LINE
8
BLACK
6
CONTINUOUS
10
17.2877
20
-17.3
11
17.2693
21
-17.3001
0
LINE
8
BLACK
6
CONTINUOUS
10
17.2693
20
-17.3001
11
16.6944
21
-17.3605
0
LINE
8
BLACK
6
CONTINUOUS
10
16.6944
20
-17.3605
11
16.1444
21
-17.5307
0
LINE
8
BLACK
6
CONTINUOUS
10
16.1444
20
-17.5307
11
15.638
21
-17.8045
0
LINE
8
BLACK
6
CONTINUOUS
10
15.638
20
-17.8045
11
15.1944
21
-18.1715
0
LINE
8
BLACK
6
CONTINUOUS
10
15.1944
20
-18.1715
11
14.8306
21
-18.6176
0
LINE
8
BLACK
6
CONTINUOUS
10
14.8306
20
-18.6176
11
14.5603
21
-19.1259
0
LINE
8
BLACK
6
CONTINUOUS
10
14.5603
20
-19.1259
11
14.3939
21
-19.6771
0
LINE
8
BLACK
6
CONTINUOUS
10
14.3939
20
-19.6771
11
14.3375
21
-20.2524
0
LINE
8
BLACK
6
CONTINUOUS
10
14.3375
20
-20.2524
11
14.3375
21
-113.05
0
LINE
8
BLACK
6
CONTINUOUS
10
14.3375
20
-113.05
11
14.3376
21
-113.068
0
LINE
8
BLACK
6
CONTINUOUS
10
14.3376
20
-113.068
11
14.398
21
-113.643
0
LINE
8
BLACK
6
CONTINUOUS
10
14.398
20
-113.643
11
14.5682
21
-114.193
0
LINE
8
BLACK
6
CONTINUOUS
10
14.5682
20
-114.193
11
14.842
21
-114.699
0
LINE
8
BLACK
6
CONTINUOUS
10
14.842
20
-114.699
11
15.209
21
-115.143
0
LINE
8
BLACK
6
CONTINUOUS
10
15.209
20
-115.143
11
15.6551
21
-115.507
0
LINE
8
BLACK
6
CONTINUOUS
10
15.6551
20
-115.507
11
16.1634
21
-115.777
0
LINE
8
BLACK
6
CONTINUOUS
10
16.1634
20
-115.777
11
16.7146
21
-115.944
0
LINE
8
BLACK
6
CONTINUOUS
10
16.7146
20
-115.944
11
17.2899
21
-116
0
LINE
8
BLACK
6
CONTINUOUS
10
17.2899
20
-116
11
351.819
21
-116
0
LINE
8
BLACK
6
CONTINUOUS
10
351.819
20
-116
11
351.837
21
-116
0
LINE
8
BLACK
6
CONTINUOUS
10
351.837
20
-116
11
352.412
21
-115.94
0
LINE
8
BLACK
6
CONTINUOUS
10
352.412
20
-115.94
11
352.962
21
-115.769
0
LINE
8
BLACK
6
CONTINUOUS
10
352.962
20
-115.769
11
353.468
21
-115.495
0
LINE
8
BLACK
6
CONTINUOUS
10
353.468
20
-115.495
11
353.912
21
-115.128
0
LINE
8
BLACK
6
CONTINUOUS
10
353.912
20
-115.128
11
354.276
21
-114.682
0
LINE
8
BLACK
6
CONTINUOUS
10
354.276
20
-114.682
11
354.546
21
-114.174
0
LINE
8
BLACK
6
CONTINUOUS
10
354.546
20
-114.174
11
354.712
21
-113.623
0
LINE
8
BLACK
6
CONTINUOUS
10
354.712
20
-113.623
11
354.769
21
-113.048
0
LINE
8
BLACK
6
CONTINUOUS
10
354.769
20
-113.048
11
354.769
21
-20.2502
0
LINE
8
BLACK
6
CONTINUOUS
10
354.769
20
-20.2502
11
354.769
21
-20.2318
0
LINE
8
BLACK
6
CONTINUOUS
10
354.769
20
-20.2318
11
354.708
21
-19.6569
0
LINE
8
BLACK
6
CONTINUOUS
10
354.708
20
-19.6569
11
354.538
21
-19.1069
0
LINE
8
BLACK
6
CONTINUOUS
10
354.538
20
-19.1069
11
354.264
21
-18.6005
0
LINE
8
BLACK
6
CONTINUOUS
10
354.264
20
-18.6005
11
353.897
21
-18.1569
0
LINE
8
BLACK
6
CONTINUOUS
10
353.897
20
-18.1569
11
353.451
21
-17.7931
0
LINE
8
BLACK
6
CONTINUOUS
10
353.451
20
-17.7931
11
352.943
21
-17.5228
0
LINE
8
BLACK
6
CONTINUOUS
10
352.943
20
-17.5228
11
352.392
21
-17.3564
0
LINE
8
BLACK
6
CONTINUOUS
10
352.392
20
-17.3564
11
351.816
21
-17.3
0
LINE
8
BLACK
6
CONTINUOUS
10
351.816
20
-17.3
11
17.2877
21
-17.3
0
LINE
8
BLACK
6
CONTINUOUS
10
35.7188
20
-52.3373
11
35.7212
21
-52.3375
0
LINE
8
BLACK
6
CONTINUOUS
10
35.7212
20
-52.3375
11
35.7286
21
-52.3382
0
LINE
8
BLACK
6
CONTINUOUS
10
35.7286
20
-52.3382
11
35.738
21
-52.3411
0
LINE
8
BLACK
6
CONTINUOUS
10
35.738
20
-52.3411
11
35.7467
21
-52.3457
0
LINE
8
BLACK
6
CONTINUOUS
10
35.7467
20
-52.3457
11
35.7543
21
-52.352
0
LINE
8
BLACK
6
CONTINUOUS
10
35.7543
20
-52.352
11
35.7605
21
-52.3596
0
LINE
8
BLACK
6
CONTINUOUS
10
35.7605
20
-52.3596
11
35.7652
21
-52.3683
0
LINE
8
BLACK
6
CONTINUOUS
10
35.7652
20
-52.3683
11
35.768
21
-52.3777
0
LINE
8
BLACK
6
CONTINUOUS
10
35.768
20
-52.3777
11
35.769
21
-52.3875
0
LINE
8
BLACK
6
CONTINUOUS
10
35.769
20
-52.3875
11
35.7687
21
-52.3899
0
LINE
8
BLACK
6
CONTINUOUS
10
35.7687
20
-52.3899
11
35.7687
21
-61.9101
0
LINE
8
BLACK
6
CONTINUOUS
10
35.7687
20
-61.9101
11
35.769
21
-61.9125
0
LINE
8
BLACK
6
CONTINUOUS
10
35.769
20
-61.9125
11
35.7687
21
-61.9149
0
LINE
8
BLACK
6
CONTINUOUS
10
35.7687
20
-61.9149
11
35.7687
21
-61.9149
0
LINE
8
BLACK
6
CONTINUOUS
10
35.7687
20
-61.9149
11
35.768
21
-61.9223
0
LINE
8
BLACK
6
CONTINUOUS
10
35.768
20
-61.9223
11
35.7652
21
-61.9317
0
LINE
8
BLACK
6
CONTINUOUS
10
35.7652
20
-61.9317
11
35.7605
21
-61.9404
0
LINE
8
BLACK
6
CONTINUOUS
10
35.7605
20
-61.9404
11
35.7543
21
-61.948
0
LINE
8
BLACK
6
CONTINUOUS
10
35.7543
20
-61.948
11
35.7467
21
-61.9543
0
LINE
8
BLACK
6
CONTINUOUS
10
35.7467
20
-61.9543
11
35.738
21
-61.9589
0
LINE
8
BLACK
6
CONTINUOUS
10
35.738
20
-61.9589
11
35.7286
21
-61.9618
0
LINE
8
BLACK
6
CONTINUOUS
10
35.7286
20
-61.9618
11
35.7188
21
-61.9627
0
LINE
8
BLACK
6
CONTINUOUS
10
35.7188
20
-61.9627
11
35.7163
21
-61.9625
0
LINE
8
BLACK
6
CONTINUOUS
10
35.7163
20
-61.9625
11
21.4337
21
-61.9625
0
LINE
8
BLACK
6
CONTINUOUS
10
21.4337
20
-61.9625
11
21.4312
21
-61.9627
0
LINE
8
BLACK
6
CONTINUOUS
10
21.4312
20
-61.9627
11
21.4214
21
-61.9618
0
LINE
8
BLACK
6
CONTINUOUS
10
21.4214
20
-61.9618
11
21.412
21
-61.9589
0
LINE
8
BLACK
6
CONTINUOUS
10
21.412
20
-61.9589
11
21.4033
21
-61.9543
0
LINE
8
BLACK
6
CONTINUOUS
10
21.4033
20
-61.9543
11
21.3957
21
-61.948
0
LINE
8
BLACK
6
CONTINUOUS
10
21.3957
20
-61.948
11
21.3895
21
-61.9404
0
LINE
8
BLACK
6
CONTINUOUS
10
21.3895
20
-61.9404
11
21.3848
21
-61.9317
0
LINE
8
BLACK
6
CONTINUOUS
10
21.3848
20
-61.9317
11
21.382
21
-61.9223
0
LINE
8
BLACK
6
CONTINUOUS
10
21.382
20
-61.9223
11
21.381
21
-61.9125
0
LINE
8
BLACK
6
CONTINUOUS
10
21.381
20
-61.9125
11
21.3812
21
-61.9101
0
LINE
8
BLACK
6
CONTINUOUS
10
21.3812
20
-61.9101
11
21.3813
21
-52.39
0
LINE
8
BLACK
6
CONTINUOUS
10
21.3813
20
-52.39
11
21.381
21
-52.3875
0
LINE
8
BLACK
6
CONTINUOUS
10
21.381
20
-52.3875
11
21.382
21
-52.3777
0
LINE
8
BLACK
6
CONTINUOUS
10
21.382
20
-52.3777
11
21.3848
21
-52.3683
0
LINE
8
BLACK
6
CONTINUOUS
10
21.3848
20
-52.3683
11
21.3895
21
-52.3596
0
LINE
8
BLACK
6
CONTINUOUS
10
21.3895
20
-52.3596
11
21.3957
21
-52.352
0
LINE
8
BLACK
6
CONTINUOUS
10
21.3957
20
-52.352
11
21.4033
21
-52.3457
0
LINE
8
BLACK
6
CONTINUOUS
10
21.4033
20
-52.3457
11
21.412
21
-52.3411
0
LINE
8
BLACK
6
CONTINUOUS
10
21.412
20
-52.3411
11
21.4214
21
-52.3382
0
LINE
8
BLACK
6
CONTINUOUS
10
21.4214
20
-52.3382
11
21.4288
21
-52.3375
0
LINE
8
BLACK
6
CONTINUOUS
10
21.4288
20
-52.3375
11
21.4312
21
-52.3373
0
LINE
8
BLACK
6
CONTINUOUS
10
21.4312
20
-52.3373
11
21.4337
21
-52.3375
0
LINE
8
BLACK
6
CONTINUOUS
10
21.4337
20
-52.3375
11
35.7163
21
-52.3375
0
LINE
8
BLACK
6
CONTINUOUS
10
35.7163
20
-52.3375
11
35.7188
21
-52.3373
0
LINE
8
BLACK
6
CONTINUOUS
10
21.4812
20
-61.8625
11
35.6688
21
-61.8625
0
LINE
8
BLACK
6
CONTINUOUS
10
35.6688
20
-61.8625
11
35.6687
21
-52.4375
0
LINE
8
BLACK
6
CONTINUOUS
10
35.6687
20
-52.4375
11
21.4812
21
-52.4375
0
LINE
8
BLACK
6
CONTINUOUS
10
21.4812
20
-52.4375
11
21.4812
21
-61.8625
0
LINE
8
BLACK
6
CONTINUOUS
10
15.5922
20
-111.592
11
15.6766
21
-111.389
0
LINE
8
BLACK
6
CONTINUOUS
10
15.6766
20
-111.389
11
15.7991
21
-111.205
0
LINE
8
BLACK
6
CONTINUOUS
10
15.7991
20
-111.205
11
15.9551
21
-111.049
0
LINE
8
BLACK
6
CONTINUOUS
10
15.9551
20
-111.049
11
16.1384
21
-110.927
0
LINE
8
BLACK
6
CONTINUOUS
10
16.1384
20
-110.927
11
16.3422
21
-110.842
0
LINE
8
BLACK
6
CONTINUOUS
10
16.3422
20
-110.842
11
16.5585
21
-110.799
0
LINE
8
BLACK
6
CONTINUOUS
10
16.5585
20
-110.799
11
16.779
21
-110.799
0
LINE
8
BLACK
6
CONTINUOUS
10
16.779
20
-110.799
11
16.9953
21
-110.842
0
LINE
8
BLACK
6
CONTINUOUS
10
16.9953
20
-110.842
11
17.1991
21
-110.927
0
LINE
8
BLACK
6
CONTINUOUS
10
17.1991
20
-110.927
11
17.3824
21
-111.049
0
LINE
8
BLACK
6
CONTINUOUS
10
17.3824
20
-111.049
11
17.5384
21
-111.205
0
LINE
8
BLACK
6
CONTINUOUS
10
17.5384
20
-111.205
11
17.6609
21
-111.389
0
LINE
8
BLACK
6
CONTINUOUS
10
17.6609
20
-111.389
11
17.7453
21
-111.592
0
LINE
8
BLACK
6
CONTINUOUS
10
17.7453
20
-111.592
11
17.7883
21
-111.809
0
LINE
8
BLACK
6
CONTINUOUS
10
17.7883
20
-111.809
11
17.7883
21
-112.029
0
LINE
8
BLACK
6
CONTINUOUS
10
17.7883
20
-112.029
11
17.7453
21
-112.246
0
LINE
8
BLACK
6
CONTINUOUS
10
17.7453
20
-112.246
11
17.6609
21
-112.449
0
LINE
8
BLACK
6
CONTINUOUS
10
17.6609
20
-112.449
11
17.5384
21
-112.633
0
LINE
8
BLACK
6
CONTINUOUS
10
17.5384
20
-112.633
11
17.3824
21
-112.789
0
LINE
8
BLACK
6
CONTINUOUS
10
17.3824
20
-112.789
11
17.1991
21
-112.911
0
LINE
8
BLACK
6
CONTINUOUS
10
17.1991
20
-112.911
11
16.9953
21
-112.996
0
LINE
8
BLACK
6
CONTINUOUS
10
16.9953
20
-112.996
11
16.779
21
-113.039
0
LINE
8
BLACK
6
CONTINUOUS
10
16.779
20
-113.039
11
16.5585
21
-113.039
0
LINE
8
BLACK
6
CONTINUOUS
10
16.5585
20
-113.039
11
16.3422
21
-112.996
0
LINE
8
BLACK
6
CONTINUOUS
10
16.3422
20
-112.996
11
16.1384
21
-112.911
0
LINE
8
BLACK
6
CONTINUOUS
10
16.1384
20
-112.911
11
15.9551
21
-112.789
0
LINE
8
BLACK
6
CONTINUOUS
10
15.9551
20
-112.789
11
15.7991
21
-112.633
0
LINE
8
BLACK
6
CONTINUOUS
10
15.7991
20
-112.633
11
15.6766
21
-112.449
0
LINE
8
BLACK
6
CONTINUOUS
10
15.6766
20
-112.449
11
15.5922
21
-112.246
0
LINE
8
BLACK
6
CONTINUOUS
10
15.5922
20
-112.246
11
15.5492
21
-112.029
0
LINE
8
BLACK
6
CONTINUOUS
10
15.5492
20
-112.029
11
15.5492
21
-111.809
0
LINE
8
BLACK
6
CONTINUOUS
10
15.5492
20
-111.809
11
15.5922
21
-111.592
0
LINE
8
BLACK
6
CONTINUOUS
10
15.6209
20
-112.237
11
15.703
21
-112.435
0
LINE
8
BLACK
6
CONTINUOUS
10
15.703
20
-112.435
11
15.8223
21
-112.614
0
LINE
8
BLACK
6
CONTINUOUS
10
15.8223
20
-112.614
11
15.9741
21
-112.765
0
LINE
8
BLACK
6
CONTINUOUS
10
15.9741
20
-112.765
11
16.1526
21
-112.885
0
LINE
8
BLACK
6
CONTINUOUS
10
16.1526
20
-112.885
11
16.3509
21
-112.967
0
LINE
8
BLACK
6
CONTINUOUS
10
16.3509
20
-112.967
11
16.5614
21
-113.009
0
LINE
8
BLACK
6
CONTINUOUS
10
16.5614
20
-113.009
11
16.7761
21
-113.009
0
LINE
8
BLACK
6
CONTINUOUS
10
16.7761
20
-113.009
11
16.9866
21
-112.967
0
LINE
8
BLACK
6
CONTINUOUS
10
16.9866
20
-112.967
11
17.1849
21
-112.885
0
LINE
8
BLACK
6
CONTINUOUS
10
17.1849
20
-112.885
11
17.3634
21
-112.765
0
LINE
8
BLACK
6
CONTINUOUS
10
17.3634
20
-112.765
11
17.5152
21
-112.614
0
LINE
8
BLACK
6
CONTINUOUS
10
17.5152
20
-112.614
11
17.6345
21
-112.435
0
LINE
8
BLACK
6
CONTINUOUS
10
17.6345
20
-112.435
11
17.7166
21
-112.237
0
LINE
8
BLACK
6
CONTINUOUS
10
17.7166
20
-112.237
11
17.7585
21
-112.026
0
LINE
8
BLACK
6
CONTINUOUS
10
17.7585
20
-112.026
11
17.7585
21
-111.812
0
LINE
8
BLACK
6
CONTINUOUS
10
17.7585
20
-111.812
11
17.7166
21
-111.601
0
LINE
8
BLACK
6
CONTINUOUS
10
17.7166
20
-111.601
11
17.6345
21
-111.403
0
LINE
8
BLACK
6
CONTINUOUS
10
17.6345
20
-111.403
11
17.5152
21
-111.224
0
LINE
8
BLACK
6
CONTINUOUS
10
17.5152
20
-111.224
11
17.3634
21
-111.073
0
LINE
8
BLACK
6
CONTINUOUS
10
17.3634
20
-111.073
11
17.1849
21
-110.953
0
LINE
8
BLACK
6
CONTINUOUS
10
17.1849
20
-110.953
11
16.9866
21
-110.871
0
LINE
8
BLACK
6
CONTINUOUS
10
16.9866
20
-110.871
11
16.7761
21
-110.829
0
LINE
8
BLACK
6
CONTINUOUS
10
16.7761
20
-110.829
11
16.5614
21
-110.829
0
LINE
8
BLACK
6
CONTINUOUS
10
16.5614
20
-110.829
11
16.3509
21
-110.871
0
LINE
8
BLACK
6
CONTINUOUS
10
16.3509
20
-110.871
11
16.1526
21
-110.953
0
LINE
8
BLACK
6
CONTINUOUS
10
16.1526
20
-110.953
11
15.9741
21
-111.073
0
LINE
8
BLACK
6
CONTINUOUS
10
15.9741
20
-111.073
11
15.8223
21
-111.224
0
LINE
8
BLACK
6
CONTINUOUS
10
15.8223
20
-111.224
11
15.703
21
-111.403
0
LINE
8
BLACK
6
CONTINUOUS
10
15.703
20
-111.403
11
15.6209
21
-111.601
0
LINE
8
BLACK
6
CONTINUOUS
10
15.6209
20
-111.601
11
15.579
21
-111.812
0
LINE
8
BLACK
6
CONTINUOUS
10
15.579
20
-111.812
11
15.579
21
-112.026
0
LINE
8
BLACK
6
CONTINUOUS
10
15.579
20
-112.026
11
15.6209
21
-112.237
0
LINE
8
BLACK
6
CONTINUOUS
10
158.467
20
-111.592
11
158.552
21
-111.389
0
LINE
8
BLACK
6
CONTINUOUS
10
158.552
20
-111.389
11
158.674
21
-111.205
0
LINE
8
BLACK
6
CONTINUOUS
10
158.674
20
-111.205
11
158.83
21
-111.049
0
LINE
8
BLACK
6
CONTINUOUS
10
158.83
20
-111.049
11
159.013
21
-110.927
0
LINE
8
BLACK
6
CONTINUOUS
10
159.013
20
-110.927
11
159.217
21
-110.842
0
LINE
8
BLACK
6
CONTINUOUS
10
159.217
20
-110.842
11
159.433
21
-110.799
0
LINE
8
BLACK
6
CONTINUOUS
10
159.433
20
-110.799
11
159.654
21
-110.799
0
LINE
8
BLACK
6
CONTINUOUS
10
159.654
20
-110.799
11
159.87
21
-110.842
0
LINE
8
BLACK
6
CONTINUOUS
10
159.87
20
-110.842
11
160.074
21
-110.927
0
LINE
8
BLACK
6
CONTINUOUS
10
160.074
20
-110.927
11
160.257
21
-111.049
0
LINE
8
BLACK
6
CONTINUOUS
10
160.257
20
-111.049
11
160.413
21
-111.205
0
LINE
8
BLACK
6
CONTINUOUS
10
160.413
20
-111.205
11
160.536
21
-111.389
0
LINE
8
BLACK
6
CONTINUOUS
10
160.536
20
-111.389
11
160.62
21
-111.592
0
LINE
8
BLACK
6
CONTINUOUS
10
160.62
20
-111.592
11
160.663
21
-111.809
0
LINE
8
BLACK
6
CONTINUOUS
10
160.663
20
-111.809
11
160.663
21
-112.029
0
LINE
8
BLACK
6
CONTINUOUS
10
160.663
20
-112.029
11
160.62
21
-112.246
0
LINE
8
BLACK
6
CONTINUOUS
10
160.62
20
-112.246
11
160.536
21
-112.449
0
LINE
8
BLACK
6
CONTINUOUS
10
160.536
20
-112.449
11
160.413
21
-112.633
0
LINE
8
BLACK
6
CONTINUOUS
10
160.413
20
-112.633
11
160.257
21
-112.789
0
LINE
8
BLACK
6
CONTINUOUS
10
160.257
20
-112.789
11
160.074
21
-112.911
0
LINE
8
BLACK
6
CONTINUOUS
10
160.074
20
-112.911
11
159.87
21
-112.996
0
LINE
8
BLACK
6
CONTINUOUS
10
159.87
20
-112.996
11
159.654
21
-113.039
0
LINE
8
BLACK
6
CONTINUOUS
10
159.654
20
-113.039
11
159.433
21
-113.039
0
LINE
8
BLACK
6
CONTINUOUS
10
159.433
20
-113.039
11
159.217
21
-112.996
0
LINE
8
BLACK
6
CONTINUOUS
10
159.217
20
-112.996
11
159.013
21
-112.911
0
LINE
8
BLACK
6
CONTINUOUS
10
159.013
20
-112.911
11
158.83
21
-112.789
0
LINE
8
BLACK
6
CONTINUOUS
10
158.83
20
-112.789
11
158.674
21
-112.633
0
LINE
8
BLACK
6
CONTINUOUS
10
158.674
20
-112.633
11
158.552
21
-112.449
0
LINE
8
BLACK
6
CONTINUOUS
10
158.552
20
-112.449
11
158.467
21
-112.246
0
LINE
8
BLACK
6
CONTINUOUS
10
158.467
20
-112.246
11
158.424
21
-112.029
0
LINE
8
BLACK
6
CONTINUOUS
10
158.424
20
-112.029
11
158.424
21
-111.809
0
LINE
8
BLACK
6
CONTINUOUS
10
158.424
20
-111.809
11
158.467
21
-111.592
0
LINE
8
BLACK
6
CONTINUOUS
10
158.496
20
-112.237
11
158.578
21
-112.435
0
LINE
8
BLACK
6
CONTINUOUS
10
158.578
20
-112.435
11
158.697
21
-112.614
0
LINE
8
BLACK
6
CONTINUOUS
10
158.697
20
-112.614
11
158.849
21
-112.765
0
LINE
8
BLACK
6
CONTINUOUS
10
158.849
20
-112.765
11
159.028
21
-112.885
0
LINE
8
BLACK
6
CONTINUOUS
10
159.028
20
-112.885
11
159.226
21
-112.967
0
LINE
8
BLACK
6
CONTINUOUS
10
159.226
20
-112.967
11
159.436
21
-113.009
0
LINE
8
BLACK
6
CONTINUOUS
10
159.436
20
-113.009
11
159.651
21
-113.009
0
LINE
8
BLACK
6
CONTINUOUS
10
159.651
20
-113.009
11
159.862
21
-112.967
0
LINE
8
BLACK
6
CONTINUOUS
10
159.862
20
-112.967
11
160.06
21
-112.885
0
LINE
8
BLACK
6
CONTINUOUS
10
160.06
20
-112.885
11
160.238
21
-112.765
0
LINE
8
BLACK
6
CONTINUOUS
10
160.238
20
-112.765
11
160.39
21
-112.614
0
LINE
8
BLACK
6
CONTINUOUS
10
160.39
20
-112.614
11
160.509
21
-112.435
0
LINE
8
BLACK
6
CONTINUOUS
10
160.509
20
-112.435
11
160.592
21
-112.237
0
LINE
8
BLACK
6
CONTINUOUS
10
160.592
20
-112.237
11
160.633
21
-112.026
0
LINE
8
BLACK
6
CONTINUOUS
10
160.633
20
-112.026
11
160.633
21
-111.812
0
LINE
8
BLACK
6
CONTINUOUS
10
160.633
20
-111.812
11
160.592
21
-111.601
0
LINE
8
BLACK
6
CONTINUOUS
10
160.592
20
-111.601
11
160.509
21
-111.403
0
LINE
8
BLACK
6
CONTINUOUS
10
160.509
20
-111.403
11
160.39
21
-111.224
0
LINE
8
BLACK
6
CONTINUOUS
10
160.39
20
-111.224
11
160.238
21
-111.073
0
LINE
8
BLACK
6
CONTINUOUS
10
160.238
20
-111.073
11
160.06
21
-110.953
0
LINE
8
BLACK
6
CONTINUOUS
10
160.06
20
-110.953
11
159.862
21
-110.871
0
LINE
8
BLACK
6
CONTINUOUS
10
159.862
20
-110.871
11
159.651
21
-110.829
0
LINE
8
BLACK
6
CONTINUOUS
10
159.651
20
-110.829
11
159.436
21
-110.829
0
LINE
8
BLACK
6
CONTINUOUS
10
159.436
20
-110.829
11
159.226
21
-110.871
0
LINE
8
BLACK
6
CONTINUOUS
10
159.226
20
-110.871
11
159.028
21
-110.953
0
LINE
8
BLACK
6
CONTINUOUS
10
159.028
20
-110.953
11
158.849
21
-111.073
0
LINE
8
BLACK
6
CONTINUOUS
10
158.849
20
-111.073
11
158.697
21
-111.224
0
LINE
8
BLACK
6
CONTINUOUS
10
158.697
20
-111.224
11
158.578
21
-111.403
0
LINE
8
BLACK
6
CONTINUOUS
10
158.578
20
-111.403
11
158.496
21
-111.601
0
LINE
8
BLACK
6
CONTINUOUS
10
158.496
20
-111.601
11
158.454
21
-111.812
0
LINE
8
BLACK
6
CONTINUOUS
10
158.454
20
-111.812
11
158.454
21
-112.026
0
LINE
8
BLACK
6
CONTINUOUS
10
158.454
20
-112.026
11
158.496
21
-112.237
0
LINE
8
BLACK
6
CONTINUOUS
10
256.098
20
-111.592
11
256.183
21
-111.389
0
LINE
8
BLACK
6
CONTINUOUS
10
256.183
20
-111.389
11
256.305
21
-111.205
0
LINE
8
BLACK
6
CONTINUOUS
10
256.305
20
-111.205
11
256.461
21
-111.049
0
LINE
8
BLACK
6
CONTINUOUS
10
256.461
20
-111.049
11
256.644
21
-110.927
0
LINE
8
BLACK
6
CONTINUOUS
10
256.644
20
-110.927
11
256.848
21
-110.842
0
LINE
8
BLACK
6
CONTINUOUS
10
256.848
20
-110.842
11
257.064
21
-110.799
0
LINE
8
BLACK
6
CONTINUOUS
10
257.064
20
-110.799
11
257.285
21
-110.799
0
LINE
8
BLACK
6
CONTINUOUS
10
257.285
20
-110.799
11
257.501
21
-110.842
0
LINE
8
BLACK
6
CONTINUOUS
10
257.501
20
-110.842
11
257.705
21
-110.927
0
LINE
8
BLACK
6
CONTINUOUS
10
257.705
20
-110.927
11
257.888
21
-111.049
0
LINE
8
BLACK
6
CONTINUOUS
10
257.888
20
-111.049
11
258.044
21
-111.205
0
LINE
8
BLACK
6
CONTINUOUS
10
258.044
20
-111.205
11
258.167
21
-111.389
0
LINE
8
BLACK
6
CONTINUOUS
10
258.167
20
-111.389
11
258.251
21
-111.592
0
LINE
8
BLACK
6
CONTINUOUS
10
258.251
20
-111.592
11
258.294
21
-111.809
0
LINE
8
BLACK
6
CONTINUOUS
10
258.294
20
-111.809
11
258.294
21
-112.029
0
LINE
8
BLACK
6
CONTINUOUS
10
258.294
20
-112.029
11
258.251
21
-112.246
0
LINE
8
BLACK
6
CONTINUOUS
10
258.251
20
-112.246
11
258.167
21
-112.449
0
LINE
8
BLACK
6
CONTINUOUS
10
258.167
20
-112.449
11
258.044
21
-112.633
0
LINE
8
BLACK
6
CONTINUOUS
10
258.044
20
-112.633
11
257.888
21
-112.789
0
LINE
8
BLACK
6
CONTINUOUS
10
257.888
20
-112.789
11
257.705
21
-112.911
0
LINE
8
BLACK
6
CONTINUOUS
10
257.705
20
-112.911
11
257.501
21
-112.996
0
LINE
8
BLACK
6
CONTINUOUS
10
257.501
20
-112.996
11
257.285
21
-113.039
0
LINE
8
BLACK
6
CONTINUOUS
10
257.285
20
-113.039
11
257.064
21
-113.039
0
LINE
8
BLACK
6
CONTINUOUS
10
257.064
20
-113.039
11
256.848
21
-112.996
0
LINE
8
BLACK
6
CONTINUOUS
10
256.848
20
-112.996
11
256.644
21
-112.911
0
LINE
8
BLACK
6
CONTINUOUS
10
256.644
20
-112.911
11
256.461
21
-112.789
0
LINE
8
BLACK
6
CONTINUOUS
10
256.461
20
-112.789
11
256.305
21
-112.633
0
LINE
8
BLACK
6
CONTINUOUS
10
256.305
20
-112.633
11
256.183
21
-112.449
0
LINE
8
BLACK
6
CONTINUOUS
10
256.183
20
-112.449
11
256.098
21
-112.246
0
LINE
8
BLACK
6
CONTINUOUS
10
256.098
20
-112.246
11
256.055
21
-112.029
0
LINE
8
BLACK
6
CONTINUOUS
10
256.055
20
-112.029
11
256.055
21
-111.809
0
LINE
8
BLACK
6
CONTINUOUS
10
256.055
20
-111.809
11
256.098
21
-111.592
0
LINE
8
BLACK
6
CONTINUOUS
10
256.127
20
-112.237
11
256.209
21
-112.435
0
LINE
8
BLACK
6
CONTINUOUS
10
256.209
20
-112.435
11
256.328
21
-112.614
0
LINE
8
BLACK
6
CONTINUOUS
10
256.328
20
-112.614
11
256.48
21
-112.765
0
LINE
8
BLACK
6
CONTINUOUS
10
256.48
20
-112.765
11
256.659
21
-112.885
0
LINE
8
BLACK
6
CONTINUOUS
10
256.659
20
-112.885
11
256.857
21
-112.967
0
LINE
8
BLACK
6
CONTINUOUS
10
256.857
20
-112.967
11
257.067
21
-113.009
0
LINE
8
BLACK
6
CONTINUOUS
10
257.067
20
-113.009
11
257.282
21
-113.009
0
LINE
8
BLACK
6
CONTINUOUS
10
257.282
20
-113.009
11
257.493
21
-112.967
0
LINE
8
BLACK
6
CONTINUOUS
10
257.493
20
-112.967
11
257.691
21
-112.885
0
LINE
8
BLACK
6
CONTINUOUS
10
257.691
20
-112.885
11
257.869
21
-112.765
0
LINE
8
BLACK
6
CONTINUOUS
10
257.869
20
-112.765
11
258.021
21
-112.614
0
LINE
8
BLACK
6
CONTINUOUS
10
258.021
20
-112.614
11
258.14
21
-112.435
0
LINE
8
BLACK
6
CONTINUOUS
10
258.14
20
-112.435
11
258.223
21
-112.237
0
LINE
8
BLACK
6
CONTINUOUS
10
258.223
20
-112.237
11
258.264
21
-112.026
0
LINE
8
BLACK
6
CONTINUOUS
10
258.264
20
-112.026
11
258.264
21
-111.812
0
LINE
8
BLACK
6
CONTINUOUS
10
258.264
20
-111.812
11
258.223
21
-111.601
0
LINE
8
BLACK
6
CONTINUOUS
10
258.223
20
-111.601
11
258.14
21
-111.403
0
LINE
8
BLACK
6
CONTINUOUS
10
258.14
20
-111.403
11
258.021
21
-111.224
0
LINE
8
BLACK
6
CONTINUOUS
10
258.021
20
-111.224
11
257.869
21
-111.073
0
LINE
8
BLACK
6
CONTINUOUS
10
257.869
20
-111.073
11
257.691
21
-110.953
0
LINE
8
BLACK
6
CONTINUOUS
10
257.691
20
-110.953
11
257.493
21
-110.871
0
LINE
8
BLACK
6
CONTINUOUS
10
257.493
20
-110.871
11
257.282
21
-110.829
0
LINE
8
BLACK
6
CONTINUOUS
10
257.282
20
-110.829
11
257.067
21
-110.829
0
LINE
8
BLACK
6
CONTINUOUS
10
257.067
20
-110.829
11
256.857
21
-110.871
0
LINE
8
BLACK
6
CONTINUOUS
10
256.857
20
-110.871
11
256.659
21
-110.953
0
LINE
8
BLACK
6
CONTINUOUS
10
256.659
20
-110.953
11
256.48
21
-111.073
0
LINE
8
BLACK
6
CONTINUOUS
10
256.48
20
-111.073
11
256.328
21
-111.224
0
LINE
8
BLACK
6
CONTINUOUS
10
256.328
20
-111.224
11
256.209
21
-111.403
0
LINE
8
BLACK
6
CONTINUOUS
10
256.209
20
-111.403
11
256.127
21
-111.601
0
LINE
8
BLACK
6
CONTINUOUS
10
256.127
20
-111.601
11
256.085
21
-111.812
0
LINE
8
BLACK
6
CONTINUOUS
10
256.085
20
-111.812
11
256.085
21
-112.026
0
LINE
8
BLACK
6
CONTINUOUS
10
256.085
20
-112.026
11
256.127
21
-112.237
0
LINE
8
BLACK
6
CONTINUOUS
10
351.942
20
-111.423
11
352.027
21
-111.22
0
LINE
8
BLACK
6
CONTINUOUS
10
352.027
20
-111.22
11
352.149
21
-111.036
0
LINE
8
BLACK
6
CONTINUOUS
10
352.149
20
-111.036
11
352.305
21
-110.88
0
LINE
8
BLACK
6
CONTINUOUS
10
352.305
20
-110.88
11
352.488
21
-110.758
0
LINE
8
BLACK
6
CONTINUOUS
10
352.488
20
-110.758
11
352.692
21
-110.673
0
LINE
8
BLACK
6
CONTINUOUS
10
352.692
20
-110.673
11
352.908
21
-110.63
0
LINE
8
BLACK
6
CONTINUOUS
10
352.908
20
-110.63
11
353.129
21
-110.63
0
LINE
8
BLACK
6
CONTINUOUS
10
353.129
20
-110.63
11
353.345
21
-110.673
0
LINE
8
BLACK
6
CONTINUOUS
10
353.345
20
-110.673
11
353.549
21
-110.758
0
LINE
8
BLACK
6
CONTINUOUS
10
353.549
20
-110.758
11
353.732
21
-110.88
0
LINE
8
BLACK
6
CONTINUOUS
10
353.732
20
-110.88
11
353.888
21
-111.036
0
LINE
8
BLACK
6
CONTINUOUS
10
353.888
20
-111.036
11
354.011
21
-111.22
0
LINE
8
BLACK
6
CONTINUOUS
10
354.011
20
-111.22
11
354.095
21
-111.423
0
LINE
8
BLACK
6
CONTINUOUS
10
354.095
20
-111.423
11
354.138
21
-111.64
0
LINE
8
BLACK
6
CONTINUOUS
10
354.138
20
-111.64
11
354.138
21
-111.86
0
LINE
8
BLACK
6
CONTINUOUS
10
354.138
20
-111.86
11
354.095
21
-112.077
0
LINE
8
BLACK
6
CONTINUOUS
10
354.095
20
-112.077
11
354.011
21
-112.28
0
LINE
8
BLACK
6
CONTINUOUS
10
354.011
20
-112.28
11
353.888
21
-112.464
0
LINE
8
BLACK
6
CONTINUOUS
10
353.888
20
-112.464
11
353.732
21
-112.62
0
LINE
8
BLACK
6
CONTINUOUS
10
353.732
20
-112.62
11
353.549
21
-112.742
0
LINE
8
BLACK
6
CONTINUOUS
10
353.549
20
-112.742
11
353.345
21
-112.827
0
LINE
8
BLACK
6
CONTINUOUS
10
353.345
20
-112.827
11
353.129
21
-112.87
0
LINE
8
BLACK
6
CONTINUOUS
10
353.129
20
-112.87
11
352.908
21
-112.87
0
LINE
8
BLACK
6
CONTINUOUS
10
352.908
20
-112.87
11
352.692
21
-112.827
0
LINE
8
BLACK
6
CONTINUOUS
10
352.692
20
-112.827
11
352.488
21
-112.742
0
LINE
8
BLACK
6
CONTINUOUS
10
352.488
20
-112.742
11
352.305
21
-112.62
0
LINE
8
BLACK
6
CONTINUOUS
10
352.305
20
-112.62
11
352.149
21
-112.464
0
LINE
8
BLACK
6
CONTINUOUS
10
352.149
20
-112.464
11
352.027
21
-112.28
0
LINE
8
BLACK
6
CONTINUOUS
10
352.027
20
-112.28
11
351.942
21
-112.077
0
LINE
8
BLACK
6
CONTINUOUS
10
351.942
20
-112.077
11
351.899
21
-111.86
0
LINE
8
BLACK
6
CONTINUOUS
10
351.899
20
-111.86
11
351.899
21
-111.64
0
LINE
8
BLACK
6
CONTINUOUS
10
351.899
20
-111.64
11
351.942
21
-111.423
0
LINE
8
BLACK
6
CONTINUOUS
10
351.971
20
-112.068
11
352.053
21
-112.266
0
LINE
8
BLACK
6
CONTINUOUS
10
352.053
20
-112.266
11
352.172
21
-112.445
0
LINE
8
BLACK
6
CONTINUOUS
10
352.172
20
-112.445
11
352.324
21
-112.596
0
LINE
8
BLACK
6
CONTINUOUS
10
352.324
20
-112.596
11
352.503
21
-112.716
0
LINE
8
BLACK
6
CONTINUOUS
10
352.503
20
-112.716
11
352.701
21
-112.798
0
LINE
8
BLACK
6
CONTINUOUS
10
352.701
20
-112.798
11
352.911
21
-112.84
0
LINE
8
BLACK
6
CONTINUOUS
10
352.911
20
-112.84
11
353.126
21
-112.84
0
LINE
8
BLACK
6
CONTINUOUS
10
353.126
20
-112.84
11
353.337
21
-112.798
0
LINE
8
BLACK
6
CONTINUOUS
10
353.337
20
-112.798
11
353.535
21
-112.716
0
LINE
8
BLACK
6
CONTINUOUS
10
353.535
20
-112.716
11
353.713
21
-112.596
0
LINE
8
BLACK
6
CONTINUOUS
10
353.713
20
-112.596
11
353.865
21
-112.445
0
LINE
8
BLACK
6
CONTINUOUS
10
353.865
20
-112.445
11
353.984
21
-112.266
0
LINE
8
BLACK
6
CONTINUOUS
10
353.984
20
-112.266
11
354.067
21
-112.068
0
LINE
8
BLACK
6
CONTINUOUS
10
354.067
20
-112.068
11
354.108
21
-111.857
0
LINE
8
BLACK
6
CONTINUOUS
10
354.108
20
-111.857
11
354.108
21
-111.643
0
LINE
8
BLACK
6
CONTINUOUS
10
354.108
20
-111.643
11
354.067
21
-111.432
0
LINE
8
BLACK
6
CONTINUOUS
10
354.067
20
-111.432
11
353.984
21
-111.234
0
LINE
8
BLACK
6
CONTINUOUS
10
353.984
20
-111.234
11
353.865
21
-111.055
0
LINE
8
BLACK
6
CONTINUOUS
10
353.865
20
-111.055
11
353.713
21
-110.904
0
LINE
8
BLACK
6
CONTINUOUS
10
353.713
20
-110.904
11
353.535
21
-110.784
0
LINE
8
BLACK
6
CONTINUOUS
10
353.535
20
-110.784
11
353.337
21
-110.702
0
LINE
8
BLACK
6
CONTINUOUS
10
353.337
20
-110.702
11
353.126
21
-110.66
0
LINE
8
BLACK
6
CONTINUOUS
10
353.126
20
-110.66
11
352.911
21
-110.66
0
LINE
8
BLACK
6
CONTINUOUS
10
352.911
20
-110.66
11
352.701
21
-110.702
0
LINE
8
BLACK
6
CONTINUOUS
10
352.701
20
-110.702
11
352.503
21
-110.784
0
LINE
8
BLACK
6
CONTINUOUS
10
352.503
20
-110.784
11
352.324
21
-110.904
0
LINE
8
BLACK
6
CONTINUOUS
10
352.324
20
-110.904
11
352.172
21
-111.055
0
LINE
8
BLACK
6
CONTINUOUS
10
352.172
20
-111.055
11
352.053
21
-111.234
0
LINE
8
BLACK
6
CONTINUOUS
10
352.053
20
-111.234
11
351.971
21
-111.432
0
LINE
8
BLACK
6
CONTINUOUS
10
351.971
20
-111.432
11
351.929
21
-111.643
0
LINE
8
BLACK
6
CONTINUOUS
10
351.929
20
-111.643
11
351.929
21
-111.857
0
LINE
8
BLACK
6
CONTINUOUS
10
351.929
20
-111.857
11
351.971
21
-112.068
0
LINE
8
BLACK
6
CONTINUOUS
10
15.5922
20
-66.3234
11
15.6766
21
-66.1197
0
LINE
8
BLACK
6
CONTINUOUS
10
15.6766
20
-66.1197
11
15.7991
21
-65.9363
0
LINE
8
BLACK
6
CONTINUOUS
10
15.7991
20
-65.9363
11
15.9551
21
-65.7804
0
LINE
8
BLACK
6
CONTINUOUS
10
15.9551
20
-65.7804
11
16.1384
21
-65.6578
0
LINE
8
BLACK
6
CONTINUOUS
10
16.1384
20
-65.6578
11
16.3422
21
-65.5734
0
LINE
8
BLACK
6
CONTINUOUS
10
16.3422
20
-65.5734
11
16.5585
21
-65.5304
0
LINE
8
BLACK
6
CONTINUOUS
10
16.5585
20
-65.5304
11
16.779
21
-65.5304
0
LINE
8
BLACK
6
CONTINUOUS
10
16.779
20
-65.5304
11
16.9953
21
-65.5734
0
LINE
8
BLACK
6
CONTINUOUS
10
16.9953
20
-65.5734
11
17.1991
21
-65.6578
0
LINE
8
BLACK
6
CONTINUOUS
10
17.1991
20
-65.6578
11
17.3824
21
-65.7804
0
LINE
8
BLACK
6
CONTINUOUS
10
17.3824
20
-65.7804
11
17.5384
21
-65.9363
0
LINE
8
BLACK
6
CONTINUOUS
10
17.5384
20
-65.9363
11
17.6609
21
-66.1197
0
LINE
8
BLACK
6
CONTINUOUS
10
17.6609
20
-66.1197
11
17.7453
21
-66.3234
0
LINE
8
BLACK
6
CONTINUOUS
10
17.7453
20
-66.3234
11
17.7883
21
-66.5397
0
LINE
8
BLACK
6
CONTINUOUS
10
17.7883
20
-66.5397
11
17.7883
21
-66.7603
0
LINE
8
BLACK
6
CONTINUOUS
10
17.7883
20
-66.7603
11
17.7453
21
-66.9766
0
LINE
8
BLACK
6
CONTINUOUS
10
17.7453
20
-66.9766
11
17.6609
21
-67.1803
0
LINE
8
BLACK
6
CONTINUOUS
10
17.6609
20
-67.1803
11
17.5384
21
-67.3637
0
LINE
8
BLACK
6
CONTINUOUS
10
17.5384
20
-67.3637
11
17.3824
21
-67.5196
0
LINE
8
BLACK
6
CONTINUOUS
10
17.3824
20
-67.5196
11
17.1991
21
-67.6422
0
LINE
8
BLACK
6
CONTINUOUS
10
17.1991
20
-67.6422
11
16.9953
21
-67.7266
0
LINE
8
BLACK
6
CONTINUOUS
10
16.9953
20
-67.7266
11
16.779
21
-67.7696
0
LINE
8
BLACK
6
CONTINUOUS
10
16.779
20
-67.7696
11
16.5585
21
-67.7696
0
LINE
8
BLACK
6
CONTINUOUS
10
16.5585
20
-67.7696
11
16.3422
21
-67.7266
0
LINE
8
BLACK
6
CONTINUOUS
10
16.3422
20
-67.7266
11
16.1384
21
-67.6422
0
LINE
8
BLACK
6
CONTINUOUS
10
16.1384
20
-67.6422
11
15.9551
21
-67.5196
0
LINE
8
BLACK
6
CONTINUOUS
10
15.9551
20
-67.5196
11
15.7991
21
-67.3637
0
LINE
8
BLACK
6
CONTINUOUS
10
15.7991
20
-67.3637
11
15.6766
21
-67.1803
0
LINE
8
BLACK
6
CONTINUOUS
10
15.6766
20
-67.1803
11
15.5922
21
-66.9766
0
LINE
8
BLACK
6
CONTINUOUS
10
15.5922
20
-66.9766
11
15.5492
21
-66.7603
0
LINE
8
BLACK
6
CONTINUOUS
10
15.5492
20
-66.7603
11
15.5492
21
-66.5397
0
LINE
8
BLACK
6
CONTINUOUS
10
15.5492
20
-66.5397
11
15.5922
21
-66.3234
0
LINE
8
BLACK
6
CONTINUOUS
10
15.6209
20
-66.9679
11
15.703
21
-67.1662
0
LINE
8
BLACK
6
CONTINUOUS
10
15.703
20
-67.1662
11
15.8223
21
-67.3447
0
LINE
8
BLACK
6
CONTINUOUS
10
15.8223
20
-67.3447
11
15.9741
21
-67.4964
0
LINE
8
BLACK
6
CONTINUOUS
10
15.9741
20
-67.4964
11
16.1526
21
-67.6157
0
LINE
8
BLACK
6
CONTINUOUS
10
16.1526
20
-67.6157
11
16.3509
21
-67.6979
0
LINE
8
BLACK
6
CONTINUOUS
10
16.3509
20
-67.6979
11
16.5614
21
-67.7397
0
LINE
8
BLACK
6
CONTINUOUS
10
16.5614
20
-67.7397
11
16.7761
21
-67.7397
0
LINE
8
BLACK
6
CONTINUOUS
10
16.7761
20
-67.7397
11
16.9866
21
-67.6979
0
LINE
8
BLACK
6
CONTINUOUS
10
16.9866
20
-67.6979
11
17.1849
21
-67.6157
0
LINE
8
BLACK
6
CONTINUOUS
10
17.1849
20
-67.6157
11
17.3634
21
-67.4964
0
LINE
8
BLACK
6
CONTINUOUS
10
17.3634
20
-67.4964
11
17.5152
21
-67.3447
0
LINE
8
BLACK
6
CONTINUOUS
10
17.5152
20
-67.3447
11
17.6345
21
-67.1662
0
LINE
8
BLACK
6
CONTINUOUS
10
17.6345
20
-67.1662
11
17.7166
21
-66.9679
0
LINE
8
BLACK
6
CONTINUOUS
10
17.7166
20
-66.9679
11
17.7585
21
-66.7573
0
LINE
8
BLACK
6
CONTINUOUS
10
17.7585
20
-66.7573
11
17.7585
21
-66.5427
0
LINE
8
BLACK
6
CONTINUOUS
10
17.7585
20
-66.5427
11
17.7166
21
-66.3321
0
LINE
8
BLACK
6
CONTINUOUS
10
17.7166
20
-66.3321
11
17.6345
21
-66.1338
0
LINE
8
BLACK
6
CONTINUOUS
10
17.6345
20
-66.1338
11
17.5152
21
-65.9553
0
LINE
8
BLACK
6
CONTINUOUS
10
17.5152
20
-65.9553
11
17.3634
21
-65.8036
0
LINE
8
BLACK
6
CONTINUOUS
10
17.3634
20
-65.8036
11
17.1849
21
-65.6843
0
LINE
8
BLACK
6
CONTINUOUS
10
17.1849
20
-65.6843
11
16.9866
21
-65.6021
0
LINE
8
BLACK
6
CONTINUOUS
10
16.9866
20
-65.6021
11
16.7761
21
-65.5603
0
LINE
8
BLACK
6
CONTINUOUS
10
16.7761
20
-65.5603
11
16.5614
21
-65.5603
0
LINE
8
BLACK
6
CONTINUOUS
10
16.5614
20
-65.5603
11
16.3509
21
-65.6021
0
LINE
8
BLACK
6
CONTINUOUS
10
16.3509
20
-65.6021
11
16.1526
21
-65.6843
0
LINE
8
BLACK
6
CONTINUOUS
10
16.1526
20
-65.6843
11
15.9741
21
-65.8036
0
LINE
8
BLACK
6
CONTINUOUS
10
15.9741
20
-65.8036
11
15.8223
21
-65.9553
0
LINE
8
BLACK
6
CONTINUOUS
10
15.8223
20
-65.9553
11
15.703
21
-66.1338
0
LINE
8
BLACK
6
CONTINUOUS
10
15.703
20
-66.1338
11
15.6209
21
-66.3321
0
LINE
8
BLACK
6
CONTINUOUS
10
15.6209
20
-66.3321
11
15.579
21
-66.5427
0
LINE
8
BLACK
6
CONTINUOUS
10
15.579
20
-66.5427
11
15.579
21
-66.7573
0
LINE
8
BLACK
6
CONTINUOUS
10
15.579
20
-66.7573
11
15.6209
21
-66.9679
0
LINE
8
BLACK
6
CONTINUOUS
10
351.942
20
-66.3234
11
352.027
21
-66.1197
0
LINE
8
BLACK
6
CONTINUOUS
10
352.027
20
-66.1197
11
352.149
21
-65.9363
0
LINE
8
BLACK
6
CONTINUOUS
10
352.149
20
-65.9363
11
352.305
21
-65.7804
0
LINE
8
BLACK
6
CONTINUOUS
10
352.305
20
-65.7804
11
352.488
21
-65.6578
0
LINE
8
BLACK
6
CONTINUOUS
10
352.488
20
-65.6578
11
352.692
21
-65.5734
0
LINE
8
BLACK
6
CONTINUOUS
10
352.692
20
-65.5734
11
352.908
21
-65.5304
0
LINE
8
BLACK
6
CONTINUOUS
10
352.908
20
-65.5304
11
353.129
21
-65.5304
0
LINE
8
BLACK
6
CONTINUOUS
10
353.129
20
-65.5304
11
353.345
21
-65.5734
0
LINE
8
BLACK
6
CONTINUOUS
10
353.345
20
-65.5734
11
353.549
21
-65.6578
0
LINE
8
BLACK
6
CONTINUOUS
10
353.549
20
-65.6578
11
353.732
21
-65.7804
0
LINE
8
BLACK
6
CONTINUOUS
10
353.732
20
-65.7804
11
353.888
21
-65.9363
0
LINE
8
BLACK
6
CONTINUOUS
10
353.888
20
-65.9363
11
354.011
21
-66.1197
0
LINE
8
BLACK
6
CONTINUOUS
10
354.011
20
-66.1197
11
354.095
21
-66.3234
0
LINE
8
BLACK
6
CONTINUOUS
10
354.095
20
-66.3234
11
354.138
21
-66.5397
0
LINE
8
BLACK
6
CONTINUOUS
10
354.138
20
-66.5397
11
354.138
21
-66.7603
0
LINE
8
BLACK
6
CONTINUOUS
10
354.138
20
-66.7603
11
354.095
21
-66.9766
0
LINE
8
BLACK
6
CONTINUOUS
10
354.095
20
-66.9766
11
354.011
21
-67.1803
0
LINE
8
BLACK
6
CONTINUOUS
10
354.011
20
-67.1803
11
353.888
21
-67.3637
0
LINE
8
BLACK
6
CONTINUOUS
10
353.888
20
-67.3637
11
353.732
21
-67.5196
0
LINE
8
BLACK
6
CONTINUOUS
10
353.732
20
-67.5196
11
353.549
21
-67.6422
0
LINE
8
BLACK
6
CONTINUOUS
10
353.549
20
-67.6422
11
353.345
21
-67.7266
0
LINE
8
BLACK
6
CONTINUOUS
10
353.345
20
-67.7266
11
353.129
21
-67.7696
0
LINE
8
BLACK
6
CONTINUOUS
10
353.129
20
-67.7696
11
352.908
21
-67.7696
0
LINE
8
BLACK
6
CONTINUOUS
10
352.908
20
-67.7696
11
352.692
21
-67.7266
0
LINE
8
BLACK
6
CONTINUOUS
10
352.692
20
-67.7266
11
352.488
21
-67.6422
0
LINE
8
BLACK
6
CONTINUOUS
10
352.488
20
-67.6422
11
352.305
21
-67.5196
0
LINE
8
BLACK
6
CONTINUOUS
10
352.305
20
-67.5196
11
352.149
21
-67.3637
0
LINE
8
BLACK
6
CONTINUOUS
10
352.149
20
-67.3637
11
352.027
21
-67.1803
0
LINE
8
BLACK
6
CONTINUOUS
10
352.027
20
-67.1803
11
351.942
21
-66.9766
0
LINE
8
BLACK
6
CONTINUOUS
10
351.942
20
-66.9766
11
351.899
21
-66.7603
0
LINE
8
BLACK
6
CONTINUOUS
10
351.899
20
-66.7603
11
351.899
21
-66.5397
0
LINE
8
BLACK
6
CONTINUOUS
10
351.899
20
-66.5397
11
351.942
21
-66.3234
0
LINE
8
BLACK
6
CONTINUOUS
10
351.971
20
-66.9679
11
352.053
21
-67.1662
0
LINE
8
BLACK
6
CONTINUOUS
10
352.053
20
-67.1662
11
352.172
21
-67.3447
0
LINE
8
BLACK
6
CONTINUOUS
10
352.172
20
-67.3447
11
352.324
21
-67.4964
0
LINE
8
BLACK
6
CONTINUOUS
10
352.324
20
-67.4964
11
352.503
21
-67.6157
0
LINE
8
BLACK
6
CONTINUOUS
10
352.503
20
-67.6157
11
352.701
21
-67.6979
0
LINE
8
BLACK
6
CONTINUOUS
10
352.701
20
-67.6979
11
352.911
21
-67.7397
0
LINE
8
BLACK
6
CONTINUOUS
10
352.911
20
-67.7397
11
353.126
21
-67.7397
0
LINE
8
BLACK
6
CONTINUOUS
10
353.126
20
-67.7397
11
353.337
21
-67.6979
0
LINE
8
BLACK
6
CONTINUOUS
10
353.337
20
-67.6979
11
353.535
21
-67.6157
0
LINE
8
BLACK
6
CONTINUOUS
10
353.535
20
-67.6157
11
353.713
21
-67.4964
0
LINE
8
BLACK
6
CONTINUOUS
10
353.713
20
-67.4964
11
353.865
21
-67.3447
0
LINE
8
BLACK
6
CONTINUOUS
10
353.865
20
-67.3447
11
353.984
21
-67.1662
0
LINE
8
BLACK
6
CONTINUOUS
10
353.984
20
-67.1662
11
354.067
21
-66.9679
0
LINE
8
BLACK
6
CONTINUOUS
10
354.067
20
-66.9679
11
354.108
21
-66.7573
0
LINE
8
BLACK
6
CONTINUOUS
10
354.108
20
-66.7573
11
354.108
21
-66.5427
0
LINE
8
BLACK
6
CONTINUOUS
10
354.108
20
-66.5427
11
354.067
21
-66.3321
0
LINE
8
BLACK
6
CONTINUOUS
10
354.067
20
-66.3321
11
353.984
21
-66.1338
0
LINE
8
BLACK
6
CONTINUOUS
10
353.984
20
-66.1338
11
353.865
21
-65.9553
0
LINE
8
BLACK
6
CONTINUOUS
10
353.865
20
-65.9553
11
353.713
21
-65.8036
0
LINE
8
BLACK
6
CONTINUOUS
10
353.713
20
-65.8036
11
353.535
21
-65.6843
0
LINE
8
BLACK
6
CONTINUOUS
10
353.535
20
-65.6843
11
353.337
21
-65.6021
0
LINE
8
BLACK
6
CONTINUOUS
10
353.337
20
-65.6021
11
353.126
21
-65.5603
0
LINE
8
BLACK
6
CONTINUOUS
10
353.126
20
-65.5603
11
352.911
21
-65.5603
0
LINE
8
BLACK
6
CONTINUOUS
10
352.911
20
-65.5603
11
352.701
21
-65.6021
0
LINE
8
BLACK
6
CONTINUOUS
10
352.701
20
-65.6021
11
352.503
21
-65.6843
0
LINE
8
BLACK
6
CONTINUOUS
10
352.503
20
-65.6843
11
352.324
21
-65.8036
0
LINE
8
BLACK
6
CONTINUOUS
10
352.324
20
-65.8036
11
352.172
21
-65.9553
0
LINE
8
BLACK
6
CONTINUOUS
10
352.172
20
-65.9553
11
352.053
21
-66.1338
0
LINE
8
BLACK
6
CONTINUOUS
10
352.053
20
-66.1338
11
351.971
21
-66.3321
0
LINE
8
BLACK
6
CONTINUOUS
10
351.971
20
-66.3321
11
351.929
21
-66.5427
0
LINE
8
BLACK
6
CONTINUOUS
10
351.929
20
-66.5427
11
351.929
21
-66.7573
0
LINE
8
BLACK
6
CONTINUOUS
10
351.929
20
-66.7573
11
351.971
21
-66.9679
0
LINE
8
BLACK
6
CONTINUOUS
10
351.942
20
-21.2234
11
352.027
21
-21.0197
0
LINE
8
BLACK
6
CONTINUOUS
10
352.027
20
-21.0197
11
352.149
21
-20.8363
0
LINE
8
BLACK
6
CONTINUOUS
10
352.149
20
-20.8363
11
352.305
21
-20.6804
0
LINE
8
BLACK
6
CONTINUOUS
10
352.305
20
-20.6804
11
352.488
21
-20.5578
0
LINE
8
BLACK
6
CONTINUOUS
10
352.488
20
-20.5578
11
352.692
21
-20.4734
0
LINE
8
BLACK
6
CONTINUOUS
10
352.692
20
-20.4734
11
352.908
21
-20.4304
0
LINE
8
BLACK
6
CONTINUOUS
10
352.908
20
-20.4304
11
353.129
21
-20.4304
0
LINE
8
BLACK
6
CONTINUOUS
10
353.129
20
-20.4304
11
353.345
21
-20.4734
0
LINE
8
BLACK
6
CONTINUOUS
10
353.345
20
-20.4734
11
353.549
21
-20.5578
0
LINE
8
BLACK
6
CONTINUOUS
10
353.549
20
-20.5578
11
353.732
21
-20.6804
0
LINE
8
BLACK
6
CONTINUOUS
10
353.732
20
-20.6804
11
353.888
21
-20.8363
0
LINE
8
BLACK
6
CONTINUOUS
10
353.888
20
-20.8363
11
354.011
21
-21.0197
0
LINE
8
BLACK
6
CONTINUOUS
10
354.011
20
-21.0197
11
354.095
21
-21.2234
0
LINE
8
BLACK
6
CONTINUOUS
10
354.095
20
-21.2234
11
354.138
21
-21.4397
0
LINE
8
BLACK
6
CONTINUOUS
10
354.138
20
-21.4397
11
354.138
21
-21.6603
0
LINE
8
BLACK
6
CONTINUOUS
10
354.138
20
-21.6603
11
354.095
21
-21.8766
0
LINE
8
BLACK
6
CONTINUOUS
10
354.095
20
-21.8766
11
354.011
21
-22.0803
0
LINE
8
BLACK
6
CONTINUOUS
10
354.011
20
-22.0803
11
353.888
21
-22.2637
0
LINE
8
BLACK
6
CONTINUOUS
10
353.888
20
-22.2637
11
353.732
21
-22.4196
0
LINE
8
BLACK
6
CONTINUOUS
10
353.732
20
-22.4196
11
353.549
21
-22.5422
0
LINE
8
BLACK
6
CONTINUOUS
10
353.549
20
-22.5422
11
353.345
21
-22.6266
0
LINE
8
BLACK
6
CONTINUOUS
10
353.345
20
-22.6266
11
353.129
21
-22.6696
0
LINE
8
BLACK
6
CONTINUOUS
10
353.129
20
-22.6696
11
352.908
21
-22.6696
0
LINE
8
BLACK
6
CONTINUOUS
10
352.908
20
-22.6696
11
352.692
21
-22.6266
0
LINE
8
BLACK
6
CONTINUOUS
10
352.692
20
-22.6266
11
352.488
21
-22.5422
0
LINE
8
BLACK
6
CONTINUOUS
10
352.488
20
-22.5422
11
352.305
21
-22.4196
0
LINE
8
BLACK
6
CONTINUOUS
10
352.305
20
-22.4196
11
352.149
21
-22.2637
0
LINE
8
BLACK
6
CONTINUOUS
10
352.149
20
-22.2637
11
352.027
21
-22.0803
0
LINE
8
BLACK
6
CONTINUOUS
10
352.027
20
-22.0803
11
351.942
21
-21.8766
0
LINE
8
BLACK
6
CONTINUOUS
10
351.942
20
-21.8766
11
351.899
21
-21.6603
0
LINE
8
BLACK
6
CONTINUOUS
10
351.899
20
-21.6603
11
351.899
21
-21.4397
0
LINE
8
BLACK
6
CONTINUOUS
10
351.899
20
-21.4397
11
351.942
21
-21.2234
0
LINE
8
BLACK
6
CONTINUOUS
10
351.971
20
-21.8679
11
352.053
21
-22.0662
0
LINE
8
BLACK
6
CONTINUOUS
10
352.053
20
-22.0662
11
352.172
21
-22.2447
0
LINE
8
BLACK
6
CONTINUOUS
10
352.172
20
-22.2447
11
352.324
21
-22.3964
0
LINE
8
BLACK
6
CONTINUOUS
10
352.324
20
-22.3964
11
352.503
21
-22.5157
0
LINE
8
BLACK
6
CONTINUOUS
10
352.503
20
-22.5157
11
352.701
21
-22.5978
0
LINE
8
BLACK
6
CONTINUOUS
10
352.701
20
-22.5978
11
352.911
21
-22.6397
0
LINE
8
BLACK
6
CONTINUOUS
10
352.911
20
-22.6397
11
353.126
21
-22.6397
0
LINE
8
BLACK
6
CONTINUOUS
10
353.126
20
-22.6397
11
353.337
21
-22.5978
0
LINE
8
BLACK
6
CONTINUOUS
10
353.337
20
-22.5978
11
353.535
21
-22.5157
0
LINE
8
BLACK
6
CONTINUOUS
10
353.535
20
-22.5157
11
353.713
21
-22.3964
0
LINE
8
BLACK
6
CONTINUOUS
10
353.713
20
-22.3964
11
353.865
21
-22.2447
0
LINE
8
BLACK
6
CONTINUOUS
10
353.865
20
-22.2447
11
353.984
21
-22.0662
0
LINE
8
BLACK
6
CONTINUOUS
10
353.984
20
-22.0662
11
354.067
21
-21.8679
0
LINE
8
BLACK
6
CONTINUOUS
10
354.067
20
-21.8679
11
354.108
21
-21.6573
0
LINE
8
BLACK
6
CONTINUOUS
10
354.108
20
-21.6573
11
354.108
21
-21.4427
0
LINE
8
BLACK
6
CONTINUOUS
10
354.108
20
-21.4427
11
354.067
21
-21.2321
0
LINE
8
BLACK
6
CONTINUOUS
10
354.067
20
-21.2321
11
353.984
21
-21.0338
0
LINE
8
BLACK
6
CONTINUOUS
10
353.984
20
-21.0338
11
353.865
21
-20.8553
0
LINE
8
BLACK
6
CONTINUOUS
10
353.865
20
-20.8553
11
353.713
21
-20.7036
0
LINE
8
BLACK
6
CONTINUOUS
10
353.713
20
-20.7036
11
353.535
21
-20.5843
0
LINE
8
BLACK
6
CONTINUOUS
10
353.535
20
-20.5843
11
353.337
21
-20.5022
0
LINE
8
BLACK
6
CONTINUOUS
10
353.337
20
-20.5022
11
353.126
21
-20.4603
0
LINE
8
BLACK
6
CONTINUOUS
10
353.126
20
-20.4603
11
352.911
21
-20.4603
0
LINE
8
BLACK
6
CONTINUOUS
10
352.911
20
-20.4603
11
352.701
21
-20.5022
0
LINE
8
BLACK
6
CONTINUOUS
10
352.701
20
-20.5022
11
352.503
21
-20.5843
0
LINE
8
BLACK
6
CONTINUOUS
10
352.503
20
-20.5843
11
352.324
21
-20.7036
0
LINE
8
BLACK
6
CONTINUOUS
10
352.324
20
-20.7036
11
352.172
21
-20.8553
0
LINE
8
BLACK
6
CONTINUOUS
10
352.172
20
-20.8553
11
352.053
21
-21.0338
0
LINE
8
BLACK
6
CONTINUOUS
10
352.053
20
-21.0338
11
351.971
21
-21.2321
0
LINE
8
BLACK
6
CONTINUOUS
10
351.971
20
-21.2321
11
351.929
21
-21.4427
0
LINE
8
BLACK
6
CONTINUOUS
10
351.929
20
-21.4427
11
351.929
21
-21.6573
0
LINE
8
BLACK
6
CONTINUOUS
10
351.929
20
-21.6573
11
351.971
21
-21.8679
0
LINE
8
BLACK
6
CONTINUOUS
10
15.5922
20
-21.1046
11
15.6766
21
-20.9009
0
LINE
8
BLACK
6
CONTINUOUS
10
15.6766
20
-20.9009
11
15.7991
21
-20.7175
0
LINE
8
BLACK
6
CONTINUOUS
10
15.7991
20
-20.7175
11
15.9551
21
-20.5616
0
LINE
8
BLACK
6
CONTINUOUS
10
15.9551
20
-20.5616
11
16.1384
21
-20.439
0
LINE
8
BLACK
6
CONTINUOUS
10
16.1384
20
-20.439
11
16.3422
21
-20.3546
0
LINE
8
BLACK
6
CONTINUOUS
10
16.3422
20
-20.3546
11
16.5585
21
-20.3116
0
LINE
8
BLACK
6
CONTINUOUS
10
16.5585
20
-20.3116
11
16.779
21
-20.3116
0
LINE
8
BLACK
6
CONTINUOUS
10
16.779
20
-20.3116
11
16.9953
21
-20.3546
0
LINE
8
BLACK
6
CONTINUOUS
10
16.9953
20
-20.3546
11
17.1991
21
-20.439
0
LINE
8
BLACK
6
CONTINUOUS
10
17.1991
20
-20.439
11
17.3824
21
-20.5616
0
LINE
8
BLACK
6
CONTINUOUS
10
17.3824
20
-20.5616
11
17.5384
21
-20.7175
0
LINE
8
BLACK
6
CONTINUOUS
10
17.5384
20
-20.7175
11
17.6609
21
-20.9009
0
LINE
8
BLACK
6
CONTINUOUS
10
17.6609
20
-20.9009
11
17.7453
21
-21.1046
0
LINE
8
BLACK
6
CONTINUOUS
10
17.7453
20
-21.1046
11
17.7883
21
-21.3209
0
LINE
8
BLACK
6
CONTINUOUS
10
17.7883
20
-21.3209
11
17.7883
21
-21.5415
0
LINE
8
BLACK
6
CONTINUOUS
10
17.7883
20
-21.5415
11
17.7453
21
-21.7578
0
LINE
8
BLACK
6
CONTINUOUS
10
17.7453
20
-21.7578
11
17.6609
21
-21.9615
0
LINE
8
BLACK
6
CONTINUOUS
10
17.6609
20
-21.9615
11
17.5384
21
-22.1449
0
LINE
8
BLACK
6
CONTINUOUS
10
17.5384
20
-22.1449
11
17.3824
21
-22.3008
0
LINE
8
BLACK
6
CONTINUOUS
10
17.3824
20
-22.3008
11
17.1991
21
-22.4234
0
LINE
8
BLACK
6
CONTINUOUS
10
17.1991
20
-22.4234
11
16.9953
21
-22.5078
0
LINE
8
BLACK
6
CONTINUOUS
10
16.9953
20
-22.5078
11
16.779
21
-22.5508
0
LINE
8
BLACK
6
CONTINUOUS
10
16.779
20
-22.5508
11
16.5585
21
-22.5508
0
LINE
8
BLACK
6
CONTINUOUS
10
16.5585
20
-22.5508
11
16.3422
21
-22.5078
0
LINE
8
BLACK
6
CONTINUOUS
10
16.3422
20
-22.5078
11
16.1384
21
-22.4234
0
LINE
8
BLACK
6
CONTINUOUS
10
16.1384
20
-22.4234
11
15.9551
21
-22.3008
0
LINE
8
BLACK
6
CONTINUOUS
10
15.9551
20
-22.3008
11
15.7991
21
-22.1449
0
LINE
8
BLACK
6
CONTINUOUS
10
15.7991
20
-22.1449
11
15.6766
21
-21.9615
0
LINE
8
BLACK
6
CONTINUOUS
10
15.6766
20
-21.9615
11
15.5922
21
-21.7578
0
LINE
8
BLACK
6
CONTINUOUS
10
15.5922
20
-21.7578
11
15.5492
21
-21.5415
0
LINE
8
BLACK
6
CONTINUOUS
10
15.5492
20
-21.5415
11
15.5492
21
-21.3209
0
LINE
8
BLACK
6
CONTINUOUS
10
15.5492
20
-21.3209
11
15.5922
21
-21.1046
0
LINE
8
BLACK
6
CONTINUOUS
10
15.6209
20
-21.7491
11
15.703
21
-21.9474
0
LINE
8
BLACK
6
CONTINUOUS
10
15.703
20
-21.9474
11
15.8223
21
-22.1259
0
LINE
8
BLACK
6
CONTINUOUS
10
15.8223
20
-22.1259
11
15.9741
21
-22.2776
0
LINE
8
BLACK
6
CONTINUOUS
10
15.9741
20
-22.2776
11
16.1526
21
-22.3969
0
LINE
8
BLACK
6
CONTINUOUS
10
16.1526
20
-22.3969
11
16.3509
21
-22.479
0
LINE
8
BLACK
6
CONTINUOUS
10
16.3509
20
-22.479
11
16.5614
21
-22.5209
0
LINE
8
BLACK
6
CONTINUOUS
10
16.5614
20
-22.5209
11
16.7761
21
-22.5209
0
LINE
8
BLACK
6
CONTINUOUS
10
16.7761
20
-22.5209
11
16.9866
21
-22.479
0
LINE
8
BLACK
6
CONTINUOUS
10
16.9866
20
-22.479
11
17.1849
21
-22.3969
0
LINE
8
BLACK
6
CONTINUOUS
10
17.1849
20
-22.3969
11
17.3634
21
-22.2776
0
LINE
8
BLACK
6
CONTINUOUS
10
17.3634
20
-22.2776
11
17.5152
21
-22.1259
0
LINE
8
BLACK
6
CONTINUOUS
10
17.5152
20
-22.1259
11
17.6345
21
-21.9474
0
LINE
8
BLACK
6
CONTINUOUS
10
17.6345
20
-21.9474
11
17.7166
21
-21.7491
0
LINE
8
BLACK
6
CONTINUOUS
10
17.7166
20
-21.7491
11
17.7585
21
-21.5385
0
LINE
8
BLACK
6
CONTINUOUS
10
17.7585
20
-21.5385
11
17.7585
21
-21.3239
0
LINE
8
BLACK
6
CONTINUOUS
10
17.7585
20
-21.3239
11
17.7166
21
-21.1133
0
LINE
8
BLACK
6
CONTINUOUS
10
17.7166
20
-21.1133
11
17.6345
21
-20.915
0
LINE
8
BLACK
6
CONTINUOUS
10
17.6345
20
-20.915
11
17.5152
21
-20.7365
0
LINE
8
BLACK
6
CONTINUOUS
10
17.5152
20
-20.7365
11
17.3634
21
-20.5848
0
LINE
8
BLACK
6
CONTINUOUS
10
17.3634
20
-20.5848
11
17.1849
21
-20.4655
0
LINE
8
BLACK
6
CONTINUOUS
10
17.1849
20
-20.4655
11
16.9866
21
-20.3834
0
LINE
8
BLACK
6
CONTINUOUS
10
16.9866
20
-20.3834
11
16.7761
21
-20.3415
0
LINE
8
BLACK
6
CONTINUOUS
10
16.7761
20
-20.3415
11
16.5614
21
-20.3415
0
LINE
8
BLACK
6
CONTINUOUS
10
16.5614
20
-20.3415
11
16.3509
21
-20.3834
0
LINE
8
BLACK
6
CONTINUOUS
10
16.3509
20
-20.3834
11
16.1526
21
-20.4655
0
LINE
8
BLACK
6
CONTINUOUS
10
16.1526
20
-20.4655
11
15.9741
21
-20.5848
0
LINE
8
BLACK
6
CONTINUOUS
10
15.9741
20
-20.5848
11
15.8223
21
-20.7365
0
LINE
8
BLACK
6
CONTINUOUS
10
15.8223
20
-20.7365
11
15.703
21
-20.915
0
LINE
8
BLACK
6
CONTINUOUS
10
15.703
20
-20.915
11
15.6209
21
-21.1133
0
LINE
8
BLACK
6
CONTINUOUS
10
15.6209
20
-21.1133
11
15.579
21
-21.3239
0
LINE
8
BLACK
6
CONTINUOUS
10
15.579
20
-21.3239
11
15.579
21
-21.5385
0
LINE
8
BLACK
6
CONTINUOUS
10
15.579
20
-21.5385
11
15.6209
21
-21.7491
0
LINE
8
BLACK
6
CONTINUOUS
10
256.098
20
-18.7234
11
256.183
21
-18.5197
0
LINE
8
BLACK
6
CONTINUOUS
10
256.183
20
-18.5197
11
256.305
21
-18.3363
0
LINE
8
BLACK
6
CONTINUOUS
10
256.305
20
-18.3363
11
256.461
21
-18.1804
0
LINE
8
BLACK
6
CONTINUOUS
10
256.461
20
-18.1804
11
256.644
21
-18.0578
0
LINE
8
BLACK
6
CONTINUOUS
10
256.644
20
-18.0578
11
256.848
21
-17.9734
0
LINE
8
BLACK
6
CONTINUOUS
10
256.848
20
-17.9734
11
257.064
21
-17.9304
0
LINE
8
BLACK
6
CONTINUOUS
10
257.064
20
-17.9304
11
257.285
21
-17.9304
0
LINE
8
BLACK
6
CONTINUOUS
10
257.285
20
-17.9304
11
257.501
21
-17.9734
0
LINE
8
BLACK
6
CONTINUOUS
10
257.501
20
-17.9734
11
257.705
21
-18.0578
0
LINE
8
BLACK
6
CONTINUOUS
10
257.705
20
-18.0578
11
257.888
21
-18.1804
0
LINE
8
BLACK
6
CONTINUOUS
10
257.888
20
-18.1804
11
258.044
21
-18.3363
0
LINE
8
BLACK
6
CONTINUOUS
10
258.044
20
-18.3363
11
258.167
21
-18.5197
0
LINE
8
BLACK
6
CONTINUOUS
10
258.167
20
-18.5197
11
258.251
21
-18.7234
0
LINE
8
BLACK
6
CONTINUOUS
10
258.251
20
-18.7234
11
258.294
21
-18.9397
0
LINE
8
BLACK
6
CONTINUOUS
10
258.294
20
-18.9397
11
258.294
21
-19.1603
0
LINE
8
BLACK
6
CONTINUOUS
10
258.294
20
-19.1603
11
258.251
21
-19.3766
0
LINE
8
BLACK
6
CONTINUOUS
10
258.251
20
-19.3766
11
258.167
21
-19.5803
0
LINE
8
BLACK
6
CONTINUOUS
10
258.167
20
-19.5803
11
258.044
21
-19.7637
0
LINE
8
BLACK
6
CONTINUOUS
10
258.044
20
-19.7637
11
257.888
21
-19.9196
0
LINE
8
BLACK
6
CONTINUOUS
10
257.888
20
-19.9196
11
257.705
21
-20.0422
0
LINE
8
BLACK
6
CONTINUOUS
10
257.705
20
-20.0422
11
257.501
21
-20.1266
0
LINE
8
BLACK
6
CONTINUOUS
10
257.501
20
-20.1266
11
257.285
21
-20.1696
0
LINE
8
BLACK
6
CONTINUOUS
10
257.285
20
-20.1696
11
257.064
21
-20.1696
0
LINE
8
BLACK
6
CONTINUOUS
10
257.064
20
-20.1696
11
256.848
21
-20.1266
0
LINE
8
BLACK
6
CONTINUOUS
10
256.848
20
-20.1266
11
256.644
21
-20.0422
0
LINE
8
BLACK
6
CONTINUOUS
10
256.644
20
-20.0422
11
256.461
21
-19.9196
0
LINE
8
BLACK
6
CONTINUOUS
10
256.461
20
-19.9196
11
256.305
21
-19.7637
0
LINE
8
BLACK
6
CONTINUOUS
10
256.305
20
-19.7637
11
256.183
21
-19.5803
0
LINE
8
BLACK
6
CONTINUOUS
10
256.183
20
-19.5803
11
256.098
21
-19.3766
0
LINE
8
BLACK
6
CONTINUOUS
10
256.098
20
-19.3766
11
256.055
21
-19.1603
0
LINE
8
BLACK
6
CONTINUOUS
10
256.055
20
-19.1603
11
256.055
21
-18.9397
0
LINE
8
BLACK
6
CONTINUOUS
10
256.055
20
-18.9397
11
256.098
21
-18.7234
0
LINE
8
BLACK
6
CONTINUOUS
10
256.127
20
-19.3679
11
256.209
21
-19.5662
0
LINE
8
BLACK
6
CONTINUOUS
10
256.209
20
-19.5662
11
256.328
21
-19.7447
0
LINE
8
BLACK
6
CONTINUOUS
10
256.328
20
-19.7447
11
256.48
21
-19.8964
0
LINE
8
BLACK
6
CONTINUOUS
10
256.48
20
-19.8964
11
256.659
21
-20.0157
0
LINE
8
BLACK
6
CONTINUOUS
10
256.659
20
-20.0157
11
256.857
21
-20.0978
0
LINE
8
BLACK
6
CONTINUOUS
10
256.857
20
-20.0978
11
257.067
21
-20.1397
0
LINE
8
BLACK
6
CONTINUOUS
10
257.067
20
-20.1397
11
257.282
21
-20.1397
0
LINE
8
BLACK
6
CONTINUOUS
10
257.282
20
-20.1397
11
257.493
21
-20.0978
0
LINE
8
BLACK
6
CONTINUOUS
10
257.493
20
-20.0978
11
257.691
21
-20.0157
0
LINE
8
BLACK
6
CONTINUOUS
10
257.691
20
-20.0157
11
257.869
21
-19.8964
0
LINE
8
BLACK
6
CONTINUOUS
10
257.869
20
-19.8964
11
258.021
21
-19.7447
0
LINE
8
BLACK
6
CONTINUOUS
10
258.021
20
-19.7447
11
258.14
21
-19.5662
0
LINE
8
BLACK
6
CONTINUOUS
10
258.14
20
-19.5662
11
258.223
21
-19.3679
0
LINE
8
BLACK
6
CONTINUOUS
10
258.223
20
-19.3679
11
258.264
21
-19.1573
0
LINE
8
BLACK
6
CONTINUOUS
10
258.264
20
-19.1573
11
258.264
21
-18.9427
0
LINE
8
BLACK
6
CONTINUOUS
10
258.264
20
-18.9427
11
258.223
21
-18.7321
0
LINE
8
BLACK
6
CONTINUOUS
10
258.223
20
-18.7321
11
258.14
21
-18.5338
0
LINE
8
BLACK
6
CONTINUOUS
10
258.14
20
-18.5338
11
258.021
21
-18.3553
0
LINE
8
BLACK
6
CONTINUOUS
10
258.021
20
-18.3553
11
257.869
21
-18.2036
0
LINE
8
BLACK
6
CONTINUOUS
10
257.869
20
-18.2036
11
257.691
21
-18.0843
0
LINE
8
BLACK
6
CONTINUOUS
10
257.691
20
-18.0843
11
257.493
21
-18.0022
0
LINE
8
BLACK
6
CONTINUOUS
10
257.493
20
-18.0022
11
257.282
21
-17.9603
0
LINE
8
BLACK
6
CONTINUOUS
10
257.282
20
-17.9603
11
257.067
21
-17.9603
0
LINE
8
BLACK
6
CONTINUOUS
10
257.067
20
-17.9603
11
256.857
21
-18.0022
0
LINE
8
BLACK
6
CONTINUOUS
10
256.857
20
-18.0022
11
256.659
21
-18.0843
0
LINE
8
BLACK
6
CONTINUOUS
10
256.659
20
-18.0843
11
256.48
21
-18.2036
0
LINE
8
BLACK
6
CONTINUOUS
10
256.48
20
-18.2036
11
256.328
21
-18.3553
0
LINE
8
BLACK
6
CONTINUOUS
10
256.328
20
-18.3553
11
256.209
21
-18.5338
0
LINE
8
BLACK
6
CONTINUOUS
10
256.209
20
-18.5338
11
256.127
21
-18.7321
0
LINE
8
BLACK
6
CONTINUOUS
10
256.127
20
-18.7321
11
256.085
21
-18.9427
0
LINE
8
BLACK
6
CONTINUOUS
10
256.085
20
-18.9427
11
256.085
21
-19.1573
0
LINE
8
BLACK
6
CONTINUOUS
10
256.085
20
-19.1573
11
256.127
21
-19.3679
0
LINE
8
BLACK
6
CONTINUOUS
10
158.467
20
-18.7234
11
158.552
21
-18.5197
0
LINE
8
BLACK
6
CONTINUOUS
10
158.552
20
-18.5197
11
158.674
21
-18.3363
0
LINE
8
BLACK
6
CONTINUOUS
10
158.674
20
-18.3363
11
158.83
21
-18.1804
0
LINE
8
BLACK
6
CONTINUOUS
10
158.83
20
-18.1804
11
159.013
21
-18.0578
0
LINE
8
BLACK
6
CONTINUOUS
10
159.013
20
-18.0578
11
159.217
21
-17.9734
0
LINE
8
BLACK
6
CONTINUOUS
10
159.217
20
-17.9734
11
159.433
21
-17.9304
0
LINE
8
BLACK
6
CONTINUOUS
10
159.433
20
-17.9304
11
159.654
21
-17.9304
0
LINE
8
BLACK
6
CONTINUOUS
10
159.654
20
-17.9304
11
159.87
21
-17.9734
0
LINE
8
BLACK
6
CONTINUOUS
10
159.87
20
-17.9734
11
160.074
21
-18.0578
0
LINE
8
BLACK
6
CONTINUOUS
10
160.074
20
-18.0578
11
160.257
21
-18.1804
0
LINE
8
BLACK
6
CONTINUOUS
10
160.257
20
-18.1804
11
160.413
21
-18.3363
0
LINE
8
BLACK
6
CONTINUOUS
10
160.413
20
-18.3363
11
160.536
21
-18.5197
0
LINE
8
BLACK
6
CONTINUOUS
10
160.536
20
-18.5197
11
160.62
21
-18.7234
0
LINE
8
BLACK
6
CONTINUOUS
10
160.62
20
-18.7234
11
160.663
21
-18.9397
0
LINE
8
BLACK
6
CONTINUOUS
10
160.663
20
-18.9397
11
160.663
21
-19.1603
0
LINE
8
BLACK
6
CONTINUOUS
10
160.663
20
-19.1603
11
160.62
21
-19.3766
0
LINE
8
BLACK
6
CONTINUOUS
10
160.62
20
-19.3766
11
160.536
21
-19.5803
0
LINE
8
BLACK
6
CONTINUOUS
10
160.536
20
-19.5803
11
160.413
21
-19.7637
0
LINE
8
BLACK
6
CONTINUOUS
10
160.413
20
-19.7637
11
160.257
21
-19.9196
0
LINE
8
BLACK
6
CONTINUOUS
10
160.257
20
-19.9196
11
160.074
21
-20.0422
0
LINE
8
BLACK
6
CONTINUOUS
10
160.074
20
-20.0422
11
159.87
21
-20.1266
0
LINE
8
BLACK
6
CONTINUOUS
10
159.87
20
-20.1266
11
159.654
21
-20.1696
0
LINE
8
BLACK
6
CONTINUOUS
10
159.654
20
-20.1696
11
159.433
21
-20.1696
0
LINE
8
BLACK
6
CONTINUOUS
10
159.433
20
-20.1696
11
159.217
21
-20.1266
0
LINE
8
BLACK
6
CONTINUOUS
10
159.217
20
-20.1266
11
159.013
21
-20.0422
0
LINE
8
BLACK
6
CONTINUOUS
10
159.013
20
-20.0422
11
158.83
21
-19.9196
0
LINE
8
BLACK
6
CONTINUOUS
10
158.83
20
-19.9196
11
158.674
21
-19.7637
0
LINE
8
BLACK
6
CONTINUOUS
10
158.674
20
-19.7637
11
158.552
21
-19.5803
0
LINE
8
BLACK
6
CONTINUOUS
10
158.552
20
-19.5803
11
158.467
21
-19.3766
0
LINE
8
BLACK
6
CONTINUOUS
10
158.467
20
-19.3766
11
158.424
21
-19.1603
0
LINE
8
BLACK
6
CONTINUOUS
10
158.424
20
-19.1603
11
158.424
21
-18.9397
0
LINE
8
BLACK
6
CONTINUOUS
10
158.424
20
-18.9397
11
158.467
21
-18.7234
0
LINE
8
BLACK
6
CONTINUOUS
10
158.496
20
-19.3679
11
158.578
21
-19.5662
0
LINE
8
BLACK
6
CONTINUOUS
10
158.578
20
-19.5662
11
158.697
21
-19.7447
0
LINE
8
BLACK
6
CONTINUOUS
10
158.697
20
-19.7447
11
158.849
21
-19.8964
0
LINE
8
BLACK
6
CONTINUOUS
10
158.849
20
-19.8964
11
159.028
21
-20.0157
0
LINE
8
BLACK
6
CONTINUOUS
10
159.028
20
-20.0157
11
159.226
21
-20.0978
0
LINE
8
BLACK
6
CONTINUOUS
10
159.226
20
-20.0978
11
159.436
21
-20.1397
0
LINE
8
BLACK
6
CONTINUOUS
10
159.436
20
-20.1397
11
159.651
21
-20.1397
0
LINE
8
BLACK
6
CONTINUOUS
10
159.651
20
-20.1397
11
159.862
21
-20.0978
0
LINE
8
BLACK
6
CONTINUOUS
10
159.862
20
-20.0978
11
160.06
21
-20.0157
0
LINE
8
BLACK
6
CONTINUOUS
10
160.06
20
-20.0157
11
160.238
21
-19.8964
0
LINE
8
BLACK
6
CONTINUOUS
10
160.238
20
-19.8964
11
160.39
21
-19.7447
0
LINE
8
BLACK
6
CONTINUOUS
10
160.39
20
-19.7447
11
160.509
21
-19.5662
0
LINE
8
BLACK
6
CONTINUOUS
10
160.509
20
-19.5662
11
160.592
21
-19.3679
0
LINE
8
BLACK
6
CONTINUOUS
10
160.592
20
-19.3679
11
160.633
21
-19.1573
0
LINE
8
BLACK
6
CONTINUOUS
10
160.633
20
-19.1573
11
160.633
21
-18.9427
0
LINE
8
BLACK
6
CONTINUOUS
10
160.633
20
-18.9427
11
160.592
21
-18.7321
0
LINE
8
BLACK
6
CONTINUOUS
10
160.592
20
-18.7321
11
160.509
21
-18.5338
0
LINE
8
BLACK
6
CONTINUOUS
10
160.509
20
-18.5338
11
160.39
21
-18.3553
0
LINE
8
BLACK
6
CONTINUOUS
10
160.39
20
-18.3553
11
160.238
21
-18.2036
0
LINE
8
BLACK
6
CONTINUOUS
10
160.238
20
-18.2036
11
160.06
21
-18.0843
0
LINE
8
BLACK
6
CONTINUOUS
10
160.06
20
-18.0843
11
159.862
21
-18.0022
0
LINE
8
BLACK
6
CONTINUOUS
10
159.862
20
-18.0022
11
159.651
21
-17.9603
0
LINE
8
BLACK
6
CONTINUOUS
10
159.651
20
-17.9603
11
159.436
21
-17.9603
0
LINE
8
BLACK
6
CONTINUOUS
10
159.436
20
-17.9603
11
159.226
21
-18.0022
0
LINE
8
BLACK
6
CONTINUOUS
10
159.226
20
-18.0022
11
159.028
21
-18.0843
0
LINE
8
BLACK
6
CONTINUOUS
10
159.028
20
-18.0843
11
158.849
21
-18.2036
0
LINE
8
BLACK
6
CONTINUOUS
10
158.849
20
-18.2036
11
158.697
21
-18.3553
0
LINE
8
BLACK
6
CONTINUOUS
10
158.697
20
-18.3553
11
158.578
21
-18.5338
0
LINE
8
BLACK
6
CONTINUOUS
10
158.578
20
-18.5338
11
158.496
21
-18.7321
0
LINE
8
BLACK
6
CONTINUOUS
10
158.496
20
-18.7321
11
158.454
21
-18.9427
0
LINE
8
BLACK
6
CONTINUOUS
10
158.454
20
-18.9427
11
158.454
21
-19.1573
0
LINE
8
BLACK
6
CONTINUOUS
10
158.454
20
-19.1573
11
158.496
21
-19.3679
  0
ENDSEC
  0
EOF
