<?xml version="1.0" standalone="no"?>
 <!DOCTYPE svg PUBLIC "-//W3C//DTD SVG 1.1//EN" 
 "http://www.w3.org/Graphics/SVG/1.1/DTD/svg11.dtd"> 
<svg
  xmlns:svg="http://www.w3.org/2000/svg"
  xmlns="http://www.w3.org/2000/svg"
  xmlns:xlink="http://www.w3.org/1999/xlink"
  version="1.1"
  width="41.998900cm" height="29.700220cm" viewBox="0 0 165350 116930">
<title>SVG Picture created as jtnk67-Edge_Cuts.svg date 2023/01/02 14:32:44 </title>
  <desc>Picture generated by PCBNEW </desc>
<g style="fill:#000000; fill-opacity:1;stroke:#000000; stroke-opacity:1;
stroke-linecap:round; stroke-linejoin:round;"
 transform="translate(0 0) scale(1 1)">
</g>
<g style="fill:#000000; fill-opacity:0.0; 
stroke:#000000; stroke-width:-0.000393701; stroke-opacity:1; 
stroke-linecap:round; stroke-linejoin:round;">
</g>
<g style="fill:#000000; fill-opacity:0.0; 
stroke:#000000; stroke-width:39.3701; stroke-opacity:1; 
stroke-linecap:round; stroke-linejoin:round;">
<path d="M5620 7972
L5620 44507
" />
<path d="M5620.08 44507.9 A1181.1 1181.1 0.0 0 0 6801.18 45689" />
<path d="M6801.18 6791.34 A1181.1 1181.1 0.0 0 0 5620.08 7972.44" />
<path d="M139688 7972.44 A1181.1 1181.1 0.0 0 0 138506 6791.34" />
<path d="M138506 45689 A1181.1 1181.1 0.0 0 0 139688 44507.9" />
<path d="M139687 44507
L139687 7972
" />
<path d="M6801 45688
L138506 45688
" />
<path d="M138506 6791
L6801 6791
" />
</g>
<g style="fill:#000000; fill-opacity:0.0; 
stroke:#000000; stroke-width:3.93701; stroke-opacity:1; 
stroke-linecap:round; stroke-linejoin:round;">
<circle cx="44062.6" cy="7500" r="433.071" /> 
<circle cx="44062.6" cy="44062.6" r="433.071" /> 
<circle cx="82500" cy="44062.6" r="433.071" /> 
<circle cx="82500" cy="7500" r="433.071" /> 
</g>
<g style="fill:#000000; fill-opacity:0.0; 
stroke:#000000; stroke-width:47.2441; stroke-opacity:1; 
stroke-linecap:round; stroke-linejoin:round;">
<path d="M12876 40004
L11498 40004
" />
<path d="M12876 38744
L12876 40004
" />
<path d="M11498 38744
L12876 38744
" />
<path d="M11498 40004
L11498 38744
" />
<path d="M22251 40004
L20873 40004
" />
<path d="M22251 38744
L22251 40004
" />
<path d="M20873 38744
L22251 38744
" />
<path d="M20873 40004
L20873 38744
" />
<path d="M16626 32504
L15248 32504
" />
<path d="M16626 31245
L16626 32504
" />
<path d="M15248 31245
L16626 31245
" />
<path d="M15248 32504
L15248 31245
" />
<path d="M14751 25004
L13373 25004
" />
<path d="M14751 23745
L14751 25004
" />
<path d="M13373 23745
L14751 23745
" />
<path d="M13373 25004
L13373 23745
" />
<path d="M13813 17504
L12436 17504
" />
<path d="M13813 16245
L13813 17504
" />
<path d="M12436 16245
L13813 16245
" />
<path d="M12436 17504
L12436 16245
" />
<path d="M11938 10004
L10561 10004
" />
<path d="M11938 8745
L11938 10004
" />
<path d="M10561 8745
L11938 8745
" />
<path d="M10561 10004
L10561 8745
" />
<path d="M19438 10004
L18061 10004
" />
<path d="M19438 8745
L19438 10004
" />
<path d="M18061 8745
L19438 8745
" />
<path d="M18061 10004
L18061 8745
" />
<path d="M23188 17504
L21811 17504
" />
<path d="M23188 16245
L23188 17504
" />
<path d="M21811 16245
L23188 16245
" />
<path d="M21811 17504
L21811 16245
" />
<path d="M25063 25004
L23686 25004
" />
<path d="M25063 23745
L25063 25004
" />
<path d="M23686 23745
L25063 23745
" />
<path d="M23686 25004
L23686 23745
" />
<path d="M28813 32504
L27436 32504
" />
<path d="M28813 31245
L28813 32504
" />
<path d="M27436 31245
L28813 31245
" />
<path d="M27436 32504
L27436 31245
" />
<path d="M31626 40004
L30248 40004
" />
<path d="M31626 38744
L31626 40004
" />
<path d="M30248 38744
L31626 38744
" />
<path d="M30248 40004
L30248 38744
" />
<path d="M36313 32504
L34936 32504
" />
<path d="M36313 31245
L36313 32504
" />
<path d="M34936 31245
L36313 31245
" />
<path d="M34936 32504
L34936 31245
" />
<path d="M32563 25004
L31186 25004
" />
<path d="M32563 23745
L32563 25004
" />
<path d="M31186 23745
L32563 23745
" />
<path d="M31186 25004
L31186 23745
" />
<path d="M30688 17504
L29311 17504
" />
<path d="M30688 16245
L30688 17504
" />
<path d="M29311 16245
L30688 16245
" />
<path d="M29311 17504
L29311 16245
" />
<path d="M26938 10004
L25561 10004
" />
<path d="M26938 8745
L26938 10004
" />
<path d="M25561 8745
L26938 8745
" />
<path d="M25561 10004
L25561 8745
" />
<path d="M34438 10004
L33061 10004
" />
<path d="M34438 8745
L34438 10004
" />
<path d="M33061 8745
L34438 8745
" />
<path d="M33061 10004
L33061 8745
" />
<path d="M38188 17504
L36811 17504
" />
<path d="M38188 16245
L38188 17504
" />
<path d="M36811 16245
L38188 16245
" />
<path d="M36811 17504
L36811 16245
" />
<path d="M40063 25004
L38685 25004
" />
<path d="M40063 23745
L40063 25004
" />
<path d="M38685 23745
L40063 23745
" />
<path d="M38685 25004
L38685 23745
" />
<path d="M43814 32504
L42436 32504
" />
<path d="M43814 31245
L43814 32504
" />
<path d="M42436 31245
L43814 31245
" />
<path d="M42436 32504
L42436 31245
" />
<path d="M51314 32504
L49936 32504
" />
<path d="M51314 31245
L51314 32504
" />
<path d="M49936 31245
L51314 31245
" />
<path d="M49936 32504
L49936 31245
" />
<path d="M47563 25004
L46185 25004
" />
<path d="M47563 23745
L47563 25004
" />
<path d="M46185 23745
L47563 23745
" />
<path d="M46185 25004
L46185 23745
" />
<path d="M45688 17504
L44311 17504
" />
<path d="M45688 16245
L45688 17504
" />
<path d="M44311 16245
L45688 16245
" />
<path d="M44311 17504
L44311 16245
" />
<path d="M41938 10004
L40561 10004
" />
<path d="M41938 8745
L41938 10004
" />
<path d="M40561 8745
L41938 8745
" />
<path d="M40561 10004
L40561 8745
" />
<path d="M49438 10004
L48061 10004
" />
<path d="M49438 8745
L49438 10004
" />
<path d="M48061 8745
L49438 8745
" />
<path d="M48061 10004
L48061 8745
" />
<path d="M53188 17504
L51811 17504
" />
<path d="M53188 16245
L53188 17504
" />
<path d="M51811 16245
L53188 16245
" />
<path d="M51811 17504
L51811 16245
" />
<path d="M55063 25004
L53685 25004
" />
<path d="M55063 23745
L55063 25004
" />
<path d="M53685 23745
L55063 23745
" />
<path d="M53685 25004
L53685 23745
" />
<path d="M58814 32504
L57436 32504
" />
<path d="M58814 31245
L58814 32504
" />
<path d="M57436 31245
L58814 31245
" />
<path d="M57436 32504
L57436 31245
" />
<path d="M59751 40004
L58373 40004
" />
<path d="M59751 38744
L59751 40004
" />
<path d="M58373 38744
L59751 38744
" />
<path d="M58373 40004
L58373 38744
" />
<path d="M66314 32504
L64936 32504
" />
<path d="M66314 31245
L66314 32504
" />
<path d="M64936 31245
L66314 31245
" />
<path d="M64936 32504
L64936 31245
" />
<path d="M62563 25004
L61185 25004
" />
<path d="M62563 23745
L62563 25004
" />
<path d="M61185 23745
L62563 23745
" />
<path d="M61185 25004
L61185 23745
" />
<path d="M60688 17504
L59311 17504
" />
<path d="M60688 16245
L60688 17504
" />
<path d="M59311 16245
L60688 16245
" />
<path d="M59311 17504
L59311 16245
" />
<path d="M56938 10004
L55561 10004
" />
<path d="M56938 8745
L56938 10004
" />
<path d="M55561 8745
L56938 8745
" />
<path d="M55561 10004
L55561 8745
" />
<path d="M64438 10004
L63061 10004
" />
<path d="M64438 8745
L64438 10004
" />
<path d="M63061 8745
L64438 8745
" />
<path d="M63061 10004
L63061 8745
" />
<path d="M68188 17504
L66811 17504
" />
<path d="M68188 16245
L68188 17504
" />
<path d="M66811 16245
L68188 16245
" />
<path d="M66811 17504
L66811 16245
" />
<path d="M70063 25004
L68685 25004
" />
<path d="M70063 23745
L70063 25004
" />
<path d="M68685 23745
L70063 23745
" />
<path d="M68685 25004
L68685 23745
" />
<path d="M73814 32504
L72436 32504
" />
<path d="M73814 31245
L73814 32504
" />
<path d="M72436 31245
L73814 31245
" />
<path d="M72436 32504
L72436 31245
" />
<path d="M77563 25004
L76185 25004
" />
<path d="M77563 23745
L77563 25004
" />
<path d="M76185 23745
L77563 23745
" />
<path d="M76185 25004
L76185 23745
" />
<path d="M75688 17504
L74311 17504
" />
<path d="M75688 16245
L75688 17504
" />
<path d="M74311 16245
L75688 16245
" />
<path d="M74311 17504
L74311 16245
" />
<path d="M71938 10004
L70561 10004
" />
<path d="M71938 8745
L71938 10004
" />
<path d="M70561 8745
L71938 8745
" />
<path d="M70561 10004
L70561 8745
" />
<path d="M79438 10004
L78061 10004
" />
<path d="M79438 8745
L79438 10004
" />
<path d="M78061 8745
L79438 8745
" />
<path d="M78061 10004
L78061 8745
" />
<path d="M83188 17504
L81811 17504
" />
<path d="M83188 16245
L83188 17504
" />
<path d="M81811 16245
L83188 16245
" />
<path d="M81811 17504
L81811 16245
" />
<path d="M85063 25004
L83685 25004
" />
<path d="M85063 23745
L85063 25004
" />
<path d="M83685 23745
L85063 23745
" />
<path d="M83685 25004
L83685 23745
" />
<path d="M81314 32504
L79936 32504
" />
<path d="M81314 31245
L81314 32504
" />
<path d="M79936 31245
L81314 31245
" />
<path d="M79936 32504
L79936 31245
" />
<path d="M87876 40004
L86498 40004
" />
<path d="M87876 38744
L87876 40004
" />
<path d="M86498 38744
L87876 38744
" />
<path d="M86498 40004
L86498 38744
" />
<path d="M88814 32504
L87436 32504
" />
<path d="M88814 31245
L88814 32504
" />
<path d="M87436 31245
L88814 31245
" />
<path d="M87436 32504
L87436 31245
" />
<path d="M92563 25004
L91185 25004
" />
<path d="M92563 23745
L92563 25004
" />
<path d="M91185 23745
L92563 23745
" />
<path d="M91185 25004
L91185 23745
" />
<path d="M90688 17504
L89311 17504
" />
<path d="M90688 16245
L90688 17504
" />
<path d="M89311 16245
L90688 16245
" />
<path d="M89311 17504
L89311 16245
" />
<path d="M86938 10004
L85561 10004
" />
<path d="M86938 8745
L86938 10004
" />
<path d="M85561 8745
L86938 8745
" />
<path d="M85561 10004
L85561 8745
" />
<path d="M94438 10004
L93061 10004
" />
<path d="M94438 8745
L94438 10004
" />
<path d="M93061 8745
L94438 8745
" />
<path d="M93061 10004
L93061 8745
" />
<path d="M101938 10004
L100561 10004
" />
<path d="M101938 8745
L101938 10004
" />
<path d="M100561 8745
L101938 8745
" />
<path d="M100561 10004
L100561 8745
" />
<path d="M98188 17504
L96811 17504
" />
<path d="M98188 16245
L98188 17504
" />
<path d="M96811 16245
L98188 16245
" />
<path d="M96811 17504
L96811 16245
" />
<path d="M100063 25004
L98685 25004
" />
<path d="M100063 23745
L100063 25004
" />
<path d="M98685 23745
L100063 23745
" />
<path d="M98685 25004
L98685 23745
" />
<path d="M96314 32504
L94936 32504
" />
<path d="M96314 31245
L96314 32504
" />
<path d="M94936 31245
L96314 31245
" />
<path d="M94936 32504
L94936 31245
" />
<path d="M97251 40004
L95873 40004
" />
<path d="M97251 38744
L97251 40004
" />
<path d="M95873 38744
L97251 38744
" />
<path d="M95873 40004
L95873 38744
" />
<path d="M106626 40004
L105248 40004
" />
<path d="M106626 38744
L106626 40004
" />
<path d="M105248 38744
L106626 38744
" />
<path d="M105248 40004
L105248 38744
" />
<path d="M103814 32504
L102436 32504
" />
<path d="M103814 31245
L103814 32504
" />
<path d="M102436 31245
L103814 31245
" />
<path d="M102436 32504
L102436 31245
" />
<path d="M107563 25004
L106185 25004
" />
<path d="M107563 23745
L107563 25004
" />
<path d="M106185 23745
L107563 23745
" />
<path d="M106185 25004
L106185 23745
" />
<path d="M105688 17504
L104311 17504
" />
<path d="M105688 16245
L105688 17504
" />
<path d="M104311 16245
L105688 16245
" />
<path d="M104311 17504
L104311 16245
" />
<path d="M109438 10004
L108061 10004
" />
<path d="M109438 8745
L109438 10004
" />
<path d="M108061 8745
L109438 8745
" />
<path d="M108061 10004
L108061 8745
" />
<path d="M116938 10004
L115561 10004
" />
<path d="M116938 8745
L116938 10004
" />
<path d="M115561 8745
L116938 8745
" />
<path d="M115561 10004
L115561 8745
" />
<path d="M116001 21254
L114623 21254
" />
<path d="M116001 19995
L116001 21254
" />
<path d="M114623 19995
L116001 19995
" />
<path d="M114623 21254
L114623 19995
" />
<path d="M114126 32504
L112748 32504
" />
<path d="M114126 31245
L114126 32504
" />
<path d="M112748 31245
L114126 31245
" />
<path d="M112748 32504
L112748 31245
" />
<path d="M119751 40004
L118373 40004
" />
<path d="M119751 38744
L119751 40004
" />
<path d="M118373 38744
L119751 38744
" />
<path d="M118373 40004
L118373 38744
" />
<path d="M127251 32504
L125873 32504
" />
<path d="M127251 31245
L127251 32504
" />
<path d="M125873 31245
L127251 31245
" />
<path d="M125873 32504
L125873 31245
" />
<path d="M127251 40004
L125873 40004
" />
<path d="M127251 38744
L127251 40004
" />
<path d="M125873 38744
L127251 38744
" />
<path d="M125873 40004
L125873 38744
" />
<path d="M134751 40004
L133373 40004
" />
<path d="M134751 38744
L134751 40004
" />
<path d="M133373 38744
L134751 38744
" />
<path d="M133373 40004
L133373 38744
" />
</g>
<g style="fill:#000000; fill-opacity:0.0; 
stroke:#000000; stroke-width:3.93701; stroke-opacity:1; 
stroke-linecap:round; stroke-linejoin:round;">
<circle cx="138750" cy="44062.6" r="433.071" /> 
<circle cx="138750" cy="26240.2" r="433.071" /> 
<circle cx="138750" cy="8437.48" r="433.071" /> 
<circle cx="6328.74" cy="43996.1" r="433.071" /> 
<circle cx="6328.74" cy="26240.2" r="433.071" /> 
<circle cx="6328.74" cy="8484.25" r="433.071" /> 
<g >
</g>
<g >
</g>
<g >
</g>
<g >
</g>
<g >
</g>
<g >
</g>
<g >
</g>
<g >
</g>
<g >
</g>
<g >
</g>
<g >
</g>
<g >
</g>
<g >
</g>
<g >
</g>
<g >
</g>
<g >
</g>
<g >
</g>
<g >
</g>
<g >
</g>
<g >
</g>
<g >
</g>
<g >
</g>
<g >
</g>
<g >
</g>
<g >
</g>
<g >
</g>
<g >
</g>
<g >
</g>
<g >
</g>
<g >
</g>
<g >
</g>
<g >
</g>
<g >
</g>
<g >
</g>
<g >
</g>
<g >
</g>
<g >
</g>
<g >
</g>
<g >
</g>
<g >
</g>
<g >
</g>
<g >
</g>
<g >
</g>
<g >
</g>
<g >
</g>
<g >
</g>
<g >
</g>
<g >
</g>
<g >
</g>
<g >
</g>
<g >
</g>
<g >
</g>
<g >
</g>
<g >
</g>
<g >
</g>
<g >
</g>
<g >
</g>
<g >
</g>
<g >
</g>
<g >
</g>
<g >
</g>
<g >
</g>
<g >
</g>
<g >
</g>
<g >
</g>
<g >
</g>
<g >
</g>
<g >
</g>
<g >
</g>
<g >
</g>
<g >
</g>
<g >
</g>
<g >
</g>
<g >
</g>
<g >
</g>
<g >
</g>
<g >
</g>
<g >
</g>
<g >
</g>
<g >
</g>
<g >
</g>
<g >
</g>
<g >
</g>
<g >
</g>
<g >
</g>
<g >
</g>
<g >
</g>
<g >
</g>
<g >
</g>
<g >
</g>
<g >
</g>
<g >
</g>
<g >
</g>
<g >
</g>
<g >
</g>
<g >
</g>
<g >
</g>
<g >
</g>
<g >
</g>
<g >
</g>
<g >
</g>
<g >
</g>
<g >
</g>
<g >
</g>
<g >
</g>
<g >
</g>
<g >
</g>
<g >
</g>
<g >
</g>
<g >
</g>
<g >
</g>
<g >
</g>
<g >
</g>
<g >
</g>
<g >
</g>
<g >
</g>
<g >
</g>
<g >
</g>
<g >
</g>
<g >
</g>
<g >
</g>
<g >
</g>
<g >
</g>
<g >
</g>
<g >
</g>
<g >
</g>
<g >
</g>
<g >
</g>
<g >
</g>
<g >
</g>
<g >
</g>
<g >
</g>
<g >
</g>
<g >
</g>
<g >
</g>
<g >
</g>
<g >
</g>
<g >
</g>
<g >
</g>
<g >
</g>
<g >
</g>
<g >
</g>
<g >
</g>
<g >
</g>
<g >
</g>
<g >
</g>
<g >
</g>
<g >
</g>
<g >
</g>
<g >
</g>
<g >
</g>
<g >
</g>
<g >
</g>
<g >
</g>
<g >
</g>
<g >
</g>
<g >
</g>
<g >
</g>
<g >
</g>
<g >
</g>
<g >
</g>
<g >
</g>
<g >
</g>
<g >
</g>
<g >
</g>
<g >
</g>
<g >
</g>
<g >
</g>
<g >
</g>
<g >
</g>
<g >
</g>
<g >
</g>
<g >
</g>
<g >
</g>
<g >
</g>
<g >
</g>
<g >
</g>
<g >
</g>
<g >
</g>
<g >
</g>
<g >
</g>
<g >
</g>
<g >
</g>
<g >
</g>
<g >
</g>
<g >
</g>
<g >
</g>
<g >
</g>
<g >
</g>
<g >
</g>
<g >
</g>
<g >
</g>
<g >
</g>
<g >
</g>
<g >
</g>
<g >
</g>
<g >
</g>
<g >
</g>
<g >
</g>
<g >
</g>
<g >
</g>
<g >
</g>
<g >
</g>
<g >
</g>
<g >
</g>
<g >
</g>
<g >
</g>
<g >
</g>
<g >
</g>
<g >
</g>
<g >
</g>
<g >
</g>
<g >
</g>
<g >
</g>
<g >
</g>
</g> 
</svg>
