G04 #@! TF.GenerationSoftware,KiCad,Pcbnew,(5.1.12)-1*
G04 #@! TF.CreationDate,2022-12-17T21:06:57+09:00*
G04 #@! TF.ProjectId,jtnk67,6a746e6b-3637-42e6-9b69-6361645f7063,rev?*
G04 #@! TF.SameCoordinates,Original*
G04 #@! TF.FileFunction,Copper,L2,Bot*
G04 #@! TF.FilePolarity,Positive*
%FSLAX46Y46*%
G04 Gerber Fmt 4.6, Leading zero omitted, Abs format (unit mm)*
G04 Created by KiCad (PCBNEW (5.1.12)-1) date 2022-12-17 21:06:57*
%MOMM*%
%LPD*%
G01*
G04 APERTURE LIST*
G04 #@! TA.AperFunction,SMDPad,CuDef*
%ADD10R,3.300000X3.000000*%
G04 #@! TD*
G04 #@! TA.AperFunction,ComponentPad*
%ADD11C,1.524000*%
G04 #@! TD*
G04 #@! TA.AperFunction,ComponentPad*
%ADD12C,2.000000*%
G04 #@! TD*
G04 #@! TA.AperFunction,ComponentPad*
%ADD13R,3.200000X2.500000*%
G04 #@! TD*
G04 #@! TA.AperFunction,SMDPad,CuDef*
%ADD14R,2.200000X0.820000*%
G04 #@! TD*
G04 #@! TA.AperFunction,ComponentPad*
%ADD15O,1.500000X1.500000*%
G04 #@! TD*
G04 #@! TA.AperFunction,ComponentPad*
%ADD16C,1.397000*%
G04 #@! TD*
G04 #@! TA.AperFunction,ComponentPad*
%ADD17R,1.397000X1.397000*%
G04 #@! TD*
G04 #@! TA.AperFunction,SMDPad,CuDef*
%ADD18R,0.950000X1.300000*%
G04 #@! TD*
G04 #@! TA.AperFunction,ViaPad*
%ADD19C,0.800000*%
G04 #@! TD*
G04 #@! TA.AperFunction,Conductor*
%ADD20C,0.250000*%
G04 #@! TD*
G04 #@! TA.AperFunction,Conductor*
%ADD21C,0.500000*%
G04 #@! TD*
G04 APERTURE END LIST*
D10*
X300294000Y-59690000D03*
X286794000Y-62230000D03*
X157419000Y-107315000D03*
X143919000Y-109855000D03*
D11*
X348082600Y-23622000D03*
X348082600Y-26162000D03*
X348082600Y-28702000D03*
X348082600Y-31242000D03*
X348082600Y-33782000D03*
X348082600Y-36322000D03*
X348082600Y-38862000D03*
X348082600Y-41402000D03*
X348082600Y-43942000D03*
X348082600Y-46482000D03*
X348082600Y-49022000D03*
X348082600Y-51562000D03*
X332862600Y-51562000D03*
X332862600Y-49022000D03*
X332862600Y-46482000D03*
X332862600Y-43942000D03*
X332862600Y-41402000D03*
X332862600Y-38862000D03*
X332862600Y-36322000D03*
X332862600Y-33782000D03*
X332862600Y-31242000D03*
X332862600Y-28702000D03*
X332862600Y-26162000D03*
X332862600Y-23622000D03*
X332862600Y-21082000D03*
X348082600Y-21082000D03*
D12*
X337269000Y-57150000D03*
X343769000Y-57150000D03*
X347519000Y-69175000D03*
X347519000Y-64175000D03*
D13*
X340519000Y-72275000D03*
X340519000Y-61075000D03*
D12*
X333019000Y-69175000D03*
X333019000Y-66675000D03*
X333019000Y-64175000D03*
D10*
X334369000Y-109895000D03*
X347969000Y-107355000D03*
X315319000Y-109895000D03*
X328919000Y-107355000D03*
X315319000Y-90845000D03*
X328919000Y-88305000D03*
X289125000Y-33695000D03*
X302725000Y-31155000D03*
X296269000Y-109895000D03*
X309869000Y-107355000D03*
X295581000Y-88305000D03*
X281981000Y-90845000D03*
X270075000Y-33695000D03*
X283675000Y-31155000D03*
X265312000Y-71795000D03*
X278912000Y-69255000D03*
X260550000Y-52745000D03*
X274150000Y-50205000D03*
X251025000Y-33695000D03*
X264625000Y-31155000D03*
X262931000Y-109895000D03*
X276531000Y-107355000D03*
X255788000Y-90845000D03*
X269388000Y-88305000D03*
X246262000Y-71795000D03*
X259862000Y-69255000D03*
X241500000Y-52745000D03*
X255100000Y-50205000D03*
X231975000Y-33695000D03*
X245575000Y-31155000D03*
X239119000Y-109895000D03*
X252719000Y-107355000D03*
X236738000Y-90845000D03*
X250338000Y-88305000D03*
X227212000Y-71795000D03*
X240812000Y-69255000D03*
X222450000Y-52745000D03*
X236050000Y-50205000D03*
X212925000Y-33695000D03*
X226525000Y-31155000D03*
X215306000Y-109895000D03*
X228906000Y-107355000D03*
X217688000Y-90845000D03*
X231288000Y-88305000D03*
X208162000Y-71795000D03*
X221762000Y-69255000D03*
X203400000Y-52745000D03*
X217000000Y-50205000D03*
X193875000Y-33695000D03*
X207475000Y-31155000D03*
X198638000Y-90845000D03*
X212238000Y-88305000D03*
X189112000Y-71795000D03*
X202712000Y-69255000D03*
X184350000Y-52745000D03*
X197950000Y-50205000D03*
X174825000Y-33695000D03*
X188425000Y-31155000D03*
X179588000Y-90845000D03*
X193188000Y-88305000D03*
X170062000Y-71795000D03*
X183662000Y-69255000D03*
X165300000Y-52745000D03*
X178900000Y-50205000D03*
X155775000Y-33695000D03*
X169375000Y-31155000D03*
X160538000Y-90845000D03*
X174138000Y-88305000D03*
X151012000Y-71795000D03*
X164612000Y-69255000D03*
X146250000Y-52745000D03*
X159850000Y-50205000D03*
X136725000Y-33695000D03*
X150325000Y-31155000D03*
X141488000Y-90845000D03*
X155088000Y-88305000D03*
X131962000Y-71795000D03*
X145562000Y-69255000D03*
X127200000Y-52745000D03*
X140800000Y-50205000D03*
X117675000Y-33695000D03*
X131275000Y-31155000D03*
X122438000Y-90845000D03*
X136038000Y-88305000D03*
X112912000Y-71795000D03*
X126512000Y-69255000D03*
X108150000Y-52745000D03*
X121750000Y-50205000D03*
X98625000Y-33695000D03*
X112225000Y-31155000D03*
X103388000Y-90845000D03*
X116988000Y-88305000D03*
X93862000Y-71795000D03*
X107462000Y-69255000D03*
X89100000Y-52745000D03*
X102700000Y-50205000D03*
X79575000Y-33695000D03*
X93175000Y-31155000D03*
X72431200Y-109895000D03*
X86031200Y-107355000D03*
X84337500Y-90845000D03*
X97937500Y-88305000D03*
X74812500Y-71795000D03*
X88412500Y-69255000D03*
X70050000Y-52745000D03*
X83650000Y-50205000D03*
X60525000Y-33695000D03*
X74125000Y-31155000D03*
X48618800Y-109895000D03*
X62218800Y-107355000D03*
X65287500Y-90845000D03*
X78887500Y-88305000D03*
X55762500Y-71795000D03*
X69362500Y-69255000D03*
X51000000Y-52745000D03*
X64600000Y-50205000D03*
X41475000Y-33695000D03*
X55075000Y-31155000D03*
X24806200Y-109895000D03*
X38406200Y-107355000D03*
X34381200Y-90805000D03*
X47881200Y-88265000D03*
X43168800Y-69255000D03*
X29568800Y-71795000D03*
X40787500Y-50205000D03*
X27187500Y-52745000D03*
X22425000Y-33695000D03*
X36025000Y-31155000D03*
D14*
X28006200Y-100762000D03*
X28006200Y-99262000D03*
X33906200Y-99262000D03*
X33906200Y-100762000D03*
X51818800Y-100762000D03*
X51818800Y-99262000D03*
X57718800Y-99262000D03*
X57718800Y-100762000D03*
X37531200Y-81712500D03*
X37531200Y-80212500D03*
X43431200Y-80212500D03*
X43431200Y-81712500D03*
X32768800Y-62662500D03*
X32768800Y-61162500D03*
X38668800Y-61162500D03*
X38668800Y-62662500D03*
X30387500Y-43612500D03*
X30387500Y-42112500D03*
X36287500Y-42112500D03*
X36287500Y-43612500D03*
X25625000Y-24562500D03*
X25625000Y-23062500D03*
X31525000Y-23062500D03*
X31525000Y-24562500D03*
X44675000Y-24562500D03*
X44675000Y-23062500D03*
X50575000Y-23062500D03*
X50575000Y-24562500D03*
X54200000Y-43612500D03*
X54200000Y-42112500D03*
X60100000Y-42112500D03*
X60100000Y-43612500D03*
X58962500Y-62662500D03*
X58962500Y-61162500D03*
X64862500Y-61162500D03*
X64862500Y-62662500D03*
X68487500Y-81712500D03*
X68487500Y-80212500D03*
X74387500Y-80212500D03*
X74387500Y-81712500D03*
X75631200Y-100762000D03*
X75631200Y-99262000D03*
X81531200Y-99262000D03*
X81531200Y-100762000D03*
X87537500Y-81712500D03*
X87537500Y-80212500D03*
X93437500Y-80212500D03*
X93437500Y-81712500D03*
X78012500Y-62662500D03*
X78012500Y-61162500D03*
X83912500Y-61162500D03*
X83912500Y-62662500D03*
X73250000Y-43612500D03*
X73250000Y-42112500D03*
X79150000Y-42112500D03*
X79150000Y-43612500D03*
X63725000Y-24562500D03*
X63725000Y-23062500D03*
X69625000Y-23062500D03*
X69625000Y-24562500D03*
X82775000Y-24562500D03*
X82775000Y-23062500D03*
X88675000Y-23062500D03*
X88675000Y-24562500D03*
X92300000Y-43612500D03*
X92300000Y-42112500D03*
X98200000Y-42112500D03*
X98200000Y-43612500D03*
X97062000Y-62662500D03*
X97062000Y-61162500D03*
X102962000Y-61162500D03*
X102962000Y-62662500D03*
X106588000Y-81712500D03*
X106588000Y-80212500D03*
X112488000Y-80212500D03*
X112488000Y-81712500D03*
X125638000Y-81712500D03*
X125638000Y-80212500D03*
X131538000Y-80212500D03*
X131538000Y-81712500D03*
X116112000Y-62662500D03*
X116112000Y-61162500D03*
X122012000Y-61162500D03*
X122012000Y-62662500D03*
X111350000Y-43612500D03*
X111350000Y-42112500D03*
X117250000Y-42112500D03*
X117250000Y-43612500D03*
X101825000Y-24562500D03*
X101825000Y-23062500D03*
X107725000Y-23062500D03*
X107725000Y-24562500D03*
X120875000Y-24562500D03*
X120875000Y-23062500D03*
X126775000Y-23062500D03*
X126775000Y-24562500D03*
X130400000Y-43612500D03*
X130400000Y-42112500D03*
X136300000Y-42112500D03*
X136300000Y-43612500D03*
X135162000Y-62662500D03*
X135162000Y-61162500D03*
X141062000Y-61162500D03*
X141062000Y-62662500D03*
X144688000Y-81712500D03*
X144688000Y-80212500D03*
X150588000Y-80212500D03*
X150588000Y-81712500D03*
X147069000Y-100762000D03*
X147069000Y-99262000D03*
X152969000Y-99262000D03*
X152969000Y-100762000D03*
X163738000Y-81712500D03*
X163738000Y-80212500D03*
X169638000Y-80212500D03*
X169638000Y-81712500D03*
X154212000Y-62662500D03*
X154212000Y-61162500D03*
X160112000Y-61162500D03*
X160112000Y-62662500D03*
X149450000Y-43612500D03*
X149450000Y-42112500D03*
X155350000Y-42112500D03*
X155350000Y-43612500D03*
X139925000Y-24562500D03*
X139925000Y-23062500D03*
X145825000Y-23062500D03*
X145825000Y-24562500D03*
X158975000Y-24562500D03*
X158975000Y-23062500D03*
X164875000Y-23062500D03*
X164875000Y-24562500D03*
X168500000Y-43612500D03*
X168500000Y-42112500D03*
X174400000Y-42112500D03*
X174400000Y-43612500D03*
X173262000Y-62662500D03*
X173262000Y-61162500D03*
X179162000Y-61162500D03*
X179162000Y-62662500D03*
X182788000Y-81712500D03*
X182788000Y-80212500D03*
X188688000Y-80212500D03*
X188688000Y-81712500D03*
X192312000Y-62662500D03*
X192312000Y-61162500D03*
X198212000Y-61162500D03*
X198212000Y-62662500D03*
X187550000Y-43612500D03*
X187550000Y-42112500D03*
X193450000Y-42112500D03*
X193450000Y-43612500D03*
X178025000Y-24562500D03*
X178025000Y-23062500D03*
X183925000Y-23062500D03*
X183925000Y-24562500D03*
X197075000Y-24562500D03*
X197075000Y-23062500D03*
X202975000Y-23062500D03*
X202975000Y-24562500D03*
X206600000Y-43612500D03*
X206600000Y-42112500D03*
X212500000Y-42112500D03*
X212500000Y-43612500D03*
X211362000Y-62662500D03*
X211362000Y-61162500D03*
X217262000Y-61162500D03*
X217262000Y-62662500D03*
X201838000Y-81712500D03*
X201838000Y-80212500D03*
X207738000Y-80212500D03*
X207738000Y-81712500D03*
X218506000Y-100762000D03*
X218506000Y-99262000D03*
X224406000Y-99262000D03*
X224406000Y-100762000D03*
X220888000Y-81712500D03*
X220888000Y-80212500D03*
X226788000Y-80212500D03*
X226788000Y-81712500D03*
X230412000Y-62662500D03*
X230412000Y-61162500D03*
X236312000Y-61162500D03*
X236312000Y-62662500D03*
X225650000Y-43612500D03*
X225650000Y-42112500D03*
X231550000Y-42112500D03*
X231550000Y-43612500D03*
X216125000Y-24562500D03*
X216125000Y-23062500D03*
X222025000Y-23062500D03*
X222025000Y-24562500D03*
X235175000Y-24562500D03*
X235175000Y-23062500D03*
X241075000Y-23062500D03*
X241075000Y-24562500D03*
X254225000Y-24562500D03*
X254225000Y-23062500D03*
X260125000Y-23062500D03*
X260125000Y-24562500D03*
X244700000Y-43612500D03*
X244700000Y-42112500D03*
X250600000Y-42112500D03*
X250600000Y-43612500D03*
X249462000Y-62662500D03*
X249462000Y-61162500D03*
X255362000Y-61162500D03*
X255362000Y-62662500D03*
X239938000Y-81712500D03*
X239938000Y-80212500D03*
X245838000Y-80212500D03*
X245838000Y-81712500D03*
X242319000Y-100762000D03*
X242319000Y-99262000D03*
X248219000Y-99262000D03*
X248219000Y-100762000D03*
X266131000Y-100762000D03*
X266131000Y-99262000D03*
X272031000Y-99262000D03*
X272031000Y-100762000D03*
X258988000Y-81712500D03*
X258988000Y-80212500D03*
X264888000Y-80212500D03*
X264888000Y-81712500D03*
X268512000Y-62662500D03*
X268512000Y-61162500D03*
X274412000Y-61162500D03*
X274412000Y-62662500D03*
X263750000Y-43612500D03*
X263750000Y-42112500D03*
X269650000Y-42112500D03*
X269650000Y-43612500D03*
X273275000Y-24562500D03*
X273275000Y-23062500D03*
X279175000Y-23062500D03*
X279175000Y-24562500D03*
X292325000Y-24562500D03*
X292325000Y-23062500D03*
X298225000Y-23062500D03*
X298225000Y-24562500D03*
X289944000Y-53137500D03*
X289944000Y-51637500D03*
X295844000Y-51637500D03*
X295844000Y-53137500D03*
X285181000Y-81712500D03*
X285181000Y-80212500D03*
X291081000Y-80212500D03*
X291081000Y-81712500D03*
X299469000Y-100762000D03*
X299469000Y-99262000D03*
X305369000Y-99262000D03*
X305369000Y-100762000D03*
X318519000Y-81712500D03*
X318519000Y-80212500D03*
X324419000Y-80212500D03*
X324419000Y-81712500D03*
X318519000Y-100762000D03*
X318519000Y-99262000D03*
X324419000Y-99262000D03*
X324419000Y-100762000D03*
X337569000Y-100762000D03*
X337569000Y-99262000D03*
X343469000Y-99262000D03*
X343469000Y-100762000D03*
D15*
X321350000Y-21431200D03*
X323850000Y-21431200D03*
X326350000Y-21431200D03*
D16*
X333375000Y-106204000D03*
D17*
X333375000Y-98584000D03*
D18*
X333375000Y-100619000D03*
X333375000Y-104169000D03*
D16*
X350044000Y-77628800D03*
D17*
X350044000Y-70008800D03*
D18*
X350044000Y-72043800D03*
X350044000Y-75593800D03*
D16*
X314325000Y-106204000D03*
D17*
X314325000Y-98584000D03*
D18*
X314325000Y-100619000D03*
X314325000Y-104169000D03*
D16*
X314325000Y-87153800D03*
D17*
X314325000Y-79533800D03*
D18*
X314325000Y-81568800D03*
X314325000Y-85118800D03*
D16*
X288131000Y-30003800D03*
D17*
X288131000Y-22383800D03*
D18*
X288131000Y-24418800D03*
X288131000Y-27968800D03*
D16*
X295275000Y-106204000D03*
D17*
X295275000Y-98584000D03*
D18*
X295275000Y-100619000D03*
X295275000Y-104169000D03*
D16*
X280988000Y-87153800D03*
D17*
X280988000Y-79533800D03*
D18*
X280988000Y-81568800D03*
X280988000Y-85118800D03*
D16*
X285750000Y-58578800D03*
D17*
X285750000Y-50958800D03*
D18*
X285750000Y-52993800D03*
X285750000Y-56543800D03*
D16*
X269081000Y-30003800D03*
D17*
X269081000Y-22383800D03*
D18*
X269081000Y-24418800D03*
X269081000Y-27968800D03*
D16*
X264319000Y-68103800D03*
D17*
X264319000Y-60483800D03*
D18*
X264319000Y-62518800D03*
X264319000Y-66068800D03*
D16*
X259556000Y-49053800D03*
D17*
X259556000Y-41433800D03*
D18*
X259556000Y-43468800D03*
X259556000Y-47018800D03*
D16*
X250031000Y-30003800D03*
D17*
X250031000Y-22383800D03*
D18*
X250031000Y-24418800D03*
X250031000Y-27968800D03*
D16*
X261938000Y-106204000D03*
D17*
X261938000Y-98584000D03*
D18*
X261938000Y-100619000D03*
X261938000Y-104169000D03*
D16*
X254794000Y-87153800D03*
D17*
X254794000Y-79533800D03*
D18*
X254794000Y-81568800D03*
X254794000Y-85118800D03*
D16*
X245269000Y-68103800D03*
D17*
X245269000Y-60483800D03*
D18*
X245269000Y-62518800D03*
X245269000Y-66068800D03*
D16*
X240506000Y-49053800D03*
D17*
X240506000Y-41433800D03*
D18*
X240506000Y-43468800D03*
X240506000Y-47018800D03*
D16*
X230981000Y-30003800D03*
D17*
X230981000Y-22383800D03*
D18*
X230981000Y-24418800D03*
X230981000Y-27968800D03*
D16*
X238125000Y-106204000D03*
D17*
X238125000Y-98584000D03*
D18*
X238125000Y-100619000D03*
X238125000Y-104169000D03*
D16*
X235744000Y-87153800D03*
D17*
X235744000Y-79533800D03*
D18*
X235744000Y-81568800D03*
X235744000Y-85118800D03*
D16*
X226219000Y-68103800D03*
D17*
X226219000Y-60483800D03*
D18*
X226219000Y-62518800D03*
X226219000Y-66068800D03*
D16*
X221456000Y-49053800D03*
D17*
X221456000Y-41433800D03*
D18*
X221456000Y-43468800D03*
X221456000Y-47018800D03*
D16*
X211931000Y-30003800D03*
D17*
X211931000Y-22383800D03*
D18*
X211931000Y-24418800D03*
X211931000Y-27968800D03*
D16*
X214312000Y-106204000D03*
D17*
X214312000Y-98584000D03*
D18*
X214312000Y-100619000D03*
X214312000Y-104169000D03*
D16*
X216694000Y-87153800D03*
D17*
X216694000Y-79533800D03*
D18*
X216694000Y-81568800D03*
X216694000Y-85118800D03*
D16*
X207169000Y-68103800D03*
D17*
X207169000Y-60483800D03*
D18*
X207169000Y-62518800D03*
X207169000Y-66068800D03*
D16*
X202406000Y-49053800D03*
D17*
X202406000Y-41433800D03*
D18*
X202406000Y-43468800D03*
X202406000Y-47018800D03*
D16*
X192881000Y-30003800D03*
D17*
X192881000Y-22383800D03*
D18*
X192881000Y-24418800D03*
X192881000Y-27968800D03*
D16*
X197644000Y-87153800D03*
D17*
X197644000Y-79533800D03*
D18*
X197644000Y-81568800D03*
X197644000Y-85118800D03*
D16*
X188119000Y-68103800D03*
D17*
X188119000Y-60483800D03*
D18*
X188119000Y-62518800D03*
X188119000Y-66068800D03*
D16*
X183356000Y-49053800D03*
D17*
X183356000Y-41433800D03*
D18*
X183356000Y-43468800D03*
X183356000Y-47018800D03*
D16*
X173831000Y-30003800D03*
D17*
X173831000Y-22383800D03*
D18*
X173831000Y-24418800D03*
X173831000Y-27968800D03*
D16*
X178594000Y-87153800D03*
D17*
X178594000Y-79533800D03*
D18*
X178594000Y-81568800D03*
X178594000Y-85118800D03*
D16*
X169069000Y-68103800D03*
D17*
X169069000Y-60483800D03*
D18*
X169069000Y-62518800D03*
X169069000Y-66068800D03*
D16*
X164306000Y-49053800D03*
D17*
X164306000Y-41433800D03*
D18*
X164306000Y-43468800D03*
X164306000Y-47018800D03*
D16*
X154781000Y-30003800D03*
D17*
X154781000Y-22383800D03*
D18*
X154781000Y-24418800D03*
X154781000Y-27968800D03*
D16*
X159544000Y-87153800D03*
D17*
X159544000Y-79533800D03*
D18*
X159544000Y-81568800D03*
X159544000Y-85118800D03*
D16*
X150019000Y-68103800D03*
D17*
X150019000Y-60483800D03*
D18*
X150019000Y-62518800D03*
X150019000Y-66068800D03*
D16*
X145256000Y-49053800D03*
D17*
X145256000Y-41433800D03*
D18*
X145256000Y-43468800D03*
X145256000Y-47018800D03*
D16*
X135731000Y-30003800D03*
D17*
X135731000Y-22383800D03*
D18*
X135731000Y-24418800D03*
X135731000Y-27968800D03*
D16*
X140494000Y-87153800D03*
D17*
X140494000Y-79533800D03*
D18*
X140494000Y-81568800D03*
X140494000Y-85118800D03*
D16*
X130969000Y-68103800D03*
D17*
X130969000Y-60483800D03*
D18*
X130969000Y-62518800D03*
X130969000Y-66068800D03*
D16*
X126206000Y-49053800D03*
D17*
X126206000Y-41433800D03*
D18*
X126206000Y-43468800D03*
X126206000Y-47018800D03*
D16*
X116681000Y-30003800D03*
D17*
X116681000Y-22383800D03*
D18*
X116681000Y-24418800D03*
X116681000Y-27968800D03*
D16*
X121444000Y-87153800D03*
D17*
X121444000Y-79533800D03*
D18*
X121444000Y-81568800D03*
X121444000Y-85118800D03*
D16*
X111919000Y-68103800D03*
D17*
X111919000Y-60483800D03*
D18*
X111919000Y-62518800D03*
X111919000Y-66068800D03*
D16*
X107156000Y-49053800D03*
D17*
X107156000Y-41433800D03*
D18*
X107156000Y-43468800D03*
X107156000Y-47018800D03*
D16*
X97631200Y-30003800D03*
D17*
X97631200Y-22383800D03*
D18*
X97631200Y-24418800D03*
X97631200Y-27968800D03*
D16*
X142875000Y-106204000D03*
D17*
X142875000Y-98584000D03*
D18*
X142875000Y-100619000D03*
X142875000Y-104169000D03*
D16*
X102394000Y-87153800D03*
D17*
X102394000Y-79533800D03*
D18*
X102394000Y-81568800D03*
X102394000Y-85118800D03*
D16*
X92868800Y-68103800D03*
D17*
X92868800Y-60483800D03*
D18*
X92868800Y-62518800D03*
X92868800Y-66068800D03*
D16*
X88106200Y-49053800D03*
D17*
X88106200Y-41433800D03*
D18*
X88106200Y-43468800D03*
X88106200Y-47018800D03*
D16*
X78581200Y-30003800D03*
D17*
X78581200Y-22383800D03*
D18*
X78581200Y-24418800D03*
X78581200Y-27968800D03*
D16*
X71437500Y-106204000D03*
D17*
X71437500Y-98584000D03*
D18*
X71437500Y-100619000D03*
X71437500Y-104169000D03*
D16*
X83343800Y-87153800D03*
D17*
X83343800Y-79533800D03*
D18*
X83343800Y-81568800D03*
X83343800Y-85118800D03*
D16*
X73818800Y-68103800D03*
D17*
X73818800Y-60483800D03*
D18*
X73818800Y-62518800D03*
X73818800Y-66068800D03*
D16*
X69056200Y-49053800D03*
D17*
X69056200Y-41433800D03*
D18*
X69056200Y-43468800D03*
X69056200Y-47018800D03*
D16*
X59531200Y-30003800D03*
D17*
X59531200Y-22383800D03*
D18*
X59531200Y-24418800D03*
X59531200Y-27968800D03*
D16*
X47625000Y-106204000D03*
D17*
X47625000Y-98584000D03*
D18*
X47625000Y-100619000D03*
X47625000Y-104169000D03*
D16*
X64293800Y-87153800D03*
D17*
X64293800Y-79533800D03*
D18*
X64293800Y-81568800D03*
X64293800Y-85118800D03*
D16*
X54768800Y-68103800D03*
D17*
X54768800Y-60483800D03*
D18*
X54768800Y-62518800D03*
X54768800Y-66068800D03*
D16*
X50006200Y-49053800D03*
D17*
X50006200Y-41433800D03*
D18*
X50006200Y-43468800D03*
X50006200Y-47018800D03*
D16*
X40481200Y-30003800D03*
D17*
X40481200Y-22383800D03*
D18*
X40481200Y-24418800D03*
X40481200Y-27968800D03*
D16*
X23812500Y-106204000D03*
D17*
X23812500Y-98584000D03*
D18*
X23812500Y-100619000D03*
X23812500Y-104169000D03*
D16*
X33337500Y-87153800D03*
D17*
X33337500Y-79533800D03*
D18*
X33337500Y-81568800D03*
X33337500Y-85118800D03*
D16*
X28575000Y-68103800D03*
D17*
X28575000Y-60483800D03*
D18*
X28575000Y-62518800D03*
X28575000Y-66068800D03*
D16*
X26193800Y-49053800D03*
D17*
X26193800Y-41433800D03*
D18*
X26193800Y-43468800D03*
X26193800Y-47018800D03*
D16*
X21431200Y-30003800D03*
D17*
X21431200Y-22383800D03*
D18*
X21431200Y-24418800D03*
X21431200Y-27968800D03*
D19*
X327722800Y-33532600D03*
X283418300Y-38813000D03*
X276872300Y-38813000D03*
X156654900Y-81572600D03*
X205776300Y-88606400D03*
X170437200Y-83340300D03*
X77785400Y-82945600D03*
X60312600Y-80788000D03*
X87247500Y-99620000D03*
X236100200Y-109249800D03*
X190338800Y-27340800D03*
X228603600Y-27148600D03*
X247610100Y-27745200D03*
X283634900Y-26924200D03*
X23812500Y-23812500D03*
X28575000Y-42862500D03*
X30956200Y-61912500D03*
X35718800Y-80962500D03*
X42862500Y-23812500D03*
X52387500Y-42862500D03*
X57150000Y-61912500D03*
X66675000Y-80962500D03*
X61912500Y-23812500D03*
X71437500Y-42862500D03*
X76200000Y-61912500D03*
X85725000Y-80962500D03*
X80962500Y-23812500D03*
X90487500Y-42862500D03*
X95250000Y-61912500D03*
X104775000Y-80962500D03*
X100012000Y-23812500D03*
X109538000Y-42862500D03*
X114300000Y-61912500D03*
X123825000Y-80962500D03*
X119062000Y-23812500D03*
X128588000Y-42862500D03*
X133350000Y-61912500D03*
X142875000Y-80962500D03*
X138112000Y-23812500D03*
X147638000Y-42862500D03*
X152400000Y-61912500D03*
X161925000Y-80962500D03*
X157162000Y-23812500D03*
X166688000Y-42862500D03*
X171450000Y-61912500D03*
X180975000Y-80962500D03*
X176212000Y-23812500D03*
X185738000Y-42862500D03*
X190500000Y-61912500D03*
X200025000Y-80962500D03*
X195262000Y-23812500D03*
X204788000Y-42862500D03*
X209550000Y-61912500D03*
X219075000Y-80962500D03*
X214312000Y-23812500D03*
X223838000Y-42862500D03*
X228600000Y-61912500D03*
X233362000Y-23812500D03*
X252412000Y-23812500D03*
X242888000Y-42862500D03*
X271462000Y-23812500D03*
X261938000Y-42862500D03*
X247650000Y-61912500D03*
X266700000Y-61912500D03*
X238125000Y-78581200D03*
X257175000Y-78581200D03*
X290512000Y-23812500D03*
X287935000Y-49810200D03*
X283369000Y-78581200D03*
X316706000Y-78802500D03*
X335560000Y-97435200D03*
X316510000Y-97435200D03*
X297460000Y-97435200D03*
X264123000Y-97435200D03*
X240310000Y-97435200D03*
X216498000Y-97435200D03*
X145060000Y-97435200D03*
X73622700Y-97435200D03*
X50006200Y-97631200D03*
X26193800Y-97631200D03*
X335850300Y-99777100D03*
X322065100Y-94370000D03*
X322982000Y-96113800D03*
X314062300Y-96102200D03*
X324674900Y-79201500D03*
X290323600Y-91084900D03*
X302354200Y-96137600D03*
X288250300Y-53953800D03*
X290324200Y-78817500D03*
X291145000Y-31161900D03*
X295110500Y-50028700D03*
X264100000Y-44634900D03*
X271174900Y-25714100D03*
X268728500Y-63700100D03*
X269193300Y-58448300D03*
X267347400Y-78432900D03*
X267563600Y-76729400D03*
X264413100Y-98980000D03*
X264790700Y-79189100D03*
X262926300Y-101835500D03*
X266596400Y-98165400D03*
X244475000Y-91936000D03*
X245238600Y-96117500D03*
X244229400Y-74781800D03*
X244333100Y-78597500D03*
X244950200Y-45121400D03*
X247315200Y-60206100D03*
X253001000Y-37870600D03*
X250053900Y-40541900D03*
X223402100Y-40538900D03*
X218547100Y-31413000D03*
X230353300Y-63684000D03*
X230193600Y-40646000D03*
X230554400Y-66938100D03*
X230633800Y-78874000D03*
X218550900Y-101785400D03*
X220813800Y-87652100D03*
X211253500Y-66324400D03*
X214114000Y-95286700D03*
X209171000Y-52581800D03*
X209654700Y-63169600D03*
X199692300Y-37712100D03*
X203727800Y-40864400D03*
X186872100Y-44629600D03*
X182560000Y-34970000D03*
X191354800Y-63682100D03*
X191228200Y-51300400D03*
X192057800Y-65424900D03*
X193199300Y-78461700D03*
X176395900Y-69861300D03*
X187030800Y-78445000D03*
X166779400Y-44057100D03*
X171576200Y-60206100D03*
X167617300Y-37558300D03*
X172985900Y-40579100D03*
X146902000Y-40539900D03*
X146902000Y-37556200D03*
X154335200Y-63681500D03*
X154770200Y-41090100D03*
X152458400Y-60426500D03*
X163710200Y-82742600D03*
X144714900Y-63557700D03*
X150212200Y-78435900D03*
X131054000Y-45006500D03*
X132710400Y-60211900D03*
X127092000Y-37561200D03*
X131030100Y-40937100D03*
X108486400Y-40555800D03*
X107663000Y-38345000D03*
X115834300Y-63687600D03*
X109518200Y-41665700D03*
X123033200Y-79266300D03*
X114480900Y-63693500D03*
X106567200Y-63592100D03*
X112040200Y-78436500D03*
X90022100Y-41657600D03*
X95520400Y-60214400D03*
X91462000Y-38355200D03*
X96793700Y-40541900D03*
X70608000Y-41896300D03*
X67662000Y-34970000D03*
X75215200Y-60382000D03*
X72553200Y-40817700D03*
X76313100Y-60470400D03*
X86034800Y-79202300D03*
X75933400Y-94168900D03*
X79019400Y-96398700D03*
X57260700Y-63312400D03*
X74039600Y-78454200D03*
X54824600Y-46228200D03*
X57149900Y-60187200D03*
X52447200Y-38822400D03*
X59305500Y-40541900D03*
X35937500Y-41090800D03*
X33976900Y-58531200D03*
X36472000Y-77724000D03*
X40540000Y-60634700D03*
X50110800Y-99947800D03*
X45201100Y-79829000D03*
X190437200Y-34864900D03*
X210145500Y-80774800D03*
X197500000Y-48082500D03*
X203082600Y-71361700D03*
X59191500Y-38825300D03*
X64150000Y-52305300D03*
X230295300Y-96108000D03*
X346023000Y-75092700D03*
X222589800Y-65967600D03*
X214256000Y-54770000D03*
X79197200Y-82176400D03*
X70415300Y-71364200D03*
X211180500Y-37852400D03*
X230295300Y-90624600D03*
X257838000Y-113406700D03*
X229991000Y-37714000D03*
X75383900Y-35397700D03*
X83510000Y-53903500D03*
X235607600Y-53536500D03*
X240540700Y-71361900D03*
X98569500Y-83640600D03*
X246875900Y-108650700D03*
X245103900Y-90135500D03*
X87862800Y-71395600D03*
X245952000Y-34970000D03*
X251812500Y-46209300D03*
X270088700Y-91097500D03*
X262822800Y-69132200D03*
X258062800Y-50498600D03*
X292283800Y-113258800D03*
X197228000Y-95246300D03*
X212388300Y-93193400D03*
X273686000Y-101509700D03*
X95316800Y-35320100D03*
X102932000Y-52536900D03*
X116402500Y-85637500D03*
X107292500Y-71672500D03*
X316959000Y-38030600D03*
X291229100Y-38030600D03*
X278444100Y-37886000D03*
X122362000Y-47099400D03*
X117351800Y-38542400D03*
X277921000Y-62690000D03*
X276617700Y-49713200D03*
X135832500Y-85637500D03*
X126740000Y-66212500D03*
X154473800Y-83921700D03*
X143154000Y-48767500D03*
X297458000Y-77089500D03*
X307850500Y-102688400D03*
X298335000Y-89694900D03*
X297726400Y-25605500D03*
X144336900Y-65392100D03*
X134931600Y-25600000D03*
X327740700Y-47693400D03*
X305706500Y-38821100D03*
X172178100Y-53894100D03*
X172183800Y-38310500D03*
X174754800Y-80262600D03*
X167772700Y-68672800D03*
X192182100Y-83926800D03*
X179054500Y-46946400D03*
X173194900Y-37551400D03*
X183416500Y-66212500D03*
X334360800Y-31223700D03*
D20*
X21431200Y-30003800D02*
X22875000Y-31447600D01*
X22875000Y-31447600D02*
X22875000Y-33695000D01*
X21431200Y-27968800D02*
X21431200Y-30003800D01*
X173831000Y-27968800D02*
X175550200Y-26249600D01*
X175550200Y-26249600D02*
X190361500Y-26249600D01*
X190361500Y-26249600D02*
X192080700Y-27968800D01*
X173831000Y-27968800D02*
X173831000Y-30003800D01*
X192881000Y-27968800D02*
X192080700Y-27968800D01*
X327722800Y-33532600D02*
X332613200Y-33532600D01*
X332613200Y-33532600D02*
X332862600Y-33782000D01*
X211931000Y-30003800D02*
X215996000Y-30003800D01*
X215996000Y-30003800D02*
X218138200Y-32146000D01*
X218138200Y-32146000D02*
X218848600Y-32146000D01*
X218848600Y-32146000D02*
X222322200Y-28672400D01*
X222322200Y-28672400D02*
X222322200Y-28524800D01*
X222322200Y-28524800D02*
X224434300Y-26412700D01*
X224434300Y-26412700D02*
X228924700Y-26412700D01*
X228924700Y-26412700D02*
X230180700Y-27668700D01*
X230180700Y-27668700D02*
X230180700Y-27968800D01*
X211931000Y-27968800D02*
X211931000Y-30003800D01*
X230981000Y-27968800D02*
X230180700Y-27968800D01*
X192881000Y-30003800D02*
X192881000Y-27968800D01*
X269081000Y-27968800D02*
X270574900Y-26474900D01*
X270574900Y-26474900D02*
X273462600Y-26474900D01*
X273462600Y-26474900D02*
X273744000Y-26193500D01*
X273744000Y-26193500D02*
X285555400Y-26193500D01*
X285555400Y-26193500D02*
X287330700Y-27968800D01*
X269081000Y-27968800D02*
X269081000Y-30003800D01*
X288131000Y-27968800D02*
X287330700Y-27968800D01*
X230981000Y-30003800D02*
X230981000Y-27968800D01*
X250031000Y-27968800D02*
X249230700Y-27968800D01*
X230981000Y-27968800D02*
X232743600Y-26206200D01*
X232743600Y-26206200D02*
X247468100Y-26206200D01*
X247468100Y-26206200D02*
X249230700Y-27968800D01*
X116681000Y-24418800D02*
X116681000Y-22383800D01*
X288131000Y-27968800D02*
X288131000Y-30003800D01*
X250031000Y-27968800D02*
X250031000Y-30003800D01*
X154781000Y-22383800D02*
X154781000Y-24418800D01*
X135731000Y-24418800D02*
X135731000Y-22383800D01*
X97631200Y-22383800D02*
X97631200Y-24418800D01*
X78581200Y-24418800D02*
X78581200Y-22383800D01*
X59531200Y-24418800D02*
X59531200Y-22383800D01*
X40481200Y-24418800D02*
X40481200Y-22383800D01*
X21431200Y-24418800D02*
X21431200Y-22383800D01*
X26193800Y-49053800D02*
X27637500Y-50497500D01*
X27637500Y-50497500D02*
X27637500Y-52745000D01*
X26193800Y-47018800D02*
X26193800Y-49053800D01*
X285750000Y-56543800D02*
X286550300Y-56543800D01*
X286550300Y-56543800D02*
X288373700Y-54720400D01*
X288373700Y-54720400D02*
X299145700Y-54720400D01*
X299145700Y-54720400D02*
X317544100Y-36322000D01*
X317544100Y-36322000D02*
X332862600Y-36322000D01*
X285750000Y-58578800D02*
X285750000Y-56543800D01*
X283418300Y-38813000D02*
X276872300Y-38813000D01*
X241550100Y-45855000D02*
X241550100Y-45974700D01*
X241550100Y-45974700D02*
X240506000Y-47018800D01*
X222518100Y-44850300D02*
X234995400Y-44850300D01*
X234995400Y-44850300D02*
X239435800Y-40409900D01*
X239435800Y-40409900D02*
X241409600Y-40409900D01*
X241409600Y-40409900D02*
X241550100Y-40550400D01*
X241550100Y-40550400D02*
X241550100Y-45855000D01*
X258755700Y-47018800D02*
X256984800Y-45247900D01*
X256984800Y-45247900D02*
X246231200Y-45247900D01*
X246231200Y-45247900D02*
X245624100Y-45855000D01*
X245624100Y-45855000D02*
X241550100Y-45855000D01*
X222518100Y-44850300D02*
X222518100Y-45956700D01*
X222518100Y-45956700D02*
X221456000Y-47018800D01*
X199814700Y-52030400D02*
X199814700Y-52779800D01*
X199814700Y-52779800D02*
X201617300Y-54582400D01*
X201617300Y-54582400D02*
X208196200Y-54582400D01*
X208196200Y-54582400D02*
X210025700Y-52752900D01*
X210025700Y-52752900D02*
X210025700Y-50535000D01*
X210025700Y-50535000D02*
X212430700Y-48130000D01*
X212430700Y-48130000D02*
X212430700Y-47940600D01*
X212430700Y-47940600D02*
X219961400Y-40409900D01*
X219961400Y-40409900D02*
X222293800Y-40409900D01*
X222293800Y-40409900D02*
X222518100Y-40634200D01*
X222518100Y-40634200D02*
X222518100Y-44850300D01*
X259556000Y-47018800D02*
X258755700Y-47018800D01*
X49906200Y-43468800D02*
X50006200Y-43368800D01*
X50006200Y-43368800D02*
X50006200Y-41433800D01*
X49906200Y-43468800D02*
X49806200Y-43468800D01*
X50006200Y-43468800D02*
X49906200Y-43468800D01*
X26193800Y-43468800D02*
X26994100Y-43468800D01*
X26994100Y-43468800D02*
X28334000Y-44808700D01*
X28334000Y-44808700D02*
X48466300Y-44808700D01*
X48466300Y-44808700D02*
X49806200Y-43468800D01*
X26193800Y-41433800D02*
X26193800Y-43468800D01*
X144855900Y-43468800D02*
X145256000Y-43068700D01*
X145256000Y-43068700D02*
X145256000Y-41433800D01*
X144855900Y-43468800D02*
X144455700Y-43468800D01*
X145256000Y-43468800D02*
X144855900Y-43468800D01*
X125805900Y-43468800D02*
X128073700Y-45736600D01*
X128073700Y-45736600D02*
X131541200Y-45736600D01*
X131541200Y-45736600D02*
X132082400Y-45195400D01*
X132082400Y-45195400D02*
X142729100Y-45195400D01*
X142729100Y-45195400D02*
X144455700Y-43468800D01*
X125805900Y-43468800D02*
X125405700Y-43468800D01*
X126206000Y-43468800D02*
X125805900Y-43468800D01*
X88106200Y-43468800D02*
X87305900Y-43468800D01*
X69056200Y-43468800D02*
X69856500Y-43468800D01*
X69856500Y-43468800D02*
X71175600Y-44787900D01*
X71175600Y-44787900D02*
X85986800Y-44787900D01*
X85986800Y-44787900D02*
X87305900Y-43468800D01*
X69056200Y-41433800D02*
X69056200Y-43468800D01*
X164306000Y-43468800D02*
X163505700Y-43468800D01*
X145256000Y-43468800D02*
X146056300Y-43468800D01*
X146056300Y-43468800D02*
X147413200Y-44825700D01*
X147413200Y-44825700D02*
X162148800Y-44825700D01*
X162148800Y-44825700D02*
X163505700Y-43468800D01*
X164306000Y-41433800D02*
X164306000Y-43468800D01*
X88106200Y-41433800D02*
X88106200Y-43468800D01*
X88106200Y-43468800D02*
X88906500Y-43468800D01*
X88906500Y-43468800D02*
X90255400Y-44817700D01*
X90255400Y-44817700D02*
X105006800Y-44817700D01*
X105006800Y-44817700D02*
X106355700Y-43468800D01*
X164306000Y-43468800D02*
X165106300Y-43468800D01*
X165106300Y-43468800D02*
X166431700Y-44794200D01*
X166431700Y-44794200D02*
X177901500Y-44794200D01*
X177901500Y-44794200D02*
X182285800Y-40409900D01*
X182285800Y-40409900D02*
X184268900Y-40409900D01*
X184268900Y-40409900D02*
X184381200Y-40522200D01*
X184381200Y-40522200D02*
X184381200Y-45993600D01*
X184381200Y-45993600D02*
X183356000Y-47018800D01*
X240506000Y-47018800D02*
X240506000Y-49053800D01*
X199814700Y-52030400D02*
X190899200Y-52030400D01*
X190899200Y-52030400D02*
X187922600Y-49053800D01*
X187922600Y-49053800D02*
X183356000Y-49053800D01*
X183356000Y-47018800D02*
X183356000Y-49053800D01*
X106755900Y-43468800D02*
X108104800Y-44817700D01*
X108104800Y-44817700D02*
X124056800Y-44817700D01*
X124056800Y-44817700D02*
X125405700Y-43468800D01*
X106755900Y-43468800D02*
X106355700Y-43468800D01*
X107156000Y-43468800D02*
X106755900Y-43468800D01*
X49806200Y-43468800D02*
X53515300Y-47177900D01*
X53515300Y-47177900D02*
X53515300Y-47368000D01*
X53515300Y-47368000D02*
X56102800Y-49955500D01*
X56102800Y-49955500D02*
X58115300Y-49955500D01*
X58115300Y-49955500D02*
X60030700Y-48040100D01*
X60030700Y-48040100D02*
X60030700Y-47917200D01*
X60030700Y-47917200D02*
X64479100Y-43468800D01*
X64479100Y-43468800D02*
X69056200Y-43468800D01*
X221456000Y-47018800D02*
X221456000Y-49053800D01*
X199814700Y-52030400D02*
X202406000Y-49439100D01*
X202406000Y-49439100D02*
X202406000Y-49053800D01*
X126206000Y-43468800D02*
X126206000Y-41433800D01*
X107156000Y-43468800D02*
X107156000Y-41433800D01*
X259556000Y-47018800D02*
X259556000Y-49053800D01*
X202406000Y-47018800D02*
X202406000Y-49053800D01*
X28575000Y-68103800D02*
X30018800Y-69547600D01*
X30018800Y-69547600D02*
X30018800Y-71795000D01*
X28575000Y-66068800D02*
X28575000Y-68103800D01*
X111919000Y-62518800D02*
X111118700Y-62518800D01*
X92468700Y-62518800D02*
X94279800Y-64329900D01*
X94279800Y-64329900D02*
X109307600Y-64329900D01*
X109307600Y-64329900D02*
X111118700Y-62518800D01*
X92468700Y-62518800D02*
X92068500Y-62518800D01*
X92868800Y-62518800D02*
X92468700Y-62518800D01*
X73818800Y-62518800D02*
X74619100Y-62518800D01*
X74619100Y-62518800D02*
X75968000Y-63867700D01*
X75968000Y-63867700D02*
X90719600Y-63867700D01*
X90719600Y-63867700D02*
X92068500Y-62518800D01*
X73618800Y-62318700D02*
X73818800Y-62518800D01*
X111919000Y-62518800D02*
X112719300Y-62518800D01*
X130969000Y-62518800D02*
X130168700Y-62518800D01*
X130969000Y-62518800D02*
X131769300Y-62518800D01*
X131769300Y-62518800D02*
X133540100Y-64289600D01*
X133540100Y-64289600D02*
X147447900Y-64289600D01*
X147447900Y-64289600D02*
X149218700Y-62518800D01*
X130168700Y-62518800D02*
X128442100Y-64245400D01*
X128442100Y-64245400D02*
X116663900Y-64245400D01*
X116663900Y-64245400D02*
X116476300Y-64433000D01*
X116476300Y-64433000D02*
X114133300Y-64433000D01*
X114133300Y-64433000D02*
X112719300Y-63019000D01*
X112719300Y-63019000D02*
X112719300Y-62518800D01*
X264319000Y-68103800D02*
X264319000Y-66068800D01*
X251750500Y-71114300D02*
X261938200Y-71114300D01*
X261938200Y-71114300D02*
X264319000Y-68733500D01*
X264319000Y-68733500D02*
X264319000Y-68103800D01*
X245269000Y-68103800D02*
X245269000Y-66068800D01*
X251750500Y-71114300D02*
X251750500Y-71035400D01*
X251750500Y-71035400D02*
X248818900Y-68103800D01*
X248818900Y-68103800D02*
X245269000Y-68103800D01*
X185538800Y-71080400D02*
X188119000Y-68500200D01*
X188119000Y-68500200D02*
X188119000Y-68103800D01*
X168969000Y-62518800D02*
X172457400Y-66007200D01*
X172457400Y-66007200D02*
X172457400Y-66948600D01*
X172457400Y-66948600D02*
X176589200Y-71080400D01*
X176589200Y-71080400D02*
X185538800Y-71080400D01*
X185538800Y-71080400D02*
X185538800Y-71835000D01*
X185538800Y-71835000D02*
X187324200Y-73620400D01*
X187324200Y-73620400D02*
X193468900Y-73620400D01*
X193468900Y-73620400D02*
X196161200Y-70928100D01*
X196161200Y-70928100D02*
X196161200Y-69161500D01*
X196161200Y-69161500D02*
X198142700Y-67180000D01*
X198142700Y-67180000D02*
X198142700Y-66992600D01*
X198142700Y-66992600D02*
X199797200Y-65338100D01*
X199797200Y-65338100D02*
X202428900Y-65338100D01*
X202428900Y-65338100D02*
X204687400Y-67596600D01*
X204687400Y-67596600D02*
X204687400Y-71971500D01*
X204687400Y-71971500D02*
X206354800Y-73638900D01*
X206354800Y-73638900D02*
X212481800Y-73638900D01*
X212481800Y-73638900D02*
X214413400Y-71707300D01*
X214413400Y-71707300D02*
X214652000Y-71468700D01*
X214652000Y-71468700D02*
X223230900Y-71468700D01*
X207169000Y-68103800D02*
X210809800Y-68103800D01*
X210809800Y-68103800D02*
X214413400Y-71707300D01*
X168969000Y-62518800D02*
X168668900Y-62518800D01*
X169069000Y-62518800D02*
X168969000Y-62518800D01*
X168668900Y-62518800D02*
X169069000Y-62118700D01*
X169069000Y-62118700D02*
X169069000Y-60483800D01*
X168668900Y-62518800D02*
X168268700Y-62518800D01*
X150019000Y-62518800D02*
X150819300Y-62518800D01*
X150819300Y-62518800D02*
X152730400Y-64429900D01*
X152730400Y-64429900D02*
X154980300Y-64429900D01*
X154980300Y-64429900D02*
X155164800Y-64245400D01*
X155164800Y-64245400D02*
X166542100Y-64245400D01*
X166542100Y-64245400D02*
X168268700Y-62518800D01*
X149618900Y-62518800D02*
X150019000Y-62518800D01*
X223230900Y-71468700D02*
X226219000Y-68480600D01*
X226219000Y-68480600D02*
X226219000Y-68103800D01*
X223230900Y-71468700D02*
X227748900Y-75986700D01*
X227748900Y-75986700D02*
X248251700Y-75986700D01*
X248251700Y-75986700D02*
X251750500Y-72487900D01*
X251750500Y-72487900D02*
X251750500Y-71114300D01*
X149618900Y-62518800D02*
X149218700Y-62518800D01*
X207169000Y-66068800D02*
X207169000Y-68103800D01*
X54768800Y-62518800D02*
X53968500Y-62518800D01*
X28575000Y-62518800D02*
X29375300Y-62518800D01*
X54768800Y-61507600D02*
X54768800Y-62518800D01*
X29375300Y-62518800D02*
X30724200Y-63867700D01*
X30724200Y-63867700D02*
X52619600Y-63867700D01*
X52619600Y-63867700D02*
X53968500Y-62518800D01*
X28575000Y-60483800D02*
X28575000Y-62518800D01*
X350044000Y-77628800D02*
X350044000Y-75593800D01*
X188119000Y-66068800D02*
X188119000Y-68103800D01*
X130969000Y-62518800D02*
X130969000Y-60483800D01*
X73618800Y-62318700D02*
X73818800Y-62118700D01*
X73818800Y-62118700D02*
X73818800Y-60483800D01*
X73418700Y-62518800D02*
X73618800Y-62318700D01*
X55569100Y-62518800D02*
X55569100Y-62692900D01*
X55569100Y-62692900D02*
X56965000Y-64088800D01*
X56965000Y-64088800D02*
X71448500Y-64088800D01*
X71448500Y-64088800D02*
X73018500Y-62518800D01*
X73418700Y-62518800D02*
X73018500Y-62518800D01*
X54768800Y-62518800D02*
X55569100Y-62518800D01*
X226219000Y-66068800D02*
X226219000Y-68103800D01*
X54768800Y-60483800D02*
X54768800Y-61507600D01*
X111919000Y-60483800D02*
X111919000Y-62518800D01*
X150019000Y-62518800D02*
X150019000Y-60483800D01*
X92868800Y-62518800D02*
X92868800Y-60483800D01*
X33337500Y-85118800D02*
X33337500Y-87153800D01*
X33337500Y-87153800D02*
X34881200Y-88697500D01*
X34881200Y-88697500D02*
X34881200Y-90805000D01*
X196843700Y-85118800D02*
X194879900Y-83155000D01*
X194879900Y-83155000D02*
X191928200Y-83155000D01*
X191928200Y-83155000D02*
X191745000Y-83338200D01*
X191745000Y-83338200D02*
X181163700Y-83338200D01*
X181163700Y-83338200D02*
X179394300Y-81568800D01*
X332862600Y-41402000D02*
X326584000Y-47680600D01*
X326584000Y-47680600D02*
X326584000Y-81527400D01*
X326584000Y-81527400D02*
X324816000Y-83295400D01*
X324816000Y-83295400D02*
X316148400Y-83295400D01*
X316148400Y-83295400D02*
X314325000Y-85118800D01*
X235744000Y-87153800D02*
X235744000Y-85118800D01*
X232734000Y-90498100D02*
X235744000Y-87488100D01*
X235744000Y-87488100D02*
X235744000Y-87153800D01*
X140294000Y-81568800D02*
X142063400Y-83338200D01*
X142063400Y-83338200D02*
X153831800Y-83338200D01*
X153831800Y-83338200D02*
X155597400Y-81572600D01*
X155597400Y-81572600D02*
X156654900Y-81572600D01*
X140294000Y-81568800D02*
X140093900Y-81568800D01*
X140494000Y-81568800D02*
X140294000Y-81568800D01*
X314325000Y-87153800D02*
X314325000Y-85118800D01*
X178594000Y-79533800D02*
X174243700Y-79533800D01*
X174243700Y-79533800D02*
X170437200Y-83340300D01*
X215695800Y-90130400D02*
X215695800Y-88152000D01*
X215695800Y-88152000D02*
X216694000Y-87153800D01*
X232734000Y-90498100D02*
X230561700Y-92670400D01*
X230561700Y-92670400D02*
X215848900Y-92670400D01*
X215848900Y-92670400D02*
X215695800Y-92517300D01*
X215695800Y-92517300D02*
X215695800Y-90130400D01*
X205776300Y-88606400D02*
X207300300Y-90130400D01*
X207300300Y-90130400D02*
X215695800Y-90130400D01*
X159544000Y-79533800D02*
X159544000Y-81568800D01*
X121444000Y-81568800D02*
X120643700Y-81568800D01*
X102394000Y-81568800D02*
X103194300Y-81568800D01*
X103194300Y-81568800D02*
X104963700Y-83338200D01*
X104963700Y-83338200D02*
X118874300Y-83338200D01*
X118874300Y-83338200D02*
X120643700Y-81568800D01*
X232734000Y-90498100D02*
X234906200Y-92670400D01*
X234906200Y-92670400D02*
X253594900Y-92670400D01*
X253594900Y-92670400D02*
X253774000Y-92491300D01*
X253774000Y-92491300D02*
X253774000Y-88173800D01*
X253774000Y-88173800D02*
X254794000Y-87153800D01*
X280187700Y-85118800D02*
X279463600Y-84394700D01*
X279463600Y-84394700D02*
X266416400Y-84394700D01*
X266416400Y-84394700D02*
X264864800Y-85946300D01*
X264864800Y-85946300D02*
X264864800Y-86183900D01*
X264864800Y-86183900D02*
X262837200Y-88211500D01*
X262837200Y-88211500D02*
X262837200Y-89978100D01*
X262837200Y-89978100D02*
X260144900Y-92670400D01*
X260144900Y-92670400D02*
X253953100Y-92670400D01*
X253953100Y-92670400D02*
X253774000Y-92491300D01*
X178594000Y-81568800D02*
X179394300Y-81568800D01*
X197644000Y-85118800D02*
X196843700Y-85118800D01*
X197644000Y-85118800D02*
X197644000Y-87153800D01*
X178594000Y-80557600D02*
X178594000Y-81568800D01*
X178594000Y-79533800D02*
X178594000Y-80557600D01*
X102394000Y-81568800D02*
X101593700Y-81568800D01*
X63388100Y-81463300D02*
X63493500Y-81568800D01*
X60312600Y-80788000D02*
X62712700Y-80788000D01*
X62712700Y-80788000D02*
X63388100Y-81463300D01*
X63388100Y-81463300D02*
X64293800Y-80557600D01*
X82543500Y-81568800D02*
X82367400Y-81392700D01*
X82367400Y-81392700D02*
X78952000Y-81392700D01*
X78952000Y-81392700D02*
X77785400Y-82559300D01*
X77785400Y-82559300D02*
X77785400Y-82945600D01*
X83343800Y-81568800D02*
X82543500Y-81568800D01*
X64293800Y-81568800D02*
X63493500Y-81568800D01*
X83343800Y-81568800D02*
X84144100Y-81568800D01*
X84144100Y-81568800D02*
X85463200Y-82887900D01*
X85463200Y-82887900D02*
X100274600Y-82887900D01*
X100274600Y-82887900D02*
X101593700Y-81568800D01*
X121844200Y-81568800D02*
X121444000Y-81168600D01*
X121444000Y-81168600D02*
X121444000Y-79533800D01*
X121844200Y-81568800D02*
X122244300Y-81568800D01*
X121444000Y-81568800D02*
X121844200Y-81568800D01*
X64293800Y-79533800D02*
X64293800Y-80557600D01*
X140093900Y-81568800D02*
X140494000Y-81168700D01*
X140494000Y-81168700D02*
X140494000Y-79533800D01*
X140093900Y-81568800D02*
X139693700Y-81568800D01*
X122244300Y-81568800D02*
X123595800Y-82920300D01*
X123595800Y-82920300D02*
X138342200Y-82920300D01*
X138342200Y-82920300D02*
X139693700Y-81568800D01*
X83343800Y-79533800D02*
X83343800Y-81568800D01*
X280988000Y-85118800D02*
X280187700Y-85118800D01*
X280988000Y-85118800D02*
X280988000Y-87153800D01*
X254794000Y-85118800D02*
X254794000Y-87153800D01*
X216694000Y-85118800D02*
X216694000Y-87153800D01*
X102394000Y-81568800D02*
X102394000Y-79533800D01*
X33337500Y-81568800D02*
X33337500Y-79533800D01*
X23812500Y-106204000D02*
X25256200Y-107647700D01*
X25256200Y-107647700D02*
X25256200Y-109895000D01*
X23812500Y-104169000D02*
X23812500Y-106204000D01*
X311301600Y-109547800D02*
X314325000Y-106524400D01*
X314325000Y-106524400D02*
X314325000Y-106204000D01*
X294291700Y-111572700D02*
X294456700Y-111737700D01*
X294456700Y-111737700D02*
X309111700Y-111737700D01*
X309111700Y-111737700D02*
X311301600Y-109547800D01*
X311301600Y-109547800D02*
X313491600Y-111737800D01*
X313491600Y-111737800D02*
X328161600Y-111737800D01*
X328161600Y-111737800D02*
X333375000Y-106524400D01*
X333375000Y-106524400D02*
X333375000Y-106204000D01*
X295275000Y-106204000D02*
X294291700Y-107187300D01*
X294291700Y-107187300D02*
X294291700Y-111572700D01*
X258771800Y-109370200D02*
X261121900Y-111720400D01*
X261121900Y-111720400D02*
X291522700Y-111720400D01*
X291522700Y-111720400D02*
X291610200Y-111632900D01*
X291610200Y-111632900D02*
X291796600Y-111632900D01*
X291796600Y-111632900D02*
X291856800Y-111572700D01*
X291856800Y-111572700D02*
X294291700Y-111572700D01*
X333375000Y-106204000D02*
X333375000Y-104169000D01*
X142074700Y-100619000D02*
X141075700Y-99620000D01*
X141075700Y-99620000D02*
X87247500Y-99620000D01*
X142875000Y-100619000D02*
X142074700Y-100619000D01*
X70637200Y-100619000D02*
X69259500Y-101996700D01*
X69259500Y-101996700D02*
X47625000Y-101996700D01*
X142875000Y-100619000D02*
X142875000Y-99643700D01*
X142875000Y-99607800D02*
X142875000Y-99643700D01*
X142875000Y-100619000D02*
X142875000Y-101594300D01*
X142875000Y-101594300D02*
X143541900Y-101594300D01*
X143541900Y-101594300D02*
X151088000Y-109140400D01*
X151088000Y-109140400D02*
X211375600Y-109140400D01*
X211375600Y-109140400D02*
X214312000Y-106204000D01*
X71037400Y-100619000D02*
X71437500Y-100218900D01*
X71437500Y-100218900D02*
X71437500Y-98584000D01*
X71037400Y-100619000D02*
X70637200Y-100619000D01*
X71437500Y-100619000D02*
X71037400Y-100619000D01*
X47625000Y-101996700D02*
X47625000Y-100619000D01*
X24612800Y-100619000D02*
X28243200Y-104249400D01*
X28243200Y-104249400D02*
X28243200Y-105398400D01*
X28243200Y-105398400D02*
X32065300Y-109220500D01*
X32065300Y-109220500D02*
X40401200Y-109220500D01*
X40401200Y-109220500D02*
X47625000Y-101996700D01*
X142875000Y-98584000D02*
X142875000Y-99607800D01*
X236100200Y-109249800D02*
X237119800Y-109249800D01*
X237119800Y-109249800D02*
X237119800Y-107209200D01*
X237119800Y-107209200D02*
X238125000Y-106204000D01*
X258771800Y-109370200D02*
X256421600Y-111720400D01*
X256421600Y-111720400D02*
X237325400Y-111720400D01*
X237325400Y-111720400D02*
X237119800Y-111514800D01*
X237119800Y-111514800D02*
X237119800Y-109249800D01*
X238125000Y-106204000D02*
X238125000Y-104169000D01*
X314325000Y-106204000D02*
X314325000Y-104169000D01*
X214312000Y-106204000D02*
X214312000Y-104169000D01*
X258771800Y-109370200D02*
X261938000Y-106204000D01*
X295275000Y-106204000D02*
X295275000Y-104169000D01*
X23812500Y-100619000D02*
X24612800Y-100619000D01*
X23812500Y-98584000D02*
X23812500Y-100619000D01*
X47625000Y-100619000D02*
X47625000Y-98584000D01*
X261938000Y-104169000D02*
X261938000Y-106204000D01*
X40481200Y-30003800D02*
X41925000Y-31447600D01*
X41925000Y-31447600D02*
X41925000Y-33695000D01*
X40481200Y-27968800D02*
X40481200Y-30003800D01*
X50006200Y-49053800D02*
X51450000Y-50497600D01*
X51450000Y-50497600D02*
X51450000Y-52745000D01*
X50006200Y-47018800D02*
X50006200Y-49053800D01*
X54768800Y-68103800D02*
X56212500Y-69547500D01*
X56212500Y-69547500D02*
X56212500Y-71795000D01*
X54768800Y-66068800D02*
X54768800Y-68103800D01*
X64293800Y-87153800D02*
X65737500Y-88597500D01*
X65737500Y-88597500D02*
X65737500Y-90845000D01*
X64293800Y-85118800D02*
X64293800Y-87153800D01*
X47625000Y-106204000D02*
X49068800Y-107647800D01*
X49068800Y-107647800D02*
X49068800Y-109895000D01*
X47625000Y-104169000D02*
X47625000Y-106204000D01*
X59531200Y-30003800D02*
X60975000Y-31447600D01*
X60975000Y-31447600D02*
X60975000Y-33695000D01*
X59531200Y-27968800D02*
X59531200Y-30003800D01*
X69056200Y-49053800D02*
X70500000Y-50497600D01*
X70500000Y-50497600D02*
X70500000Y-52745000D01*
X69056200Y-47018800D02*
X69056200Y-49053800D01*
X73818800Y-68103800D02*
X75262500Y-69547500D01*
X75262500Y-69547500D02*
X75262500Y-71795000D01*
X73818800Y-66068800D02*
X73818800Y-68103800D01*
X83343800Y-87153800D02*
X84787500Y-88597500D01*
X84787500Y-88597500D02*
X84787500Y-90845000D01*
X83343800Y-85118800D02*
X83343800Y-87153800D01*
X71437500Y-104169000D02*
X71437500Y-106204000D01*
X71437500Y-106204000D02*
X72881200Y-107647700D01*
X72881200Y-107647700D02*
X72881200Y-109895000D01*
X78581200Y-30003800D02*
X80025000Y-31447600D01*
X80025000Y-31447600D02*
X80025000Y-33695000D01*
X78581200Y-27968800D02*
X78581200Y-30003800D01*
X88106200Y-49053800D02*
X89550000Y-50497600D01*
X89550000Y-50497600D02*
X89550000Y-52745000D01*
X88106200Y-47018800D02*
X88106200Y-49053800D01*
X92868800Y-68103800D02*
X94312000Y-69547000D01*
X94312000Y-69547000D02*
X94312000Y-71795000D01*
X92868800Y-66068800D02*
X92868800Y-68103800D01*
X102394000Y-87153800D02*
X103838000Y-88597800D01*
X103838000Y-88597800D02*
X103838000Y-90845000D01*
X102394000Y-85118800D02*
X102394000Y-87153800D01*
X142875000Y-106204000D02*
X144419000Y-107748000D01*
X144419000Y-107748000D02*
X144419000Y-109855000D01*
X142875000Y-104169000D02*
X142875000Y-106204000D01*
X97631200Y-30003800D02*
X99075000Y-31447600D01*
X99075000Y-31447600D02*
X99075000Y-33695000D01*
X97631200Y-27968800D02*
X97631200Y-30003800D01*
X107156000Y-49053800D02*
X108600000Y-50497800D01*
X108600000Y-50497800D02*
X108600000Y-52745000D01*
X107156000Y-47018800D02*
X107156000Y-49053800D01*
X111919000Y-68103800D02*
X113362000Y-69546800D01*
X113362000Y-69546800D02*
X113362000Y-71795000D01*
X111919000Y-66068800D02*
X111919000Y-68103800D01*
X121444000Y-87153800D02*
X122888000Y-88597800D01*
X122888000Y-88597800D02*
X122888000Y-90845000D01*
X121444000Y-85118800D02*
X121444000Y-87153800D01*
X116681000Y-30003800D02*
X118125000Y-31447800D01*
X118125000Y-31447800D02*
X118125000Y-33695000D01*
X116681000Y-27968800D02*
X116681000Y-30003800D01*
X126206000Y-47018800D02*
X126206000Y-49053800D01*
X126206000Y-49053800D02*
X127650000Y-50497800D01*
X127650000Y-50497800D02*
X127650000Y-52745000D01*
X130969000Y-68103800D02*
X132412000Y-69546800D01*
X132412000Y-69546800D02*
X132412000Y-71795000D01*
X130969000Y-66068800D02*
X130969000Y-68103800D01*
X140494000Y-87153800D02*
X141938000Y-88597800D01*
X141938000Y-88597800D02*
X141938000Y-90845000D01*
X140494000Y-85118800D02*
X140494000Y-87153800D01*
X135731000Y-30003800D02*
X137175000Y-31447800D01*
X137175000Y-31447800D02*
X137175000Y-33695000D01*
X135731000Y-27968800D02*
X135731000Y-30003800D01*
X146700000Y-52745000D02*
X146700000Y-50919700D01*
X145256000Y-49053800D02*
X145256000Y-49475700D01*
X145256000Y-49475700D02*
X146700000Y-50919700D01*
X145256000Y-47018800D02*
X145256000Y-49053800D01*
X150019000Y-68103800D02*
X151462000Y-69546800D01*
X151462000Y-69546800D02*
X151462000Y-71795000D01*
X150019000Y-66068800D02*
X150019000Y-68103800D01*
X159544000Y-85118800D02*
X159544000Y-87153800D01*
X159544000Y-87153800D02*
X160988000Y-88597800D01*
X160988000Y-88597800D02*
X160988000Y-90845000D01*
X156225000Y-33695000D02*
X156225000Y-31869700D01*
X154781000Y-30003800D02*
X154781000Y-30425700D01*
X154781000Y-30425700D02*
X156225000Y-31869700D01*
X154781000Y-27968800D02*
X154781000Y-30003800D01*
X164306000Y-49053800D02*
X165750000Y-50497800D01*
X165750000Y-50497800D02*
X165750000Y-52745000D01*
X164306000Y-47018800D02*
X164306000Y-49053800D01*
X169069000Y-68103800D02*
X170512000Y-69546800D01*
X170512000Y-69546800D02*
X170512000Y-71795000D01*
X169069000Y-66068800D02*
X169069000Y-68103800D01*
X178594000Y-87153800D02*
X180038000Y-88597800D01*
X180038000Y-88597800D02*
X180038000Y-90845000D01*
X178594000Y-85118800D02*
X178594000Y-87153800D01*
X173030700Y-24418800D02*
X172310300Y-25139200D01*
X172310300Y-25139200D02*
X172310300Y-30568600D01*
X172310300Y-30568600D02*
X173611400Y-31869700D01*
X173611400Y-31869700D02*
X175275000Y-31869700D01*
X173831000Y-24418800D02*
X173030700Y-24418800D01*
X173831000Y-24418800D02*
X173831000Y-22383800D01*
X175275000Y-33695000D02*
X175275000Y-31869700D01*
X184800000Y-52745000D02*
X184800000Y-50919700D01*
X183356000Y-43468800D02*
X182555700Y-43468800D01*
X182555700Y-43468800D02*
X182285600Y-43738900D01*
X182285600Y-43738900D02*
X182285600Y-49432000D01*
X182285600Y-49432000D02*
X183773300Y-50919700D01*
X183773300Y-50919700D02*
X184800000Y-50919700D01*
X183356000Y-41433800D02*
X183356000Y-43468800D01*
X188119000Y-62518800D02*
X188919300Y-62518800D01*
X188919300Y-62518800D02*
X188919300Y-63319100D01*
X188919300Y-63319100D02*
X191510700Y-65910500D01*
X191510700Y-65910500D02*
X191510700Y-69846300D01*
X191510700Y-69846300D02*
X189562000Y-71795000D01*
X188119000Y-60483800D02*
X188119000Y-62518800D01*
X197644000Y-81568800D02*
X198444300Y-81568800D01*
X198444300Y-81568800D02*
X201040900Y-84165400D01*
X201040900Y-84165400D02*
X201040900Y-88892100D01*
X201040900Y-88892100D02*
X199088000Y-90845000D01*
X197644000Y-81568800D02*
X197644000Y-79533800D01*
X194325000Y-33695000D02*
X194325000Y-31869700D01*
X190338800Y-27340800D02*
X190338800Y-28910200D01*
X190338800Y-28910200D02*
X193298300Y-31869700D01*
X193298300Y-31869700D02*
X194325000Y-31869700D01*
X192881000Y-22383800D02*
X192881000Y-24418800D01*
X202406000Y-43468800D02*
X203206300Y-43468800D01*
X203206300Y-43468800D02*
X205815800Y-46078300D01*
X205815800Y-46078300D02*
X205815800Y-50779200D01*
X205815800Y-50779200D02*
X203850000Y-52745000D01*
X202406000Y-43468800D02*
X202406000Y-41433800D01*
X208612000Y-71795000D02*
X208612000Y-69969700D01*
X207169000Y-62518800D02*
X206368700Y-62518800D01*
X206368700Y-62518800D02*
X206097700Y-62789800D01*
X206097700Y-62789800D02*
X206097700Y-68482100D01*
X206097700Y-68482100D02*
X207585300Y-69969700D01*
X207585300Y-69969700D02*
X208612000Y-69969700D01*
X207169000Y-60483800D02*
X207169000Y-62518800D01*
X216694000Y-81568800D02*
X217494300Y-81568800D01*
X217494300Y-81568800D02*
X220083400Y-84157900D01*
X220083400Y-84157900D02*
X220083400Y-88899600D01*
X220083400Y-88899600D02*
X218138000Y-90845000D01*
X216694000Y-81568800D02*
X216694000Y-79533800D01*
X215112300Y-100619000D02*
X215112300Y-101255800D01*
X215112300Y-101255800D02*
X217701900Y-103845400D01*
X217701900Y-103845400D02*
X217701900Y-107949100D01*
X217701900Y-107949100D02*
X215756000Y-109895000D01*
X214312000Y-100619000D02*
X215112300Y-100619000D01*
X214312000Y-98584000D02*
X214312000Y-100619000D01*
X211343300Y-24418800D02*
X210866600Y-24895500D01*
X210866600Y-24895500D02*
X210866600Y-30388000D01*
X210866600Y-30388000D02*
X212348300Y-31869700D01*
X212348300Y-31869700D02*
X213375000Y-31869700D01*
X211343300Y-24418800D02*
X211343300Y-23995300D01*
X211343300Y-23995300D02*
X211931000Y-23407600D01*
X213375000Y-33695000D02*
X213375000Y-31869700D01*
X211931000Y-22383800D02*
X211931000Y-23407600D01*
X211931000Y-24418800D02*
X211343300Y-24418800D01*
X221456000Y-43468800D02*
X220655700Y-43468800D01*
X220655700Y-43468800D02*
X220388400Y-43736100D01*
X220388400Y-43736100D02*
X220388400Y-49434800D01*
X220388400Y-49434800D02*
X221873300Y-50919700D01*
X221873300Y-50919700D02*
X222900000Y-50919700D01*
X221456000Y-43468800D02*
X221456000Y-41433800D01*
X222900000Y-52745000D02*
X222900000Y-50919700D01*
X226219000Y-62518800D02*
X227019300Y-62518800D01*
X227019300Y-62518800D02*
X229621700Y-65121200D01*
X229621700Y-65121200D02*
X229621700Y-69835300D01*
X229621700Y-69835300D02*
X227662000Y-71795000D01*
X226219000Y-62518800D02*
X226219000Y-60483800D01*
X235744000Y-81568800D02*
X236544300Y-81568800D01*
X236544300Y-81568800D02*
X239148900Y-84173400D01*
X239148900Y-84173400D02*
X239148900Y-88884100D01*
X239148900Y-88884100D02*
X237188000Y-90845000D01*
X235744000Y-81568800D02*
X235744000Y-79533800D01*
X238125000Y-100619000D02*
X238925300Y-100619000D01*
X238925300Y-100619000D02*
X241532600Y-103226300D01*
X241532600Y-103226300D02*
X241532600Y-107931400D01*
X241532600Y-107931400D02*
X239569000Y-109895000D01*
X238125000Y-100619000D02*
X238125000Y-98584000D01*
X232425000Y-33695000D02*
X232425000Y-31869700D01*
X228603600Y-27148600D02*
X228603600Y-29075000D01*
X228603600Y-29075000D02*
X231398300Y-31869700D01*
X231398300Y-31869700D02*
X232425000Y-31869700D01*
X230981000Y-24418800D02*
X230981000Y-22383800D01*
X240506000Y-43468800D02*
X239705700Y-43468800D01*
X239705700Y-43468800D02*
X239435600Y-43738900D01*
X239435600Y-43738900D02*
X239435600Y-49432000D01*
X239435600Y-49432000D02*
X240923300Y-50919700D01*
X240923300Y-50919700D02*
X241950000Y-50919700D01*
X240506000Y-41433800D02*
X240506000Y-43468800D01*
X241950000Y-52745000D02*
X241950000Y-50919700D01*
X246712000Y-71795000D02*
X246712000Y-73620300D01*
X244468700Y-62518800D02*
X243504100Y-63483400D01*
X243504100Y-63483400D02*
X243504100Y-75082200D01*
X243504100Y-75082200D02*
X243940500Y-75518600D01*
X243940500Y-75518600D02*
X244813700Y-75518600D01*
X244813700Y-75518600D02*
X246712000Y-73620300D01*
X245269000Y-62518800D02*
X244468700Y-62518800D01*
X245269000Y-62518800D02*
X245269000Y-60483800D01*
X254794000Y-81568800D02*
X255594300Y-81568800D01*
X255594300Y-81568800D02*
X258201600Y-84176100D01*
X258201600Y-84176100D02*
X258201600Y-88881400D01*
X258201600Y-88881400D02*
X256238000Y-90845000D01*
X254794000Y-81568800D02*
X254794000Y-79533800D01*
X261938000Y-100619000D02*
X262738300Y-100619000D01*
X262738300Y-100619000D02*
X265344600Y-103225300D01*
X265344600Y-103225300D02*
X265344600Y-107931400D01*
X265344600Y-107931400D02*
X263381000Y-109895000D01*
X261938000Y-100619000D02*
X261938000Y-98584000D01*
X251475000Y-33695000D02*
X251475000Y-31869700D01*
X247610100Y-27745200D02*
X247610100Y-29031500D01*
X247610100Y-29031500D02*
X250448300Y-31869700D01*
X250448300Y-31869700D02*
X251475000Y-31869700D01*
X250031000Y-22383800D02*
X250031000Y-24418800D01*
X260356300Y-43468800D02*
X262950700Y-46063200D01*
X262950700Y-46063200D02*
X262950700Y-50794300D01*
X262950700Y-50794300D02*
X261000000Y-52745000D01*
X259556000Y-43468800D02*
X260356300Y-43468800D01*
X259556000Y-41433800D02*
X259556000Y-43468800D01*
X265119300Y-62518800D02*
X267725600Y-65125100D01*
X267725600Y-65125100D02*
X267725600Y-69831400D01*
X267725600Y-69831400D02*
X265762000Y-71795000D01*
X264319000Y-62518800D02*
X265119300Y-62518800D01*
X264319000Y-62518800D02*
X264319000Y-60483800D01*
X270525000Y-33695000D02*
X270525000Y-31869700D01*
X269081000Y-24418800D02*
X268280700Y-24418800D01*
X268280700Y-24418800D02*
X268010600Y-24688900D01*
X268010600Y-24688900D02*
X268010600Y-30382000D01*
X268010600Y-30382000D02*
X269498300Y-31869700D01*
X269498300Y-31869700D02*
X270525000Y-31869700D01*
X269081000Y-22383800D02*
X269081000Y-24418800D01*
X284949700Y-52993800D02*
X284695800Y-53247700D01*
X284695800Y-53247700D02*
X284695800Y-58975300D01*
X284695800Y-58975300D02*
X286125200Y-60404700D01*
X286125200Y-60404700D02*
X287294000Y-60404700D01*
X287294000Y-62230000D02*
X287294000Y-60404700D01*
X285750000Y-52993800D02*
X284949700Y-52993800D01*
X285750000Y-50958800D02*
X285750000Y-52993800D01*
X281788300Y-81568800D02*
X284382600Y-84163100D01*
X284382600Y-84163100D02*
X284382600Y-88893400D01*
X284382600Y-88893400D02*
X282431000Y-90845000D01*
X280988000Y-81568800D02*
X281788300Y-81568800D01*
X280988000Y-81568800D02*
X280988000Y-79533800D01*
X295275000Y-100619000D02*
X296075300Y-100619000D01*
X296075300Y-100619000D02*
X298682600Y-103226300D01*
X298682600Y-103226300D02*
X298682600Y-107931400D01*
X298682600Y-107931400D02*
X296719000Y-109895000D01*
X295275000Y-100619000D02*
X295275000Y-98584000D01*
X289575000Y-31869700D02*
X288479800Y-31869700D01*
X288479800Y-31869700D02*
X283634900Y-27024800D01*
X283634900Y-27024800D02*
X283634900Y-26924200D01*
X289575000Y-33695000D02*
X289575000Y-31869700D01*
X288131000Y-24418800D02*
X288131000Y-22383800D01*
X314325000Y-79533800D02*
X314325000Y-80557600D01*
X313924900Y-81568800D02*
X313924900Y-80957700D01*
X313924900Y-80957700D02*
X314325000Y-80557600D01*
X313924900Y-81568800D02*
X313524700Y-81568800D01*
X314325000Y-81568800D02*
X313924900Y-81568800D01*
X313524700Y-81568800D02*
X312804300Y-82289200D01*
X312804300Y-82289200D02*
X312804300Y-87718600D01*
X312804300Y-87718600D02*
X314105400Y-89019700D01*
X314105400Y-89019700D02*
X315769000Y-89019700D01*
X315769000Y-90845000D02*
X315769000Y-89019700D01*
X314325000Y-100619000D02*
X315125300Y-100619000D01*
X315125300Y-100619000D02*
X317732600Y-103226300D01*
X317732600Y-103226300D02*
X317732600Y-107931400D01*
X317732600Y-107931400D02*
X315769000Y-109895000D01*
X314325000Y-100619000D02*
X314325000Y-98584000D01*
X333375000Y-100619000D02*
X334175300Y-100619000D01*
X334175300Y-100619000D02*
X336782600Y-103226300D01*
X336782600Y-103226300D02*
X336782600Y-107931400D01*
X336782600Y-107931400D02*
X334819000Y-109895000D01*
X333375000Y-98584000D02*
X333375000Y-100619000D01*
X350044000Y-70008800D02*
X348352800Y-70008800D01*
X348352800Y-70008800D02*
X347519000Y-69175000D01*
X350044000Y-72043800D02*
X350044000Y-70008800D01*
D21*
X28356000Y-99262200D02*
X28356200Y-99262500D01*
X26193800Y-97631200D02*
X26725000Y-97631200D01*
X26725000Y-97631200D02*
X28356000Y-99262200D01*
D20*
X28356200Y-99262000D02*
X28356000Y-99262200D01*
X332862600Y-31242000D02*
X332862000Y-31242000D01*
D21*
X266480800Y-99262200D02*
X266481000Y-99262500D01*
X264123000Y-97435200D02*
X264654000Y-97435200D01*
X264654000Y-97435200D02*
X266480800Y-99262200D01*
D20*
X266481000Y-99262000D02*
X266480800Y-99262200D01*
D21*
X332862000Y-28702000D02*
X332862000Y-31242000D01*
X332862000Y-21082000D02*
X331650000Y-22294000D01*
X331650000Y-22294000D02*
X331650000Y-27490000D01*
X331650000Y-27490000D02*
X332862000Y-28702000D01*
D20*
X332862600Y-28702000D02*
X332862000Y-28702000D01*
X348082600Y-26161400D02*
X348082600Y-26162000D01*
D21*
X348082000Y-26162000D02*
X348082600Y-26161400D01*
X52168600Y-99262200D02*
X52168800Y-99262500D01*
X50006200Y-97631200D02*
X50537500Y-97631200D01*
X50537500Y-97631200D02*
X52168600Y-99262200D01*
D20*
X52168800Y-99262000D02*
X52168600Y-99262200D01*
D21*
X75981000Y-99262200D02*
X75981200Y-99262500D01*
X73622700Y-97435200D02*
X74154000Y-97435200D01*
X74154000Y-97435200D02*
X75981000Y-99262200D01*
D20*
X75981200Y-99262000D02*
X75981000Y-99262200D01*
D21*
X147418800Y-99262300D02*
X147419000Y-99262500D01*
X145060000Y-97435200D02*
X145591000Y-97435200D01*
X145591000Y-97435200D02*
X147418800Y-99262300D01*
D20*
X147419000Y-99262000D02*
X147418800Y-99262200D01*
X147418800Y-99262200D02*
X147418800Y-99262300D01*
D21*
X218855800Y-99262200D02*
X218856000Y-99262500D01*
X216498000Y-97435200D02*
X217029000Y-97435200D01*
X217029000Y-97435200D02*
X218855800Y-99262200D01*
D20*
X218856000Y-99262000D02*
X218855800Y-99262200D01*
D21*
X242668800Y-99262300D02*
X242669000Y-99262500D01*
X240310000Y-97435200D02*
X240841000Y-97435200D01*
X240841000Y-97435200D02*
X242668800Y-99262300D01*
D20*
X242669000Y-99262000D02*
X242668800Y-99262200D01*
X242668800Y-99262200D02*
X242668800Y-99262300D01*
D21*
X299818800Y-99262300D02*
X299819000Y-99262500D01*
X297460000Y-97435200D02*
X297991000Y-97435200D01*
X297991000Y-97435200D02*
X299818800Y-99262300D01*
D20*
X299819000Y-99262000D02*
X299818800Y-99262200D01*
X299818800Y-99262200D02*
X299818800Y-99262300D01*
D21*
X318868800Y-99262300D02*
X318869000Y-99262500D01*
X316510000Y-97435200D02*
X317041000Y-97435200D01*
X317041000Y-97435200D02*
X318868800Y-99262300D01*
D20*
X318869000Y-99262000D02*
X318868800Y-99262200D01*
X318868800Y-99262200D02*
X318868800Y-99262300D01*
X337919000Y-99262000D02*
X337919000Y-99262500D01*
X332862600Y-21081400D02*
X332862600Y-21082000D01*
D21*
X332862600Y-21081400D02*
X332862000Y-21082000D01*
X97412000Y-61162500D02*
X97412500Y-61162500D01*
X95250000Y-61912500D02*
X96000000Y-61162500D01*
X96000000Y-61162500D02*
X97412000Y-61162500D01*
X23812500Y-23812500D02*
X24562500Y-23062500D01*
X24562500Y-23062500D02*
X25975000Y-23062500D01*
X28575000Y-42862500D02*
X29325000Y-42112500D01*
X29325000Y-42112500D02*
X30737500Y-42112500D01*
X30956200Y-61912500D02*
X31706200Y-61162500D01*
X31706200Y-61162500D02*
X33118800Y-61162500D01*
X35718800Y-80962500D02*
X36468800Y-80212500D01*
X36468800Y-80212500D02*
X37881200Y-80212500D01*
X42862500Y-23812500D02*
X43612500Y-23062500D01*
X43612500Y-23062500D02*
X45025000Y-23062500D01*
X52387500Y-42862500D02*
X53137500Y-42112500D01*
X53137500Y-42112500D02*
X54550000Y-42112500D01*
X59312500Y-61162500D02*
X57900000Y-61162500D01*
X57900000Y-61162500D02*
X57150000Y-61912500D01*
X66675000Y-80962500D02*
X67425000Y-80212500D01*
X67425000Y-80212500D02*
X68837500Y-80212500D01*
X61912500Y-23812500D02*
X62662500Y-23062500D01*
X62662500Y-23062500D02*
X64075000Y-23062500D01*
X71437500Y-42862500D02*
X72187500Y-42112500D01*
X72187500Y-42112500D02*
X73600000Y-42112500D01*
X76200000Y-61912500D02*
X76950000Y-61162500D01*
X76950000Y-61162500D02*
X78362500Y-61162500D01*
X85725000Y-80962500D02*
X86475000Y-80212500D01*
X86475000Y-80212500D02*
X87887500Y-80212500D01*
X80962500Y-23812500D02*
X81712500Y-23062500D01*
X81712500Y-23062500D02*
X83125000Y-23062500D01*
X90487500Y-42862500D02*
X91237500Y-42112500D01*
X91237500Y-42112500D02*
X92650000Y-42112500D01*
X104775000Y-80962500D02*
X105525000Y-80212500D01*
X105525000Y-80212500D02*
X106938000Y-80212500D01*
X100012000Y-23812500D02*
X100762000Y-23062500D01*
X100762000Y-23062500D02*
X102175000Y-23062500D01*
X109538000Y-42862500D02*
X110288000Y-42112500D01*
X110288000Y-42112500D02*
X111700000Y-42112500D01*
X114300000Y-61912500D02*
X115050000Y-61162500D01*
X115050000Y-61162500D02*
X116462000Y-61162500D01*
X123825000Y-80962500D02*
X124575000Y-80212500D01*
X124575000Y-80212500D02*
X125988000Y-80212500D01*
X119062000Y-23812500D02*
X119812000Y-23062500D01*
X119812000Y-23062500D02*
X121225000Y-23062500D01*
X128588000Y-42862500D02*
X129338000Y-42112500D01*
X129338000Y-42112500D02*
X130750000Y-42112500D01*
X133350000Y-61912500D02*
X134100000Y-61162500D01*
X134100000Y-61162500D02*
X135512000Y-61162500D01*
X142875000Y-80962500D02*
X143625000Y-80212500D01*
X143625000Y-80212500D02*
X145038000Y-80212500D01*
X138112000Y-23812500D02*
X138862000Y-23062500D01*
X138862000Y-23062500D02*
X140275000Y-23062500D01*
X147638000Y-42862500D02*
X148388000Y-42112500D01*
X148388000Y-42112500D02*
X149800000Y-42112500D01*
X152400000Y-61912500D02*
X153150000Y-61162500D01*
X153150000Y-61162500D02*
X154562000Y-61162500D01*
X161925000Y-80962500D02*
X162675000Y-80212500D01*
X162675000Y-80212500D02*
X164088000Y-80212500D01*
X157162000Y-23812500D02*
X157912000Y-23062500D01*
X157912000Y-23062500D02*
X159325000Y-23062500D01*
X166688000Y-42862500D02*
X167438000Y-42112500D01*
X167438000Y-42112500D02*
X168850000Y-42112500D01*
X171450000Y-61912500D02*
X172200000Y-61162500D01*
X172200000Y-61162500D02*
X173612000Y-61162500D01*
X180975000Y-80962500D02*
X181725000Y-80212500D01*
X181725000Y-80212500D02*
X183138000Y-80212500D01*
X178375000Y-23062500D02*
X176962000Y-23062500D01*
X176962000Y-23062500D02*
X176212000Y-23812500D01*
X185738000Y-42862500D02*
X186488000Y-42112500D01*
X186488000Y-42112500D02*
X187900000Y-42112500D01*
X190500000Y-61912500D02*
X191250000Y-61162500D01*
X191250000Y-61162500D02*
X192662000Y-61162500D01*
X200025000Y-80962500D02*
X200775000Y-80212500D01*
X200775000Y-80212500D02*
X202188000Y-80212500D01*
X195262000Y-23812500D02*
X196012000Y-23062500D01*
X196012000Y-23062500D02*
X197425000Y-23062500D01*
X206950000Y-42112500D02*
X205538000Y-42112500D01*
X205538000Y-42112500D02*
X204788000Y-42862500D01*
X209550000Y-61912500D02*
X210300000Y-61162500D01*
X210300000Y-61162500D02*
X211712000Y-61162500D01*
X219075000Y-80962500D02*
X219825000Y-80212500D01*
X219825000Y-80212500D02*
X221238000Y-80212500D01*
X214312000Y-23812500D02*
X215062000Y-23062500D01*
X215062000Y-23062500D02*
X216475000Y-23062500D01*
X223838000Y-42862500D02*
X224588000Y-42112500D01*
X224588000Y-42112500D02*
X226000000Y-42112500D01*
X228600000Y-61912500D02*
X229350000Y-61162500D01*
X229350000Y-61162500D02*
X230762000Y-61162500D01*
X233362000Y-23812500D02*
X234112000Y-23062500D01*
X234112000Y-23062500D02*
X235525000Y-23062500D01*
X252412000Y-23812500D02*
X253162000Y-23062500D01*
X253162000Y-23062500D02*
X254575000Y-23062500D01*
X242888000Y-42862500D02*
X243638000Y-42112500D01*
X243638000Y-42112500D02*
X245050000Y-42112500D01*
X271462000Y-23812500D02*
X272212000Y-23062500D01*
X272212000Y-23062500D02*
X273625000Y-23062500D01*
X261938000Y-42862500D02*
X262688000Y-42112500D01*
X262688000Y-42112500D02*
X264100000Y-42112500D01*
X249812000Y-61162500D02*
X248400000Y-61162500D01*
X248400000Y-61162500D02*
X247650000Y-61912500D01*
X266700000Y-61912500D02*
X267450000Y-61162500D01*
X267450000Y-61162500D02*
X268862000Y-61162500D01*
X238125000Y-78581200D02*
X238656000Y-78581200D01*
X238656000Y-78581200D02*
X240288000Y-80212500D01*
X257175000Y-78581200D02*
X257706000Y-78581200D01*
X257706000Y-78581200D02*
X259338000Y-80212500D01*
X290512000Y-23812500D02*
X291262000Y-23062500D01*
X291262000Y-23062500D02*
X292675000Y-23062500D01*
X287935000Y-49810200D02*
X288466000Y-49810200D01*
X288466000Y-49810200D02*
X290294000Y-51637500D01*
X283369000Y-78581200D02*
X283900000Y-78581200D01*
X283900000Y-78581200D02*
X285531000Y-80212500D01*
X316706000Y-78802500D02*
X317459000Y-78802500D01*
X317459000Y-78802500D02*
X318869000Y-80212500D01*
X337919000Y-99262500D02*
X337388000Y-99262500D01*
X337388000Y-99262500D02*
X335560000Y-97435200D01*
X326350000Y-21431200D02*
X325150000Y-20231200D01*
X325150000Y-20231200D02*
X322550000Y-20231200D01*
X322550000Y-20231200D02*
X321350000Y-21431200D01*
X332862000Y-21082000D02*
X326699000Y-21082000D01*
X326699000Y-21082000D02*
X326350000Y-21431200D01*
X334189090Y-19050000D02*
X332862600Y-21081400D01*
X350043750Y-24562250D02*
X350043750Y-19050000D01*
X350043750Y-19050000D02*
X334189090Y-19050000D01*
X348082600Y-26161400D02*
X350043750Y-24562250D01*
D20*
X336143700Y-100762000D02*
X336143700Y-100070500D01*
X336143700Y-100070500D02*
X335850300Y-99777100D01*
X337919000Y-100762000D02*
X336143700Y-100762000D01*
X343119000Y-99262000D02*
X343119000Y-98802100D01*
X343119000Y-98802100D02*
X341014800Y-96697900D01*
X341014800Y-96697900D02*
X331747200Y-96697900D01*
X331747200Y-96697900D02*
X326493500Y-101951600D01*
X326493500Y-101951600D02*
X319529300Y-101951600D01*
X319529300Y-101951600D02*
X318869000Y-101291300D01*
X318869000Y-101291300D02*
X318869000Y-100762000D01*
X89167800Y-21235200D02*
X89363800Y-21431200D01*
D21*
X89167800Y-21235200D02*
X70117800Y-21235200D01*
X92672700Y-21235200D02*
X89167800Y-21235200D01*
D20*
X103503500Y-59335200D02*
X103651000Y-59482700D01*
X103651000Y-59482700D02*
X103651000Y-59531200D01*
D21*
X103503500Y-59335200D02*
X84797300Y-59335200D01*
X121640000Y-59335200D02*
X103503500Y-59335200D01*
D20*
X347476000Y-31848000D02*
X347476600Y-31848000D01*
X347476600Y-31848000D02*
X348082600Y-31242000D01*
D21*
X347476000Y-31848000D02*
X346870000Y-32454000D01*
X346870000Y-32454000D02*
X307984000Y-32454000D01*
X348082000Y-31242000D02*
X347476000Y-31848000D01*
D20*
X70117800Y-21235200D02*
X70313800Y-21431200D01*
D21*
X70117800Y-21235200D02*
X51067800Y-21235200D01*
D20*
X65404000Y-59335200D02*
X65551300Y-59482500D01*
X65551300Y-59482500D02*
X65551300Y-59531200D01*
D21*
X65404000Y-59335200D02*
X43058500Y-59335200D01*
X43058500Y-59335200D02*
X39731200Y-62662500D01*
X39731200Y-62662500D02*
X38318800Y-62662500D01*
X84797300Y-59335200D02*
X65404000Y-59335200D01*
D20*
X245465000Y-21235200D02*
X245222000Y-21235200D01*
D21*
X260618000Y-21235200D02*
X245465000Y-21235200D01*
D20*
X127268000Y-21235200D02*
X127464000Y-21431200D01*
D21*
X127268000Y-21235200D02*
X111723000Y-21235200D01*
X145452000Y-21235200D02*
X127268000Y-21235200D01*
D20*
X324069000Y-100762000D02*
X325844300Y-100762000D01*
D21*
X326494800Y-95250000D02*
X309562000Y-95250000D01*
X343119000Y-100762000D02*
X344289000Y-100762000D01*
X344289000Y-100762000D02*
X345019000Y-100033000D01*
X345019000Y-100033000D02*
X345019000Y-97368800D01*
X345019000Y-97368800D02*
X342900000Y-95250000D01*
X342900000Y-95250000D02*
X326494800Y-95250000D01*
D20*
X325844300Y-100762000D02*
X325844300Y-95900500D01*
X325844300Y-95900500D02*
X326494800Y-95250000D01*
D21*
X241568000Y-21235200D02*
X245222000Y-21235200D01*
D20*
X226172000Y-21235200D02*
X226415000Y-21235200D01*
D21*
X222518000Y-21235200D02*
X226172000Y-21235200D01*
X64512500Y-62662500D02*
X65682500Y-62662500D01*
X65682500Y-62662500D02*
X66412500Y-61932500D01*
X66412500Y-61932500D02*
X66412500Y-60392500D01*
X66412500Y-60392500D02*
X65551300Y-59531200D01*
X102612000Y-62662500D02*
X103783000Y-62662500D01*
X103783000Y-62662500D02*
X104513000Y-61932500D01*
X104513000Y-61932500D02*
X104513000Y-60392500D01*
X104513000Y-60392500D02*
X103651000Y-59531200D01*
X264272000Y-21235200D02*
X260618000Y-21235200D01*
X279668000Y-21235200D02*
X264272000Y-21235200D01*
X299045000Y-24562500D02*
X299775000Y-23832500D01*
X299775000Y-23832500D02*
X299775000Y-22292500D01*
X299775000Y-22292500D02*
X298718000Y-21235200D01*
X298718000Y-21235200D02*
X283322000Y-21235200D01*
X283322000Y-21235200D02*
X283248000Y-21310000D01*
X283248000Y-21310000D02*
X283173000Y-21235200D01*
X283173000Y-21235200D02*
X279668000Y-21235200D01*
X298489000Y-24562500D02*
X297875000Y-24562500D01*
X299045000Y-24562500D02*
X298489000Y-24562500D01*
X298489000Y-24562500D02*
X299045000Y-24562500D01*
X297875000Y-24562500D02*
X298489000Y-24562500D01*
X207122000Y-21235200D02*
X203468000Y-21235200D01*
X209354000Y-21235200D02*
X207122000Y-21235200D01*
X209354000Y-21235200D02*
X207122000Y-21235200D01*
X222518000Y-21235200D02*
X209354000Y-21235200D01*
X207122000Y-21235200D02*
X209354000Y-21235200D01*
X203468000Y-21235200D02*
X207122000Y-21235200D01*
X169022000Y-21235200D02*
X184418000Y-21235200D01*
X165368000Y-21235200D02*
X169022000Y-21235200D01*
X184418000Y-21235200D02*
X169022000Y-21235200D01*
X183575000Y-24562500D02*
X184745000Y-24562500D01*
X184745000Y-24562500D02*
X185475000Y-23832500D01*
X185475000Y-23832500D02*
X185475000Y-22292500D01*
X185475000Y-22292500D02*
X184418000Y-21235200D01*
X184418000Y-21235200D02*
X188072000Y-21235200D01*
X188072000Y-21235200D02*
X202210000Y-21235200D01*
X202210000Y-21235200D02*
X203468000Y-21235200D01*
X203468000Y-21235200D02*
X202210000Y-21235200D01*
X146318000Y-21235200D02*
X145452000Y-21235200D01*
X165368000Y-21235200D02*
X146318000Y-21235200D01*
X127595000Y-24562500D02*
X127838000Y-24562500D01*
X126425000Y-24562500D02*
X127595000Y-24562500D01*
X108218000Y-21235200D02*
X107352000Y-21235200D01*
X111723000Y-21235200D02*
X108218000Y-21235200D01*
X70445000Y-24562500D02*
X70687500Y-24562500D01*
X69275000Y-24562500D02*
X70445000Y-24562500D01*
X51067800Y-21235200D02*
X50202300Y-21235200D01*
X193336000Y-39678500D02*
X192078000Y-39678500D01*
X193100000Y-43612500D02*
X194270000Y-43612500D01*
X194270000Y-43612500D02*
X195000000Y-42882500D01*
X195000000Y-42882500D02*
X195000000Y-41342500D01*
X195000000Y-41342500D02*
X193336000Y-39678500D01*
X193336000Y-39678500D02*
X192078000Y-39678500D01*
X212734000Y-39678500D02*
X193336000Y-39678500D01*
X250834000Y-39678500D02*
X231784000Y-39678500D01*
X269536000Y-39678500D02*
X268278000Y-39678500D01*
X269300000Y-43612500D02*
X270470000Y-43612500D01*
X270470000Y-43612500D02*
X271200000Y-42882500D01*
X271200000Y-42882500D02*
X271200000Y-41342500D01*
X271200000Y-41342500D02*
X269536000Y-39678500D01*
X269536000Y-39678500D02*
X268278000Y-39678500D01*
X281790000Y-39678500D02*
X269536000Y-39678500D01*
X298459000Y-39678500D02*
X281790000Y-39678500D01*
X122505000Y-59335200D02*
X121640000Y-59335200D01*
X140690000Y-59335200D02*
X122505000Y-59335200D01*
X141555000Y-59335200D02*
X140690000Y-59335200D01*
X159740000Y-59335200D02*
X141555000Y-59335200D01*
X160605000Y-59335200D02*
X159740000Y-59335200D01*
X178790000Y-59335200D02*
X160605000Y-59335200D01*
X179655000Y-59335200D02*
X178790000Y-59335200D01*
X197840000Y-59335200D02*
X179655000Y-59335200D01*
X179655000Y-59335200D02*
X178790000Y-59335200D01*
X198705000Y-59335200D02*
X197840000Y-59335200D01*
X216890000Y-59335200D02*
X198705000Y-59335200D01*
X217755000Y-59335200D02*
X216890000Y-59335200D01*
X235940000Y-59335200D02*
X217755000Y-59335200D01*
X236805000Y-59335200D02*
X235940000Y-59335200D01*
X254990000Y-59335200D02*
X236805000Y-59335200D01*
X255855000Y-59335200D02*
X254990000Y-59335200D01*
X274040000Y-59335200D02*
X255855000Y-59335200D01*
X274905000Y-59335200D02*
X278802000Y-59335200D01*
X278802000Y-59335200D02*
X281790000Y-56347200D01*
X274040000Y-59335200D02*
X274905000Y-59335200D01*
X274905000Y-59335200D02*
X274040000Y-59335200D01*
X291141000Y-77952500D02*
X292631000Y-79442500D01*
X292631000Y-79442500D02*
X292631000Y-80982500D01*
X292631000Y-80982500D02*
X291901000Y-81712500D01*
X291901000Y-81712500D02*
X290731000Y-81712500D01*
X281790000Y-77582500D02*
X290771000Y-77582500D01*
X290771000Y-77582500D02*
X291141000Y-77952500D01*
X291141000Y-77952500D02*
X308934000Y-77952500D01*
X59268800Y-95512500D02*
X81225000Y-95512500D01*
X81225000Y-95512500D02*
X81961300Y-96248800D01*
X81961300Y-96248800D02*
X81961300Y-97372500D01*
X81961300Y-97372500D02*
X83081300Y-98492500D01*
X83081300Y-98492500D02*
X83081300Y-100033000D01*
X83081300Y-100033000D02*
X82351300Y-100762000D01*
X82351300Y-100762000D02*
X81181200Y-100762000D01*
X57368800Y-100762000D02*
X58538800Y-100762000D01*
X58538800Y-100762000D02*
X59268800Y-100033000D01*
X59268800Y-100033000D02*
X59268800Y-95512500D01*
X58148800Y-77582500D02*
X59268800Y-78702500D01*
X59268800Y-78702500D02*
X59268800Y-95512500D01*
X59268800Y-95512500D02*
X38362500Y-95512500D01*
X38362500Y-95512500D02*
X38362500Y-97126300D01*
X38362500Y-97126300D02*
X34726300Y-100762000D01*
X34726300Y-100762000D02*
X33556200Y-100762000D01*
X93867500Y-77582500D02*
X74817500Y-77582500D01*
X158161000Y-77582500D02*
X151018000Y-77582500D01*
X158161000Y-77582500D02*
X158161000Y-96390000D01*
X158161000Y-96390000D02*
X153789000Y-100762000D01*
X153789000Y-100762000D02*
X152619000Y-100762000D01*
X170068000Y-77582500D02*
X158161000Y-77582500D01*
X304800000Y-95250000D02*
X271462000Y-95250000D01*
X271462000Y-95250000D02*
X247650000Y-95250000D01*
X271681000Y-100762000D02*
X272851000Y-100762000D01*
X272851000Y-100762000D02*
X273581000Y-100033000D01*
X273581000Y-100033000D02*
X273581000Y-97368800D01*
X273581000Y-97368800D02*
X271462000Y-95250000D01*
X247650000Y-95250000D02*
X228600000Y-95250000D01*
X228600000Y-95250000D02*
X228600000Y-97388800D01*
X228600000Y-97388800D02*
X225226000Y-100762000D01*
X225226000Y-100762000D02*
X224056000Y-100762000D01*
X247869000Y-100762000D02*
X249039000Y-100762000D01*
X249039000Y-100762000D02*
X249769000Y-100033000D01*
X249769000Y-100033000D02*
X249769000Y-97368800D01*
X249769000Y-97368800D02*
X247650000Y-95250000D01*
X304800000Y-95250000D02*
X306919000Y-97368800D01*
X306919000Y-97368800D02*
X306919000Y-100033000D01*
X306919000Y-100033000D02*
X306189000Y-100762000D01*
X306189000Y-100762000D02*
X305019000Y-100762000D01*
X309562000Y-95250000D02*
X304800000Y-95250000D01*
X309562000Y-95250000D02*
X308934000Y-94621200D01*
X308934000Y-94621200D02*
X308934000Y-77952500D01*
X308934000Y-77952500D02*
X325602000Y-77952500D01*
X325602000Y-77952500D02*
X325969000Y-78318800D01*
X325969000Y-78318800D02*
X325969000Y-80982500D01*
X325969000Y-80982500D02*
X325239000Y-81712500D01*
X325239000Y-81712500D02*
X324069000Y-81712500D01*
X112918000Y-77582500D02*
X93867500Y-77582500D01*
X93087500Y-81712500D02*
X94257500Y-81712500D01*
X94257500Y-81712500D02*
X94987500Y-80982500D01*
X94987500Y-80982500D02*
X94987500Y-78702500D01*
X94987500Y-78702500D02*
X93867500Y-77582500D01*
X131968000Y-77582500D02*
X112918000Y-77582500D01*
X112138000Y-81712500D02*
X113308000Y-81712500D01*
X113308000Y-81712500D02*
X114038000Y-80982500D01*
X114038000Y-80982500D02*
X114038000Y-78702500D01*
X114038000Y-78702500D02*
X112918000Y-77582500D01*
X151018000Y-77582500D02*
X131968000Y-77582500D01*
X131188000Y-81712500D02*
X132358000Y-81712500D01*
X132358000Y-81712500D02*
X133088000Y-80982500D01*
X133088000Y-80982500D02*
X133088000Y-78702500D01*
X133088000Y-78702500D02*
X131968000Y-77582500D01*
X150238000Y-81712500D02*
X151408000Y-81712500D01*
X151408000Y-81712500D02*
X152138000Y-80982500D01*
X152138000Y-80982500D02*
X152138000Y-78702500D01*
X152138000Y-78702500D02*
X151018000Y-77582500D01*
X189118000Y-77582500D02*
X170068000Y-77582500D01*
X169288000Y-81712500D02*
X170458000Y-81712500D01*
X170458000Y-81712500D02*
X171188000Y-80982500D01*
X171188000Y-80982500D02*
X171188000Y-78702500D01*
X171188000Y-78702500D02*
X170068000Y-77582500D01*
X208168000Y-77582500D02*
X189118000Y-77582500D01*
X188338000Y-81712500D02*
X189508000Y-81712500D01*
X189508000Y-81712500D02*
X190238000Y-80982500D01*
X190238000Y-80982500D02*
X190238000Y-78702500D01*
X190238000Y-78702500D02*
X189118000Y-77582500D01*
X227218000Y-77582500D02*
X208168000Y-77582500D01*
X207388000Y-81712500D02*
X208558000Y-81712500D01*
X208558000Y-81712500D02*
X209288000Y-80982500D01*
X209288000Y-80982500D02*
X209288000Y-78702500D01*
X209288000Y-78702500D02*
X208168000Y-77582500D01*
X246268000Y-77582500D02*
X227218000Y-77582500D01*
X226438000Y-81712500D02*
X227608000Y-81712500D01*
X227608000Y-81712500D02*
X228338000Y-80982500D01*
X228338000Y-80982500D02*
X228338000Y-78702500D01*
X228338000Y-78702500D02*
X227218000Y-77582500D01*
X265318000Y-77582500D02*
X246268000Y-77582500D01*
X245488000Y-81712500D02*
X246658000Y-81712500D01*
X246658000Y-81712500D02*
X247388000Y-80982500D01*
X247388000Y-80982500D02*
X247388000Y-78702500D01*
X247388000Y-78702500D02*
X246268000Y-77582500D01*
X281790000Y-77582500D02*
X265318000Y-77582500D01*
X264538000Y-81712500D02*
X265708000Y-81712500D01*
X265708000Y-81712500D02*
X266438000Y-80982500D01*
X266438000Y-80982500D02*
X266438000Y-78702500D01*
X266438000Y-78702500D02*
X265318000Y-77582500D01*
X74817500Y-77582500D02*
X58148800Y-77582500D01*
X74037500Y-81712500D02*
X75207500Y-81712500D01*
X75207500Y-81712500D02*
X75937500Y-80982500D01*
X75937500Y-80982500D02*
X75937500Y-78702500D01*
X75937500Y-78702500D02*
X74817500Y-77582500D01*
X58148800Y-77582500D02*
X54018800Y-81712500D01*
X54018800Y-81712500D02*
X43081200Y-81712500D01*
X281790000Y-56347200D02*
X281790000Y-77582500D01*
X281790000Y-56347200D02*
X281790000Y-39678500D01*
X274062000Y-62662500D02*
X275233000Y-62662500D01*
X275233000Y-62662500D02*
X275963000Y-61932500D01*
X275963000Y-61932500D02*
X275963000Y-60392500D01*
X275963000Y-60392500D02*
X274905000Y-59335200D01*
X255012000Y-62662500D02*
X256183000Y-62662500D01*
X256183000Y-62662500D02*
X256913000Y-61932500D01*
X256913000Y-61932500D02*
X256913000Y-60392500D01*
X256913000Y-60392500D02*
X255855000Y-59335200D01*
X255855000Y-59335200D02*
X254990000Y-59335200D01*
X235962000Y-62662500D02*
X237133000Y-62662500D01*
X237133000Y-62662500D02*
X237863000Y-61932500D01*
X237863000Y-61932500D02*
X237863000Y-60392500D01*
X237863000Y-60392500D02*
X236805000Y-59335200D01*
X236805000Y-59335200D02*
X235940000Y-59335200D01*
X216912000Y-62662500D02*
X218083000Y-62662500D01*
X218083000Y-62662500D02*
X218813000Y-61932500D01*
X218813000Y-61932500D02*
X218813000Y-60392500D01*
X218813000Y-60392500D02*
X217755000Y-59335200D01*
X217755000Y-59335200D02*
X216890000Y-59335200D01*
X197862000Y-62662500D02*
X199033000Y-62662500D01*
X199033000Y-62662500D02*
X199763000Y-61932500D01*
X199763000Y-61932500D02*
X199763000Y-60392500D01*
X199763000Y-60392500D02*
X198705000Y-59335200D01*
X198705000Y-59335200D02*
X197840000Y-59335200D01*
X178812000Y-62662500D02*
X179983000Y-62662500D01*
X179983000Y-62662500D02*
X180713000Y-61932500D01*
X180713000Y-61932500D02*
X180713000Y-60392500D01*
X180713000Y-60392500D02*
X179655000Y-59335200D01*
X159762000Y-62662500D02*
X160933000Y-62662500D01*
X160933000Y-62662500D02*
X161663000Y-61932500D01*
X161663000Y-61932500D02*
X161663000Y-60392500D01*
X161663000Y-60392500D02*
X160605000Y-59335200D01*
X160605000Y-59335200D02*
X159740000Y-59335200D01*
X140712000Y-62662500D02*
X141883000Y-62662500D01*
X141883000Y-62662500D02*
X142613000Y-61932500D01*
X142613000Y-61932500D02*
X142613000Y-60392500D01*
X142613000Y-60392500D02*
X141555000Y-59335200D01*
X141555000Y-59335200D02*
X140690000Y-59335200D01*
X121662000Y-62662500D02*
X122833000Y-62662500D01*
X122833000Y-62662500D02*
X123563000Y-61932500D01*
X123563000Y-61932500D02*
X123563000Y-60392500D01*
X123563000Y-60392500D02*
X122505000Y-59335200D01*
X122505000Y-59335200D02*
X121640000Y-59335200D01*
X83562500Y-62662500D02*
X84732500Y-62662500D01*
X84732500Y-62662500D02*
X85462500Y-61932500D01*
X85462500Y-61932500D02*
X85462500Y-60392500D01*
X85462500Y-60392500D02*
X84601300Y-59531200D01*
X84601300Y-59531200D02*
X84797300Y-59335200D01*
X295494000Y-53137500D02*
X296664000Y-53137500D01*
X296664000Y-53137500D02*
X297394000Y-52407500D01*
X297394000Y-52407500D02*
X297394000Y-40743700D01*
X297394000Y-40743700D02*
X298459000Y-39678500D01*
X268278000Y-39678500D02*
X250834000Y-39678500D01*
X250250000Y-43612500D02*
X251420000Y-43612500D01*
X251420000Y-43612500D02*
X252150000Y-42882500D01*
X252150000Y-42882500D02*
X252150000Y-40994500D01*
X252150000Y-40994500D02*
X250834000Y-39678500D01*
X231200000Y-43612500D02*
X232370000Y-43612500D01*
X232370000Y-43612500D02*
X233100000Y-42882500D01*
X233100000Y-42882500D02*
X233100000Y-40994500D01*
X233100000Y-40994500D02*
X231784000Y-39678500D01*
X231784000Y-39678500D02*
X212734000Y-39678500D01*
X212150000Y-43612500D02*
X213320000Y-43612500D01*
X213320000Y-43612500D02*
X214050000Y-42882500D01*
X214050000Y-42882500D02*
X214050000Y-40994500D01*
X214050000Y-40994500D02*
X212734000Y-39678500D01*
X192078000Y-39678500D02*
X174634000Y-39678500D01*
X174634000Y-39678500D02*
X155584000Y-39678500D01*
X174050000Y-43612500D02*
X175220000Y-43612500D01*
X175220000Y-43612500D02*
X175950000Y-42882500D01*
X175950000Y-42882500D02*
X175950000Y-40994500D01*
X175950000Y-40994500D02*
X174634000Y-39678500D01*
X155584000Y-39678500D02*
X136534000Y-39678500D01*
X155000000Y-43612500D02*
X156170000Y-43612500D01*
X156170000Y-43612500D02*
X156900000Y-42882500D01*
X156900000Y-42882500D02*
X156900000Y-40994500D01*
X156900000Y-40994500D02*
X155584000Y-39678500D01*
X136534000Y-39678500D02*
X117484000Y-39678500D01*
X135950000Y-43612500D02*
X137120000Y-43612500D01*
X137120000Y-43612500D02*
X137850000Y-42882500D01*
X137850000Y-42882500D02*
X137850000Y-40994500D01*
X137850000Y-40994500D02*
X136534000Y-39678500D01*
X116900000Y-43612500D02*
X118070000Y-43612500D01*
X118070000Y-43612500D02*
X118800000Y-42882500D01*
X118800000Y-42882500D02*
X118800000Y-40994500D01*
X118800000Y-40994500D02*
X117484000Y-39678500D01*
X117484000Y-39678500D02*
X98434000Y-39678500D01*
X98434000Y-39678500D02*
X79384000Y-39678500D01*
X97850000Y-43612500D02*
X99020000Y-43612500D01*
X99020000Y-43612500D02*
X99750000Y-42882500D01*
X99750000Y-42882500D02*
X99750000Y-40994500D01*
X99750000Y-40994500D02*
X98434000Y-39678500D01*
X79384000Y-39678500D02*
X60334000Y-39678500D01*
X78800000Y-43612500D02*
X79970000Y-43612500D01*
X79970000Y-43612500D02*
X80700000Y-42882500D01*
X80700000Y-42882500D02*
X80700000Y-40994500D01*
X80700000Y-40994500D02*
X79384000Y-39678500D01*
X60334000Y-39678500D02*
X38902800Y-39678500D01*
X38902800Y-39678500D02*
X38902800Y-41817200D01*
X38902800Y-41817200D02*
X37107500Y-43612500D01*
X37107500Y-43612500D02*
X35937500Y-43612500D01*
X59750000Y-43612500D02*
X60920000Y-43612500D01*
X60920000Y-43612500D02*
X61650000Y-42882500D01*
X61650000Y-42882500D02*
X61650000Y-40994500D01*
X61650000Y-40994500D02*
X60334000Y-39678500D01*
X307984000Y-32454000D02*
X307984000Y-39678500D01*
X307984000Y-39678500D02*
X298459000Y-39678500D01*
X31175000Y-24562500D02*
X32345000Y-24562500D01*
X32345000Y-24562500D02*
X33075000Y-23832500D01*
X33075000Y-23832500D02*
X33075000Y-21693700D01*
X33075000Y-21693700D02*
X33533500Y-21235200D01*
X33533500Y-21235200D02*
X50202300Y-21235200D01*
X50225000Y-24562500D02*
X51395000Y-24562500D01*
X51395000Y-24562500D02*
X52125000Y-23832500D01*
X52125000Y-23832500D02*
X52125000Y-22292500D01*
X52125000Y-22292500D02*
X51067800Y-21235200D01*
X51067800Y-21235200D02*
X50202300Y-21235200D01*
X69275000Y-24562500D02*
X70445000Y-24562500D01*
X70445000Y-24562500D02*
X71175000Y-23832500D01*
X71175000Y-23832500D02*
X71175000Y-22292500D01*
X71175000Y-22292500D02*
X70313800Y-21431200D01*
X88325000Y-24562500D02*
X89495000Y-24562500D01*
X89495000Y-24562500D02*
X90225000Y-23832500D01*
X90225000Y-23832500D02*
X90225000Y-22292500D01*
X90225000Y-22292500D02*
X89363800Y-21431200D01*
X107352000Y-21235200D02*
X92672700Y-21235200D01*
X107375000Y-24562500D02*
X108545000Y-24562500D01*
X108545000Y-24562500D02*
X109275000Y-23832500D01*
X109275000Y-23832500D02*
X109275000Y-22292500D01*
X109275000Y-22292500D02*
X108218000Y-21235200D01*
X108218000Y-21235200D02*
X107352000Y-21235200D01*
X126425000Y-24562500D02*
X127595000Y-24562500D01*
X127595000Y-24562500D02*
X128325000Y-23832500D01*
X128325000Y-23832500D02*
X128325000Y-22292500D01*
X128325000Y-22292500D02*
X127464000Y-21431200D01*
X145475000Y-24562500D02*
X146645000Y-24562500D01*
X146645000Y-24562500D02*
X147375000Y-23832500D01*
X147375000Y-23832500D02*
X147375000Y-22292500D01*
X147375000Y-22292500D02*
X146318000Y-21235200D01*
X146318000Y-21235200D02*
X145452000Y-21235200D01*
X241568000Y-21235200D02*
X226415000Y-21235200D01*
X203468000Y-21235200D02*
X202210000Y-21235200D01*
X202210000Y-21235200D02*
X188072000Y-21235200D01*
X145475000Y-24562500D02*
X146888000Y-24562500D01*
X111723000Y-21384800D02*
X111723000Y-21235200D01*
X92672700Y-21384800D02*
X92672700Y-21235200D01*
X164525000Y-24562500D02*
X165695000Y-24562500D01*
X165695000Y-24562500D02*
X166425000Y-23832500D01*
X166425000Y-23832500D02*
X166425000Y-22292500D01*
X166425000Y-22292500D02*
X165368000Y-21235200D01*
X202625000Y-24562500D02*
X203795000Y-24562500D01*
X203795000Y-24562500D02*
X204525000Y-23832500D01*
X204525000Y-23832500D02*
X204525000Y-22292500D01*
X204525000Y-22292500D02*
X203468000Y-21235200D01*
X221675000Y-24562500D02*
X222845000Y-24562500D01*
X222845000Y-24562500D02*
X223575000Y-23832500D01*
X223575000Y-23832500D02*
X223575000Y-22292500D01*
X223575000Y-22292500D02*
X222518000Y-21235200D01*
X240725000Y-24562500D02*
X241895000Y-24562500D01*
X241895000Y-24562500D02*
X242625000Y-23832500D01*
X242625000Y-23832500D02*
X242625000Y-22292500D01*
X242625000Y-22292500D02*
X241568000Y-21235200D01*
X259775000Y-24562500D02*
X260945000Y-24562500D01*
X260945000Y-24562500D02*
X261675000Y-23832500D01*
X261675000Y-23832500D02*
X261675000Y-22292500D01*
X261675000Y-22292500D02*
X260618000Y-21235200D01*
X278825000Y-24562500D02*
X279995000Y-24562500D01*
X279995000Y-24562500D02*
X280725000Y-23832500D01*
X280725000Y-23832500D02*
X280725000Y-22292500D01*
X280725000Y-22292500D02*
X279668000Y-21235200D01*
X279668000Y-21235200D02*
X264272000Y-21235200D01*
X307984000Y-32454000D02*
X300093000Y-24562500D01*
X300093000Y-24562500D02*
X299045000Y-24562500D01*
X298489000Y-24562500D02*
X297875000Y-24562500D01*
D20*
X324069000Y-99262000D02*
X324069000Y-97200800D01*
X324069000Y-97200800D02*
X322982000Y-96113800D01*
X322065100Y-94370000D02*
X322065100Y-91357600D01*
X322065100Y-91357600D02*
X319240300Y-88532800D01*
X319240300Y-88532800D02*
X314255400Y-88532800D01*
X314255400Y-88532800D02*
X313254700Y-87532100D01*
X313254700Y-87532100D02*
X313254700Y-84542200D01*
X313254700Y-84542200D02*
X316084400Y-81712500D01*
X316084400Y-81712500D02*
X318869000Y-81712500D01*
X324069000Y-80212500D02*
X324674900Y-79606600D01*
X324674900Y-79606600D02*
X324674900Y-79201500D01*
X299819000Y-100762000D02*
X299819000Y-101291300D01*
X299819000Y-101291300D02*
X300479300Y-101951600D01*
X300479300Y-101951600D02*
X308212900Y-101951600D01*
X308212900Y-101951600D02*
X314062300Y-96102200D01*
X290323600Y-91084900D02*
X290189300Y-91084900D01*
X290189300Y-91084900D02*
X285531000Y-86426600D01*
X285531000Y-86426600D02*
X285531000Y-81712500D01*
X306150000Y-99200000D02*
X302354200Y-96137600D01*
X305019000Y-99262000D02*
X306150000Y-99200000D01*
X290294000Y-53137500D02*
X288518700Y-53137500D01*
X288518700Y-53137500D02*
X288518700Y-53685400D01*
X288518700Y-53685400D02*
X288250300Y-53953800D01*
X290731000Y-80212500D02*
X290324200Y-79805700D01*
X290324200Y-79805700D02*
X290324200Y-78817500D01*
X292675000Y-24562500D02*
X290899700Y-24562500D01*
X291145000Y-31161900D02*
X291542300Y-30764600D01*
X291542300Y-30764600D02*
X291542300Y-25940400D01*
X291542300Y-25940400D02*
X290899700Y-25297800D01*
X290899700Y-25297800D02*
X290899700Y-24562500D01*
X295494000Y-51637500D02*
X295494000Y-50412200D01*
X295494000Y-50412200D02*
X295110500Y-50028700D01*
X273625000Y-24562500D02*
X273625000Y-25022800D01*
X273625000Y-25022800D02*
X274340100Y-25737900D01*
X274340100Y-25737900D02*
X288421500Y-25737900D01*
X288421500Y-25737900D02*
X289648600Y-24510800D01*
X289648600Y-24510800D02*
X289648600Y-23636000D01*
X289648600Y-23636000D02*
X291435800Y-21848800D01*
X291435800Y-21848800D02*
X297178100Y-21848800D01*
X297178100Y-21848800D02*
X297875000Y-22545700D01*
X297875000Y-22545700D02*
X297875000Y-23062500D01*
X278825000Y-23062500D02*
X278825000Y-22565800D01*
X278825000Y-22565800D02*
X278146300Y-21887100D01*
X278146300Y-21887100D02*
X272311900Y-21887100D01*
X272311900Y-21887100D02*
X270684700Y-23514300D01*
X270684700Y-23514300D02*
X270684700Y-25223900D01*
X270684700Y-25223900D02*
X271174900Y-25714100D01*
X264100000Y-43612500D02*
X264100000Y-44634900D01*
X269300000Y-42112500D02*
X269300000Y-41652200D01*
X269300000Y-41652200D02*
X268558300Y-40910500D01*
X268558300Y-40910500D02*
X262835700Y-40910500D01*
X262835700Y-40910500D02*
X261185300Y-42560900D01*
X261185300Y-42560900D02*
X261185300Y-43594000D01*
X261185300Y-43594000D02*
X263987000Y-46395700D01*
X263987000Y-46395700D02*
X263987000Y-48248400D01*
X263987000Y-48248400D02*
X269193300Y-53454700D01*
X269193300Y-53454700D02*
X269193300Y-58448300D01*
X268862000Y-62662500D02*
X268862000Y-63566600D01*
X268862000Y-63566600D02*
X268728500Y-63700100D01*
X274062000Y-61162500D02*
X274062000Y-60664600D01*
X274062000Y-60664600D02*
X273377400Y-59980000D01*
X273377400Y-59980000D02*
X267555400Y-59980000D01*
X267555400Y-59980000D02*
X265963500Y-61571900D01*
X265963500Y-61571900D02*
X265963500Y-62659700D01*
X265963500Y-62659700D02*
X268749000Y-65445200D01*
X268749000Y-65445200D02*
X268749000Y-67298400D01*
X268749000Y-67298400D02*
X270760600Y-69310000D01*
X270760600Y-69310000D02*
X270760600Y-73532400D01*
X270760600Y-73532400D02*
X267563600Y-76729400D01*
X259338000Y-81712500D02*
X259338000Y-82241700D01*
X259338000Y-82241700D02*
X259998200Y-82901900D01*
X259998200Y-82901900D02*
X265733300Y-82901900D01*
X265733300Y-82901900D02*
X267347400Y-81287800D01*
X267347400Y-81287800D02*
X267347400Y-78432900D01*
X264705700Y-100762000D02*
X264413100Y-100469400D01*
X264413100Y-100469400D02*
X264413100Y-98980000D01*
X266481000Y-100762000D02*
X264705700Y-100762000D01*
X264538000Y-80212500D02*
X264790700Y-79959800D01*
X264790700Y-79959800D02*
X264790700Y-79189100D01*
X271681000Y-99262000D02*
X271681000Y-98723300D01*
X271681000Y-98723300D02*
X271034000Y-98076300D01*
X271034000Y-98076300D02*
X266685500Y-98076300D01*
X266685500Y-98076300D02*
X266596400Y-98165400D01*
X242669000Y-100762000D02*
X242669000Y-101291300D01*
X242669000Y-101291300D02*
X243360100Y-101982400D01*
X243360100Y-101982400D02*
X262779400Y-101982400D01*
X262779400Y-101982400D02*
X262926300Y-101835500D01*
X240288000Y-81712500D02*
X240288000Y-87749000D01*
X240288000Y-87749000D02*
X244475000Y-91936000D01*
X247869000Y-99262000D02*
X247869000Y-98747900D01*
X247869000Y-98747900D02*
X245238600Y-96117500D01*
X245488000Y-80212500D02*
X245488000Y-79752400D01*
X245488000Y-79752400D02*
X244333100Y-78597500D01*
X244229400Y-74781800D02*
X244229400Y-65491400D01*
X244229400Y-65491400D02*
X247058300Y-62662500D01*
X247058300Y-62662500D02*
X249812000Y-62662500D01*
X255012000Y-61162500D02*
X255012000Y-60702400D01*
X255012000Y-60702400D02*
X254296700Y-59987100D01*
X254296700Y-59987100D02*
X247534200Y-59987100D01*
X247534200Y-59987100D02*
X247315200Y-60206100D01*
X244950200Y-45121400D02*
X245050000Y-45021600D01*
X245050000Y-45021600D02*
X245050000Y-43612500D01*
X254575000Y-24562500D02*
X254575000Y-30475300D01*
X254575000Y-30475300D02*
X256466200Y-32366500D01*
X256466200Y-32366500D02*
X256466200Y-34405400D01*
X256466200Y-34405400D02*
X253001000Y-37870600D01*
X250250000Y-42112500D02*
X250250000Y-40738000D01*
X250250000Y-40738000D02*
X250053900Y-40541900D01*
X259775000Y-23062500D02*
X259775000Y-22565800D01*
X259775000Y-22565800D02*
X259088700Y-21879500D01*
X259088700Y-21879500D02*
X253245700Y-21879500D01*
X253245700Y-21879500D02*
X251323500Y-23801700D01*
X251323500Y-23801700D02*
X251323500Y-24769900D01*
X251323500Y-24769900D02*
X250337600Y-25755800D01*
X250337600Y-25755800D02*
X236216800Y-25755800D01*
X236216800Y-25755800D02*
X235525000Y-25064000D01*
X235525000Y-25064000D02*
X235525000Y-24562500D01*
X240725000Y-23062500D02*
X240725000Y-22565800D01*
X240725000Y-22565800D02*
X240038700Y-21879500D01*
X240038700Y-21879500D02*
X234195700Y-21879500D01*
X234195700Y-21879500D02*
X232458000Y-23617200D01*
X232458000Y-23617200D02*
X232458000Y-24545100D01*
X232458000Y-24545100D02*
X231247300Y-25755800D01*
X231247300Y-25755800D02*
X217166800Y-25755800D01*
X217166800Y-25755800D02*
X216475000Y-25064000D01*
X216475000Y-25064000D02*
X216475000Y-24562500D01*
X221675000Y-23062500D02*
X221675000Y-22565800D01*
X221675000Y-22565800D02*
X220988700Y-21879500D01*
X220988700Y-21879500D02*
X215217400Y-21879500D01*
X215217400Y-21879500D02*
X213563500Y-23533400D01*
X213563500Y-23533400D02*
X213563500Y-24112100D01*
X213563500Y-24112100D02*
X215320400Y-25869000D01*
X215320400Y-25869000D02*
X215320400Y-28186300D01*
X215320400Y-28186300D02*
X218547100Y-31413000D01*
X226000000Y-43612500D02*
X223557000Y-43612500D01*
X223557000Y-43612500D02*
X223074900Y-43130400D01*
X223074900Y-43130400D02*
X223074900Y-40866100D01*
X223074900Y-40866100D02*
X223402100Y-40538900D01*
X231200000Y-42112500D02*
X231200000Y-41652400D01*
X231200000Y-41652400D02*
X230193600Y-40646000D01*
X230762000Y-62662500D02*
X230762000Y-63275300D01*
X230762000Y-63275300D02*
X230353300Y-63684000D01*
X230554400Y-66938100D02*
X230554400Y-64994800D01*
X230554400Y-64994800D02*
X227830300Y-62270700D01*
X227830300Y-62270700D02*
X227830300Y-61612900D01*
X227830300Y-61612900D02*
X229494400Y-59948800D01*
X229494400Y-59948800D02*
X235265100Y-59948800D01*
X235265100Y-59948800D02*
X235962000Y-60645700D01*
X235962000Y-60645700D02*
X235962000Y-61162500D01*
X221238000Y-81712500D02*
X221238000Y-82228600D01*
X221238000Y-82228600D02*
X221988100Y-82978700D01*
X221988100Y-82978700D02*
X227497700Y-82978700D01*
X227497700Y-82978700D02*
X230633800Y-79842600D01*
X230633800Y-79842600D02*
X230633800Y-78874000D01*
X226438000Y-80212500D02*
X226438000Y-79752400D01*
X226438000Y-79752400D02*
X225680400Y-78994800D01*
X225680400Y-78994800D02*
X219965600Y-78994800D01*
X219965600Y-78994800D02*
X218339200Y-80621200D01*
X218339200Y-80621200D02*
X218339200Y-81263700D01*
X218339200Y-81263700D02*
X220813800Y-83738300D01*
X220813800Y-83738300D02*
X220813800Y-87652100D01*
X218856000Y-100762000D02*
X218856000Y-101480300D01*
X218856000Y-101480300D02*
X218550900Y-101785400D01*
X224056000Y-99262000D02*
X224056000Y-98775100D01*
X224056000Y-98775100D02*
X219817700Y-94536800D01*
X219817700Y-94536800D02*
X210238800Y-94536800D01*
X210238800Y-94536800D02*
X202455200Y-86753200D01*
X202455200Y-86753200D02*
X202455200Y-81979700D01*
X202455200Y-81979700D02*
X202188000Y-81712500D01*
X207388000Y-80212500D02*
X207388000Y-79752400D01*
X207388000Y-79752400D02*
X206672700Y-79037100D01*
X206672700Y-79037100D02*
X200914100Y-79037100D01*
X200914100Y-79037100D02*
X199296400Y-80654800D01*
X199296400Y-80654800D02*
X199296400Y-81356400D01*
X199296400Y-81356400D02*
X201784500Y-83844500D01*
X201784500Y-83844500D02*
X201784500Y-86719400D01*
X201784500Y-86719400D02*
X210351800Y-95286700D01*
X210351800Y-95286700D02*
X214114000Y-95286700D01*
X211253500Y-66324400D02*
X211712000Y-65865900D01*
X211712000Y-65865900D02*
X211712000Y-62662500D01*
X216912000Y-61162500D02*
X216912000Y-60702400D01*
X216912000Y-60702400D02*
X216196700Y-59987100D01*
X216196700Y-59987100D02*
X210434800Y-59987100D01*
X210434800Y-59987100D02*
X208824600Y-61597300D01*
X208824600Y-61597300D02*
X208824600Y-62339500D01*
X208824600Y-62339500D02*
X209654700Y-63169600D01*
X209171000Y-52581800D02*
X209171000Y-51746300D01*
X209171000Y-51746300D02*
X206950000Y-49525300D01*
X206950000Y-49525300D02*
X206950000Y-43612500D01*
X212150000Y-42112500D02*
X212150000Y-41598200D01*
X212150000Y-41598200D02*
X211416300Y-40864500D01*
X211416300Y-40864500D02*
X203727800Y-40864500D01*
X203727800Y-40864500D02*
X203727800Y-40864400D01*
X197425000Y-24562500D02*
X197425000Y-30475300D01*
X197425000Y-30475300D02*
X199692300Y-32742600D01*
X199692300Y-32742600D02*
X199692300Y-37712100D01*
X202625000Y-23062500D02*
X202625000Y-22565800D01*
X202625000Y-22565800D02*
X201938700Y-21879500D01*
X201938700Y-21879500D02*
X196124600Y-21879500D01*
X196124600Y-21879500D02*
X194231500Y-23772600D01*
X194231500Y-23772600D02*
X194231500Y-24755300D01*
X194231500Y-24755300D02*
X193231700Y-25755100D01*
X193231700Y-25755100D02*
X179066600Y-25755100D01*
X179066600Y-25755100D02*
X178375000Y-25063500D01*
X178375000Y-25063500D02*
X178375000Y-24562500D01*
X186124700Y-43612500D02*
X186124700Y-44164000D01*
X186124700Y-44164000D02*
X186590300Y-44629600D01*
X186590300Y-44629600D02*
X186872100Y-44629600D01*
X187900000Y-43612500D02*
X186124700Y-43612500D01*
X183575000Y-23062500D02*
X183575000Y-22565800D01*
X183575000Y-22565800D02*
X182888700Y-21879500D01*
X182888700Y-21879500D02*
X177045700Y-21879500D01*
X177045700Y-21879500D02*
X174647000Y-24278200D01*
X174647000Y-24278200D02*
X174647000Y-25378800D01*
X174647000Y-25378800D02*
X172760700Y-27265100D01*
X172760700Y-27265100D02*
X172760700Y-30382000D01*
X172760700Y-30382000D02*
X173433600Y-31054900D01*
X173433600Y-31054900D02*
X178644900Y-31054900D01*
X178644900Y-31054900D02*
X182560000Y-34970000D01*
X193100000Y-42112500D02*
X193100000Y-41652200D01*
X193100000Y-41652200D02*
X192358300Y-40910500D01*
X192358300Y-40910500D02*
X186607500Y-40910500D01*
X186607500Y-40910500D02*
X185012600Y-42505400D01*
X185012600Y-42505400D02*
X185012600Y-45246200D01*
X185012600Y-45246200D02*
X186745400Y-46979000D01*
X186745400Y-46979000D02*
X186745400Y-47159000D01*
X186745400Y-47159000D02*
X190886800Y-51300400D01*
X190886800Y-51300400D02*
X191228200Y-51300400D01*
X190886700Y-62662500D02*
X190886700Y-63214000D01*
X190886700Y-63214000D02*
X191354800Y-63682100D01*
X192662000Y-62662500D02*
X190886700Y-62662500D01*
X197862000Y-61162500D02*
X197862000Y-60645700D01*
X197862000Y-60645700D02*
X197165100Y-59948800D01*
X197165100Y-59948800D02*
X191394400Y-59948800D01*
X191394400Y-59948800D02*
X189730300Y-61612900D01*
X189730300Y-61612900D02*
X189730300Y-63097400D01*
X189730300Y-63097400D02*
X192057800Y-65424900D01*
X183138000Y-81712500D02*
X183138000Y-82174400D01*
X183138000Y-82174400D02*
X183851400Y-82887800D01*
X183851400Y-82887800D02*
X189573000Y-82887800D01*
X189573000Y-82887800D02*
X193199300Y-79261500D01*
X193199300Y-79261500D02*
X193199300Y-78461700D01*
X188338000Y-80212500D02*
X188338000Y-79752200D01*
X188338000Y-79752200D02*
X187030800Y-78445000D01*
X176395900Y-69861300D02*
X176092900Y-69861300D01*
X176092900Y-69861300D02*
X173612000Y-67380400D01*
X173612000Y-67380400D02*
X173612000Y-62662500D01*
X168850000Y-43612500D02*
X167074700Y-43612500D01*
X178812000Y-61162500D02*
X178812000Y-60702400D01*
X178812000Y-60702400D02*
X178096700Y-59987100D01*
X178096700Y-59987100D02*
X171795200Y-59987100D01*
X171795200Y-59987100D02*
X171576200Y-60206100D01*
X167074700Y-43612500D02*
X167074700Y-43761800D01*
X167074700Y-43761800D02*
X166779400Y-44057100D01*
X159325000Y-24562500D02*
X159325000Y-29266000D01*
X159325000Y-29266000D02*
X167617300Y-37558300D01*
X174050000Y-42112500D02*
X174050000Y-41643200D01*
X174050000Y-41643200D02*
X172985900Y-40579100D01*
X164525000Y-23062500D02*
X164525000Y-22565800D01*
X164525000Y-22565800D02*
X163838700Y-21879500D01*
X163838700Y-21879500D02*
X157995700Y-21879500D01*
X157995700Y-21879500D02*
X156022800Y-23852400D01*
X156022800Y-23852400D02*
X156022800Y-24816100D01*
X156022800Y-24816100D02*
X155101000Y-25737900D01*
X155101000Y-25737900D02*
X140921200Y-25737900D01*
X140921200Y-25737900D02*
X140275000Y-25091700D01*
X140275000Y-25091700D02*
X140275000Y-24562500D01*
X145475000Y-23062500D02*
X145475000Y-22565800D01*
X145475000Y-22565800D02*
X144788700Y-21879500D01*
X144788700Y-21879500D02*
X138945700Y-21879500D01*
X138945700Y-21879500D02*
X137381800Y-23443400D01*
X137381800Y-23443400D02*
X137381800Y-24857300D01*
X137381800Y-24857300D02*
X140162000Y-27637500D01*
X140162000Y-27637500D02*
X140162000Y-30816200D01*
X140162000Y-30816200D02*
X146902000Y-37556200D01*
X149800000Y-43612500D02*
X147339300Y-43612500D01*
X147339300Y-43612500D02*
X146902000Y-43175200D01*
X146902000Y-43175200D02*
X146902000Y-40539900D01*
X155000000Y-42112500D02*
X155000000Y-41319900D01*
X155000000Y-41319900D02*
X154770200Y-41090100D01*
X154562000Y-62662500D02*
X154562000Y-63454700D01*
X154562000Y-63454700D02*
X154335200Y-63681500D01*
X164088000Y-81712500D02*
X163710200Y-82090300D01*
X163710200Y-82090300D02*
X163710200Y-82742600D01*
X152458400Y-60426500D02*
X152936100Y-59948800D01*
X152936100Y-59948800D02*
X159065100Y-59948800D01*
X159065100Y-59948800D02*
X159762000Y-60645700D01*
X159762000Y-60645700D02*
X159762000Y-61162500D01*
X169288000Y-80212500D02*
X169288000Y-79752200D01*
X169288000Y-79752200D02*
X168530600Y-78994800D01*
X168530600Y-78994800D02*
X162793400Y-78994800D01*
X162793400Y-78994800D02*
X161175200Y-80613000D01*
X161175200Y-80613000D02*
X161175200Y-81709800D01*
X161175200Y-81709800D02*
X163975000Y-84509600D01*
X163975000Y-84509600D02*
X163975000Y-87597800D01*
X163975000Y-87597800D02*
X165995100Y-89617900D01*
X165995100Y-89617900D02*
X165995100Y-91569900D01*
X165995100Y-91569900D02*
X155577900Y-101987100D01*
X155577900Y-101987100D02*
X148118700Y-101987100D01*
X148118700Y-101987100D02*
X147419000Y-101287400D01*
X147419000Y-101287400D02*
X147419000Y-100762000D01*
X154394300Y-99262000D02*
X157380200Y-96276100D01*
X157380200Y-96276100D02*
X157380200Y-81210600D01*
X157380200Y-81210600D02*
X157005300Y-80835700D01*
X157005300Y-80835700D02*
X154239700Y-80835700D01*
X154239700Y-80835700D02*
X152187600Y-82887800D01*
X152187600Y-82887800D02*
X145753200Y-82887800D01*
X145753200Y-82887800D02*
X145038000Y-82172600D01*
X145038000Y-82172600D02*
X145038000Y-81712500D01*
X152619000Y-99262000D02*
X154394300Y-99262000D01*
X150238000Y-80212500D02*
X150238000Y-78461700D01*
X150238000Y-78461700D02*
X150212200Y-78435900D01*
X135512000Y-62662500D02*
X135512000Y-63122600D01*
X135512000Y-63122600D02*
X136227200Y-63837800D01*
X136227200Y-63837800D02*
X144434800Y-63837800D01*
X144434800Y-63837800D02*
X144714900Y-63557700D01*
X140712000Y-61162500D02*
X140712000Y-60702400D01*
X140712000Y-60702400D02*
X139996700Y-59987100D01*
X139996700Y-59987100D02*
X132935200Y-59987100D01*
X132935200Y-59987100D02*
X132710400Y-60211900D01*
X131054000Y-45006500D02*
X131054000Y-43916500D01*
X131054000Y-43916500D02*
X130750000Y-43612500D01*
X135950000Y-42112500D02*
X135950000Y-41598200D01*
X135950000Y-41598200D02*
X135288900Y-40937100D01*
X135288900Y-40937100D02*
X131030100Y-40937100D01*
X127092000Y-37561200D02*
X127092000Y-36342300D01*
X127092000Y-36342300D02*
X121225000Y-30475300D01*
X121225000Y-30475300D02*
X121225000Y-24562500D01*
X126425000Y-23062500D02*
X126425000Y-22565800D01*
X126425000Y-22565800D02*
X125738700Y-21879500D01*
X125738700Y-21879500D02*
X119895700Y-21879500D01*
X119895700Y-21879500D02*
X117717700Y-24057500D01*
X117717700Y-24057500D02*
X117717700Y-25025700D01*
X117717700Y-25025700D02*
X116991500Y-25751900D01*
X116991500Y-25751900D02*
X102835200Y-25751900D01*
X102835200Y-25751900D02*
X102175000Y-25091700D01*
X102175000Y-25091700D02*
X102175000Y-24562500D01*
X107375000Y-23062500D02*
X107375000Y-22565800D01*
X107375000Y-22565800D02*
X106688700Y-21879500D01*
X106688700Y-21879500D02*
X100845800Y-21879500D01*
X100845800Y-21879500D02*
X99281900Y-23443400D01*
X99281900Y-23443400D02*
X99281900Y-24857400D01*
X99281900Y-24857400D02*
X102062000Y-27637500D01*
X102062000Y-27637500D02*
X102062000Y-29198400D01*
X102062000Y-29198400D02*
X107663000Y-34799400D01*
X107663000Y-34799400D02*
X107663000Y-38345000D01*
X111700000Y-43612500D02*
X109237300Y-43612500D01*
X109237300Y-43612500D02*
X108486400Y-42861600D01*
X108486400Y-42861600D02*
X108486400Y-40555800D01*
X116900000Y-42112500D02*
X116900000Y-41598200D01*
X116900000Y-41598200D02*
X116238900Y-40937100D01*
X116238900Y-40937100D02*
X110246800Y-40937100D01*
X110246800Y-40937100D02*
X109518200Y-41665700D01*
X116462000Y-62662500D02*
X116462000Y-63059900D01*
X116462000Y-63059900D02*
X115834300Y-63687600D01*
X125988000Y-81712500D02*
X123526700Y-81712500D01*
X123526700Y-81712500D02*
X123033200Y-81219000D01*
X123033200Y-81219000D02*
X123033200Y-79266300D01*
X121662000Y-61162500D02*
X121662000Y-60702400D01*
X121662000Y-60702400D02*
X120946700Y-59987100D01*
X120946700Y-59987100D02*
X115188100Y-59987100D01*
X115188100Y-59987100D02*
X113526100Y-61649100D01*
X113526100Y-61649100D02*
X113526100Y-62738700D01*
X113526100Y-62738700D02*
X114480900Y-63693500D01*
X131188000Y-80212500D02*
X131188000Y-79752200D01*
X131188000Y-79752200D02*
X129945700Y-78509900D01*
X129945700Y-78509900D02*
X119433300Y-78509900D01*
X119433300Y-78509900D02*
X115055400Y-82887800D01*
X115055400Y-82887800D02*
X107625300Y-82887800D01*
X107625300Y-82887800D02*
X106938000Y-82200500D01*
X106938000Y-82200500D02*
X106938000Y-81712500D01*
X112138000Y-80212500D02*
X112138000Y-78534300D01*
X112138000Y-78534300D02*
X112040200Y-78436500D01*
X97412000Y-62662500D02*
X97412000Y-63129300D01*
X97412000Y-63129300D02*
X98162200Y-63879500D01*
X98162200Y-63879500D02*
X106279800Y-63879500D01*
X106279800Y-63879500D02*
X106567200Y-63592100D01*
X102612000Y-61162500D02*
X102612000Y-60648200D01*
X102612000Y-60648200D02*
X101950900Y-59987100D01*
X101950900Y-59987100D02*
X95747700Y-59987100D01*
X95747700Y-59987100D02*
X95520400Y-60214400D01*
X90022100Y-41657600D02*
X89699500Y-41980200D01*
X89699500Y-41980200D02*
X89699500Y-43122900D01*
X89699500Y-43122900D02*
X90189100Y-43612500D01*
X90189100Y-43612500D02*
X92650000Y-43612500D01*
X97850000Y-42112500D02*
X97850000Y-41598200D01*
X97850000Y-41598200D02*
X96793700Y-40541900D01*
X83125000Y-24562500D02*
X83125000Y-30018200D01*
X83125000Y-30018200D02*
X91462000Y-38355200D01*
X88325000Y-23062500D02*
X88325000Y-22565800D01*
X88325000Y-22565800D02*
X87638900Y-21879700D01*
X87638900Y-21879700D02*
X81795800Y-21879700D01*
X81795800Y-21879700D02*
X79617800Y-24057700D01*
X79617800Y-24057700D02*
X79617800Y-25025800D01*
X79617800Y-25025800D02*
X78891700Y-25751900D01*
X78891700Y-25751900D02*
X64735200Y-25751900D01*
X64735200Y-25751900D02*
X64075000Y-25091700D01*
X64075000Y-25091700D02*
X64075000Y-24562500D01*
X70608000Y-41896300D02*
X70608000Y-43081400D01*
X70608000Y-43081400D02*
X71139100Y-43612500D01*
X71139100Y-43612500D02*
X73600000Y-43612500D01*
X69275000Y-23062500D02*
X69275000Y-22565800D01*
X69275000Y-22565800D02*
X68588900Y-21879700D01*
X68588900Y-21879700D02*
X62819200Y-21879700D01*
X62819200Y-21879700D02*
X61160400Y-23538500D01*
X61160400Y-23538500D02*
X61160400Y-25684000D01*
X61160400Y-25684000D02*
X64105700Y-28629300D01*
X64105700Y-28629300D02*
X64105700Y-30900400D01*
X64105700Y-30900400D02*
X67662000Y-34456700D01*
X67662000Y-34456700D02*
X67662000Y-34970000D01*
X78800000Y-42112500D02*
X78800000Y-41652400D01*
X78800000Y-41652400D02*
X77965300Y-40817700D01*
X77965300Y-40817700D02*
X72553200Y-40817700D01*
X75215200Y-60382000D02*
X75215200Y-61976100D01*
X75215200Y-61976100D02*
X75901600Y-62662500D01*
X75901600Y-62662500D02*
X78362500Y-62662500D01*
X83562500Y-61162500D02*
X83562500Y-60645700D01*
X83562500Y-60645700D02*
X82865700Y-59948900D01*
X82865700Y-59948900D02*
X76834600Y-59948900D01*
X76834600Y-59948900D02*
X76313100Y-60470400D01*
X87887500Y-81712500D02*
X85394000Y-81712500D01*
X85394000Y-81712500D02*
X84967800Y-81286300D01*
X84967800Y-81286300D02*
X84967800Y-80269300D01*
X84967800Y-80269300D02*
X86034800Y-79202300D01*
X93087500Y-80212500D02*
X93087500Y-79713600D01*
X93087500Y-79713600D02*
X91850900Y-78477000D01*
X91850900Y-78477000D02*
X81228300Y-78477000D01*
X81228300Y-78477000D02*
X74684700Y-85020600D01*
X74684700Y-85020600D02*
X74684700Y-85807300D01*
X74684700Y-85807300D02*
X73354800Y-87137200D01*
X73354800Y-87137200D02*
X73354800Y-88971000D01*
X73354800Y-88971000D02*
X77962600Y-93578800D01*
X77962600Y-93578800D02*
X80114500Y-93578800D01*
X80114500Y-93578800D02*
X83685700Y-97150000D01*
X83685700Y-97150000D02*
X83685700Y-100596500D01*
X83685700Y-100596500D02*
X82313900Y-101968300D01*
X82313900Y-101968300D02*
X76676200Y-101968300D01*
X76676200Y-101968300D02*
X75981200Y-101273300D01*
X75981200Y-101273300D02*
X75981200Y-100762000D01*
X81181200Y-99262000D02*
X81181200Y-98560500D01*
X81181200Y-98560500D02*
X79019400Y-96398700D01*
X75933400Y-94168900D02*
X68837500Y-87073000D01*
X68837500Y-87073000D02*
X68837500Y-81712500D01*
X74037500Y-80212500D02*
X74039600Y-80210400D01*
X74039600Y-80210400D02*
X74039600Y-78454200D01*
X59312500Y-62662500D02*
X57537200Y-62662500D01*
X57260700Y-63312400D02*
X57537200Y-63035900D01*
X57537200Y-63035900D02*
X57537200Y-62662500D01*
X54550000Y-43612500D02*
X54550000Y-45953600D01*
X54550000Y-45953600D02*
X54824600Y-46228200D01*
X64512500Y-61162500D02*
X64512500Y-60648200D01*
X64512500Y-60648200D02*
X63851400Y-59987100D01*
X63851400Y-59987100D02*
X57350000Y-59987100D01*
X57350000Y-59987100D02*
X57149900Y-60187200D01*
X45025000Y-24562500D02*
X45025000Y-30475300D01*
X45025000Y-30475300D02*
X52447200Y-37897500D01*
X52447200Y-37897500D02*
X52447200Y-38822400D01*
X59750000Y-42112500D02*
X59750000Y-40986400D01*
X59750000Y-40986400D02*
X59305500Y-40541900D01*
X50225000Y-23062500D02*
X50225000Y-22565800D01*
X50225000Y-22565800D02*
X49538900Y-21879700D01*
X49538900Y-21879700D02*
X43695800Y-21879700D01*
X43695800Y-21879700D02*
X41723200Y-23852300D01*
X41723200Y-23852300D02*
X41723200Y-24795200D01*
X41723200Y-24795200D02*
X40766500Y-25751900D01*
X40766500Y-25751900D02*
X26665800Y-25751900D01*
X26665800Y-25751900D02*
X25975000Y-25061100D01*
X25975000Y-25061100D02*
X25975000Y-24562500D01*
X31175000Y-23062500D02*
X31175000Y-22602200D01*
X31175000Y-22602200D02*
X30404600Y-21831800D01*
X30404600Y-21831800D02*
X24693700Y-21831800D01*
X24693700Y-21831800D02*
X23081900Y-23443600D01*
X23081900Y-23443600D02*
X23081900Y-24200700D01*
X23081900Y-24200700D02*
X25083500Y-26202300D01*
X25083500Y-26202300D02*
X34758700Y-26202300D01*
X34758700Y-26202300D02*
X38000400Y-29444000D01*
X38000400Y-29444000D02*
X38000400Y-32838200D01*
X38000400Y-32838200D02*
X29492100Y-41346500D01*
X29492100Y-41346500D02*
X29001700Y-41346500D01*
X29001700Y-41346500D02*
X27848300Y-42499900D01*
X27848300Y-42499900D02*
X27848300Y-43184200D01*
X27848300Y-43184200D02*
X28276600Y-43612500D01*
X28276600Y-43612500D02*
X30737500Y-43612500D01*
X35937500Y-42112500D02*
X35937500Y-41090800D01*
X33118800Y-62662500D02*
X30653300Y-62662500D01*
X30653300Y-62662500D02*
X30186400Y-62195600D01*
X30186400Y-62195600D02*
X30186400Y-61637800D01*
X30186400Y-61637800D02*
X33292900Y-58531300D01*
X33292900Y-58531300D02*
X33976900Y-58531300D01*
X33976900Y-58531300D02*
X33976900Y-58531200D01*
X37881200Y-81712500D02*
X35432100Y-81712500D01*
X35432100Y-81712500D02*
X34947800Y-81228200D01*
X34947800Y-81228200D02*
X34947800Y-79566800D01*
X34947800Y-79566800D02*
X35125000Y-79389600D01*
X35125000Y-79389600D02*
X35125000Y-79071000D01*
X35125000Y-79071000D02*
X36472000Y-77724000D01*
X40094100Y-61162500D02*
X40094100Y-61080600D01*
X40094100Y-61080600D02*
X40540000Y-60634700D01*
X38318800Y-61162500D02*
X40094100Y-61162500D01*
X43081200Y-80212500D02*
X44856500Y-80212500D01*
X52168800Y-100762000D02*
X50393500Y-100762000D01*
X50393500Y-100762000D02*
X50393500Y-100230500D01*
X50393500Y-100230500D02*
X50110800Y-99947800D01*
X44856500Y-80212500D02*
X44856500Y-80173600D01*
X44856500Y-80173600D02*
X45201100Y-79829000D01*
X57368800Y-99262000D02*
X57368800Y-98802100D01*
X57368800Y-98802100D02*
X55471400Y-96904700D01*
X55471400Y-96904700D02*
X42063300Y-96904700D01*
X42063300Y-96904700D02*
X37025400Y-101942600D01*
X37025400Y-101942600D02*
X29044800Y-101942600D01*
X29044800Y-101942600D02*
X28356200Y-101254000D01*
X28356200Y-101254000D02*
X28356200Y-100762000D01*
X187975000Y-31155000D02*
X187975000Y-32980300D01*
X190437200Y-34864900D02*
X188552600Y-32980300D01*
X188552600Y-32980300D02*
X187975000Y-32980300D01*
X34497400Y-82544000D02*
X34303700Y-82544000D01*
X34303700Y-82544000D02*
X25430900Y-91416800D01*
X25430900Y-91416800D02*
X25430900Y-100211600D01*
X25430900Y-100211600D02*
X27612300Y-102393000D01*
X27612300Y-102393000D02*
X35538500Y-102393000D01*
X35538500Y-102393000D02*
X37956200Y-104810700D01*
X37956200Y-104810700D02*
X37956200Y-107355000D01*
X34497400Y-82544000D02*
X35097100Y-83143700D01*
X35097100Y-83143700D02*
X44750600Y-83143700D01*
X44750600Y-83143700D02*
X47381200Y-85774300D01*
X47381200Y-85774300D02*
X47381200Y-88265000D01*
X36827100Y-71168800D02*
X34497400Y-73498500D01*
X34497400Y-73498500D02*
X34497400Y-82544000D01*
X34438600Y-52021600D02*
X38520900Y-52021600D01*
X38520900Y-52021600D02*
X40337500Y-50205000D01*
X36827100Y-71168800D02*
X33393400Y-67735100D01*
X33393400Y-67735100D02*
X33393400Y-67454500D01*
X33393400Y-67454500D02*
X29459900Y-63521000D01*
X29459900Y-63521000D02*
X27909000Y-63521000D01*
X27909000Y-63521000D02*
X27551100Y-63163100D01*
X27551100Y-63163100D02*
X27551100Y-58909100D01*
X27551100Y-58909100D02*
X34438600Y-52021600D01*
X34438600Y-52021600D02*
X31012100Y-48595100D01*
X31012100Y-48595100D02*
X31012100Y-48499300D01*
X31012100Y-48499300D02*
X28556200Y-46043400D01*
X28556200Y-46043400D02*
X27180400Y-46043400D01*
X27180400Y-46043400D02*
X25169900Y-44032900D01*
X25169900Y-44032900D02*
X25169900Y-40593100D01*
X25169900Y-40593100D02*
X30643700Y-35119300D01*
X30643700Y-35119300D02*
X31610700Y-35119300D01*
X31610700Y-35119300D02*
X35575000Y-31155000D01*
X42718800Y-71080300D02*
X45719700Y-74081200D01*
X45719700Y-74081200D02*
X199261100Y-74081200D01*
X199261100Y-74081200D02*
X202262000Y-71080300D01*
X36827100Y-71168800D02*
X42630300Y-71168800D01*
X42630300Y-71168800D02*
X42718800Y-71080300D01*
X211788000Y-88305000D02*
X211788000Y-82417300D01*
X211788000Y-82417300D02*
X210145500Y-80774800D01*
X197500000Y-50205000D02*
X197500000Y-48082500D01*
X42718800Y-69255000D02*
X42718800Y-71080300D01*
X202262000Y-69255000D02*
X202262000Y-71080300D01*
X202262000Y-71080300D02*
X202801200Y-71080300D01*
X202801200Y-71080300D02*
X203082600Y-71361700D01*
X230067300Y-105146700D02*
X237108700Y-112188100D01*
X237108700Y-112188100D02*
X291691900Y-112188100D01*
X291691900Y-112188100D02*
X291796800Y-112083200D01*
X291796800Y-112083200D02*
X293011000Y-112083200D01*
X293011000Y-112083200D02*
X293116000Y-112188200D01*
X293116000Y-112188200D02*
X338273300Y-112188200D01*
X338273300Y-112188200D02*
X340994700Y-109466800D01*
X340994700Y-109466800D02*
X340994700Y-107685000D01*
X340994700Y-107685000D02*
X343421700Y-105258000D01*
X343421700Y-105258000D02*
X343421700Y-103945400D01*
X343421700Y-103945400D02*
X346083400Y-101283700D01*
X346083400Y-101283700D02*
X346083400Y-75153100D01*
X346083400Y-75153100D02*
X346023000Y-75092700D01*
X207025000Y-32980300D02*
X207025000Y-33696900D01*
X207025000Y-33696900D02*
X211180500Y-37852400D01*
X78437500Y-88305000D02*
X78437500Y-90130300D01*
X61768800Y-107355000D02*
X65636000Y-107355000D01*
X65636000Y-107355000D02*
X70572200Y-102418800D01*
X70572200Y-102418800D02*
X82502500Y-102418800D01*
X82502500Y-102418800D02*
X84136700Y-100784600D01*
X84136700Y-100784600D02*
X84136700Y-95829500D01*
X84136700Y-95829500D02*
X78437500Y-90130300D01*
X64150000Y-50205000D02*
X64150000Y-48379700D01*
X64150000Y-48379700D02*
X67286200Y-45243500D01*
X67286200Y-45243500D02*
X89664800Y-45243500D01*
X89664800Y-45243500D02*
X92537000Y-48115700D01*
X92537000Y-48115700D02*
X92537000Y-48230500D01*
X92537000Y-48230500D02*
X99339300Y-55032800D01*
X99339300Y-55032800D02*
X213780600Y-55032800D01*
X213780600Y-55032800D02*
X214149700Y-54663700D01*
X64150000Y-52305300D02*
X64150000Y-50205000D01*
X54625000Y-32980300D02*
X59191500Y-37546800D01*
X59191500Y-37546800D02*
X59191500Y-38825300D01*
X54625000Y-31155000D02*
X54625000Y-32980300D01*
X214149700Y-54663700D02*
X214149700Y-52605300D01*
X214149700Y-52605300D02*
X216550000Y-50205000D01*
X214256000Y-54770000D02*
X214149700Y-54663700D01*
X230067300Y-105146700D02*
X230067300Y-96336000D01*
X230067300Y-96336000D02*
X230295300Y-96108000D01*
X230067300Y-105146700D02*
X228839000Y-105146700D01*
X228839000Y-105146700D02*
X228456000Y-105529700D01*
X78437500Y-88305000D02*
X78437500Y-86479700D01*
X78437500Y-86479700D02*
X79197200Y-85720000D01*
X79197200Y-85720000D02*
X79197200Y-82176400D01*
X221312000Y-69255000D02*
X221312000Y-67429700D01*
X222589800Y-65967600D02*
X222589800Y-66151900D01*
X222589800Y-66151900D02*
X221312000Y-67429700D01*
X68912500Y-69255000D02*
X68912500Y-71080300D01*
X68912500Y-71080300D02*
X70131400Y-71080300D01*
X70131400Y-71080300D02*
X70415300Y-71364200D01*
X207025000Y-31155000D02*
X207025000Y-32980300D01*
X228456000Y-107355000D02*
X228456000Y-105529700D01*
X230295300Y-90624600D02*
X230789600Y-90130300D01*
X230789600Y-90130300D02*
X230838000Y-90130300D01*
X230838000Y-88305000D02*
X230838000Y-90130300D01*
X257838000Y-113406700D02*
X258219200Y-113787900D01*
X258219200Y-113787900D02*
X291787200Y-113787900D01*
X291787200Y-113787900D02*
X291983400Y-113984100D01*
X291983400Y-113984100D02*
X292996000Y-113984100D01*
X292996000Y-113984100D02*
X293192200Y-113787900D01*
X293192200Y-113787900D02*
X345881800Y-113787900D01*
X345881800Y-113787900D02*
X351551400Y-108118300D01*
X351551400Y-108118300D02*
X351551400Y-67882300D01*
X351551400Y-67882300D02*
X350998600Y-67329500D01*
X350998600Y-67329500D02*
X350998600Y-41778000D01*
X350998600Y-41778000D02*
X348082600Y-38862000D01*
X97487500Y-88305000D02*
X85581200Y-100211300D01*
X85581200Y-100211300D02*
X85581200Y-107355000D01*
X229991000Y-37714000D02*
X226075000Y-33798000D01*
X226075000Y-33798000D02*
X226075000Y-31155000D01*
X235600000Y-53528900D02*
X235600000Y-50205000D01*
X235607600Y-53536500D02*
X235600000Y-53528900D01*
X83510000Y-53903500D02*
X85107400Y-55500900D01*
X85107400Y-55500900D02*
X233628000Y-55500900D01*
X233628000Y-55500900D02*
X235600000Y-53528900D01*
X83200000Y-50205000D02*
X83200000Y-53593500D01*
X83200000Y-53593500D02*
X83510000Y-53903500D01*
X73675000Y-31155000D02*
X73675000Y-32980300D01*
X73675000Y-32980300D02*
X75383900Y-34689200D01*
X75383900Y-34689200D02*
X75383900Y-35397700D01*
X240362000Y-71080300D02*
X240362000Y-71183200D01*
X240362000Y-71183200D02*
X240540700Y-71361900D01*
X240362000Y-69255000D02*
X240362000Y-71080300D01*
X87962500Y-69255000D02*
X87962500Y-71295900D01*
X87962500Y-71295900D02*
X87862800Y-71395600D01*
X97487500Y-88305000D02*
X97487500Y-86479700D01*
X97487500Y-86479700D02*
X98569500Y-85397700D01*
X98569500Y-85397700D02*
X98569500Y-83640600D01*
X246875900Y-108650700D02*
X247420700Y-109195500D01*
X247420700Y-109195500D02*
X250428500Y-109195500D01*
X250428500Y-109195500D02*
X252269000Y-107355000D01*
X245103900Y-90135500D02*
X248057500Y-90135500D01*
X248057500Y-90135500D02*
X249888000Y-88305000D01*
X292283800Y-113258800D02*
X292695500Y-113258800D01*
X292695500Y-113258800D02*
X292695500Y-113208800D01*
X292695500Y-113208800D02*
X293929100Y-113208800D01*
X293929100Y-113208800D02*
X294019400Y-113118500D01*
X294019400Y-113118500D02*
X345845600Y-113118500D01*
X345845600Y-113118500D02*
X351072200Y-107891900D01*
X351072200Y-107891900D02*
X351072200Y-68264900D01*
X351072200Y-68264900D02*
X350482400Y-67675100D01*
X350482400Y-67675100D02*
X350482400Y-43801800D01*
X350482400Y-43801800D02*
X348082600Y-41402000D01*
X116538000Y-88305000D02*
X116538000Y-90130300D01*
X156919000Y-102449800D02*
X156906700Y-102437500D01*
X156906700Y-102437500D02*
X146742500Y-102437500D01*
X146742500Y-102437500D02*
X144134700Y-99829700D01*
X144134700Y-99829700D02*
X144134700Y-97946000D01*
X144134700Y-97946000D02*
X139628400Y-93439700D01*
X139628400Y-93439700D02*
X119847400Y-93439700D01*
X119847400Y-93439700D02*
X116538000Y-90130300D01*
X156919000Y-102449800D02*
X190024500Y-102449800D01*
X190024500Y-102449800D02*
X197228000Y-95246300D01*
X156919000Y-105489700D02*
X156919000Y-102449800D01*
X245952000Y-34970000D02*
X245125000Y-34143000D01*
X245125000Y-34143000D02*
X245125000Y-31155000D01*
X255862700Y-50205000D02*
X255862700Y-48835400D01*
X255862700Y-48835400D02*
X253236600Y-46209300D01*
X253236600Y-46209300D02*
X251812500Y-46209300D01*
X255862700Y-50205000D02*
X257075300Y-50205000D01*
X254650000Y-50205000D02*
X255862700Y-50205000D01*
X270088700Y-91097500D02*
X269925200Y-91097500D01*
X269925200Y-91097500D02*
X268938000Y-90110300D01*
X259412000Y-69255000D02*
X261837300Y-69255000D01*
X262822800Y-69132200D02*
X261960100Y-69132200D01*
X261960100Y-69132200D02*
X261837300Y-69255000D01*
X258062800Y-50498600D02*
X257368900Y-50498600D01*
X257368900Y-50498600D02*
X257075300Y-50205000D01*
X268938000Y-90110300D02*
X265854900Y-93193400D01*
X265854900Y-93193400D02*
X212388300Y-93193400D01*
X276081000Y-107355000D02*
X276081000Y-103904700D01*
X276081000Y-103904700D02*
X273686000Y-101509700D01*
X92725000Y-31155000D02*
X92725000Y-32980300D01*
X92725000Y-32980300D02*
X92977000Y-32980300D01*
X92977000Y-32980300D02*
X95316800Y-35320100D01*
X102250000Y-50205000D02*
X102250000Y-52030300D01*
X102932000Y-52536900D02*
X102425400Y-52030300D01*
X102425400Y-52030300D02*
X102250000Y-52030300D01*
X268938000Y-90090400D02*
X268938000Y-90110300D01*
X116538000Y-88305000D02*
X116538000Y-86479700D01*
X116402500Y-85637500D02*
X116538000Y-85773000D01*
X116538000Y-85773000D02*
X116538000Y-86479700D01*
X107292500Y-71672500D02*
X107012000Y-71392000D01*
X107012000Y-71392000D02*
X107012000Y-69255000D01*
X156919000Y-107315000D02*
X156919000Y-105489700D01*
X268938000Y-89997700D02*
X268938000Y-90090400D01*
X268938000Y-88305000D02*
X268938000Y-89997700D01*
X348082600Y-43942000D02*
X341904700Y-37764100D01*
X341904700Y-37764100D02*
X317225500Y-37764100D01*
X317225500Y-37764100D02*
X316959000Y-38030600D01*
X278444100Y-37886000D02*
X291084500Y-37886000D01*
X291084500Y-37886000D02*
X291229100Y-38030600D01*
X264821200Y-37886000D02*
X278444100Y-37886000D01*
X264821200Y-37886000D02*
X264821200Y-33626500D01*
X264821200Y-33626500D02*
X264175000Y-32980300D01*
X117351800Y-38542400D02*
X117862700Y-39053300D01*
X117862700Y-39053300D02*
X263653900Y-39053300D01*
X263653900Y-39053300D02*
X264821200Y-37886000D01*
X264175000Y-31155000D02*
X264175000Y-32980300D01*
X121300000Y-50205000D02*
X121300000Y-48379700D01*
X121300000Y-48379700D02*
X122362000Y-47317700D01*
X122362000Y-47317700D02*
X122362000Y-47099400D01*
X111775000Y-32980300D02*
X117337100Y-38542400D01*
X117337100Y-38542400D02*
X117351800Y-38542400D01*
X278462000Y-69255000D02*
X278462000Y-67429700D01*
X277921000Y-62690000D02*
X277921000Y-66888700D01*
X277921000Y-66888700D02*
X278462000Y-67429700D01*
X273700000Y-50205000D02*
X276125300Y-50205000D01*
X276125300Y-50205000D02*
X276617100Y-49713200D01*
X276617100Y-49713200D02*
X276617700Y-49713200D01*
X111775000Y-31155000D02*
X111775000Y-32980300D01*
X135588000Y-88305000D02*
X135588000Y-86479700D01*
X135832500Y-85637500D02*
X135832500Y-86235200D01*
X135832500Y-86235200D02*
X135588000Y-86479700D01*
X126740000Y-66212500D02*
X126062000Y-66890500D01*
X126062000Y-66890500D02*
X126062000Y-69255000D01*
X299794000Y-59690000D02*
X299794000Y-57864700D01*
X299794000Y-57864700D02*
X317377900Y-40280800D01*
X317377900Y-40280800D02*
X341881400Y-40280800D01*
X341881400Y-40280800D02*
X348082600Y-46482000D01*
X297458000Y-77089500D02*
X297458000Y-62026000D01*
X297458000Y-62026000D02*
X299794000Y-59690000D01*
X154638000Y-88305000D02*
X154638000Y-84085900D01*
X154638000Y-84085900D02*
X154473800Y-83921700D01*
X140350000Y-50205000D02*
X142775300Y-50205000D01*
X142775300Y-50205000D02*
X142775300Y-49146200D01*
X142775300Y-49146200D02*
X143154000Y-48767500D01*
X309419000Y-107355000D02*
X309419000Y-104256900D01*
X309419000Y-104256900D02*
X307850500Y-102688400D01*
X295131000Y-88305000D02*
X297556300Y-88305000D01*
X297556300Y-88305000D02*
X297556300Y-88916200D01*
X297556300Y-88916200D02*
X298335000Y-89694900D01*
X283225000Y-32980300D02*
X285765100Y-35520400D01*
X285765100Y-35520400D02*
X293464900Y-35520400D01*
X293464900Y-35520400D02*
X294565300Y-34420000D01*
X294565300Y-34420000D02*
X294565300Y-31201700D01*
X294565300Y-31201700D02*
X292944100Y-29580500D01*
X292944100Y-29580500D02*
X292944100Y-27565500D01*
X292944100Y-27565500D02*
X294731100Y-25778500D01*
X294731100Y-25778500D02*
X297553400Y-25778500D01*
X297553400Y-25778500D02*
X297726400Y-25605500D01*
X283225000Y-31155000D02*
X283225000Y-32980300D01*
X144336900Y-65392100D02*
X145112000Y-66167200D01*
X145112000Y-66167200D02*
X145112000Y-69255000D01*
X130825000Y-31155000D02*
X130825000Y-29329700D01*
X130825000Y-29329700D02*
X131201900Y-29329700D01*
X131201900Y-29329700D02*
X134931600Y-25600000D01*
X328469000Y-88305000D02*
X336817700Y-88305000D01*
X336817700Y-88305000D02*
X345633000Y-97120300D01*
X345633000Y-97120300D02*
X345633000Y-100657800D01*
X345633000Y-100657800D02*
X344322500Y-101968300D01*
X344322500Y-101968300D02*
X336704800Y-101968300D01*
X336704800Y-101968300D02*
X334634700Y-99898200D01*
X334634700Y-99898200D02*
X334634700Y-97946000D01*
X334634700Y-97946000D02*
X334248800Y-97560100D01*
X334248800Y-97560100D02*
X332465000Y-97560100D01*
X332465000Y-97560100D02*
X328469000Y-101556100D01*
X328469000Y-101556100D02*
X328469000Y-107355000D01*
X328469000Y-88305000D02*
X328469000Y-47932200D01*
X328469000Y-47932200D02*
X328230200Y-47693400D01*
X328230200Y-47693400D02*
X327740700Y-47693400D01*
X328469000Y-47932200D02*
X331008900Y-45392300D01*
X331008900Y-45392300D02*
X344452900Y-45392300D01*
X344452900Y-45392300D02*
X348082600Y-49022000D01*
X300157700Y-33272300D02*
X305706500Y-38821100D01*
X300157700Y-33272300D02*
X297459200Y-35970800D01*
X297459200Y-35970800D02*
X268728300Y-35970800D01*
X268728300Y-35970800D02*
X266685600Y-33928100D01*
X266685600Y-33928100D02*
X266685600Y-29595900D01*
X266685600Y-29595900D02*
X264259200Y-27169500D01*
X264259200Y-27169500D02*
X261734000Y-27169500D01*
X261734000Y-27169500D02*
X260422200Y-28481300D01*
X260422200Y-28481300D02*
X260422200Y-28657300D01*
X260422200Y-28657300D02*
X257091500Y-31988000D01*
X257091500Y-31988000D02*
X257091500Y-34827100D01*
X257091500Y-34827100D02*
X253319300Y-38599300D01*
X253319300Y-38599300D02*
X172472600Y-38599300D01*
X172472600Y-38599300D02*
X172183800Y-38310500D01*
X302275000Y-31155000D02*
X300157700Y-33272300D01*
X159400000Y-50205000D02*
X159400000Y-52030300D01*
X172178100Y-53894100D02*
X171495800Y-54576400D01*
X171495800Y-54576400D02*
X161946100Y-54576400D01*
X161946100Y-54576400D02*
X159400000Y-52030300D01*
X172183800Y-38310500D02*
X156729200Y-38310500D01*
X156729200Y-38310500D02*
X152300300Y-33881600D01*
X152300300Y-33881600D02*
X152300300Y-31155000D01*
X173688000Y-88305000D02*
X173688000Y-86479700D01*
X174754800Y-80262600D02*
X174754800Y-85412900D01*
X174754800Y-85412900D02*
X173688000Y-86479700D01*
X164162000Y-69255000D02*
X166587300Y-69255000D01*
X167772700Y-68672800D02*
X167169500Y-68672800D01*
X167169500Y-68672800D02*
X166587300Y-69255000D01*
X149875000Y-31155000D02*
X152300300Y-31155000D01*
X192738000Y-88305000D02*
X192738000Y-86479700D01*
X192182100Y-83926800D02*
X192182100Y-85923800D01*
X192182100Y-85923800D02*
X192738000Y-86479700D01*
X346832600Y-64175000D02*
X346832600Y-63110600D01*
X346832600Y-63110600D02*
X334315200Y-50593200D01*
X334315200Y-50593200D02*
X334315200Y-47934600D01*
X334315200Y-47934600D02*
X332862600Y-46482000D01*
X347109100Y-107355000D02*
X347109100Y-73050700D01*
X347109100Y-73050700D02*
X346146100Y-72087700D01*
X346146100Y-72087700D02*
X346146100Y-64861500D01*
X346146100Y-64861500D02*
X346832600Y-64175000D01*
X346832600Y-64175000D02*
X347519000Y-64175000D01*
X347109100Y-107355000D02*
X347519000Y-107355000D01*
X192738000Y-90130300D02*
X196625400Y-94017700D01*
X196625400Y-94017700D02*
X205899500Y-94017700D01*
X205899500Y-94017700D02*
X209180700Y-97298900D01*
X209180700Y-97298900D02*
X214938200Y-97298900D01*
X214938200Y-97298900D02*
X217005300Y-99366000D01*
X217005300Y-99366000D02*
X217005300Y-102193700D01*
X217005300Y-102193700D02*
X218743000Y-103931400D01*
X218743000Y-103931400D02*
X218743000Y-105398400D01*
X218743000Y-105398400D02*
X225983100Y-112638500D01*
X225983100Y-112638500D02*
X291878400Y-112638500D01*
X291878400Y-112638500D02*
X291983400Y-112533500D01*
X291983400Y-112533500D02*
X292824200Y-112533500D01*
X292824200Y-112533500D02*
X292929300Y-112638600D01*
X292929300Y-112638600D02*
X341825500Y-112638600D01*
X341825500Y-112638600D02*
X347109100Y-107355000D01*
X192738000Y-88305000D02*
X192738000Y-90130300D01*
X168925000Y-32980300D02*
X173194900Y-37250200D01*
X173194900Y-37250200D02*
X173194900Y-37551400D01*
X168925000Y-31155000D02*
X168925000Y-32980300D01*
X178450000Y-50205000D02*
X178450000Y-48379700D01*
X179054500Y-46946400D02*
X179054500Y-47775200D01*
X179054500Y-47775200D02*
X178450000Y-48379700D01*
X183212000Y-69255000D02*
X183212000Y-67429700D01*
X183416500Y-66212500D02*
X183416500Y-67225200D01*
X183416500Y-67225200D02*
X183212000Y-67429700D01*
X333019000Y-69175000D02*
X331682400Y-67838400D01*
X331682400Y-67838400D02*
X331682400Y-50202200D01*
X331682400Y-50202200D02*
X332862600Y-49022000D01*
X334360800Y-31223700D02*
X334360800Y-27660200D01*
X334360800Y-27660200D02*
X332862600Y-26162000D01*
M02*
