<?xml version="1.0" standalone="no"?>
 <!DOCTYPE svg PUBLIC "-//W3C//DTD SVG 1.1//EN" 
 "http://www.w3.org/Graphics/SVG/1.1/DTD/svg11.dtd"> 
<svg
  xmlns:svg="http://www.w3.org/2000/svg"
  xmlns="http://www.w3.org/2000/svg"
  xmlns:xlink="http://www.w3.org/1999/xlink"
  version="1.1"
  width="41.998900cm" height="29.700220cm" viewBox="0 0 165350 116930">
<title>SVG Picture created as jtnk67-F_SilkS.svg date 2022/12/27 19:14:54 </title>
  <desc>Picture generated by PCBNEW </desc>
<g style="fill:#000000; fill-opacity:1;stroke:#000000; stroke-opacity:1;
stroke-linecap:round; stroke-linejoin:round;"
 transform="translate(0 0) scale(1 1)">
</g>
<g style="fill:#000000; fill-opacity:0.0; 
stroke:#000000; stroke-width:-0.000393701; stroke-opacity:1; 
stroke-linecap:round; stroke-linejoin:round;">
</g>
<g style="fill:#000000; fill-opacity:0.0; 
stroke:#000000; stroke-width:59.0551; stroke-opacity:1; 
stroke-linecap:round; stroke-linejoin:round;">
<text x="132188" y="7696.85"
textLength="12261" font-size="524.934" lengthAdjust="spacingAndGlyphs"
text-anchor="middle" opacity="0">JTNK67 rev0.99 tanakajunjun@gmail.com</text>
<path d="M126263 7284
L126263 7565
L126244 7621
L126206 7659
L126150 7678
L126113 7678
" />
<path d="M126394 7284
L126619 7284
" />
<path d="M126506 7678
L126506 7284
" />
<path d="M126750 7678
L126750 7284
L126975 7678
L126975 7284
" />
<path d="M127163 7678
L127163 7284
" />
<path d="M127388 7678
L127219 7453
" />
<path d="M127388 7284
L127163 7509
" />
<path d="M127725 7284
L127650 7284
L127613 7303
L127594 7321
L127556 7378
L127538 7453
L127538 7603
L127556 7640
L127575 7659
L127613 7678
L127688 7678
L127725 7659
L127744 7640
L127763 7603
L127763 7509
L127744 7471
L127725 7453
L127688 7434
L127613 7434
L127575 7453
L127556 7471
L127538 7509
" />
<path d="M127894 7284
L128156 7284
L127988 7678
" />
<path d="M128606 7678
L128606 7415
" />
<path d="M128606 7490
L128625 7453
L128644 7434
L128681 7415
L128719 7415
" />
<path d="M129000 7659
L128962 7678
L128887 7678
L128850 7659
L128831 7621
L128831 7471
L128850 7434
L128887 7415
L128962 7415
L129000 7434
L129019 7471
L129019 7509
L128831 7546
" />
<path d="M129150 7415
L129244 7678
L129337 7415
" />
<path d="M129562 7284
L129600 7284
L129637 7303
L129656 7321
L129675 7359
L129694 7434
L129694 7528
L129675 7603
L129656 7640
L129637 7659
L129600 7678
L129562 7678
L129525 7659
L129506 7640
L129487 7603
L129469 7528
L129469 7434
L129487 7359
L129506 7321
L129525 7303
L129562 7284
" />
<path d="M129862 7640
L129881 7659
L129862 7678
L129844 7659
L129862 7640
L129862 7678
" />
<path d="M130069 7678
L130144 7678
L130181 7659
L130200 7640
L130237 7584
L130256 7509
L130256 7359
L130237 7321
L130218 7303
L130181 7284
L130106 7284
L130069 7303
L130050 7321
L130031 7359
L130031 7453
L130050 7490
L130069 7509
L130106 7528
L130181 7528
L130218 7509
L130237 7490
L130256 7453
" />
<path d="M130443 7678
L130518 7678
L130556 7659
L130575 7640
L130612 7584
L130631 7509
L130631 7359
L130612 7321
L130593 7303
L130556 7284
L130481 7284
L130443 7303
L130425 7321
L130406 7359
L130406 7453
L130425 7490
L130443 7509
L130481 7528
L130556 7528
L130593 7509
L130612 7490
L130631 7453
" />
<path d="M131043 7415
L131193 7415
" />
<path d="M131100 7284
L131100 7621
L131118 7659
L131156 7678
L131193 7678
" />
<path d="M131493 7678
L131493 7471
L131475 7434
L131437 7415
L131362 7415
L131325 7434
" />
<path d="M131493 7659
L131456 7678
L131362 7678
L131325 7659
L131306 7621
L131306 7584
L131325 7546
L131362 7528
L131456 7528
L131493 7509
" />
<path d="M131681 7415
L131681 7678
" />
<path d="M131681 7453
L131700 7434
L131737 7415
L131793 7415
L131831 7434
L131850 7471
L131850 7678
" />
<path d="M132206 7678
L132206 7471
L132187 7434
L132150 7415
L132075 7415
L132037 7434
" />
<path d="M132206 7659
L132168 7678
L132075 7678
L132037 7659
L132018 7621
L132018 7584
L132037 7546
L132075 7528
L132168 7528
L132206 7509
" />
<path d="M132393 7678
L132393 7284
" />
<path d="M132431 7528
L132543 7678
" />
<path d="M132543 7415
L132393 7565
" />
<path d="M132881 7678
L132881 7471
L132862 7434
L132824 7415
L132749 7415
L132712 7434
" />
<path d="M132881 7659
L132843 7678
L132749 7678
L132712 7659
L132693 7621
L132693 7584
L132712 7546
L132749 7528
L132843 7528
L132881 7509
" />
<path d="M133068 7415
L133068 7753
L133049 7790
L133012 7809
L132993 7809
" />
<path d="M133068 7284
L133049 7303
L133068 7321
L133087 7303
L133068 7284
L133068 7321
" />
<path d="M133424 7415
L133424 7678
" />
<path d="M133256 7415
L133256 7621
L133274 7659
L133312 7678
L133368 7678
L133406 7659
L133424 7640
" />
<path d="M133612 7415
L133612 7678
" />
<path d="M133612 7453
L133631 7434
L133668 7415
L133724 7415
L133762 7434
L133781 7471
L133781 7678
" />
<path d="M133968 7415
L133968 7753
L133949 7790
L133912 7809
L133893 7809
" />
<path d="M133968 7284
L133949 7303
L133968 7321
L133987 7303
L133968 7284
L133968 7321
" />
<path d="M134324 7415
L134324 7678
" />
<path d="M134156 7415
L134156 7621
L134174 7659
L134212 7678
L134268 7678
L134305 7659
L134324 7640
" />
<path d="M134512 7415
L134512 7678
" />
<path d="M134512 7453
L134530 7434
L134568 7415
L134624 7415
L134662 7434
L134680 7471
L134680 7678
" />
<path d="M135112 7490
L135093 7471
L135055 7453
L135018 7453
L134980 7471
L134962 7490
L134943 7528
L134943 7565
L134962 7603
L134980 7621
L135018 7640
L135055 7640
L135093 7621
L135112 7603
" />
<path d="M135112 7453
L135112 7603
L135130 7621
L135149 7621
L135187 7603
L135205 7565
L135205 7471
L135168 7415
L135112 7378
L135037 7359
L134962 7378
L134905 7415
L134868 7471
L134849 7546
L134868 7621
L134905 7678
L134962 7715
L135037 7734
L135112 7715
L135168 7678
" />
<path d="M135543 7415
L135543 7734
L135524 7771
L135505 7790
L135468 7809
L135412 7809
L135374 7790
" />
<path d="M135543 7659
L135505 7678
L135430 7678
L135393 7659
L135374 7640
L135355 7603
L135355 7490
L135374 7453
L135393 7434
L135430 7415
L135505 7415
L135543 7434
" />
<path d="M135730 7678
L135730 7415
" />
<path d="M135730 7453
L135749 7434
L135787 7415
L135843 7415
L135880 7434
L135899 7471
L135899 7678
" />
<path d="M135899 7471
L135918 7434
L135955 7415
L136012 7415
L136049 7434
L136068 7471
L136068 7678
" />
<path d="M136424 7678
L136424 7471
L136405 7434
L136368 7415
L136293 7415
L136255 7434
" />
<path d="M136424 7659
L136386 7678
L136293 7678
L136255 7659
L136236 7621
L136236 7584
L136255 7546
L136293 7528
L136386 7528
L136424 7509
" />
<path d="M136611 7678
L136611 7415
" />
<path d="M136611 7284
L136593 7303
L136611 7321
L136630 7303
L136611 7284
L136611 7321
" />
<path d="M136855 7678
L136818 7659
L136799 7621
L136799 7284
" />
<path d="M137005 7640
L137024 7659
L137005 7678
L136986 7659
L137005 7640
L137005 7678
" />
<path d="M137361 7659
L137324 7678
L137249 7678
L137211 7659
L137193 7640
L137174 7603
L137174 7490
L137193 7453
L137211 7434
L137249 7415
L137324 7415
L137361 7434
" />
<path d="M137586 7678
L137549 7659
L137530 7640
L137511 7603
L137511 7490
L137530 7453
L137549 7434
L137586 7415
L137643 7415
L137680 7434
L137699 7453
L137718 7490
L137718 7603
L137699 7640
L137680 7659
L137643 7678
L137586 7678
" />
<path d="M137886 7678
L137886 7415
" />
<path d="M137886 7453
L137905 7434
L137943 7415
L137999 7415
L138036 7434
L138055 7471
L138055 7678
" />
<path d="M138055 7471
L138074 7434
L138111 7415
L138168 7415
L138205 7434
L138224 7471
L138224 7678
" />
<text x="131250" y="45196.9"
textLength="12337.7" font-size="524.934" lengthAdjust="spacingAndGlyphs"
text-anchor="middle" opacity="0">JTNK67 rev0.99 tanakajunjun@gmail.com</text>
<path d="M125325 44784
L125325 45065
L125306 45121
L125269 45159
L125213 45178
L125175 45178
" />
<path d="M125456 44784
L125681 44784
" />
<path d="M125569 45178
L125569 44784
" />
<path d="M125813 45178
L125813 44784
L126038 45178
L126038 44784
" />
<path d="M126225 45178
L126225 44784
" />
<path d="M126450 45178
L126281 44953
" />
<path d="M126450 44784
L126225 45009
" />
<path d="M126788 44784
L126713 44784
L126675 44803
L126656 44821
L126619 44878
L126600 44953
L126600 45103
L126619 45140
L126638 45159
L126675 45178
L126750 45178
L126788 45159
L126806 45140
L126825 45103
L126825 45009
L126806 44971
L126788 44953
L126750 44934
L126675 44934
L126638 44953
L126619 44971
L126600 45009
" />
<path d="M126956 44784
L127219 44784
L127050 45178
" />
<path d="M127669 45178
L127669 44915
" />
<path d="M127669 44990
L127687 44953
L127706 44934
L127744 44915
L127781 44915
" />
<path d="M128062 45159
L128025 45178
L127950 45178
L127912 45159
L127894 45121
L127894 44971
L127912 44934
L127950 44915
L128025 44915
L128062 44934
L128081 44971
L128081 45009
L127894 45046
" />
<path d="M128212 44915
L128306 45178
L128400 44915
" />
<path d="M128625 44784
L128662 44784
L128700 44803
L128719 44821
L128737 44859
L128756 44934
L128756 45028
L128737 45103
L128719 45140
L128700 45159
L128662 45178
L128625 45178
L128587 45159
L128569 45140
L128550 45103
L128531 45028
L128531 44934
L128550 44859
L128569 44821
L128587 44803
L128625 44784
" />
<path d="M128925 45140
L128944 45159
L128925 45178
L128906 45159
L128925 45140
L128925 45178
" />
<path d="M129131 45178
L129206 45178
L129244 45159
L129262 45140
L129300 45084
L129318 45009
L129318 44859
L129300 44821
L129281 44803
L129244 44784
L129169 44784
L129131 44803
L129112 44821
L129094 44859
L129094 44953
L129112 44990
L129131 45009
L129169 45028
L129244 45028
L129281 45009
L129300 44990
L129318 44953
" />
<path d="M129506 45178
L129581 45178
L129618 45159
L129637 45140
L129675 45084
L129693 45009
L129693 44859
L129675 44821
L129656 44803
L129618 44784
L129543 44784
L129506 44803
L129487 44821
L129468 44859
L129468 44953
L129487 44990
L129506 45009
L129543 45028
L129618 45028
L129656 45009
L129675 44990
L129693 44953
" />
<path d="M130106 44915
L130256 44915
" />
<path d="M130162 44784
L130162 45121
L130181 45159
L130218 45178
L130256 45178
" />
<path d="M130556 45178
L130556 44971
L130537 44934
L130500 44915
L130425 44915
L130387 44934
" />
<path d="M130556 45159
L130518 45178
L130425 45178
L130387 45159
L130368 45121
L130368 45084
L130387 45046
L130425 45028
L130518 45028
L130556 45009
" />
<path d="M130743 44915
L130743 45178
" />
<path d="M130743 44953
L130762 44934
L130800 44915
L130856 44915
L130893 44934
L130912 44971
L130912 45178
" />
<path d="M131268 45178
L131268 44971
L131250 44934
L131212 44915
L131137 44915
L131100 44934
" />
<path d="M131268 45159
L131231 45178
L131137 45178
L131100 45159
L131081 45121
L131081 45084
L131100 45046
L131137 45028
L131231 45028
L131268 45009
" />
<path d="M131456 45178
L131456 44784
" />
<path d="M131493 45028
L131606 45178
" />
<path d="M131606 44915
L131456 45065
" />
<path d="M131943 45178
L131943 44971
L131924 44934
L131887 44915
L131812 44915
L131774 44934
" />
<path d="M131943 45159
L131906 45178
L131812 45178
L131774 45159
L131756 45121
L131756 45084
L131774 45046
L131812 45028
L131906 45028
L131943 45009
" />
<path d="M132131 44915
L132131 45253
L132112 45290
L132074 45309
L132056 45309
" />
<path d="M132131 44784
L132112 44803
L132131 44821
L132149 44803
L132131 44784
L132131 44821
" />
<path d="M132487 44915
L132487 45178
" />
<path d="M132318 44915
L132318 45121
L132337 45159
L132374 45178
L132431 45178
L132468 45159
L132487 45140
" />
<path d="M132674 44915
L132674 45178
" />
<path d="M132674 44953
L132693 44934
L132731 44915
L132787 44915
L132824 44934
L132843 44971
L132843 45178
" />
<path d="M133031 44915
L133031 45253
L133012 45290
L132974 45309
L132956 45309
" />
<path d="M133031 44784
L133012 44803
L133031 44821
L133049 44803
L133031 44784
L133031 44821
" />
<path d="M133387 44915
L133387 45178
" />
<path d="M133218 44915
L133218 45121
L133237 45159
L133274 45178
L133330 45178
L133368 45159
L133387 45140
" />
<path d="M133574 44915
L133574 45178
" />
<path d="M133574 44953
L133593 44934
L133630 44915
L133687 44915
L133724 44934
L133743 44971
L133743 45178
" />
<path d="M134174 44990
L134155 44971
L134118 44953
L134080 44953
L134043 44971
L134024 44990
L134005 45028
L134005 45065
L134024 45103
L134043 45121
L134080 45140
L134118 45140
L134155 45121
L134174 45103
" />
<path d="M134174 44953
L134174 45103
L134193 45121
L134212 45121
L134249 45103
L134268 45065
L134268 44971
L134230 44915
L134174 44878
L134099 44859
L134024 44878
L133968 44915
L133930 44971
L133912 45046
L133930 45121
L133968 45178
L134024 45215
L134099 45234
L134174 45215
L134230 45178
" />
<path d="M134605 44915
L134605 45234
L134587 45271
L134568 45290
L134530 45309
L134474 45309
L134437 45290
" />
<path d="M134605 45159
L134568 45178
L134493 45178
L134455 45159
L134437 45140
L134418 45103
L134418 44990
L134437 44953
L134455 44934
L134493 44915
L134568 44915
L134605 44934
" />
<path d="M134793 45178
L134793 44915
" />
<path d="M134793 44953
L134812 44934
L134849 44915
L134905 44915
L134943 44934
L134962 44971
L134962 45178
" />
<path d="M134962 44971
L134980 44934
L135018 44915
L135074 44915
L135112 44934
L135130 44971
L135130 45178
" />
<path d="M135486 45178
L135486 44971
L135468 44934
L135430 44915
L135355 44915
L135318 44934
" />
<path d="M135486 45159
L135449 45178
L135355 45178
L135318 45159
L135299 45121
L135299 45084
L135318 45046
L135355 45028
L135449 45028
L135486 45009
" />
<path d="M135674 45178
L135674 44915
" />
<path d="M135674 44784
L135655 44803
L135674 44821
L135693 44803
L135674 44784
L135674 44821
" />
<path d="M135918 45178
L135880 45159
L135861 45121
L135861 44784
" />
<path d="M136068 45140
L136086 45159
L136068 45178
L136049 45159
L136068 45140
L136068 45178
" />
<path d="M136424 45159
L136386 45178
L136311 45178
L136274 45159
L136255 45140
L136236 45103
L136236 44990
L136255 44953
L136274 44934
L136311 44915
L136386 44915
L136424 44934
" />
<path d="M136649 45178
L136611 45159
L136593 45140
L136574 45103
L136574 44990
L136593 44953
L136611 44934
L136649 44915
L136705 44915
L136743 44934
L136761 44953
L136780 44990
L136780 45103
L136761 45140
L136743 45159
L136705 45178
L136649 45178
" />
<path d="M136949 45178
L136949 44915
" />
<path d="M136949 44953
L136968 44934
L137005 44915
L137061 44915
L137099 44934
L137118 44971
L137118 45178
" />
<path d="M137118 44971
L137136 44934
L137174 44915
L137230 44915
L137267 44934
L137286 44971
L137286 45178
" />
</g>
<g style="fill:#000000; fill-opacity:1.0; 
stroke:#000000; stroke-width:3.93701; stroke-opacity:1; 
stroke-linecap:round; stroke-linejoin:round;">
<path style="fill:#000000; fill-opacity:1.0; 
stroke:#000000; stroke-width:3.93701; stroke-opacity:1; 
stroke-linecap:round; stroke-linejoin:round;fill-rule:evenodd;"
d="M 124840,18076.7
124961,18078.5
125058,18082.2
125140,18088.2
125215,18097.2
125290,18109.7
125348,18121
125714,18215
126068,18345.9
126409,18513.5
126660,18666.5
126796,18765.4
126945,18889.3
127098,19030.1
127249,19179.9
127387,19330.7
127507,19474.6
127562,19549
127757,19860
127916,20183.7
128040,20517.4
128129,20858.6
128183,21204.5
128202,21552.5
128186,21900.1
128137,22244.5
128053,22583.2
127935,22913.4
127784,23232.7
127599,23538.3
127382,23827.6
127155,24075.1
126882,24318.2
126588,24529.7
126272,24709
125939,24854.9
125589,24966.8
125224,25043.6
124951,25077
124840,25086.2
124754,25091.8
124680,25093.7
124606,25091.9
124519,25086.4
124408,25077.1
124387,25075.3
124024,25024.2
123672,24936.8
123333,24814.8
123010,24659.8
122705,24473.5
122421,24257.6
122160,24013.7
121924,23743.4
121716,23448.5
121538,23130.5
121514,23080.3
121374,22738.9
121270,22389.5
121204,22034.6
121175,21677.1
121180,21417.3
121320,21417.3
121322,21760.1
121358,22099.9
121429,22434
121533,22759.8
121670,23074.4
121839,23375.1
122039,23659.1
122271,23923.7
122533,24166.2
122549,24179.1
122826,24382.4
123129,24559.3
123452,24707
123789,24822.7
123904,24853.8
124103,24893.9
124327,24921.8
124564,24936.9
124801,24938.7
125027,24926.5
125152,24912.2
125440,24859.8
125711,24785.5
125979,24684.7
126127,24618.4
126442,24449.5
126731,24252.5
126994,24030.1
127231,23784.8
127439,23518.9
127619,23235.2
127770,22936.1
127890,22624.1
127979,22301.8
128035,21971.6
128059,21636.2
128048,21298
128003,20959.5
127922,20623.3
127805,20291.9
127705,20072.1
127549,19791.7
127377,19538.9
127179,19303.8
127004,19127.7
126732,18895.3
126444,18697.3
126143,18533.2
125833,18402.8
125514,18305.4
125190,18240.7
124864,18208.2
124537,18207.5
124212,18238.2
123891,18299.8
123578,18391.8
123274,18514
122983,18665.7
122705,18846.6
122445,19056.2
122204,19294.2
121985,19560
121790,19853.2
121670,20072.1
121528,20399
121423,20734.1
121353,21074.4
121320,21417.3
121180,21417.3
121182,21319.7
121226,20965
121306,20615.9
121421,20274.9
121573,19944.9
121759,19628.5
121813,19549
121918,19412.4
122047,19264.5
122192,19113.1
122345,18966.3
122497,18832
122641,18718.2
122715,18666.5
123045,18471.2
123388,18312.1
123745,18189.8
124027,18121
124107,18105.7
124181,18094.3
124257,18086.2
124343,18080.9
124447,18077.8
124576,18076.4
124688,18076.2
Z" /> 
<path style="fill:#000000; fill-opacity:1.0; 
stroke:#000000; stroke-width:3.93701; stroke-opacity:1; 
stroke-linecap:round; stroke-linejoin:round;fill-rule:evenodd;"
d="M 123197,22169.6
123329,22175.3
123436,22186.2
123526,22203.6
123606,22228.5
123682,22262.2
123718,22280.9
123857,22377.3
123971,22499.9
124059,22643.6
124119,22803.3
124150,22974
124151,23150.5
124120,23327.8
124056,23500.8
124052,23509.2
123959,23657.6
123837,23779
123689,23872.9
123513,23938.7
123447,23954.8
123388,23963.7
123305,23971.2
123206,23977.3
123099,23981.8
122990,23984.5
122888,23985.2
122799,23983.8
122732,23980.2
122694,23974.1
122689,23971.4
122685,23948.7
122681,23893.1
122679,23810.7
122677,23707.7
122676,23590.1
122676,23571
122676,23183.6
122773,23183.6
122773,23886.7
123053,23886.7
123243,23881.1
123401,23863
123535,23830.4
123648,23781
123749,23713
123843,23624.1
123848,23618.9
123938,23498.3
123998,23361.6
124031,23202.5
124038,23134
124034,22942.4
123997,22770.3
123927,22619.4
123827,22491.4
123698,22387.9
123541,22310.8
123372,22264.3
123318,22257.8
123235,22252.4
123132,22248.4
123020,22246.3
122976,22246.1
122862,22245.8
122781,22244.6
122728,22241.6
122696,22236.2
122681,22227.5
122676,22214.9
122676,22207
122677,22193.2
122686,22183.1
122706,22176.2
122744,22171.7
122805,22169.3
122893,22168.2
123014,22168
123033,22168
Z" /> 
<path style="fill:#000000; fill-opacity:1.0; 
stroke:#000000; stroke-width:3.93701; stroke-opacity:1; 
stroke-linecap:round; stroke-linejoin:round;fill-rule:evenodd;"
d="M 124543,23732.1
124617,23736.7
124659,23743.9
124668,23750
124649,23758.7
124596,23765.1
124514,23768.8
124443,23769.5
124343,23767.9
124270,23763.3
124227,23756.1
124219,23750
124237,23741.3
124290,23734.9
124373,23731.2
124443,23730.5
Z" /> 
<path style="fill:#000000; fill-opacity:1.0; 
stroke:#000000; stroke-width:3.93701; stroke-opacity:1; 
stroke-linecap:round; stroke-linejoin:round;fill-rule:evenodd;"
d="M 125051,23075.9
125056,23077.8
125064,23088.9
125037,23100.4
125003,23107.7
124924,23129.7
124874,23164
124842,23217.6
124841,23219.6
124836,23279.1
124868,23329.3
124938,23370
124995,23389
125121,23429.3
125209,23472.1
125264,23519.4
125286,23573
125282,23621
125248,23684.1
125189,23735.8
125118,23765.8
125085,23769.5
125042,23764.8
125028,23752.4
125029,23750
125057,23733.7
125080,23730.5
125143,23716.8
125200,23682.2
125238,23636.5
125242,23623.3
125247,23575
125232,23535.3
125194,23500.9
125126,23468.9
125027,23436.2
124965,23418.8
124903,23396
124853,23366.9
124843,23358.3
124813,23303.6
124806,23234.2
124824,23166.9
124835,23149.4
124875,23115.9
124935,23088.9
124999,23073.8
Z" /> 
<path style="fill:#000000; fill-opacity:1.0; 
stroke:#000000; stroke-width:3.93701; stroke-opacity:1; 
stroke-linecap:round; stroke-linejoin:round;fill-rule:evenodd;"
d="M 125458,23300.1
125464,23353.6
125468,23437.8
125469,23525.4
125468,23617.9
125467,23694.3
125465,23747.2
125463,23769.3
125462,23769.5
125445,23758.4
125443,23756.5
125436,23731.7
125432,23678.9
125430,23607.1
125430,23525.5
125431,23443.2
125435,23369.4
125440,23313.1
125447,23283.6
125449,23281.2
Z" /> 
<path style="fill:#000000; fill-opacity:1.0; 
stroke:#000000; stroke-width:3.93701; stroke-opacity:1; 
stroke-linecap:round; stroke-linejoin:round;fill-rule:evenodd;"
d="M 126075,23088
126149,23112.8
126194,23140.1
126204,23154.3
126181,23154.3
126127,23138.8
126111,23133.5
126001,23110.7
125896,23120.3
125803,23159.8
125731,23226.8
125703,23272.3
125669,23380.2
125670,23486.3
125705,23583.4
125770,23664.2
125801,23687.8
125845,23713.5
125891,23726.1
125952,23728.7
125999,23726.8
126087,23718.5
126144,23700.9
126175,23667.5
126189,23611.5
126191,23543.7
126194,23477.7
126202,23428.4
126211,23408.2
126222,23419.4
126228,23466.3
126230,23541.5
126229,23617
126224,23663.8
126212,23692.5
126190,23713.6
126177,23722.5
126120,23746.4
126040,23762.2
126006,23765.3
125926,23766.1
125865,23754.3
125802,23726.1
125717,23660.8
125660,23575.8
125631,23478.6
125629,23376.9
125655,23278.4
125708,23190.6
125789,23121.3
125807,23111.3
125884,23086.4
125979,23078.7
Z" /> 
<path style="fill:#000000; fill-opacity:1.0; 
stroke:#000000; stroke-width:3.93701; stroke-opacity:1; 
stroke-linecap:round; stroke-linejoin:round;fill-rule:evenodd;"
d="M 126901,23103.5
126907,23157.3
126911,23245
126914,23365.5
126914,23431.6
126913,23541.3
126911,23634.6
126907,23705.7
126902,23748.8
126898,23758.8
126879,23735.9
126842,23690.2
126795,23629.8
126771,23598.6
126703,23511.7
126626,23413.9
126555,23324.6
126548,23315.4
126436,23173.8
126426,23473.4
126422,23575.1
126416,23660.1
126410,23722.2
126405,23755
126401,23758.2
126396,23734.8
126392,23681.1
126389,23604.9
126388,23513.9
126387,23415.7
126388,23318
126389,23228.5
126392,23154.8
126396,23104.8
126401,23085.9
126401,23085.9
126418,23100.6
126454,23141.3
126506,23203.3
126569,23281.8
126641,23371.9
126865,23657.9
126871,23371.9
126874,23243.7
126880,23153.6
126887,23100.8
126894,23084.4
Z" /> 
<path style="fill:#000000; fill-opacity:1.0; 
stroke:#000000; stroke-width:3.93701; stroke-opacity:1; 
stroke-linecap:round; stroke-linejoin:round;fill-rule:evenodd;"
d="M 124820,23629
124852,23663.8
124860,23673
124885,23713.2
124882,23729.5
124857,23719.4
124824,23691.4
124794,23653.4
124785,23624.5
124800,23614.4
Z" /> 
<path style="fill:#000000; fill-opacity:1.0; 
stroke:#000000; stroke-width:3.93701; stroke-opacity:1; 
stroke-linecap:round; stroke-linejoin:round;fill-rule:evenodd;"
d="M 124518,23400.2
124586,23405.2
124623,23412.9
124629,23418
124610,23426.9
124558,23433.4
124477,23437
124424,23437.5
124330,23435.7
124262,23430.7
124224,23423
124219,23418
124237,23409
124290,23402.5
124370,23399
124424,23398.4
Z" /> 
<path style="fill:#000000; fill-opacity:1.0; 
stroke:#000000; stroke-width:3.93701; stroke-opacity:1; 
stroke-linecap:round; stroke-linejoin:round;fill-rule:evenodd;"
d="M 125464,23102.7
125469,23134.8
125462,23171.5
125449,23183.6
125435,23166.9
125430,23134.8
125436,23098.1
125449,23085.9
Z" /> 
<path style="fill:#000000; fill-opacity:1.0; 
stroke:#000000; stroke-width:3.93701; stroke-opacity:1; 
stroke-linecap:round; stroke-linejoin:round;fill-rule:evenodd;"
d="M 124550,23087.5
124621,23092.2
124655,23099.7
124658,23105.5
124634,23113.7
124579,23120.1
124501,23124.1
124432,23125
124336,23123.3
124265,23118.5
124226,23111
124219,23105.5
124237,23096.8
124291,23090.4
124373,23086.7
124445,23085.9
Z" /> 
<path style="fill:#000000; fill-opacity:1.0; 
stroke:#000000; stroke-width:3.93701; stroke-opacity:1; 
stroke-linecap:round; stroke-linejoin:round;fill-rule:evenodd;"
d="M 122485,21133
122554,21181.7
122614,21224.3
122655,21253.8
122664,21260
122691,21301.2
122689,21359.3
122660,21427.2
122606,21498.1
122588,21516.5
122477,21597.5
122342,21654.1
122192,21684.1
122035,21685.3
121973,21677.3
121821,21634.7
121693,21562.9
121642,21518.7
121598,21467.3
121558,21406.8
121531,21350.8
121523,21319
121542,21314.4
121590,21310.9
121660,21308.9
121701,21308.6
121786,21309.4
121842,21313
121877,21321.6
121900,21337.3
121917,21357
121979,21406.9
122061,21431.9
122150,21431.8
122236,21406.3
122298,21364.6
122322,21336.9
122336,21303.6
122342,21253.5
122344,21176.9
122344,21032.5
Z" /> 
<path style="fill:#000000; fill-opacity:1.0; 
stroke:#000000; stroke-width:3.93701; stroke-opacity:1; 
stroke-linecap:round; stroke-linejoin:round;fill-rule:evenodd;"
d="M 123552,21184.6
123595,21213.3
123658,21255.4
123728,21302.7
123737,21308.6
123866,21396.5
123867,21699.2
123496,21699.2
123496,21148.5
Z" /> 
<path style="fill:#000000; fill-opacity:1.0; 
stroke:#000000; stroke-width:3.93701; stroke-opacity:1; 
stroke-linecap:round; stroke-linejoin:round;fill-rule:evenodd;"
d="M 124704,21126
124748,21154.7
124811,21196.8
124880,21244.1
124889,21250
125018,21337.9
125020,21699.2
124648,21699.2
124648,21089.9
Z" /> 
<path style="fill:#000000; fill-opacity:1.0; 
stroke:#000000; stroke-width:3.93701; stroke-opacity:1; 
stroke-linecap:round; stroke-linejoin:round;fill-rule:evenodd;"
d="M 126031,21130.4
126032,21269.9
126032,21397
126031,21506.5
126030,21592.8
126029,21650.7
126026,21674.5
126005,21688.3
125951,21696.4
125861,21699.2
125854,21699.2
125691,21699.2
125170,21333.2
124648,20967.1
124648,20805.8
124649,20725.9
124653,20677.6
124662,20653.1
124677,20644.9
124683,20644.5
124708,20655.4
124760,20686.1
124834,20733.7
124928,20795.4
125035,20868.2
125152,20949.3
125167,20959.4
125284,21041.5
125392,21116.4
125485,21180.9
125561,21232.3
125613,21267.3
125639,21283.2
125640,21283.7
125651,21278.6
125658,21249.8
125662,21192.5
125664,21101.9
125664,21079.4
125664,20865.6
125845,20738.3
126025,20611
Z" /> 
<path style="fill:#000000; fill-opacity:1.0; 
stroke:#000000; stroke-width:3.93701; stroke-opacity:1; 
stroke-linecap:round; stroke-linejoin:round;fill-rule:evenodd;"
d="M 126343,21157.1
126416,21209.5
126495,21265.9
126528,21289
126621,21354.3
126621,21699.2
126250,21699.2
126250,21090.4
Z" /> 
<path style="fill:#000000; fill-opacity:1.0; 
stroke:#000000; stroke-width:3.93701; stroke-opacity:1; 
stroke-linecap:round; stroke-linejoin:round;fill-rule:evenodd;"
d="M 127750,20643
127753,20690.7
127754,20758.8
127754,20778.1
127754,20931.3
127456,21070.7
127357,21117.7
127272,21159.7
127206,21193.8
127165,21216.9
127154,21225.2
127168,21240.4
127210,21273.9
127274,21322
127356,21381.2
127450,21447.8
127461,21455.1
127557,21522.3
127642,21582.4
127709,21631.8
127754,21666.9
127773,21684
127773,21684.6
127755,21690
127705,21694.4
127631,21697.3
127539,21698.4
127524,21698.3
127275,21697.5
126768,21340.2
126260,20982.9
126254,20813.7
126253,20738
126256,20679.7
126261,20647.9
126264,20644.6
126284,20654.9
126332,20683.6
126401,20727.2
126485,20782.2
126569,20837.9
126860,21031.2
126960,20986.4
127010,20963.7
127088,20928
127185,20883
127295,20832.1
127400,20783.3
127506,20734.1
127599,20691.2
127674,20657
127725,20634.1
127746,20625
127747,20625
Z" /> 
<path style="fill:#000000; fill-opacity:1.0; 
stroke:#000000; stroke-width:3.93701; stroke-opacity:1; 
stroke-linecap:round; stroke-linejoin:round;fill-rule:evenodd;"
d="M 124434,20898.4
123869,20898.4
123863,21089.6
123857,21280.7
123677,21154.2
123598,21098
123546,21057.6
123515,21027
123501,21000.5
123496,20972.1
123496,20963
123496,20898.4
122930,20898.4
122930,20644.5
124434,20644.5
Z" /> 
<path style="fill:#000000; fill-opacity:1.0; 
stroke:#000000; stroke-width:3.93701; stroke-opacity:1; 
stroke-linecap:round; stroke-linejoin:round;fill-rule:evenodd;"
d="M 122715,20918
122714,21012.3
122714,21090.6
122712,21145.7
122710,21170.3
122710,21170.9
122693,21160
122651,21131
122590,21088.5
122524,21042.5
122344,20914.9
122344,20664.1
122715,20664.1
Z" /> 
<g >
</g>
</g> 
</svg>
