<?xml version="1.0" standalone="no"?>
 <!DOCTYPE svg PUBLIC "-//W3C//DTD SVG 1.1//EN" 
 "http://www.w3.org/Graphics/SVG/1.1/DTD/svg11.dtd"> 
<svg
  xmlns:svg="http://www.w3.org/2000/svg"
  xmlns="http://www.w3.org/2000/svg"
  xmlns:xlink="http://www.w3.org/1999/xlink"
  version="1.1"
  width="41.998900cm" height="29.700220cm" viewBox="0 0 165350 116930">
<title>SVG Picture created as jtnk67-Edge_Cuts.svg date 2022/12/27 19:14:54 </title>
  <desc>Picture generated by PCBNEW </desc>
<g style="fill:#000000; fill-opacity:1;stroke:#000000; stroke-opacity:1;
stroke-linecap:round; stroke-linejoin:round;"
 transform="translate(0 0) scale(1 1)">
</g>
<g style="fill:#000000; fill-opacity:0.0; 
stroke:#000000; stroke-width:-0.000393701; stroke-opacity:1; 
stroke-linecap:round; stroke-linejoin:round;">
</g>
<g style="fill:#000000; fill-opacity:0.0; 
stroke:#000000; stroke-width:39.3701; stroke-opacity:1; 
stroke-linecap:round; stroke-linejoin:round;">
<path d="M100250 16000
L94750 16000
" />
<path d="M94750 16000
L94750 21500
" />
<path d="M94750 21500
L100250 21500
" />
<path d="M100250 21500
L100250 16000
" />
<path d="M118062 19750
L112562 19750
" />
<path d="M118062 25250
L118062 19750
" />
<path d="M112562 19750
L112562 25250
" />
<path d="M112562 25250
L118062 25250
" />
<path d="M13187 31000
L13187 36500
" />
<path d="M18687 31000
L13187 31000
" />
<path d="M18687 36500
L18687 31000
" />
<path d="M13187 36500
L18687 36500
" />
<path d="M14937 44000
L14937 38500
" />
<path d="M14937 38500
L9437 38500
" />
<path d="M9437 44000
L14937 44000
" />
<path d="M9437 38500
L9437 44000
" />
<path d="M18812 44000
L24312 44000
" />
<path d="M24312 44000
L24312 38500
" />
<path d="M24312 38500
L18812 38500
" />
<path d="M18812 38500
L18812 44000
" />
<path d="M28187 44000
L33687 44000
" />
<path d="M33687 38500
L28187 38500
" />
<path d="M33687 44000
L33687 38500
" />
<path d="M28187 38500
L28187 44000
" />
<path d="M56312 38500
L56312 44000
" />
<path d="M56312 44000
L61812 44000
" />
<path d="M61812 38500
L56312 38500
" />
<path d="M61812 44000
L61812 38500
" />
<path d="M84437 38500
L84437 44000
" />
<path d="M84437 44000
L89937 44000
" />
<path d="M89937 38500
L84437 38500
" />
<path d="M89937 44000
L89937 38500
" />
<path d="M99312 38500
L93812 38500
" />
<path d="M99312 44000
L99312 38500
" />
<path d="M93812 38500
L93812 44000
" />
<path d="M93812 44000
L99312 44000
" />
<path d="M108687 44000
L108687 38500
" />
<path d="M103187 44000
L108687 44000
" />
<path d="M103187 38500
L103187 44000
" />
<path d="M108687 38500
L103187 38500
" />
<path d="M116312 44000
L121812 44000
" />
<path d="M116312 38500
L116312 44000
" />
<path d="M121812 38500
L116312 38500
" />
<path d="M121812 44000
L121812 38500
" />
<path d="M129312 44000
L129312 38500
" />
<path d="M129312 38500
L123812 38500
" />
<path d="M123812 44000
L129312 44000
" />
<path d="M123812 38500
L123812 44000
" />
<path d="M136812 44000
L136812 38500
" />
<path d="M136812 38500
L131312 38500
" />
<path d="M131312 44000
L136812 44000
" />
<path d="M131312 38500
L131312 44000
" />
<path d="M131312 29000
L136812 29000
" />
<path d="M131312 23500
L131312 29000
" />
<path d="M136812 29000
L136812 23500
" />
<path d="M136812 23500
L131312 23500
" />
<path d="M129312 31000
L123812 31000
" />
<path d="M123812 31000
L123812 36500
" />
<path d="M123812 36500
L129312 36500
" />
<path d="M129312 36500
L129312 31000
" />
<path d="M116187 36500
L116187 31000
" />
<path d="M116187 31000
L110687 31000
" />
<path d="M110687 31000
L110687 36500
" />
<path d="M110687 36500
L116187 36500
" />
<path d="M105875 36500
L105875 31000
" />
<path d="M100375 31000
L100375 36500
" />
<path d="M105875 31000
L100375 31000
" />
<path d="M100375 36500
L105875 36500
" />
<path d="M98375 31000
L92875 31000
" />
<path d="M92875 36500
L98375 36500
" />
<path d="M98375 36500
L98375 31000
" />
<path d="M92875 31000
L92875 36500
" />
<path d="M90875 36500
L90875 31000
" />
<path d="M85375 31000
L85375 36500
" />
<path d="M90875 31000
L85375 31000
" />
<path d="M85375 36500
L90875 36500
" />
<path d="M77875 31000
L77875 36500
" />
<path d="M83375 31000
L77875 31000
" />
<path d="M83375 36500
L83375 31000
" />
<path d="M77875 36500
L83375 36500
" />
<path d="M75875 31000
L70375 31000
" />
<path d="M75875 36500
L75875 31000
" />
<path d="M70375 31000
L70375 36500
" />
<path d="M70375 36500
L75875 36500
" />
<path d="M62875 36500
L68375 36500
" />
<path d="M68375 36500
L68375 31000
" />
<path d="M62875 31000
L62875 36500
" />
<path d="M68375 31000
L62875 31000
" />
<path d="M55375 36500
L60875 36500
" />
<path d="M55375 31000
L55375 36500
" />
<path d="M60875 31000
L55375 31000
" />
<path d="M60875 36500
L60875 31000
" />
<path d="M47875 36500
L53375 36500
" />
<path d="M53375 31000
L47875 31000
" />
<path d="M53375 36500
L53375 31000
" />
<path d="M47875 31000
L47875 36500
" />
<path d="M40375 31000
L40375 36500
" />
<path d="M45875 31000
L40375 31000
" />
<path d="M45875 36500
L45875 31000
" />
<path d="M40375 36500
L45875 36500
" />
<path d="M38375 31000
L32875 31000
" />
<path d="M38375 36500
L38375 31000
" />
<path d="M32875 36500
L38375 36500
" />
<path d="M32875 31000
L32875 36500
" />
<path d="M30875 36500
L30875 31000
" />
<path d="M25375 31000
L25375 36500
" />
<path d="M30875 31000
L25375 31000
" />
<path d="M25375 36500
L30875 36500
" />
<path d="M16812 23500
L11312 23500
" />
<path d="M11312 29000
L16812 29000
" />
<path d="M11312 23500
L11312 29000
" />
<path d="M16812 29000
L16812 23500
" />
<path d="M21625 23500
L21625 29000
" />
<path d="M27125 29000
L27125 23500
" />
<path d="M27125 23500
L21625 23500
" />
<path d="M21625 29000
L27125 29000
" />
<path d="M29125 29000
L34625 29000
" />
<path d="M29125 23500
L29125 29000
" />
<path d="M34625 29000
L34625 23500
" />
<path d="M34625 23500
L29125 23500
" />
<path d="M36625 29000
L42125 29000
" />
<path d="M36625 23500
L36625 29000
" />
<path d="M42125 29000
L42125 23500
" />
<path d="M42125 23500
L36625 23500
" />
<path d="M49625 29000
L49625 23500
" />
<path d="M44125 29000
L49625 29000
" />
<path d="M44125 23500
L44125 29000
" />
<path d="M49625 23500
L44125 23500
" />
<path d="M51625 29000
L57125 29000
" />
<path d="M51625 23500
L51625 29000
" />
<path d="M57125 29000
L57125 23500
" />
<path d="M57125 23500
L51625 23500
" />
<path d="M59125 23500
L59125 29000
" />
<path d="M64625 29000
L64625 23500
" />
<path d="M64625 23500
L59125 23500
" />
<path d="M59125 29000
L64625 29000
" />
<path d="M66625 29000
L72125 29000
" />
<path d="M72125 23500
L66625 23500
" />
<path d="M66625 23500
L66625 29000
" />
<path d="M72125 29000
L72125 23500
" />
<path d="M74125 23500
L74125 29000
" />
<path d="M74125 29000
L79625 29000
" />
<path d="M79625 23500
L74125 23500
" />
<path d="M79625 29000
L79625 23500
" />
<path d="M87125 29000
L87125 23500
" />
<path d="M87125 23500
L81625 23500
" />
<path d="M81625 29000
L87125 29000
" />
<path d="M81625 23500
L81625 29000
" />
<path d="M94625 29000
L94625 23500
" />
<path d="M94625 23500
L89125 23500
" />
<path d="M89125 29000
L94625 29000
" />
<path d="M89125 23500
L89125 29000
" />
<path d="M102125 29000
L102125 23500
" />
<path d="M96625 29000
L102125 29000
" />
<path d="M102125 23500
L96625 23500
" />
<path d="M96625 23500
L96625 29000
" />
<path d="M109625 23500
L104125 23500
" />
<path d="M104125 23500
L104125 29000
" />
<path d="M109625 29000
L109625 23500
" />
<path d="M104125 29000
L109625 29000
" />
<path d="M107750 21500
L107750 16000
" />
<path d="M102250 21500
L107750 21500
" />
<path d="M107750 16000
L102250 16000
" />
<path d="M102250 16000
L102250 21500
" />
<path d="M92750 16000
L87250 16000
" />
<path d="M92750 21500
L92750 16000
" />
<path d="M87250 16000
L87250 21500
" />
<path d="M87250 21500
L92750 21500
" />
<path d="M85250 21500
L85250 16000
" />
<path d="M79750 21500
L85250 21500
" />
<path d="M79750 16000
L79750 21500
" />
<path d="M85250 16000
L79750 16000
" />
<path d="M72250 21500
L77750 21500
" />
<path d="M77750 16000
L72250 16000
" />
<path d="M77750 21500
L77750 16000
" />
<path d="M72250 16000
L72250 21500
" />
<path d="M64750 16000
L64750 21500
" />
<path d="M70250 21500
L70250 16000
" />
<path d="M70250 16000
L64750 16000
" />
<path d="M64750 21500
L70250 21500
" />
<path d="M62750 21500
L62750 16000
" />
<path d="M62750 16000
L57250 16000
" />
<path d="M57250 21500
L62750 21500
" />
<path d="M57250 16000
L57250 21500
" />
<path d="M49750 21500
L55250 21500
" />
<path d="M55250 21500
L55250 16000
" />
<path d="M55250 16000
L49750 16000
" />
<path d="M49750 16000
L49750 21500
" />
<path d="M42250 16000
L42250 21500
" />
<path d="M42250 21500
L47750 21500
" />
<path d="M47750 21500
L47750 16000
" />
<path d="M47750 16000
L42250 16000
" />
<path d="M34750 21500
L40250 21500
" />
<path d="M40250 16000
L34750 16000
" />
<path d="M34750 16000
L34750 21500
" />
<path d="M40250 21500
L40250 16000
" />
<path d="M27250 16000
L27250 21500
" />
<path d="M32750 21500
L32750 16000
" />
<path d="M32750 16000
L27250 16000
" />
<path d="M27250 21500
L32750 21500
" />
<path d="M19750 16000
L19750 21500
" />
<path d="M25250 21500
L25250 16000
" />
<path d="M25250 16000
L19750 16000
" />
<path d="M19750 21500
L25250 21500
" />
<path d="M15875 16000
L10375 16000
" />
<path d="M15875 21500
L15875 16000
" />
<path d="M10375 16000
L10375 21500
" />
<path d="M10375 21500
L15875 21500
" />
<path d="M113500 8500
L113500 14000
" />
<path d="M119000 8500
L113500 8500
" />
<path d="M113500 14000
L119000 14000
" />
<path d="M119000 14000
L119000 8500
" />
<path d="M106000 14000
L111500 14000
" />
<path d="M106000 8500
L106000 14000
" />
<path d="M111500 14000
L111500 8500
" />
<path d="M111500 8500
L106000 8500
" />
<path d="M104000 14000
L104000 8500
" />
<path d="M98500 14000
L104000 14000
" />
<path d="M98500 8500
L98500 14000
" />
<path d="M104000 8500
L98500 8500
" />
<path d="M91000 8500
L91000 14000
" />
<path d="M96500 14000
L96500 8500
" />
<path d="M96500 8500
L91000 8500
" />
<path d="M91000 14000
L96500 14000
" />
<path d="M89000 8500
L83500 8500
" />
<path d="M89000 14000
L89000 8500
" />
<path d="M83500 8500
L83500 14000
" />
<path d="M83500 14000
L89000 14000
" />
<path d="M81500 8500
L76000 8500
" />
<path d="M76000 14000
L81500 14000
" />
<path d="M81500 14000
L81500 8500
" />
<path d="M76000 8500
L76000 14000
" />
<path d="M74000 8500
L68500 8500
" />
<path d="M68500 14000
L74000 14000
" />
<path d="M74000 14000
L74000 8500
" />
<path d="M68500 8500
L68500 14000
" />
<path d="M61000 14000
L66500 14000
" />
<path d="M66500 8500
L61000 8500
" />
<path d="M61000 8500
L61000 14000
" />
<path d="M66500 14000
L66500 8500
" />
<path d="M53500 8500
L53500 14000
" />
<path d="M53500 14000
L59000 14000
" />
<path d="M59000 14000
L59000 8500
" />
<path d="M59000 8500
L53500 8500
" />
<path d="M46000 8500
L46000 14000
" />
<path d="M51500 14000
L51500 8500
" />
<path d="M51500 8500
L46000 8500
" />
<path d="M46000 14000
L51500 14000
" />
<path d="M38500 8500
L38500 14000
" />
<path d="M44000 8500
L38500 8500
" />
<path d="M44000 14000
L44000 8500
" />
<path d="M38500 14000
L44000 14000
" />
<path d="M36500 8500
L31000 8500
" />
<path d="M31000 8500
L31000 14000
" />
<path d="M31000 14000
L36500 14000
" />
<path d="M36500 14000
L36500 8500
" />
<path d="M29000 14000
L29000 8500
" />
<path d="M23500 8500
L23500 14000
" />
<path d="M29000 8500
L23500 8500
" />
<path d="M23500 14000
L29000 14000
" />
<path d="M21500 8500
L16000 8500
" />
<path d="M21500 14000
L21500 8500
" />
<path d="M16000 8500
L16000 14000
" />
<path d="M16000 14000
L21500 14000
" />
<path d="M14000 8500
L8500 8500
" />
<path d="M14000 14000
L14000 8500
" />
<path d="M8500 14000
L14000 14000
" />
<path d="M8500 8500
L8500 14000
" />
<path d="M5620 7972
L5620 44507
" />
<path d="M5620.08 44507.9 A1181.1 1181.1 0.0 0 0 6801.18 45689" />
<path d="M6801.18 6791.34 A1181.1 1181.1 0.0 0 0 5620.08 7972.44" />
<path d="M139688 7972.44 A1181.1 1181.1 0.0 0 0 138506 6791.34" />
<path d="M138506 45689 A1181.1 1181.1 0.0 0 0 139688 44507.9" />
<path d="M139687 44507
L139687 7972
" />
<path d="M6801 45688
L138506 45688
" />
<path d="M138506 6791
L6801 6791
" />
</g>
<g style="fill:#000000; fill-opacity:0.0; 
stroke:#000000; stroke-width:3.93701; stroke-opacity:1; 
stroke-linecap:round; stroke-linejoin:round;">
<circle cx="138750" cy="26240.2" r="433.071" /> 
<circle cx="138750" cy="8437.48" r="433.071" /> 
<circle cx="138750" cy="44062.6" r="433.071" /> 
</g>
<g style="fill:#000000; fill-opacity:0.0; 
stroke:#000000; stroke-width:59.0551; stroke-opacity:1; 
stroke-linecap:round; stroke-linejoin:round;">
<path d="M118088 25275
L112536 25275
" />
<path d="M118088 19724
L118088 25275
" />
<path d="M112536 19724
L118088 19724
" />
<path d="M112536 25275
L112536 19724
" />
</g>
<g style="fill:#000000; fill-opacity:0.0; 
stroke:#000000; stroke-width:47.2441; stroke-opacity:1; 
stroke-linecap:round; stroke-linejoin:round;">
<path d="M112950 19192
L118777 19192
" />
<path d="M118777 19192
L118777 16437
" />
<path d="M118777 16437
L112950 16437
" />
<path d="M112950 16437
L112950 19192
" />
<path d="M112950 25807
L118777 25807
" />
<path d="M118777 25807
L118777 28562
" />
<path d="M118777 28562
L112950 28562
" />
<path d="M112950 28562
L112950 25807
" />
</g>
<g style="fill:#000000; fill-opacity:0.0; 
stroke:#000000; stroke-width:3.93701; stroke-opacity:1; 
stroke-linecap:round; stroke-linejoin:round;">
<circle cx="44062.6" cy="44062.6" r="433.071" /> 
</g>
<g style="fill:#000000; fill-opacity:0.0; 
stroke:#000000; stroke-width:47.2441; stroke-opacity:1; 
stroke-linecap:round; stroke-linejoin:round;">
<path d="M80129 43612
L77373 43612
" />
<path d="M80129 37785
L80129 43612
" />
<path d="M77373 37785
L80129 37785
" />
<path d="M77373 43612
L77373 37785
" />
<path d="M37995 43612
L40751 43612
" />
<path d="M37995 37785
L37995 43612
" />
<path d="M40751 37785
L37995 37785
" />
<path d="M40751 43612
L40751 37785
" />
</g>
<g style="fill:#000000; fill-opacity:0.0; 
stroke:#000000; stroke-width:59.0551; stroke-opacity:1; 
stroke-linecap:round; stroke-linejoin:round;">
<path d="M61838 44025
L56286 44025
" />
<path d="M56286 44025
L56286 38474
" />
<path d="M56286 38474
L61838 38474
" />
<path d="M61838 38474
L61838 44025
" />
</g>
<g style="fill:#000000; fill-opacity:0.0; 
stroke:#000000; stroke-width:47.2441; stroke-opacity:1; 
stroke-linecap:round; stroke-linejoin:round;">
<path d="M22000 36112
L19244 36112
" />
<path d="M22000 30285
L22000 36112
" />
<path d="M19244 30285
L22000 30285
" />
<path d="M19244 36112
L19244 30285
" />
<path d="M9874 36112
L12630 36112
" />
<path d="M9874 30285
L9874 36112
" />
<path d="M12630 30285
L9874 30285
" />
<path d="M12630 36112
L12630 30285
" />
</g>
<g style="fill:#000000; fill-opacity:0.0; 
stroke:#000000; stroke-width:59.0551; stroke-opacity:1; 
stroke-linecap:round; stroke-linejoin:round;">
<path d="M18713 36525
L13161 36525
" />
<path d="M13161 36525
L13161 30974
" />
<path d="M13161 30974
L18713 30974
" />
<path d="M18713 30974
L18713 36525
" />
</g>
<g style="fill:#000000; fill-opacity:0.0; 
stroke:#000000; stroke-width:3.93701; stroke-opacity:1; 
stroke-linecap:round; stroke-linejoin:round;">
<circle cx="44062.6" cy="7500" r="433.071" /> 
<circle cx="82500" cy="44062.6" r="433.071" /> 
<circle cx="82500" cy="7500" r="433.071" /> 
<circle cx="6328.74" cy="43996.1" r="433.071" /> 
<circle cx="6328.74" cy="26240.2" r="433.071" /> 
<circle cx="6328.74" cy="8484.25" r="433.071" /> 
<g >
</g>
<g >
</g>
<g >
</g>
<g >
</g>
<g >
</g>
<g >
</g>
<g >
</g>
<g >
</g>
<g >
</g>
<g >
</g>
<g >
</g>
<g >
</g>
<g >
</g>
<g >
</g>
<g >
</g>
</g> 
</svg>
